<svg width="199" height="249" viewBox="0 0 199 249" fill="none" xmlns="http://www.w3.org/2000/svg">
<path d="M121.885 96.9622C121.427 96.5031 120.74 96.5031 120.282 96.9622C119.748 97.4977 119.748 98.4158 120.282 98.9513C120.969 99.6399 122.114 99.6399 122.8 98.9513C123.64 98.1098 123.64 96.6562 122.8 95.8146C121.732 94.7435 119.977 94.7435 118.909 95.8146C117.535 97.1917 117.535 99.3339 118.909 100.711C120.587 102.394 123.335 102.394 125.014 100.711C127.074 98.5688 127.074 95.126 125.014 93.0603C122.419 90.4591 118.145 90.4591 115.551 93.0603C112.269 96.2736 112.269 101.629 115.551 104.919C119.595 109.05 126.235 109.05 130.355 104.919C135.468 99.7929 135.468 91.4537 130.355 86.3278C123.945 79.9013 113.567 79.9013 107.156 86.3278C99.1434 94.361 99.1434 107.367 107.156 115.4C117.23 125.422 133.408 125.422 143.405 115.4C155.92 102.853 155.92 82.579 143.405 70.032C127.837 54.3482 102.501 54.3482 86.857 70.032C67.3208 89.6176 67.3208 121.368 86.857 140.953C111.277 165.435 150.884 165.435 175.304 140.953C205.829 110.351 205.829 60.7747 175.304 30.1723C137.147 -8.08085 75.3337 -8.08085 37.1771 30.1723C-10.5187 77.9886 -10.5187 155.489 37.1771 203.306C66.0658 232.268 103.65 247.191 141.5 248.077" stroke="#979797" stroke-miterlimit="10"/>
</svg>
