<svg width="271" height="122" viewBox="0 0 271 122" fill="none" xmlns="http://www.w3.org/2000/svg">
<path opacity="0.7" fill-rule="evenodd" clip-rule="evenodd" d="M135.492 1.83429C209.409 1.83429 269.412 15.7681 270.1 33.0178L270.111 61.0956V90.4803H270.1C269.413 107.73 209.41 121.664 135.492 121.664C61.5734 121.664 1.57035 107.73 0.88292 90.4803H0.876954L0.876954 90.1853L0.876953 90.1807L0.876954 90.1762L0.876953 61.3961L0.876953 61.0956L0.882941 33.0178C1.57157 15.7681 61.5741 1.83429 135.492 1.83429Z" fill="#161616"/>
<mask id="path-2-inside-1" fill="white">
<path fill-rule="evenodd" clip-rule="evenodd" d="M269.261 32.7652C269.119 34.4545 268.317 36.1702 266.796 37.9081C265.106 39.8392 262.569 41.7497 259.221 43.6012C252.525 47.3039 242.769 50.6705 230.628 53.5101C216.931 56.7134 200.269 59.23 181.678 60.8146L181.701 60.5449C178.361 60.2606 174.959 60.0064 171.501 59.7836L171.468 60.2826L171.436 60.7815C173.352 60.905 175.251 61.038 177.131 61.1806C164.077 62.17 150.143 62.7051 135.669 62.7051C121.195 62.7051 107.261 62.17 94.2066 61.1806C96.087 61.0381 97.9856 60.905 99.9014 60.7815L99.8693 60.2826L99.8372 59.7836C96.3792 60.0064 92.977 60.2606 89.6365 60.5449L89.6594 60.8146C71.0683 59.23 54.4063 56.7134 40.7097 53.5101C28.5687 50.6705 18.8129 47.3039 12.1168 43.6012C8.7684 41.7497 6.23133 39.8392 4.5417 37.9081C2.85773 35.9834 2.0542 34.086 2.0542 32.2215C2.0542 30.357 2.85773 28.4596 4.5417 26.5349C6.23133 24.6038 8.7684 22.6933 12.1168 20.8418C18.8129 17.1391 28.5687 13.7725 40.7097 10.933C64.9757 5.25764 98.5493 1.73792 135.669 1.73792C172.788 1.73792 206.362 5.25764 230.628 10.933C242.769 13.7725 252.525 17.1391 259.221 20.8418C262.569 22.6933 265.106 24.6038 266.796 26.5349C268.317 28.2729 269.119 29.9885 269.261 31.6778V32.7652ZM270.261 32.8064C270.276 32.6119 270.284 32.4169 270.284 32.2215C270.284 14.8336 210.014 0.737915 135.669 0.737915C61.3232 0.737915 1.0542 14.8336 1.0542 32.2215C1.0542 32.2514 1.05438 32.2812 1.05474 32.3111H1.0542L1.0542 90.1334L1.0542 90.1396L1.0542 90.1458L1.0542 90.4393H1.05997C1.07858 90.9044 1.1403 91.367 1.24425 91.8271C1.4824 92.8817 1.94248 93.9226 2.61376 94.9473L2.61408 94.947C4.12829 97.2579 6.71674 99.4859 10.2565 101.603L10.2561 101.603C12.8387 103.148 15.9277 104.632 19.4754 106.047L19.4758 106.046C22.3987 107.211 25.6329 108.329 29.1518 109.392L29.1515 109.393C32.2351 110.325 35.5373 111.215 39.04 112.06L39.0402 112.059C42.217 112.824 45.5587 113.553 49.0521 114.24L49.0519 114.241C52.2854 114.877 55.6488 115.479 59.1314 116.043L59.1316 116.042C62.4051 116.572 65.7841 117.069 69.2595 117.531L69.2594 117.532C72.5645 117.971 75.9569 118.378 79.429 118.752L79.4291 118.751C82.7605 119.11 86.1652 119.438 89.6366 119.733L89.6365 119.734C92.977 120.019 96.3792 120.273 99.8371 120.496L99.8372 120.495C103.196 120.711 106.608 120.898 110.066 121.053L110.066 121.055C113.435 121.206 116.848 121.329 120.301 121.42L120.301 121.419C123.678 121.509 127.092 121.57 130.54 121.6L130.54 121.601C132.242 121.616 133.952 121.623 135.669 121.623C137.386 121.623 139.096 121.616 140.797 121.601L140.797 121.6C144.245 121.57 147.66 121.509 151.037 121.419L151.037 121.42C154.49 121.329 157.903 121.206 161.271 121.055L161.271 121.053C164.73 120.898 168.142 120.711 171.5 120.495L171.501 120.496C174.959 120.273 178.361 120.019 181.701 119.734L181.701 119.733C185.173 119.438 188.577 119.11 191.909 118.751L191.909 118.752C195.381 118.378 198.773 117.971 202.078 117.532L202.078 117.531C205.554 117.069 208.933 116.572 212.206 116.042L212.206 116.043C215.689 115.479 219.052 114.877 222.286 114.241L222.286 114.24C225.779 113.553 229.121 112.824 232.297 112.058L232.298 112.06C235.8 111.215 239.103 110.325 242.186 109.393L242.186 109.392C245.705 108.329 248.939 107.211 251.862 106.046L251.862 106.047C255.41 104.632 258.499 103.148 261.082 101.603L261.081 101.602C264.621 99.4857 267.209 97.2576 268.723 94.9468L268.724 94.9472C269.751 93.3798 270.284 91.7743 270.284 90.1396C270.284 89.9442 270.276 89.7493 270.261 89.5547V32.8064ZM269.261 90.6792V89.5954C269.158 88.3677 268.707 87.1304 267.887 85.88L268.306 85.606L268.724 85.332C268.921 85.6331 269.1 85.9356 269.261 86.2394V36.1217C261.047 51.6693 204.368 63.7051 135.669 63.7051C66.9061 63.7051 10.1851 51.6469 2.0542 36.0784L2.0542 86.2828C2.2205 85.9644 2.40712 85.6474 2.61375 85.332L3.03199 85.606L3.45022 85.88C2.51115 87.3134 2.05546 88.7296 2.0542 90.1338L2.0542 90.1396L2.0542 90.1455C2.05443 90.3995 2.06953 90.6539 2.09967 90.9087C2.10597 90.962 2.11294 91.0154 2.12057 91.0688C2.34462 92.6331 3.13672 94.2196 4.54145 95.8251C6.23108 97.7563 8.76815 99.6668 12.1165 101.518C18.8127 105.221 28.5684 108.588 40.7094 111.427C64.9754 117.102 98.5491 120.622 135.669 120.622C172.788 120.622 206.362 117.102 230.628 111.427C242.769 108.588 252.525 105.221 259.221 101.518C262.569 99.6668 265.106 97.7563 266.796 95.8251C268.317 94.0862 269.12 92.3695 269.261 90.6792ZM261.082 78.6761L260.825 79.1052L260.568 79.5343C258.043 78.0239 255.004 76.5614 251.492 75.1612L251.677 74.6968L251.862 74.2323C255.41 75.6468 258.499 77.1317 261.082 78.6761ZM242.186 70.8862L242.042 71.3649L241.897 71.8435C238.834 70.9178 235.55 70.0324 232.063 69.1919L232.181 68.7058L232.298 68.2197C235.8 69.0642 239.103 69.9544 242.186 70.8862ZM222.286 66.0382L222.189 66.5288L222.093 67.0194C218.871 66.3854 215.519 65.786 212.046 65.2237L212.126 64.7302L212.206 64.2366C215.689 64.8005 219.052 65.4019 222.286 66.0382ZM202.078 62.7476L202.012 63.2432L201.947 63.7389C198.65 63.3007 195.266 62.8943 191.802 62.5212L191.855 62.0241L191.909 61.5269C195.381 61.9009 198.773 62.3083 202.078 62.7476ZM161.271 59.2247L161.249 59.7242L161.226 60.2237C157.864 60.0723 154.457 59.9502 151.01 59.8586L151.024 59.3588L151.037 58.859C154.49 58.9507 157.903 59.0731 161.271 59.2247ZM140.797 58.6785L140.793 59.1784L140.789 59.6784C139.09 59.6635 137.383 59.656 135.669 59.656C133.955 59.656 132.248 59.6635 130.549 59.6784L130.545 59.1784L130.54 58.6785C132.242 58.6636 133.952 58.656 135.669 58.656C137.386 58.656 139.096 58.6636 140.797 58.6785ZM120.301 58.859L120.314 59.3588L120.327 59.8586C116.881 59.9502 113.474 60.0723 110.111 60.2237L110.089 59.7242L110.066 59.2247C113.435 59.0731 116.848 58.9507 120.301 58.859ZM79.429 61.5269L79.4826 62.0241L79.5361 62.5212C76.0719 62.8943 72.6878 63.3007 69.3911 63.7389L69.3253 63.2432L69.2594 62.7476C72.5645 62.3083 75.9569 61.9009 79.429 61.5269ZM59.1314 64.2366L59.2113 64.7302L59.2913 65.2237C55.819 65.786 52.4668 66.3854 49.245 67.0194L49.1484 66.5288L49.0519 66.0382C52.2854 65.4019 55.6488 64.8005 59.1314 64.2366ZM39.04 68.2197L39.1572 68.7058L39.2744 69.1919C35.7879 70.0324 32.5042 70.9178 29.4408 71.8435L29.2962 71.3649L29.1515 70.8862C32.2351 69.9544 35.5373 69.0642 39.04 68.2197ZM19.4754 74.2323L19.6606 74.6968L19.8458 75.1612C16.3339 76.5614 13.2952 78.0239 10.7693 79.5343L10.5127 79.1052L10.256 78.6761C12.8387 77.1317 15.9277 75.6468 19.4754 74.2323Z"/>
</mask>
<path fill-rule="evenodd" clip-rule="evenodd" d="M269.261 32.7652C269.119 34.4545 268.317 36.1702 266.796 37.9081C265.106 39.8392 262.569 41.7497 259.221 43.6012C252.525 47.3039 242.769 50.6705 230.628 53.5101C216.931 56.7134 200.269 59.23 181.678 60.8146L181.701 60.5449C178.361 60.2606 174.959 60.0064 171.501 59.7836L171.468 60.2826L171.436 60.7815C173.352 60.905 175.251 61.038 177.131 61.1806C164.077 62.17 150.143 62.7051 135.669 62.7051C121.195 62.7051 107.261 62.17 94.2066 61.1806C96.087 61.0381 97.9856 60.905 99.9014 60.7815L99.8693 60.2826L99.8372 59.7836C96.3792 60.0064 92.977 60.2606 89.6365 60.5449L89.6594 60.8146C71.0683 59.23 54.4063 56.7134 40.7097 53.5101C28.5687 50.6705 18.8129 47.3039 12.1168 43.6012C8.7684 41.7497 6.23133 39.8392 4.5417 37.9081C2.85773 35.9834 2.0542 34.086 2.0542 32.2215C2.0542 30.357 2.85773 28.4596 4.5417 26.5349C6.23133 24.6038 8.7684 22.6933 12.1168 20.8418C18.8129 17.1391 28.5687 13.7725 40.7097 10.933C64.9757 5.25764 98.5493 1.73792 135.669 1.73792C172.788 1.73792 206.362 5.25764 230.628 10.933C242.769 13.7725 252.525 17.1391 259.221 20.8418C262.569 22.6933 265.106 24.6038 266.796 26.5349C268.317 28.2729 269.119 29.9885 269.261 31.6778V32.7652ZM270.261 32.8064C270.276 32.6119 270.284 32.4169 270.284 32.2215C270.284 14.8336 210.014 0.737915 135.669 0.737915C61.3232 0.737915 1.0542 14.8336 1.0542 32.2215C1.0542 32.2514 1.05438 32.2812 1.05474 32.3111H1.0542L1.0542 90.1334L1.0542 90.1396L1.0542 90.1458L1.0542 90.4393H1.05997C1.07858 90.9044 1.1403 91.367 1.24425 91.8271C1.4824 92.8817 1.94248 93.9226 2.61376 94.9473L2.61408 94.947C4.12829 97.2579 6.71674 99.4859 10.2565 101.603L10.2561 101.603C12.8387 103.148 15.9277 104.632 19.4754 106.047L19.4758 106.046C22.3987 107.211 25.6329 108.329 29.1518 109.392L29.1515 109.393C32.2351 110.325 35.5373 111.215 39.04 112.06L39.0402 112.059C42.217 112.824 45.5587 113.553 49.0521 114.24L49.0519 114.241C52.2854 114.877 55.6488 115.479 59.1314 116.043L59.1316 116.042C62.4051 116.572 65.7841 117.069 69.2595 117.531L69.2594 117.532C72.5645 117.971 75.9569 118.378 79.429 118.752L79.4291 118.751C82.7605 119.11 86.1652 119.438 89.6366 119.733L89.6365 119.734C92.977 120.019 96.3792 120.273 99.8371 120.496L99.8372 120.495C103.196 120.711 106.608 120.898 110.066 121.053L110.066 121.055C113.435 121.206 116.848 121.329 120.301 121.42L120.301 121.419C123.678 121.509 127.092 121.57 130.54 121.6L130.54 121.601C132.242 121.616 133.952 121.623 135.669 121.623C137.386 121.623 139.096 121.616 140.797 121.601L140.797 121.6C144.245 121.57 147.66 121.509 151.037 121.419L151.037 121.42C154.49 121.329 157.903 121.206 161.271 121.055L161.271 121.053C164.73 120.898 168.142 120.711 171.5 120.495L171.501 120.496C174.959 120.273 178.361 120.019 181.701 119.734L181.701 119.733C185.173 119.438 188.577 119.11 191.909 118.751L191.909 118.752C195.381 118.378 198.773 117.971 202.078 117.532L202.078 117.531C205.554 117.069 208.933 116.572 212.206 116.042L212.206 116.043C215.689 115.479 219.052 114.877 222.286 114.241L222.286 114.24C225.779 113.553 229.121 112.824 232.297 112.058L232.298 112.06C235.8 111.215 239.103 110.325 242.186 109.393L242.186 109.392C245.705 108.329 248.939 107.211 251.862 106.046L251.862 106.047C255.41 104.632 258.499 103.148 261.082 101.603L261.081 101.602C264.621 99.4857 267.209 97.2576 268.723 94.9468L268.724 94.9472C269.751 93.3798 270.284 91.7743 270.284 90.1396C270.284 89.9442 270.276 89.7493 270.261 89.5547V32.8064ZM269.261 90.6792V89.5954C269.158 88.3677 268.707 87.1304 267.887 85.88L268.306 85.606L268.724 85.332C268.921 85.6331 269.1 85.9356 269.261 86.2394V36.1217C261.047 51.6693 204.368 63.7051 135.669 63.7051C66.9061 63.7051 10.1851 51.6469 2.0542 36.0784L2.0542 86.2828C2.2205 85.9644 2.40712 85.6474 2.61375 85.332L3.03199 85.606L3.45022 85.88C2.51115 87.3134 2.05546 88.7296 2.0542 90.1338L2.0542 90.1396L2.0542 90.1455C2.05443 90.3995 2.06953 90.6539 2.09967 90.9087C2.10597 90.962 2.11294 91.0154 2.12057 91.0688C2.34462 92.6331 3.13672 94.2196 4.54145 95.8251C6.23108 97.7563 8.76815 99.6668 12.1165 101.518C18.8127 105.221 28.5684 108.588 40.7094 111.427C64.9754 117.102 98.5491 120.622 135.669 120.622C172.788 120.622 206.362 117.102 230.628 111.427C242.769 108.588 252.525 105.221 259.221 101.518C262.569 99.6668 265.106 97.7563 266.796 95.8251C268.317 94.0862 269.12 92.3695 269.261 90.6792ZM261.082 78.6761L260.825 79.1052L260.568 79.5343C258.043 78.0239 255.004 76.5614 251.492 75.1612L251.677 74.6968L251.862 74.2323C255.41 75.6468 258.499 77.1317 261.082 78.6761ZM242.186 70.8862L242.042 71.3649L241.897 71.8435C238.834 70.9178 235.55 70.0324 232.063 69.1919L232.181 68.7058L232.298 68.2197C235.8 69.0642 239.103 69.9544 242.186 70.8862ZM222.286 66.0382L222.189 66.5288L222.093 67.0194C218.871 66.3854 215.519 65.786 212.046 65.2237L212.126 64.7302L212.206 64.2366C215.689 64.8005 219.052 65.4019 222.286 66.0382ZM202.078 62.7476L202.012 63.2432L201.947 63.7389C198.65 63.3007 195.266 62.8943 191.802 62.5212L191.855 62.0241L191.909 61.5269C195.381 61.9009 198.773 62.3083 202.078 62.7476ZM161.271 59.2247L161.249 59.7242L161.226 60.2237C157.864 60.0723 154.457 59.9502 151.01 59.8586L151.024 59.3588L151.037 58.859C154.49 58.9507 157.903 59.0731 161.271 59.2247ZM140.797 58.6785L140.793 59.1784L140.789 59.6784C139.09 59.6635 137.383 59.656 135.669 59.656C133.955 59.656 132.248 59.6635 130.549 59.6784L130.545 59.1784L130.54 58.6785C132.242 58.6636 133.952 58.656 135.669 58.656C137.386 58.656 139.096 58.6636 140.797 58.6785ZM120.301 58.859L120.314 59.3588L120.327 59.8586C116.881 59.9502 113.474 60.0723 110.111 60.2237L110.089 59.7242L110.066 59.2247C113.435 59.0731 116.848 58.9507 120.301 58.859ZM79.429 61.5269L79.4826 62.0241L79.5361 62.5212C76.0719 62.8943 72.6878 63.3007 69.3911 63.7389L69.3253 63.2432L69.2594 62.7476C72.5645 62.3083 75.9569 61.9009 79.429 61.5269ZM59.1314 64.2366L59.2113 64.7302L59.2913 65.2237C55.819 65.786 52.4668 66.3854 49.245 67.0194L49.1484 66.5288L49.0519 66.0382C52.2854 65.4019 55.6488 64.8005 59.1314 64.2366ZM39.04 68.2197L39.1572 68.7058L39.2744 69.1919C35.7879 70.0324 32.5042 70.9178 29.4408 71.8435L29.2962 71.3649L29.1515 70.8862C32.2351 69.9544 35.5373 69.0642 39.04 68.2197ZM19.4754 74.2323L19.6606 74.6968L19.8458 75.1612C16.3339 76.5614 13.2952 78.0239 10.7693 79.5343L10.5127 79.1052L10.256 78.6761C12.8387 77.1317 15.9277 75.6468 19.4754 74.2323Z" fill="white"/>
<path d="M266.796 37.9081L267.549 38.5666L266.796 37.9081ZM269.261 32.7652L270.257 32.8486L270.261 32.807V32.7652H269.261ZM259.221 43.6012L259.705 44.4763H259.705L259.221 43.6012ZM230.628 53.5101L230.856 54.4838L230.628 53.5101ZM181.678 60.8146L180.682 60.7298L180.581 61.9117L181.763 61.811L181.678 60.8146ZM181.701 60.5449L182.698 60.6297L182.782 59.6333L181.786 59.5485L181.701 60.5449ZM171.501 59.7836L171.565 58.7857L170.567 58.7214L170.503 59.7193L171.501 59.7836ZM171.436 60.7815L170.438 60.7172L170.374 61.7152L171.372 61.7795L171.436 60.7815ZM177.131 61.1806L177.207 62.1777V60.1834L177.131 61.1806ZM94.2066 61.1806L94.1311 60.1834V62.1777L94.2066 61.1806ZM99.9014 60.7815L99.9657 61.7795L100.964 61.7152L100.899 60.7173L99.9014 60.7815ZM99.8693 60.2826L100.867 60.2183L99.8693 60.2826ZM99.8372 59.7836L100.835 59.7193L100.771 58.7214L99.7729 58.7857L99.8372 59.7836ZM89.6365 60.5449L89.5517 59.5485L88.5553 59.6333L88.6401 60.6297L89.6365 60.5449ZM89.6594 60.8146L89.5745 61.811L90.7564 61.9117L90.6558 60.7298L89.6594 60.8146ZM40.7097 53.5101L40.4819 54.4838L40.7097 53.5101ZM12.1168 43.6012L12.6007 42.7261H12.6007L12.1168 43.6012ZM4.5417 37.9081L5.2943 37.2496L4.5417 37.9081ZM4.5417 26.5349L3.7891 25.8765L4.5417 26.5349ZM12.1168 20.8418L12.6007 21.7169H12.6007L12.1168 20.8418ZM40.7097 10.933L40.4819 9.95925L40.7097 10.933ZM230.628 10.933L230.4 11.9067L230.628 10.933ZM259.221 20.8418L259.705 19.9667H259.705L259.221 20.8418ZM266.796 26.5349L267.549 25.8765L266.796 26.5349ZM269.261 31.6778H270.261V31.636L270.257 31.5944L269.261 31.6778ZM270.261 32.8064L269.264 32.7287L269.261 32.7675V32.8064H270.261ZM1.05474 32.3111V33.3111H2.06671L2.05467 32.2992L1.05474 32.3111ZM1.0542 32.3111V31.3111H0.0541992V32.3111H1.0542ZM1.0542 90.1334L2.0542 90.1338V90.1334H1.0542ZM1.0542 90.1396L0.054199 90.1392L0.0541993 90.14L1.0542 90.1396ZM1.0542 90.1458H2.0542L2.0542 90.1454L1.0542 90.1458ZM1.0542 90.4393H0.0542018L0.0542018 91.4393H1.0542V90.4393ZM1.05997 90.4393L2.05917 90.3994L2.02075 89.4393H1.05997V90.4393ZM1.24425 91.8271L2.21969 91.6068L2.21966 91.6067L1.24425 91.8271ZM2.61376 94.9473L1.77729 95.4953L2.32671 96.3339L3.16392 95.7823L2.61376 94.9473ZM2.61408 94.947L3.45051 94.399L2.90106 93.5605L2.06393 94.112L2.61408 94.947ZM10.2565 101.603L11.1134 102.118L11.6301 101.259L10.7697 100.744L10.2565 101.603ZM10.2561 101.603L9.39908 101.088L8.88241 101.947L9.74284 102.461L10.2561 101.603ZM19.4754 106.047L19.1051 106.976L20.0351 107.347L20.4048 106.416L19.4754 106.047ZM19.4758 106.046L19.8461 105.117L18.9161 104.746L18.5465 105.677L19.4758 106.046ZM29.1518 109.392L30.1092 109.681L30.3979 108.724L29.4411 108.435L29.1518 109.392ZM29.1515 109.393L28.1941 109.104L27.9055 110.061L28.8623 110.35L29.1515 109.393ZM39.04 112.06L38.8056 113.032L39.7786 113.266L40.0124 112.293L39.04 112.06ZM39.0402 112.059L39.2746 111.086L38.3016 110.852L38.0679 111.825L39.0402 112.059ZM49.0521 114.24L50.0334 114.433L50.2257 113.452L49.2451 113.259L49.0521 114.24ZM49.0519 114.241L48.0706 114.049L47.8782 115.029L48.8588 115.222L49.0519 114.241ZM59.1314 116.043L58.9716 117.03L59.959 117.19L60.1186 116.202L59.1314 116.043ZM59.1316 116.042L59.2914 115.055L58.304 114.895L58.1444 115.882L59.1316 116.042ZM69.2595 117.531L70.2507 117.663L70.383 116.671L69.3913 116.539L69.2595 117.531ZM69.2594 117.532L68.2682 117.4L68.1359 118.391L69.1276 118.523L69.2594 117.532ZM79.429 118.752L79.3219 119.747L80.3144 119.853L80.4231 118.861L79.429 118.752ZM79.4291 118.751L79.5362 117.757L78.5437 117.65L78.4351 118.642L79.4291 118.751ZM89.6366 119.733L90.6327 119.821L90.7202 118.822L89.7214 118.737L89.6366 119.733ZM89.6365 119.734L88.6403 119.647L88.5528 120.646L89.5517 120.731L89.6365 119.734ZM99.8371 120.496L99.7729 121.494L100.77 121.558L100.835 120.56L99.8371 120.496ZM99.8372 120.495L99.9015 119.497L98.9039 119.432L98.8393 120.43L99.8372 120.495ZM110.066 121.053L111.065 121.097L111.109 120.099L110.111 120.054L110.066 121.053ZM110.066 121.055L109.067 121.011L109.024 122.009L110.021 122.053L110.066 121.055ZM120.301 121.42L120.274 122.42L121.272 122.446L121.3 121.449L120.301 121.42ZM120.301 121.419L120.327 120.42L119.33 120.393L119.301 121.391L120.301 121.419ZM130.54 121.6L131.54 121.614L131.554 120.609L130.549 120.6L130.54 121.6ZM130.54 121.601L129.54 121.587L129.526 122.592L130.532 122.601L130.54 121.601ZM140.797 121.601L140.806 122.601L141.811 122.592L141.797 121.587L140.797 121.601ZM140.797 121.6L140.789 120.6L139.783 120.609L139.797 121.614L140.797 121.6ZM151.037 121.419L152.036 121.391L152.008 120.393L151.01 120.42L151.037 121.419ZM151.037 121.42L150.037 121.448L150.065 122.446L151.063 122.42L151.037 121.42ZM161.271 121.055L161.316 122.053L162.313 122.009L162.27 121.012L161.271 121.055ZM161.271 121.053L161.226 120.054L160.23 120.099L160.272 121.096L161.271 121.053ZM171.5 120.495L172.498 120.425L172.429 119.433L171.436 119.497L171.5 120.495ZM171.501 120.496L170.503 120.565L170.572 121.558L171.565 121.494L171.501 120.496ZM181.701 119.734L181.786 120.731L182.781 120.646L182.698 119.651L181.701 119.734ZM181.701 119.733L181.616 118.737L180.621 118.822L180.705 119.817L181.701 119.733ZM191.909 118.751L192.902 118.64L192.792 117.65L191.801 117.757L191.909 118.751ZM191.909 118.752L190.915 118.864L191.026 119.853L192.016 119.747L191.909 118.752ZM202.078 117.532L202.21 118.523L203.208 118.39L203.069 117.393L202.078 117.532ZM202.078 117.531L201.946 116.539L200.948 116.672L201.088 117.669L202.078 117.531ZM212.206 116.042L213.192 115.876L213.028 114.896L212.046 115.054L212.206 116.042ZM212.206 116.043L211.22 116.208L211.385 117.189L212.366 117.03L212.206 116.043ZM222.286 114.241L222.479 115.222L223.46 115.029L223.267 114.048L222.286 114.241ZM222.286 114.24L222.093 113.259L221.111 113.452L221.305 114.433L222.286 114.24ZM232.297 112.058L233.27 111.824L233.035 110.852L232.063 111.086L232.297 112.058ZM232.298 112.06L231.326 112.294L231.56 113.266L232.532 113.032L232.298 112.06ZM242.186 109.393L242.475 110.35L243.433 110.061L243.143 109.104L242.186 109.393ZM242.186 109.392L241.897 108.435L240.939 108.724L241.229 109.681L242.186 109.392ZM251.862 106.046L252.788 105.67L252.415 104.749L251.492 105.117L251.862 106.046ZM251.862 106.047L250.936 106.423L251.31 107.344L252.233 106.976L251.862 106.047ZM261.082 101.603L261.595 102.461L262.458 101.946L261.937 101.086L261.082 101.603ZM261.081 101.602L260.568 100.744L259.705 101.26L260.226 102.12L261.081 101.602ZM268.723 94.9468L269.274 94.1118L268.436 93.56L267.887 94.3987L268.723 94.9468ZM268.724 94.9472L268.174 95.7822L269.011 96.334L269.56 95.4953L268.724 94.9472ZM270.261 89.5547H269.261V89.5936L269.264 89.6324L270.261 89.5547ZM269.261 90.6792L270.257 90.7622L270.261 90.7208V90.6792H269.261ZM269.261 89.5954H270.261V89.5536L270.257 89.512L269.261 89.5954ZM267.887 85.88L267.339 85.0435L266.503 85.5915L267.051 86.428L267.887 85.88ZM268.306 85.606L268.854 86.4425L268.854 86.4425L268.306 85.606ZM268.724 85.332L269.56 84.784L269.012 83.9475L268.176 84.4955L268.724 85.332ZM269.261 86.2394L268.377 86.7066L270.261 86.2394H269.261ZM269.261 36.1217H270.261L268.377 35.6546L269.261 36.1217ZM2.0542 36.0784L2.94059 35.6154L1.0542 36.0784H2.0542ZM2.0542 86.2828H1.0542L2.9406 86.7457L2.0542 86.2828ZM2.61375 85.332L3.16176 84.4955L2.32529 83.9475L1.77728 84.784L2.61375 85.332ZM3.03199 85.606L2.48398 86.4425H2.48398L3.03199 85.606ZM3.45022 85.88L4.2867 86.428L4.83471 85.5916L3.99823 85.0435L3.45022 85.88ZM2.0542 90.1338L1.0542 90.1329L1.0542 90.1333L2.0542 90.1338ZM2.0542 90.1396L1.0542 90.1392L1.0542 90.1401L2.0542 90.1396ZM2.0542 90.1455L1.0542 90.1459L1.0542 90.1463L2.0542 90.1455ZM2.09967 90.9087L1.10659 91.0262H1.10659L2.09967 90.9087ZM2.12057 91.0688L1.13062 91.2102L1.13067 91.2105L2.12057 91.0688ZM4.54145 95.8251L3.78885 96.4836H3.78885L4.54145 95.8251ZM12.1165 101.518L11.6326 102.393H11.6326L12.1165 101.518ZM40.7094 111.427L40.4817 112.401L40.7094 111.427ZM230.628 111.427L230.856 112.401L230.628 111.427ZM259.221 101.518L259.705 102.393H259.705L259.221 101.518ZM266.796 95.8251L267.548 96.4836L266.796 95.8251ZM260.825 79.1052L259.967 78.592L259.967 78.592L260.825 79.1052ZM261.082 78.6761L261.94 79.1893L262.453 78.331L261.595 77.8178L261.082 78.6761ZM260.568 79.5343L260.055 80.3926L260.914 80.9058L261.427 80.0475L260.568 79.5343ZM251.492 75.1612L250.563 74.7909L250.193 75.7198L251.122 76.0901L251.492 75.1612ZM251.862 74.2323L252.233 73.3034L251.304 72.9331L250.933 73.862L251.862 74.2323ZM242.042 71.3649L241.084 71.0756L241.084 71.0756L242.042 71.3649ZM242.186 70.8862L243.143 71.1755L243.433 70.2182L242.475 69.929L242.186 70.8862ZM241.897 71.8435L241.608 72.8007L242.565 73.09L242.854 72.1327L241.897 71.8435ZM232.063 69.1919L231.091 68.9575L230.857 69.9297L231.829 70.164L232.063 69.1919ZM232.181 68.7058L233.153 68.9402L232.181 68.7058ZM232.298 68.2197L232.532 67.2476L231.56 67.0132L231.326 67.9854L232.298 68.2197ZM222.189 66.5288L223.17 66.7219L222.189 66.5288ZM222.286 66.0382L223.267 66.2313L223.46 65.2501L222.479 65.057L222.286 66.0382ZM222.093 67.0194L221.9 68.0006L222.881 68.1937L223.074 67.2125L222.093 67.0194ZM212.046 65.2237L211.059 65.0639L210.899 66.051L211.887 66.2109L212.046 65.2237ZM212.126 64.7302L213.114 64.89L212.126 64.7302ZM212.206 64.2366L212.366 63.2494L211.379 63.0896L211.219 64.0767L212.206 64.2366ZM202.012 63.2432L201.021 63.1115L202.012 63.2432ZM202.078 62.7476L203.07 62.8793L203.201 61.888L202.21 61.7563L202.078 62.7476ZM201.947 63.7389L201.815 64.7301L202.806 64.8619L202.938 63.8706L201.947 63.7389ZM191.802 62.5212L190.807 62.4141L190.7 63.4084L191.695 63.5154L191.802 62.5212ZM191.855 62.0241L192.849 62.1311V62.1311L191.855 62.0241ZM191.909 61.5269L192.016 60.5327L191.022 60.4256L190.914 61.4199L191.909 61.5269ZM161.249 59.7242L160.25 59.6792V59.6793L161.249 59.7242ZM161.271 59.2247L162.27 59.2698L162.315 58.2707L161.316 58.2258L161.271 59.2247ZM161.226 60.2237L161.181 61.2227L162.18 61.2677L162.225 60.2687L161.226 60.2237ZM151.01 59.8586L150.011 59.832L149.984 60.8317L150.984 60.8582L151.01 59.8586ZM151.024 59.3588L152.023 59.3854V59.3853L151.024 59.3588ZM151.037 58.859L151.063 57.8593L150.064 57.8327L150.037 58.8324L151.037 58.859ZM140.797 58.6785L141.797 58.6872L141.806 57.6873L140.806 57.6785L140.797 58.6785ZM140.789 59.6784L140.78 60.6784L141.78 60.6871L141.789 59.6872L140.789 59.6784ZM130.549 59.6784L129.549 59.6872L129.558 60.6871L130.558 60.6784L130.549 59.6784ZM130.54 58.6785L130.532 57.6785L129.532 57.6873L129.54 58.6872L130.54 58.6785ZM120.314 59.3588L119.314 59.3853V59.3854L120.314 59.3588ZM120.301 58.859L121.3 58.8324L121.274 57.8327L120.274 57.8593L120.301 58.859ZM120.327 59.8586L120.354 60.8582L121.354 60.8317L121.327 59.832L120.327 59.8586ZM110.111 60.2237L109.112 60.2687L109.157 61.2677L110.156 61.2227L110.111 60.2237ZM110.066 59.2247L110.021 58.2258L109.022 58.2707L109.067 59.2697L110.066 59.2247ZM79.4826 62.0241L78.4883 62.1311L79.4826 62.0241ZM79.429 61.5269L80.4233 61.4199L80.3162 60.4256L79.3219 60.5327L79.429 61.5269ZM79.5361 62.5212L79.6432 63.5154L80.6374 63.4084L80.5303 62.4141L79.5361 62.5212ZM69.3911 63.7389L68.3998 63.8706L68.5316 64.8619L69.5229 64.7301L69.3911 63.7389ZM69.3253 63.2432L68.334 63.375V63.375L69.3253 63.2432ZM69.2594 62.7476L69.1277 61.7563L68.1364 61.888L68.2681 62.8793L69.2594 62.7476ZM59.2113 64.7302L58.2242 64.89L59.2113 64.7302ZM59.1314 64.2366L60.1186 64.0767L59.9587 63.0896L58.9716 63.2494L59.1314 64.2366ZM59.2913 65.2237L59.4511 66.2109L60.4383 66.051L60.2784 65.0639L59.2913 65.2237ZM49.245 67.0194L48.2638 67.2125L48.4569 68.1937L49.438 68.0006L49.245 67.0194ZM49.1484 66.5288L50.1296 66.3357L49.1484 66.5288ZM49.0519 66.0382L48.8588 65.057L47.8776 65.2501L48.0707 66.2313L49.0519 66.0382ZM39.1572 68.7058L40.1294 68.4715L39.1572 68.7058ZM39.04 68.2197L40.0122 67.9854L39.7778 67.0132L38.8057 67.2476L39.04 68.2197ZM39.2744 69.1919L39.5088 70.164L40.4809 69.9297L40.2465 68.9575L39.2744 69.1919ZM29.4408 71.8435L28.4835 72.1327L28.7728 73.09L29.73 72.8007L29.4408 71.8435ZM29.2962 71.3649L28.3389 71.6541L28.3389 71.6541L29.2962 71.3649ZM29.1515 70.8862L28.8623 69.929L27.905 70.2182L28.1943 71.1755L29.1515 70.8862ZM19.4754 74.2323L20.4043 73.862L20.034 72.9331L19.1051 73.3034L19.4754 74.2323ZM19.8458 75.1612L20.2161 76.0901L21.145 75.7198L20.7747 74.7909L19.8458 75.1612ZM10.7693 79.5343L9.911 80.0475L10.4242 80.9058L11.2825 80.3926L10.7693 79.5343ZM10.256 78.6761L9.74283 77.8178L8.88457 78.331L9.39779 79.1893L10.256 78.6761ZM267.549 38.5666C269.167 36.7168 270.093 34.8074 270.257 32.8486L268.264 32.6817C268.145 34.1015 267.466 35.6235 266.043 37.2496L267.549 38.5666ZM259.705 44.4763C263.111 42.593 265.755 40.6161 267.549 38.5666L266.043 37.2496C264.457 39.0624 262.028 40.9064 258.737 42.7261L259.705 44.4763ZM230.856 54.4838C243.036 51.6351 252.893 48.243 259.705 44.4763L258.737 42.7261C252.157 46.3648 242.502 49.706 230.4 52.5363L230.856 54.4838ZM181.763 61.811C200.39 60.2234 217.101 57.7006 230.856 54.4838L230.4 52.5363C216.761 55.7262 200.149 58.2367 181.593 59.8182L181.763 61.811ZM180.705 60.4601L180.682 60.7298L182.675 60.8994L182.698 60.6297L180.705 60.4601ZM171.436 60.7815C174.888 61.0039 178.283 61.2576 181.616 61.5413L181.786 59.5485C178.439 59.2636 175.03 59.0089 171.565 58.7857L171.436 60.7815ZM172.466 60.3469L172.498 59.8479L170.503 59.7193L170.47 60.2183L172.466 60.3469ZM172.434 60.8458L172.466 60.3469L170.47 60.2183L170.438 60.7172L172.434 60.8458ZM177.207 60.1834C175.322 60.0406 173.42 59.9073 171.501 59.7836L171.372 61.7795C173.284 61.9026 175.179 62.0355 177.055 62.1777L177.207 60.1834ZM135.669 63.7051C150.167 63.7051 164.127 63.1691 177.207 62.1777L177.055 60.1834C164.028 61.1709 150.118 61.7051 135.669 61.7051V63.7051ZM94.1311 62.1777C107.211 63.1691 121.171 63.7051 135.669 63.7051V61.7051C121.219 61.7051 107.31 61.1709 94.2822 60.1834L94.1311 62.1777ZM99.8372 59.7836C97.9176 59.9073 96.0152 60.0406 94.1311 60.1834L94.2822 62.1777C96.1588 62.0355 98.0536 61.9026 99.9657 61.7795L99.8372 59.7836ZM98.8714 60.3469L98.9035 60.8458L100.899 60.7173L100.867 60.2183L98.8714 60.3469ZM98.8392 59.8479L98.8714 60.3469L100.867 60.2183L100.835 59.7193L98.8392 59.8479ZM89.7213 61.5413C93.0548 61.2576 96.4502 61.0039 99.9014 60.7815L99.7729 58.7857C96.3082 59.0089 92.8991 59.2636 89.5517 59.5485L89.7213 61.5413ZM90.6558 60.7298L90.6329 60.4601L88.6401 60.6297L88.663 60.8994L90.6558 60.7298ZM40.4819 54.4838C54.2363 57.7006 70.9477 60.2234 89.5745 61.811L89.7443 59.8182C71.1888 58.2367 54.5763 55.7262 40.9374 52.5363L40.4819 54.4838ZM11.6329 44.4763C18.4448 48.243 28.3017 51.6351 40.4819 54.4838L40.9374 52.5363C28.8356 49.706 19.1811 46.3648 12.6007 42.7261L11.6329 44.4763ZM3.7891 38.5666C5.58229 40.6161 8.22697 42.593 11.6329 44.4763L12.6007 42.7261C9.30982 40.9064 6.88037 39.0624 5.2943 37.2496L3.7891 38.5666ZM1.0542 32.2215C1.0542 34.3947 1.99566 36.5168 3.7891 38.5666L5.2943 37.2496C3.7198 35.45 3.0542 33.7773 3.0542 32.2215H1.0542ZM3.7891 25.8765C1.99566 27.9263 1.0542 30.0483 1.0542 32.2215H3.0542C3.0542 30.6657 3.7198 28.993 5.2943 27.1934L3.7891 25.8765ZM11.6329 19.9667C8.22697 21.85 5.58229 23.827 3.7891 25.8765L5.2943 27.1934C6.88037 25.3806 9.30982 23.5366 12.6007 21.7169L11.6329 19.9667ZM40.4819 9.95925C28.3017 12.8079 18.4448 16.2 11.6329 19.9667L12.6007 21.7169C19.1811 18.0783 28.8356 14.737 40.9374 11.9067L40.4819 9.95925ZM135.669 0.737915C98.4961 0.737915 64.8424 4.26184 40.4819 9.95925L40.9374 11.9067C65.109 6.25345 98.6026 2.73792 135.669 2.73792V0.737915ZM230.856 9.95925C206.495 4.26184 172.842 0.737915 135.669 0.737915V2.73792C172.735 2.73792 206.229 6.25345 230.4 11.9067L230.856 9.95925ZM259.705 19.9667C252.893 16.2 243.036 12.8079 230.856 9.95925L230.4 11.9067C242.502 14.737 252.157 18.0783 258.737 21.7169L259.705 19.9667ZM267.549 25.8765C265.755 23.827 263.111 21.85 259.705 19.9667L258.737 21.7169C262.028 23.5366 264.457 25.3806 266.043 27.1934L267.549 25.8765ZM270.257 31.5944C270.093 29.6356 269.167 27.7262 267.549 25.8765L266.043 27.1934C267.466 28.8195 268.145 30.3415 268.264 31.7613L270.257 31.5944ZM270.261 32.7652V31.6778H268.261V32.7652H270.261ZM269.284 32.2215C269.284 32.3909 269.277 32.56 269.264 32.7287L271.258 32.8842C271.275 32.6638 271.284 32.4429 271.284 32.2215H269.284ZM135.669 1.73792C172.788 1.73792 206.362 5.25764 230.628 10.933C242.769 13.7725 252.525 17.1391 259.221 20.8418C262.569 22.6933 265.106 24.6038 266.796 26.5349C268.48 28.4596 269.284 30.357 269.284 32.2215H271.284C271.284 29.739 270.204 27.3923 268.301 25.218C266.404 23.0501 263.652 21.0067 260.189 19.0916C253.261 15.2609 243.303 11.8434 231.084 8.98552C206.629 3.26603 172.895 -0.262085 135.669 -0.262085V1.73792ZM2.0542 32.2215C2.0542 30.357 2.85773 28.4596 4.5417 26.5349C6.23133 24.6038 8.7684 22.6933 12.1168 20.8418C18.8129 17.1391 28.5687 13.7725 40.7097 10.933C64.9757 5.25764 98.5493 1.73792 135.669 1.73792V-0.262085C98.4428 -0.262085 64.7091 3.26603 40.2542 8.98552C28.0347 11.8434 18.0766 15.2609 11.149 19.0916C7.68551 21.0067 4.93324 23.0501 3.0365 25.218C1.13409 27.3923 0.0542043 29.739 0.0542043 32.2215H2.0542ZM2.05467 32.2992C2.05436 32.2733 2.0542 32.2474 2.0542 32.2215H0.0542043C0.0542043 32.2553 0.0544058 32.2892 0.0548084 32.323L2.05467 32.2992ZM1.0542 33.3111H1.05474V31.3111H1.0542V33.3111ZM2.0542 90.1334L2.0542 32.3111H0.0541992L0.0542018 90.1334H2.0542ZM2.0542 90.14L2.0542 90.1338L0.0542018 90.133L0.0541993 90.1392L2.0542 90.14ZM2.0542 90.1454L2.0542 90.1392L0.0541993 90.14L0.0542018 90.1462L2.0542 90.1454ZM2.0542 90.4393V90.1458H0.0542018V90.4393H2.0542ZM1.05997 89.4393H1.0542V91.4393H1.05997V89.4393ZM0.060771 90.4793C0.0818684 91.0065 0.151813 91.5295 0.26884 92.0475L2.21966 91.6067C2.1288 91.2045 2.07529 90.8023 2.05917 90.3994L0.060771 90.4793ZM3.45023 94.3992C2.83433 93.4591 2.4277 92.528 2.21969 91.6068L0.26881 92.0473C0.53711 93.2355 1.05063 94.3861 1.77729 95.4953L3.45023 94.3992ZM2.06393 94.112L2.0636 94.1122L3.16392 95.7823L3.16424 95.7821L2.06393 94.112ZM1.77766 95.4951C3.40804 97.9832 6.1385 100.305 9.74326 102.461L10.7697 100.744C7.29499 98.6666 4.84854 96.5325 3.45051 94.399L1.77766 95.4951ZM9.3995 101.087L9.39908 101.088L11.113 102.119L11.1134 102.118L9.3995 101.087ZM9.74284 102.461C12.3822 104.04 15.5215 105.547 19.1051 106.976L19.8458 105.118C16.3339 103.718 13.2952 102.255 10.7693 100.745L9.74284 102.461ZM20.4048 106.416L20.4051 106.415L18.5465 105.677L18.5461 105.678L20.4048 106.416ZM19.1055 106.975C22.0592 108.153 25.321 109.279 28.8625 110.349L29.4411 108.435C25.9449 107.378 22.7382 106.27 19.8461 105.117L19.1055 106.975ZM28.1944 109.103L28.1941 109.104L30.1089 109.682L30.1092 109.681L28.1944 109.103ZM28.8623 110.35C31.966 111.288 35.2867 112.183 38.8056 113.032L39.2744 111.087C35.7879 110.247 32.5042 109.361 29.4408 108.436L28.8623 110.35ZM40.0124 112.293L40.0126 112.292L38.0679 111.825L38.0677 111.826L40.0124 112.293ZM38.8059 113.031C41.9975 113.8 45.353 114.531 48.859 115.221L49.2451 113.259C45.7645 112.574 42.4365 111.849 39.2746 111.086L38.8059 113.031ZM48.0708 114.048L48.0706 114.049L50.0332 114.434L50.0334 114.433L48.0708 114.048ZM48.8588 115.222C52.104 115.861 55.4785 116.464 58.9716 117.03L59.2913 115.056C55.819 114.493 52.4667 113.894 49.245 113.26L48.8588 115.222ZM60.1186 116.202L60.1188 116.201L58.1444 115.882L58.1442 115.883L60.1186 116.202ZM58.9717 117.029C62.2551 117.56 65.6434 118.059 69.1278 118.522L69.3913 116.539C65.9247 116.079 62.5552 115.583 59.2914 115.055L58.9717 117.029ZM68.2683 117.398L68.2682 117.4L70.2506 117.664L70.2507 117.663L68.2683 117.398ZM69.1276 118.523C72.4413 118.963 75.8419 119.372 79.3219 119.747L79.5361 117.758C76.0719 117.385 72.6877 116.979 69.3911 116.54L69.1276 118.523ZM80.4231 118.861L80.4232 118.86L78.4351 118.642L78.4349 118.643L80.4231 118.861ZM79.322 119.746C82.661 120.105 86.0732 120.434 89.5518 120.73L89.7214 118.737C86.2572 118.442 82.8599 118.115 79.5362 117.757L79.322 119.746ZM90.6327 119.822L90.6327 119.821L88.6404 119.646L88.6403 119.647L90.6327 119.822ZM99.9014 119.498C96.4502 119.275 93.0548 119.022 89.7213 118.738L89.5517 120.731C92.8991 121.016 96.3082 121.27 99.7729 121.494L99.9014 119.498ZM98.8393 120.43L98.8392 120.431L100.835 120.56L100.835 120.559L98.8393 120.43ZM99.7729 121.493C103.138 121.709 106.556 121.896 110.021 122.052L110.111 120.054C106.659 119.899 103.254 119.713 99.9015 119.497L99.7729 121.493ZM109.067 121.01L109.067 121.011L111.065 121.098L111.065 121.097L109.067 121.01ZM110.021 122.053C113.396 122.205 116.815 122.328 120.274 122.42L120.327 120.421C116.881 120.329 113.474 120.207 110.111 120.056L110.021 122.053ZM121.3 121.449L121.3 121.448L119.301 121.391L119.301 121.392L121.3 121.449ZM120.274 122.419C123.657 122.509 127.078 122.569 130.532 122.6L130.549 120.6C127.107 120.57 123.698 120.509 120.327 120.42L120.274 122.419ZM131.54 121.615L131.54 121.614L129.54 121.586L129.54 121.587L131.54 121.615ZM135.669 120.623C133.955 120.623 132.248 120.616 130.549 120.601L130.532 122.601C132.236 122.616 133.949 122.623 135.669 122.623V120.623ZM140.789 120.601C139.09 120.616 137.383 120.623 135.669 120.623V122.623C137.389 122.623 139.102 122.616 140.806 122.601L140.789 120.601ZM139.797 121.614L139.798 121.615L141.797 121.587L141.797 121.586L139.797 121.614ZM140.806 122.6C144.26 122.569 147.681 122.509 151.063 122.419L151.01 120.42C147.639 120.509 144.231 120.57 140.789 120.6L140.806 122.6ZM150.037 121.447L150.037 121.448L152.036 121.392L152.036 121.391L150.037 121.447ZM151.063 122.42C154.522 122.328 157.942 122.205 161.316 122.053L161.226 120.056C157.864 120.207 154.457 120.329 151.01 120.421L151.063 122.42ZM162.27 121.012L162.27 121.011L160.272 121.096L160.272 121.097L162.27 121.012ZM161.316 122.052C164.781 121.896 168.199 121.709 171.565 121.492L171.436 119.497C168.084 119.713 164.679 119.899 161.226 120.054L161.316 122.052ZM170.503 120.564L170.503 120.565L172.498 120.426L172.498 120.425L170.503 120.564ZM171.565 121.494C175.03 121.27 178.439 121.016 181.786 120.731L181.616 118.738C178.283 119.022 174.888 119.275 171.436 119.498L171.565 121.494ZM182.698 119.651L182.698 119.65L180.705 119.817L180.705 119.818L182.698 119.651ZM181.786 120.73C185.265 120.434 188.677 120.105 192.016 119.745L191.801 117.757C188.478 118.115 185.08 118.442 181.616 118.737L181.786 120.73ZM190.915 118.862L190.915 118.864L192.902 118.641L192.902 118.64L190.915 118.862ZM192.016 119.747C195.496 119.372 198.896 118.963 202.21 118.523L201.947 116.54C198.65 116.979 195.266 117.385 191.802 117.758L192.016 119.747ZM203.069 117.393L203.069 117.392L201.088 117.669L201.088 117.67L203.069 117.393ZM202.21 118.522C205.694 118.059 209.083 117.56 212.366 117.029L212.046 115.054C208.782 115.583 205.413 116.079 201.946 116.539L202.21 118.522ZM211.22 116.207L211.22 116.208L213.192 115.877L213.192 115.876L211.22 116.207ZM212.366 117.03C215.859 116.464 219.234 115.861 222.479 115.222L222.093 113.26C218.871 113.894 215.519 114.493 212.046 115.056L212.366 117.03ZM223.267 114.048L223.267 114.047L221.305 114.433L221.305 114.435L223.267 114.048ZM222.479 115.221C225.985 114.531 229.34 113.8 232.532 113.031L232.063 111.086C228.901 111.849 225.573 112.574 222.093 113.259L222.479 115.221ZM231.325 112.293L231.326 112.294L233.27 111.825L233.27 111.824L231.325 112.293ZM232.532 113.032C236.051 112.183 239.372 111.288 242.475 110.35L241.897 108.436C238.834 109.361 235.55 110.247 232.063 111.087L232.532 113.032ZM243.143 109.104L243.143 109.103L241.229 109.681L241.229 109.682L243.143 109.104ZM242.475 110.349C246.017 109.279 249.278 108.152 252.232 106.975L251.492 105.117C248.599 106.27 245.393 107.378 241.897 108.435L242.475 110.349ZM250.935 106.422L250.936 106.423L252.789 105.671L252.788 105.67L250.935 106.422ZM252.233 106.976C255.816 105.547 258.956 104.04 261.595 102.461L260.568 100.745C258.043 102.255 255.004 103.718 251.492 105.118L252.233 106.976ZM261.937 101.086L261.937 101.085L260.226 102.12L260.226 102.121L261.937 101.086ZM261.594 102.461C265.199 100.305 267.929 97.983 269.56 95.4949L267.887 94.3987C266.489 96.5323 264.043 98.6664 260.568 100.744L261.594 102.461ZM269.274 94.1123L269.274 94.1118L268.173 95.7818L268.174 95.7822L269.274 94.1123ZM269.284 90.1396C269.284 91.5458 268.828 92.9639 267.888 94.3992L269.56 95.4953C270.674 93.7957 271.284 92.0027 271.284 90.1396H269.284ZM269.264 89.6324C269.277 89.8011 269.284 89.9702 269.284 90.1396H271.284C271.284 89.9183 271.275 89.6974 271.258 89.477L269.264 89.6324ZM269.261 32.8064V89.5547H271.261V32.8064H269.261ZM270.261 90.6792V89.5954H268.261V90.6792H270.261ZM270.257 89.512C270.138 88.0906 269.618 86.6961 268.724 85.332L267.051 86.428C267.796 87.5647 268.178 88.6447 268.264 89.6787L270.257 89.512ZM268.435 86.7165L268.854 86.4425L267.758 84.7695L267.339 85.0435L268.435 86.7165ZM268.854 86.4425L269.272 86.1685L268.176 84.4955L267.758 84.7695L268.854 86.4425ZM267.887 85.88C268.068 86.1563 268.231 86.4318 268.377 86.7066L270.145 85.7723C269.969 85.4394 269.774 85.1099 269.56 84.784L267.887 85.88ZM270.261 86.2394V36.1217H268.261V86.2394H270.261ZM268.377 35.6546C266.492 39.2222 261.689 42.7752 254.18 46.0753C246.725 49.3518 236.797 52.2965 224.943 54.7647C201.241 59.7001 169.967 62.7051 135.669 62.7051V64.7051C170.07 64.7051 201.485 61.6922 225.351 56.7227C237.281 54.2386 247.356 51.2592 254.985 47.9062C262.561 44.5768 267.923 40.795 270.145 36.5888L268.377 35.6546ZM135.669 62.7051C101.339 62.7051 70.0385 59.6945 46.3287 54.751C34.4707 52.2786 24.5433 49.3293 17.0951 46.0479C9.59296 42.7428 4.80506 39.1854 2.94059 35.6154L1.16781 36.5413C3.36879 40.7556 8.7201 44.5437 16.2888 47.8781C23.9114 51.2363 33.9865 54.2206 45.9205 56.7089C69.7945 61.6866 101.236 64.7051 135.669 64.7051V62.7051ZM1.0542 36.0784L1.0542 86.2828H3.0542L3.0542 36.0784H1.0542ZM2.9406 86.7457C3.09083 86.458 3.26061 86.1694 3.45022 85.88L1.77728 84.784C1.55362 85.1254 1.35016 85.4707 1.16781 85.8198L2.9406 86.7457ZM2.06574 86.1685L2.48398 86.4425L3.57999 84.7695L3.16176 84.4955L2.06574 86.1685ZM2.48398 86.4425L2.90222 86.7165L3.99823 85.0435L3.57999 84.7695L2.48398 86.4425ZM2.61375 85.332C1.5882 86.8974 1.05566 88.5007 1.0542 90.1329L3.0542 90.1347C3.05525 88.9584 3.43411 87.7294 4.2867 86.428L2.61375 85.332ZM1.0542 90.1333L1.0542 90.1392L3.0542 90.1401L3.0542 90.1342L1.0542 90.1333ZM1.0542 90.1401L1.0542 90.1459L3.0542 90.145L3.0542 90.1392L1.0542 90.1401ZM1.0542 90.1463C1.05446 90.4395 1.07189 90.7328 1.10659 91.0262L3.09274 90.7913C3.06716 90.5749 3.05439 90.3595 3.0542 90.1446L1.0542 90.1463ZM1.10659 91.0262C1.11385 91.0875 1.12186 91.1489 1.13062 91.2102L3.11051 90.9273C3.10402 90.8819 3.0981 90.8365 3.09274 90.7913L1.10659 91.0262ZM5.29405 95.1666C3.97937 93.664 3.30001 92.2504 3.11046 90.927L1.13067 91.2105C1.38923 93.0158 2.29406 94.7751 3.78885 96.4836L5.29405 95.1666ZM12.6004 100.643C9.30957 98.8234 6.88012 96.9794 5.29405 95.1666L3.78885 96.4836C5.58204 98.5331 8.22672 100.51 11.6326 102.393L12.6004 100.643ZM40.9371 110.453C28.8354 107.623 19.1809 104.282 12.6004 100.643L11.6326 102.393C18.4445 106.16 28.3015 109.552 40.4817 112.401L40.9371 110.453ZM135.669 119.622C98.6024 119.622 65.1088 116.107 40.9371 110.453L40.4817 112.401C64.8421 118.098 98.4958 121.622 135.669 121.622V119.622ZM230.4 110.453C206.228 116.107 172.735 119.622 135.669 119.622V121.622C172.841 121.622 206.495 118.098 230.856 112.401L230.4 110.453ZM258.737 100.643C252.156 104.282 242.502 107.623 230.4 110.453L230.856 112.401C243.036 109.552 252.893 106.16 259.705 102.393L258.737 100.643ZM266.043 95.1666C264.457 96.9794 262.028 98.8234 258.737 100.643L259.705 102.393C263.11 100.51 265.755 98.5331 267.548 96.4836L266.043 95.1666ZM268.264 90.5962C268.146 92.0168 267.467 93.5396 266.043 95.1666L267.548 96.4836C269.168 94.6327 270.094 92.7222 270.257 90.7622L268.264 90.5962ZM261.683 79.6184L261.94 79.1893L260.223 78.1628L259.967 78.592L261.683 79.6184ZM261.427 80.0475L261.683 79.6184L259.967 78.592L259.71 79.0211L261.427 80.0475ZM251.122 76.0901C254.598 77.476 257.586 78.9161 260.055 80.3926L261.082 78.6761C258.499 77.1317 255.41 75.6468 251.862 74.2323L251.122 76.0901ZM250.748 74.3265L250.563 74.7909L252.421 75.5316L252.606 75.0671L250.748 74.3265ZM250.933 73.862L250.748 74.3265L252.606 75.0671L252.791 74.6027L250.933 73.862ZM261.595 77.8178C258.956 76.2396 255.816 74.7322 252.233 73.3034L251.492 75.1612C255.004 76.5614 258.043 78.0239 260.568 79.5343L261.595 77.8178ZM242.999 71.6541L243.143 71.1755L241.229 70.597L241.084 71.0756L242.999 71.6541ZM242.854 72.1327L242.999 71.6541L241.084 71.0756L240.94 71.5542L242.854 72.1327ZM231.829 70.164C235.299 71.0007 238.564 71.8811 241.608 72.8007L242.186 70.8862C239.103 69.9544 235.8 69.0642 232.298 68.2197L231.829 70.164ZM231.208 68.4715L231.091 68.9575L233.035 69.4263L233.153 68.9402L231.208 68.4715ZM231.326 67.9854L231.208 68.4715L233.153 68.9402L233.27 68.4541L231.326 67.9854ZM242.475 69.929C239.372 68.9911 236.051 68.096 232.532 67.2476L232.063 69.1919C235.55 70.0324 238.834 70.9178 241.897 71.8435L242.475 69.929ZM223.17 66.7219L223.267 66.2313L221.305 65.8451L221.208 66.3357L223.17 66.7219ZM223.074 67.2125L223.17 66.7219L221.208 66.3357L221.112 66.8263L223.074 67.2125ZM211.887 66.2109C215.348 66.7714 218.69 67.3689 221.9 68.0006L222.286 66.0382C219.052 65.4019 215.689 64.8005 212.206 64.2366L211.887 66.2109ZM211.139 64.5703L211.059 65.0639L213.034 65.3836L213.114 64.89L211.139 64.5703ZM211.219 64.0767L211.139 64.5703L213.114 64.89L213.193 64.3964L211.219 64.0767ZM222.479 65.057C219.234 64.4184 215.859 63.8151 212.366 63.2494L212.046 65.2237C215.519 65.786 218.871 66.3854 222.093 67.0194L222.479 65.057ZM203.004 63.375L203.07 62.8793L201.087 62.6158L201.021 63.1115L203.004 63.375ZM202.938 63.8706L203.004 63.375L201.021 63.1115L200.955 63.6071L202.938 63.8706ZM191.695 63.5154C195.151 63.8877 198.527 64.2932 201.815 64.7301L202.078 62.7476C198.773 62.3083 195.381 61.9009 191.909 61.5269L191.695 63.5154ZM190.861 61.917L190.807 62.4141L192.796 62.6283L192.849 62.1311L190.861 61.917ZM190.914 61.4199L190.861 61.917L192.849 62.1311L192.903 61.634L190.914 61.4199ZM202.21 61.7563C198.896 61.3159 195.496 60.9075 192.016 60.5327L191.802 62.5212C195.266 62.8943 198.65 63.3007 201.947 63.7389L202.21 61.7563ZM162.248 59.7693L162.27 59.2698L160.272 59.1797L160.25 59.6792L162.248 59.7693ZM162.225 60.2687L162.248 59.7692L160.25 59.6793L160.227 60.1787L162.225 60.2687ZM150.984 60.8582C154.424 60.9497 157.825 61.0716 161.181 61.2227L161.271 59.2247C157.903 59.0731 154.49 58.9507 151.037 58.859L150.984 60.8582ZM150.024 59.3322L150.011 59.832L152.01 59.8852L152.023 59.3854L150.024 59.3322ZM150.037 58.8324L150.024 59.3322L152.023 59.3853L152.037 58.8855L150.037 58.8324ZM161.316 58.2258C157.942 58.0738 154.522 57.9512 151.063 57.8593L151.01 59.8586C154.457 59.9502 157.864 60.0723 161.226 60.2237L161.316 58.2258ZM141.793 59.1872L141.797 58.6872L139.797 58.6697L139.793 59.1697L141.793 59.1872ZM141.789 59.6872L141.793 59.1872L139.793 59.1697L139.789 59.6697L141.789 59.6872ZM135.669 60.656C137.38 60.656 139.084 60.6635 140.78 60.6784L140.797 58.6785C139.096 58.6636 137.386 58.656 135.669 58.656V60.656ZM130.558 60.6784C132.254 60.6635 133.957 60.656 135.669 60.656V58.656C133.952 58.656 132.242 58.6636 130.54 58.6785L130.558 60.6784ZM129.545 59.1872L129.549 59.6872L131.549 59.6697L131.545 59.1697L129.545 59.1872ZM129.54 58.6872L129.545 59.1872L131.545 59.1697L131.54 58.6697L129.54 58.6872ZM135.669 57.656C133.949 57.656 132.236 57.6636 130.532 57.6785L130.549 59.6784C132.248 59.6635 133.955 59.656 135.669 59.656V57.656ZM140.806 57.6785C139.102 57.6636 137.389 57.656 135.669 57.656V59.656C137.383 59.656 139.09 59.6635 140.789 59.6784L140.806 57.6785ZM121.314 59.3322L121.3 58.8324L119.301 58.8855L119.314 59.3853L121.314 59.3322ZM121.327 59.832L121.314 59.3322L119.314 59.3854L119.328 59.8852L121.327 59.832ZM110.156 61.2227C113.512 61.0716 116.913 60.9497 120.354 60.8582L120.301 58.859C116.848 58.9507 113.435 59.0731 110.066 59.2247L110.156 61.2227ZM109.09 59.7692L109.112 60.2687L111.11 60.1787L111.088 59.6793L109.09 59.7692ZM109.067 59.2697L109.09 59.7692L111.088 59.6793L111.065 59.1798L109.067 59.2697ZM120.274 57.8593C116.815 57.9512 113.396 58.0738 110.021 58.2258L110.111 60.2237C113.474 60.0723 116.881 59.9502 120.327 59.8586L120.274 57.8593ZM80.4768 61.917L80.4233 61.4199L78.4348 61.634L78.4883 62.1311L80.4768 61.917ZM80.5303 62.4141L80.4768 61.917L78.4883 62.1311L78.5418 62.6283L80.5303 62.4141ZM69.5229 64.7301C72.811 64.2932 76.1869 63.8876 79.6432 63.5154L79.429 61.5269C75.9569 61.9009 72.5645 62.3083 69.2594 62.7476L69.5229 64.7301ZM68.334 63.375L68.3998 63.8706L70.3824 63.6071L70.3166 63.1115L68.334 63.375ZM68.2681 62.8793L68.334 63.375L70.3166 63.1115L70.2507 62.6158L68.2681 62.8793ZM79.3219 60.5327C75.8419 60.9075 72.4413 61.3159 69.1277 61.7563L69.3911 63.7389C72.6878 63.3007 76.0719 62.8943 79.5361 62.5212L79.3219 60.5327ZM60.1985 64.5703L60.1186 64.0767L58.1443 64.3964L58.2242 64.89L60.1985 64.5703ZM60.2784 65.0639L60.1985 64.5703L58.2242 64.89L58.3041 65.3836L60.2784 65.0639ZM49.438 68.0006C52.6481 67.3689 55.9893 66.7714 59.4511 66.2109L59.1314 64.2366C55.6488 64.8005 52.2854 65.4019 49.0519 66.0382L49.438 68.0006ZM48.1672 66.7219L48.2638 67.2125L50.2261 66.8263L50.1296 66.3357L48.1672 66.7219ZM48.0707 66.2313L48.1672 66.7219L50.1296 66.3357L50.0331 65.8451L48.0707 66.2313ZM58.9716 63.2494C55.4785 63.8151 52.104 64.4184 48.8588 65.057L49.245 67.0194C52.4668 66.3854 55.819 65.786 59.2913 65.2237L58.9716 63.2494ZM40.1294 68.4715L40.0122 67.9854L38.0679 68.4541L38.1851 68.9402L40.1294 68.4715ZM40.2465 68.9575L40.1294 68.4715L38.1851 68.9402L38.3022 69.4263L40.2465 68.9575ZM29.73 72.8007C32.7733 71.8811 36.0385 71.0007 39.5088 70.164L39.04 68.2197C35.5373 69.0642 32.2351 69.9544 29.1515 70.8862L29.73 72.8007ZM28.3389 71.6541L28.4835 72.1327L30.398 71.5542L30.2534 71.0756L28.3389 71.6541ZM28.1943 71.1755L28.3389 71.6541L30.2534 71.0756L30.1088 70.597L28.1943 71.1755ZM38.8057 67.2476C35.2867 68.096 31.966 68.9911 28.8623 69.929L29.4408 71.8435C32.5042 70.9178 35.7879 70.0324 39.2744 69.1919L38.8057 67.2476ZM20.5895 74.3264L20.4043 73.862L18.5466 74.6027L18.7317 75.0671L20.5895 74.3264ZM20.7747 74.7909L20.5895 74.3264L18.7317 75.0671L18.9169 75.5316L20.7747 74.7909ZM11.2825 80.3926C13.7517 78.9161 16.7401 77.476 20.2161 76.0901L19.4754 74.2323C15.9277 75.6468 12.8387 77.1317 10.256 78.6761L11.2825 80.3926ZM9.65439 79.6184L9.911 80.0475L11.6275 79.0211L11.3709 78.592L9.65439 79.6184ZM9.39779 79.1893L9.65439 79.6184L11.3709 78.592L11.1143 78.1628L9.39779 79.1893ZM19.1051 73.3034C15.5215 74.7322 12.3822 76.2396 9.74283 77.8178L10.7693 79.5343C13.2952 78.0239 16.3339 76.5614 19.8458 75.1612L19.1051 73.3034Z" fill="white" mask="url(#path-2-inside-1)"/>
</svg>
