<svg width="161" height="99" viewBox="0 0 161 99" fill="none" xmlns="http://www.w3.org/2000/svg">
<path opacity="0.7" fill-rule="evenodd" clip-rule="evenodd" d="M80.5487 15.5272C116.097 15.5272 144.954 22.2282 145.285 30.524L145.29 54.6792V68.8109H145.285C144.954 77.1068 116.098 83.808 80.5487 83.808C44.9998 83.808 16.143 77.1068 15.8124 68.8109H15.8096L15.8096 68.669L15.8096 68.6668L15.8096 68.6647L15.8096 54.8237L15.8096 54.6792L15.8124 30.524C16.1436 22.2282 45.0002 15.5272 80.5487 15.5272Z" fill="#161616"/>
<g filter="url(#filter0_d)">
<mask id="path-2-inside-1" fill="white">
<path fill-rule="evenodd" clip-rule="evenodd" d="M143.306 32.5341C144.059 31.6733 144.374 30.8774 144.374 30.1411C144.374 29.4048 144.059 28.609 143.306 27.7482C142.547 26.8809 141.383 25.9966 139.802 25.1226C136.642 23.3752 132.003 21.7693 126.184 20.4085C114.563 17.6905 98.4586 16 80.6347 16C62.8108 16 46.7061 17.6905 35.085 20.4085C29.2665 21.7693 24.6273 23.3752 21.467 25.1226C19.8866 25.9966 18.7223 26.8809 17.9635 27.7482C17.2103 28.609 16.8956 29.4048 16.8956 30.1411C16.8956 30.8774 17.2103 31.6733 17.9635 32.5341C18.7223 33.4014 19.8866 34.2857 21.467 35.1596C24.6273 36.9071 29.2665 38.513 35.085 39.8738C46.7061 42.5917 62.8108 44.2823 80.6347 44.2823C98.4586 44.2823 114.563 42.5917 126.184 39.8738C132.003 38.513 136.642 36.9071 139.802 35.1596C141.383 34.2857 142.547 33.4014 143.306 32.5341ZM144.686 32.3557C140.104 39.6682 113.173 45.2823 80.6347 45.2823C48.7669 45.2823 22.2769 39.897 16.8945 32.8053L16.8945 65.9815C17.3998 65.3161 18.0909 64.6657 18.9548 64.0335L19.2501 64.437L19.5454 64.8404C17.6536 66.225 16.8958 67.514 16.8945 68.6441L16.8945 68.647L16.8945 68.6499C16.8952 69.2247 17.0915 69.8406 17.5333 70.4893C17.6566 70.6698 17.7992 70.8534 17.9625 71.0399C18.7213 71.9072 19.8856 72.7915 21.466 73.6654C24.6263 75.4129 29.2655 77.0188 35.084 78.3796C46.705 81.0975 62.8098 82.7881 80.6337 82.7881C98.4576 82.7881 114.562 81.0975 126.183 78.3796C132.002 77.0188 136.641 75.4129 139.801 73.6654C141.382 72.7915 142.546 71.9072 143.305 71.0399C143.452 70.872 143.582 70.7065 143.697 70.5435C144.165 69.8738 144.373 69.2386 144.373 68.647C144.373 67.5163 143.615 66.2262 141.722 64.8404L142.017 64.4369L142.312 64.0335C143.371 64.8084 144.171 65.6105 144.686 66.4342V32.3557ZM145.362 68.9259C145.245 70.4351 144.185 71.8903 142.312 73.2606C139.992 74.9592 136.424 76.5274 131.86 77.9063L131.86 77.9064C128.609 78.889 124.852 79.7754 120.681 80.5444L120.681 80.5444C117.166 81.1923 113.358 81.7569 109.31 82.2254L109.31 82.2255C105.675 82.6462 101.847 82.9894 97.8659 83.2459L97.8659 83.2458C94.1608 83.4845 90.3227 83.6481 86.3833 83.7292V83.7293C84.489 83.7683 82.5713 83.7882 80.6336 83.7882C78.696 83.7882 76.7783 83.7683 74.8839 83.7293L74.8839 83.7292C70.9445 83.6481 67.1064 83.4845 63.4014 83.2458L63.4014 83.2459C59.4198 82.9894 55.5919 82.6462 51.9571 82.2255L51.9571 82.2254C47.9092 81.7569 44.1009 81.1923 40.5867 80.5443L40.5866 80.5444C36.4156 79.7754 32.6587 78.889 29.4071 77.9064L29.4072 77.9063C24.8438 76.5274 21.2757 74.9591 18.9549 73.2605L18.9548 73.2606C17.0268 71.8496 15.9596 70.3486 15.8974 68.7914H15.8945V68.647V30.1267H15.8956C15.929 21.7711 44.9009 15 80.6347 15C116.338 15 145.291 21.7597 145.374 30.1055H145.686V68.9259H145.362ZM131.86 59.3877L131.715 59.8663L131.571 60.3449C128.362 59.3753 124.642 58.497 120.499 57.7331L120.59 57.2414L120.681 56.7496C124.852 57.5187 128.609 58.4051 131.86 59.3877ZM109.31 55.0686L109.253 55.5653L109.195 56.062C105.578 55.6433 101.767 55.3016 97.8016 55.0461L97.8337 54.5471L97.8659 54.0482C101.847 54.3047 105.675 54.6479 109.31 55.0686ZM86.3833 53.5648L86.3731 54.0647L86.3628 54.5646C84.4753 54.5257 82.5644 54.5059 80.6336 54.5059C78.7029 54.5059 76.792 54.5257 74.9045 54.5646L74.8942 54.0647L74.8839 53.5648C76.7783 53.5258 78.696 53.5059 80.6336 53.5059C82.5713 53.5059 84.489 53.5258 86.3833 53.5648ZM63.4014 54.0482L63.4335 54.5471L63.4657 55.0461C59.5 55.3016 55.689 55.6433 52.072 56.062L52.0146 55.5653L51.9571 55.0686C55.5919 54.6479 59.4198 54.3047 63.4014 54.0482ZM40.5866 56.7496L40.6773 57.2414L40.768 57.7331C36.6248 58.497 32.905 59.3753 29.6964 60.3449L29.5518 59.8663L29.4071 59.3877C32.6587 58.4051 36.4156 57.5187 40.5866 56.7496Z"/>
</mask>
<path fill-rule="evenodd" clip-rule="evenodd" d="M143.306 32.5341C144.059 31.6733 144.374 30.8774 144.374 30.1411C144.374 29.4048 144.059 28.609 143.306 27.7482C142.547 26.8809 141.383 25.9966 139.802 25.1226C136.642 23.3752 132.003 21.7693 126.184 20.4085C114.563 17.6905 98.4586 16 80.6347 16C62.8108 16 46.7061 17.6905 35.085 20.4085C29.2665 21.7693 24.6273 23.3752 21.467 25.1226C19.8866 25.9966 18.7223 26.8809 17.9635 27.7482C17.2103 28.609 16.8956 29.4048 16.8956 30.1411C16.8956 30.8774 17.2103 31.6733 17.9635 32.5341C18.7223 33.4014 19.8866 34.2857 21.467 35.1596C24.6273 36.9071 29.2665 38.513 35.085 39.8738C46.7061 42.5917 62.8108 44.2823 80.6347 44.2823C98.4586 44.2823 114.563 42.5917 126.184 39.8738C132.003 38.513 136.642 36.9071 139.802 35.1596C141.383 34.2857 142.547 33.4014 143.306 32.5341ZM144.686 32.3557C140.104 39.6682 113.173 45.2823 80.6347 45.2823C48.7669 45.2823 22.2769 39.897 16.8945 32.8053L16.8945 65.9815C17.3998 65.3161 18.0909 64.6657 18.9548 64.0335L19.2501 64.437L19.5454 64.8404C17.6536 66.225 16.8958 67.514 16.8945 68.6441L16.8945 68.647L16.8945 68.6499C16.8952 69.2247 17.0915 69.8406 17.5333 70.4893C17.6566 70.6698 17.7992 70.8534 17.9625 71.0399C18.7213 71.9072 19.8856 72.7915 21.466 73.6654C24.6263 75.4129 29.2655 77.0188 35.084 78.3796C46.705 81.0975 62.8098 82.7881 80.6337 82.7881C98.4576 82.7881 114.562 81.0975 126.183 78.3796C132.002 77.0188 136.641 75.4129 139.801 73.6654C141.382 72.7915 142.546 71.9072 143.305 71.0399C143.452 70.872 143.582 70.7065 143.697 70.5435C144.165 69.8738 144.373 69.2386 144.373 68.647C144.373 67.5163 143.615 66.2262 141.722 64.8404L142.017 64.4369L142.312 64.0335C143.371 64.8084 144.171 65.6105 144.686 66.4342V32.3557ZM145.362 68.9259C145.245 70.4351 144.185 71.8903 142.312 73.2606C139.992 74.9592 136.424 76.5274 131.86 77.9063L131.86 77.9064C128.609 78.889 124.852 79.7754 120.681 80.5444L120.681 80.5444C117.166 81.1923 113.358 81.7569 109.31 82.2254L109.31 82.2255C105.675 82.6462 101.847 82.9894 97.8659 83.2459L97.8659 83.2458C94.1608 83.4845 90.3227 83.6481 86.3833 83.7292V83.7293C84.489 83.7683 82.5713 83.7882 80.6336 83.7882C78.696 83.7882 76.7783 83.7683 74.8839 83.7293L74.8839 83.7292C70.9445 83.6481 67.1064 83.4845 63.4014 83.2458L63.4014 83.2459C59.4198 82.9894 55.5919 82.6462 51.9571 82.2255L51.9571 82.2254C47.9092 81.7569 44.1009 81.1923 40.5867 80.5443L40.5866 80.5444C36.4156 79.7754 32.6587 78.889 29.4071 77.9064L29.4072 77.9063C24.8438 76.5274 21.2757 74.9591 18.9549 73.2605L18.9548 73.2606C17.0268 71.8496 15.9596 70.3486 15.8974 68.7914H15.8945V68.647V30.1267H15.8956C15.929 21.7711 44.9009 15 80.6347 15C116.338 15 145.291 21.7597 145.374 30.1055H145.686V68.9259H145.362ZM131.86 59.3877L131.715 59.8663L131.571 60.3449C128.362 59.3753 124.642 58.497 120.499 57.7331L120.59 57.2414L120.681 56.7496C124.852 57.5187 128.609 58.4051 131.86 59.3877ZM109.31 55.0686L109.253 55.5653L109.195 56.062C105.578 55.6433 101.767 55.3016 97.8016 55.0461L97.8337 54.5471L97.8659 54.0482C101.847 54.3047 105.675 54.6479 109.31 55.0686ZM86.3833 53.5648L86.3731 54.0647L86.3628 54.5646C84.4753 54.5257 82.5644 54.5059 80.6336 54.5059C78.7029 54.5059 76.792 54.5257 74.9045 54.5646L74.8942 54.0647L74.8839 53.5648C76.7783 53.5258 78.696 53.5059 80.6336 53.5059C82.5713 53.5059 84.489 53.5258 86.3833 53.5648ZM63.4014 54.0482L63.4335 54.5471L63.4657 55.0461C59.5 55.3016 55.689 55.6433 52.072 56.062L52.0146 55.5653L51.9571 55.0686C55.5919 54.6479 59.4198 54.3047 63.4014 54.0482ZM40.5866 56.7496L40.6773 57.2414L40.768 57.7331C36.6248 58.497 32.905 59.3753 29.6964 60.3449L29.5518 59.8663L29.4071 59.3877C32.6587 58.4051 36.4156 57.5187 40.5866 56.7496Z" fill="white"/>
<path d="M143.306 32.5341L144.059 33.1926V33.1926L143.306 32.5341ZM143.306 27.7482L144.059 27.0897V27.0897L143.306 27.7482ZM139.802 25.1226L140.286 24.2475V24.2475L139.802 25.1226ZM126.184 20.4085L125.957 21.3822L126.184 20.4085ZM35.085 20.4085L35.3127 21.3822L35.085 20.4085ZM21.467 25.1226L21.9509 25.9978V25.9978L21.467 25.1226ZM17.9635 27.7482L17.2109 27.0897L17.9635 27.7482ZM17.9635 32.5341L17.2109 33.1926L17.9635 32.5341ZM21.467 35.1596L20.9831 36.0348L21.467 35.1596ZM35.085 39.8738L34.8573 40.8475V40.8475L35.085 39.8738ZM126.184 39.8738L126.412 40.8475L126.184 39.8738ZM139.802 35.1596L140.286 36.0348L139.802 35.1596ZM144.686 32.3557H145.686V28.8767L143.839 31.8247L144.686 32.3557ZM16.8945 32.8053L17.6911 32.2007L15.8945 29.8336L15.8945 32.8053H16.8945ZM16.8945 65.9815H15.8945L15.8945 68.9518L17.6909 66.5862L16.8945 65.9815ZM18.9548 64.0335L19.7618 63.4429L19.1712 62.6359L18.3642 63.2265L18.9548 64.0335ZM19.5454 64.8404L20.136 65.6474L20.943 65.0568L20.3524 64.2498L19.5454 64.8404ZM16.8945 68.6441L15.8945 68.643L15.8945 68.6436L16.8945 68.6441ZM16.8945 68.647L15.8945 68.6465L15.8945 68.6476L16.8945 68.647ZM16.8945 68.6499L15.8945 68.6505L15.8945 68.6511L16.8945 68.6499ZM17.5333 70.4893L16.7067 71.0522L16.7075 71.0533L17.5333 70.4893ZM17.9625 71.0399L18.7151 70.3815H18.7151L17.9625 71.0399ZM21.466 73.6654L21.9499 72.7903H21.9499L21.466 73.6654ZM35.084 78.3796L35.3117 77.4059L35.084 78.3796ZM126.183 78.3796L125.956 77.4059L126.183 78.3796ZM139.801 73.6654L140.285 74.5406L139.801 73.6654ZM143.305 71.0399L142.552 70.3814L142.552 70.3815L143.305 71.0399ZM143.697 70.5435L144.515 71.1181L144.516 71.117L143.697 70.5435ZM141.722 64.8404L140.915 64.2498L140.324 65.0568L141.131 65.6474L141.722 64.8404ZM142.017 64.4369L141.21 63.8463L141.21 63.8464L142.017 64.4369ZM142.312 64.0335L142.903 63.2265L142.096 62.6359L141.506 63.4429L142.312 64.0335ZM144.686 66.4342L143.839 66.9649L145.686 69.9157V66.4342H144.686ZM142.312 73.2606L142.903 74.0676L142.903 74.0676L142.312 73.2606ZM145.362 68.9259V67.9259H144.436L144.365 68.8489L145.362 68.9259ZM131.86 77.9063L131.571 76.9491L130.639 77.2306L130.895 78.1695L131.86 77.9063ZM131.86 77.9064L132.149 78.8637L133.081 78.5822L132.825 77.6433L131.86 77.9064ZM120.681 80.5444L119.694 80.7088L119.861 81.7123L120.862 81.5279L120.681 80.5444ZM120.681 80.5444L121.667 80.38L121.5 79.3765L120.499 79.5609L120.681 80.5444ZM109.31 82.2254L109.195 81.232L108.164 81.3514L108.322 82.3774L109.31 82.2254ZM109.31 82.2255L109.425 83.2189L110.456 83.0995L110.299 82.0734L109.31 82.2255ZM97.8659 83.2459L96.8688 83.3226L96.9446 84.3073L97.9302 84.2438L97.8659 83.2459ZM97.8659 83.2458L98.8629 83.1691L98.7872 82.1844L97.8016 82.2479L97.8659 83.2458ZM86.3833 83.7292L86.3628 82.7294L85.3833 82.7495V83.7292H86.3833ZM86.3833 83.7293L86.4039 84.7291L87.3833 84.7089V83.7293H86.3833ZM74.8839 83.7293L73.8846 83.6936L73.8483 84.7082L74.8633 84.7291L74.8839 83.7293ZM74.8839 83.7292L75.8833 83.7649L75.9195 82.7503L74.9045 82.7294L74.8839 83.7292ZM63.4014 83.2458L63.4657 82.2479L62.4747 82.184L62.4039 83.1746L63.4014 83.2458ZM63.4014 83.2459L63.3371 84.2438L64.3281 84.3077L64.3988 83.3172L63.4014 83.2459ZM51.9571 82.2255L50.962 82.126L50.8641 83.1057L51.8421 83.2189L51.9571 82.2255ZM51.9571 82.2254L52.9521 82.3249L53.0501 81.3452L52.0721 81.232L51.9571 82.2254ZM40.5867 80.5443L40.768 79.5609L39.7836 79.3794L39.6031 80.364L40.5867 80.5443ZM40.5866 80.5444L40.4053 81.5279L41.3897 81.7094L41.5702 80.7248L40.5866 80.5444ZM29.4071 77.9064L28.4489 77.6205L28.164 78.5754L29.1179 78.8637L29.4071 77.9064ZM29.4072 77.9063L30.3654 78.1922L30.6504 77.2373L29.6964 76.9491L29.4072 77.9063ZM18.9549 73.2605L19.5455 72.4536L18.7417 71.8653L18.1503 72.6667L18.9549 73.2605ZM18.9548 73.2606L18.3642 74.0676L19.168 74.6559L19.7594 73.8544L18.9548 73.2606ZM15.8974 68.7914L16.8966 68.7515L16.8583 67.7914H15.8974V68.7914ZM15.8945 68.7914H14.8945V69.7914H15.8945V68.7914ZM15.8945 30.1267V29.1267H14.8945V30.1267H15.8945ZM15.8956 30.1267V31.1267H16.8917L16.8956 30.1307L15.8956 30.1267ZM145.374 30.1055L144.374 30.1154L144.383 31.1055H145.374V30.1055ZM145.686 30.1055H146.686V29.1055H145.686V30.1055ZM145.686 68.9259V69.9259H146.686V68.9259H145.686ZM131.86 59.3877L132.817 59.6769L133.107 58.7197L132.149 58.4304L131.86 59.3877ZM131.571 60.3449L131.282 61.3022L132.239 61.5914L132.528 60.6342L131.571 60.3449ZM120.499 57.7331L119.516 57.5517L119.335 58.5352L120.318 58.7165L120.499 57.7331ZM120.59 57.2414L121.573 57.4227L120.59 57.2414ZM120.681 56.7496L120.862 55.7662L119.879 55.5849L119.697 56.5683L120.681 56.7496ZM109.253 55.5653L110.246 55.6803L109.253 55.5653ZM109.31 55.0686L110.304 55.1836L110.419 54.1902L109.425 54.0752L109.31 55.0686ZM109.195 56.062L109.08 57.0553L110.074 57.1703L110.189 56.1769L109.195 56.062ZM97.8016 55.0461L96.8037 54.9818L96.7394 55.9798L97.7373 56.044L97.8016 55.0461ZM97.8659 54.0482L97.9302 53.0502L96.9322 52.986L96.8679 53.9839L97.8659 54.0482ZM86.3731 54.0647L87.3728 54.0853V54.0853L86.3731 54.0647ZM86.3833 53.5648L87.3831 53.5854L87.4037 52.5856L86.4039 52.565L86.3833 53.5648ZM86.3628 54.5646L86.3422 55.5644L87.342 55.585L87.3626 54.5852L86.3628 54.5646ZM74.9045 54.5646L73.9047 54.5852L73.9253 55.585L74.9251 55.5644L74.9045 54.5646ZM74.8942 54.0647L75.894 54.0441L74.8942 54.0647ZM74.8839 53.5648L74.8633 52.565L73.8636 52.5856L73.8841 53.5854L74.8839 53.5648ZM63.4014 54.0482L64.3993 53.9839L64.335 52.986L63.3371 53.0502L63.4014 54.0482ZM63.4657 55.0461L63.53 56.044L64.5279 55.9798L64.4636 54.9818L63.4657 55.0461ZM52.072 56.062L51.0787 56.1769L51.1936 57.1703L52.187 57.0553L52.072 56.062ZM52.0146 55.5653L53.0079 55.4503V55.4503L52.0146 55.5653ZM51.9571 55.0686L51.8421 54.0752L50.8487 54.1902L50.9637 55.1836L51.9571 55.0686ZM40.6773 57.2414L39.6939 57.4227H39.6939L40.6773 57.2414ZM40.5866 56.7496L41.5701 56.5683L41.3887 55.5849L40.4053 55.7662L40.5866 56.7496ZM40.768 57.7331L40.9493 58.7165L41.9327 58.5352L41.7514 57.5517L40.768 57.7331ZM29.6964 60.3449L28.7391 60.6342L29.0284 61.5914L29.9857 61.3022L29.6964 60.3449ZM29.5518 59.8663L30.509 59.577V59.577L29.5518 59.8663ZM29.4071 59.3877L29.1179 58.4304L28.1606 58.7197L28.4499 59.6769L29.4071 59.3877ZM143.374 30.1411C143.374 30.5691 143.197 31.1403 142.553 31.8757L144.059 33.1926C144.922 32.2063 145.374 31.1857 145.374 30.1411H143.374ZM142.553 28.4066C143.197 29.1419 143.374 29.7131 143.374 30.1411H145.374C145.374 29.0965 144.922 28.076 144.059 27.0897L142.553 28.4066ZM139.319 25.9978C140.841 26.8399 141.898 27.6577 142.553 28.4066L144.059 27.0897C143.196 26.104 141.924 25.1532 140.286 24.2475L139.319 25.9978ZM125.957 21.3822C131.736 22.7338 136.274 24.3143 139.319 25.9978L140.286 24.2475C137.01 22.4361 132.27 20.8047 126.412 19.4347L125.957 21.3822ZM80.6347 17C98.4054 17 114.43 18.6863 125.957 21.3822L126.412 19.4347C114.697 16.6947 98.5119 15 80.6347 15V17ZM35.3127 21.3822C46.8394 18.6863 62.8641 17 80.6347 17V15C62.7575 15 46.5727 16.6947 34.8573 19.4347L35.3127 21.3822ZM21.9509 25.9978C24.9955 24.3143 29.5335 22.7338 35.3127 21.3822L34.8573 19.4347C28.9996 20.8047 24.2591 22.4361 20.9831 24.2475L21.9509 25.9978ZM18.7161 28.4066C19.3713 27.6577 20.428 26.8399 21.9509 25.9978L20.9831 24.2475C19.3452 25.1532 18.0733 26.104 17.2109 27.0897L18.7161 28.4066ZM17.8956 30.1411C17.8956 29.7131 18.0727 29.1419 18.7161 28.4066L17.2109 27.0897C16.3479 28.076 15.8956 29.0965 15.8956 30.1411H17.8956ZM18.7161 31.8757C18.0727 31.1403 17.8956 30.5691 17.8956 30.1411H15.8956C15.8956 31.1857 16.3479 32.2063 17.2109 33.1926L18.7161 31.8757ZM21.9509 34.2845C20.428 33.4424 19.3713 32.6246 18.7161 31.8757L17.2109 33.1926C18.0733 34.1783 19.3452 35.129 20.9831 36.0348L21.9509 34.2845ZM35.3127 38.9001C29.5335 37.5484 24.9955 35.968 21.9509 34.2845L20.9831 36.0348C24.2591 37.8462 28.9996 39.4775 34.8573 40.8475L35.3127 38.9001ZM80.6347 43.2823C62.8641 43.2823 46.8394 41.5959 35.3127 38.9001L34.8573 40.8475C46.5727 43.5876 62.7575 45.2823 80.6347 45.2823V43.2823ZM125.957 38.9001C114.43 41.5959 98.4054 43.2823 80.6347 43.2823V45.2823C98.5119 45.2823 114.697 43.5876 126.412 40.8475L125.957 38.9001ZM139.319 34.2845C136.274 35.968 131.736 37.5484 125.957 38.9001L126.412 40.8475C132.27 39.4775 137.01 37.8462 140.286 36.0348L139.319 34.2845ZM142.553 31.8757C141.898 32.6246 140.841 33.4424 139.319 34.2845L140.286 36.0348C141.924 35.129 143.196 34.1783 144.059 33.1926L142.553 31.8757ZM80.6347 46.2823C96.9546 46.2823 111.891 44.8749 123.344 42.541C129.067 41.3746 133.95 39.971 137.71 38.3815C141.424 36.8115 144.216 34.99 145.534 32.8867L143.839 31.8247C142.866 33.3777 140.573 35.0001 136.931 36.5394C133.336 38.0591 128.593 39.4302 122.944 40.5813C111.651 42.8826 96.8528 44.2823 80.6347 44.2823V46.2823ZM16.098 33.4099C17.6139 35.4071 20.4923 37.1564 24.2704 38.6745C28.0856 40.2076 32.9623 41.5605 38.6384 42.6841C49.9943 44.9322 64.6506 46.2823 80.6347 46.2823V44.2823C64.751 44.2823 50.2284 42.9397 39.0268 40.7222C33.4241 39.6131 28.6774 38.29 25.0161 36.8188C21.3176 35.3326 18.8664 33.7493 17.6911 32.2007L16.098 33.4099ZM17.8945 65.9815L17.8945 32.8053H15.8945L15.8945 65.9815H17.8945ZM18.3642 63.2265C17.4452 63.8991 16.6769 64.6146 16.0981 65.3767L17.6909 66.5862C18.1227 66.0176 18.7366 65.4324 19.5454 64.8404L18.3642 63.2265ZM20.0571 63.8463L19.7618 63.4429L18.1478 64.6241L18.4431 65.0276L20.0571 63.8463ZM20.3524 64.2498L20.0571 63.8463L18.4431 65.0276L18.7384 65.431L20.3524 64.2498ZM17.8945 68.6453C17.8953 67.9911 18.34 66.9618 20.136 65.6474L18.9548 64.0335C16.9672 65.4882 15.8964 67.037 15.8945 68.643L17.8945 68.6453ZM17.8945 68.6476L17.8945 68.6447L15.8945 68.6436L15.8945 68.6465L17.8945 68.6476ZM17.8945 68.6494L17.8945 68.6465L15.8945 68.6476L15.8945 68.6505L17.8945 68.6494ZM18.3598 69.9264C18.0076 69.4092 17.8949 68.9855 17.8945 68.6488L15.8945 68.6511C15.8955 69.464 16.1755 70.272 16.7067 71.0522L18.3598 69.9264ZM18.7151 70.3815C18.5756 70.2221 18.4578 70.0699 18.359 69.9253L16.7075 71.0533C16.8553 71.2697 17.0228 71.4846 17.2099 71.6984L18.7151 70.3815ZM21.9499 72.7903C20.427 71.9482 19.3703 71.1304 18.7151 70.3815L17.2099 71.6984C18.0723 72.6841 19.3442 73.6348 20.9821 74.5406L21.9499 72.7903ZM35.3117 77.4059C29.5324 76.0542 24.9944 74.4738 21.9499 72.7903L20.9821 74.5406C24.2581 76.352 28.9985 77.9833 34.8562 79.3533L35.3117 77.4059ZM80.6337 81.7881C62.8631 81.7881 46.8383 80.1017 35.3117 77.4059L34.8562 79.3533C46.5717 82.0933 62.7565 83.7881 80.6337 83.7881V81.7881ZM125.956 77.4059C114.429 80.1017 98.4043 81.7881 80.6337 81.7881V83.7881C98.5109 83.7881 114.696 82.0933 126.411 79.3533L125.956 77.4059ZM139.317 72.7903C136.273 74.4738 131.735 76.0542 125.956 77.4059L126.411 79.3533C132.269 77.9833 137.009 76.352 140.285 74.5406L139.317 72.7903ZM142.552 70.3815C141.897 71.1304 140.84 71.9482 139.317 72.7903L140.285 74.5406C141.923 73.6348 143.195 72.6841 144.058 71.6984L142.552 70.3815ZM142.878 69.9688C142.786 70.1004 142.678 70.238 142.552 70.3814L144.058 71.6984C144.226 71.506 144.378 71.3126 144.515 71.1181L142.878 69.9688ZM143.373 68.647C143.373 68.993 143.254 69.4319 142.877 69.97L144.516 71.117C145.077 70.3157 145.373 69.4842 145.373 68.647H143.373ZM141.131 65.6474C142.929 66.963 143.373 67.9929 143.373 68.647H145.373C145.373 67.0397 144.302 65.4894 142.312 64.0335L141.131 65.6474ZM141.21 63.8464L140.915 64.2498L142.529 65.431L142.824 65.0275L141.21 63.8464ZM141.506 63.4429L141.21 63.8463L142.824 65.0276L143.119 64.6241L141.506 63.4429ZM145.534 65.9035C144.93 64.939 144.027 64.0491 142.903 63.2265L141.722 64.8404C142.716 65.5678 143.411 66.2821 143.839 66.9649L145.534 65.9035ZM143.686 32.3557V66.4342H145.686V32.3557H143.686ZM142.903 74.0676C144.866 72.6306 146.209 70.9436 146.359 69.0029L144.365 68.8489C144.282 69.9265 143.503 71.1499 141.722 72.4537L142.903 74.0676ZM132.149 78.8636C136.754 77.4721 140.448 75.8644 142.903 74.0676L141.722 72.4537C139.535 74.054 136.093 75.5827 131.571 76.9491L132.149 78.8636ZM132.825 77.6433L132.825 77.6432L130.895 78.1695L130.895 78.1695L132.825 77.6433ZM120.862 81.5279C125.061 80.7537 128.855 79.8592 132.149 78.8637L131.571 76.9492C128.362 77.9187 124.642 78.7971 120.499 79.561L120.862 81.5279ZM119.694 80.7088L119.694 80.7088L121.667 80.3801L121.667 80.38L119.694 80.7088ZM109.425 83.2188C113.493 82.748 117.323 82.1802 120.862 81.5278L120.499 79.5609C117.009 80.2044 113.223 80.7658 109.195 81.232L109.425 83.2188ZM110.299 82.0734L110.299 82.0733L108.322 82.3774L108.322 82.3775L110.299 82.0734ZM97.9302 84.2438C101.928 83.9863 105.773 83.6416 109.425 83.2189L109.195 81.2321C105.578 81.6508 101.767 81.9925 97.8016 82.248L97.9302 84.2438ZM96.8688 83.3225L96.8688 83.3226L98.8629 83.1692L98.8629 83.1691L96.8688 83.3225ZM86.4039 84.729C90.3575 84.6476 94.2102 84.4834 97.9302 84.2437L97.8016 82.2479C94.1114 82.4856 90.2879 82.6486 86.3628 82.7294L86.4039 84.729ZM87.3833 83.7293V83.7292H85.3833V83.7293H87.3833ZM80.6336 84.7882C82.5781 84.7882 84.5027 84.7682 86.4039 84.7291L86.3628 82.7295C84.4753 82.7683 82.5644 82.7882 80.6336 82.7882V84.7882ZM74.8633 84.7291C76.7646 84.7682 78.6892 84.7882 80.6336 84.7882V82.7882C78.7028 82.7882 76.792 82.7683 74.9045 82.7295L74.8633 84.7291ZM73.8846 83.6935L73.8846 83.6936L75.8833 83.765L75.8833 83.7649L73.8846 83.6935ZM63.3371 84.2437C67.057 84.4834 70.9097 84.6476 74.8633 84.729L74.9045 82.7294C70.9794 82.6486 67.1558 82.4856 63.4657 82.2479L63.3371 84.2437ZM64.3988 83.3172L64.3989 83.317L62.4039 83.1746L62.4039 83.1747L64.3988 83.3172ZM51.8421 83.2189C55.4947 83.6416 59.3396 83.9863 63.3371 84.2438L63.4657 82.248C59.5 81.9925 55.689 81.6508 52.072 81.2321L51.8421 83.2189ZM50.962 82.1259L50.962 82.126L52.9521 82.325L52.9521 82.3249L50.962 82.1259ZM40.4053 81.5278C43.944 82.1802 47.7746 82.748 51.8421 83.2188L52.0721 81.232C48.0439 80.7658 44.2578 80.2044 40.768 79.5609L40.4053 81.5278ZM41.5702 80.7248L41.5703 80.7247L39.6031 80.364L39.603 80.3641L41.5702 80.7248ZM29.1179 78.8637C32.4123 79.8592 36.2064 80.7537 40.4053 81.5279L40.768 79.561C36.6248 78.7971 32.905 77.9188 29.6964 76.9492L29.1179 78.8637ZM28.4489 77.6204L28.4489 77.6205L30.3654 78.1924L30.3654 78.1922L28.4489 77.6204ZM18.3643 74.0675C20.8193 75.8643 24.5129 77.472 29.1179 78.8636L29.6964 76.9491C25.1746 75.5827 21.7321 74.0539 19.5455 72.4536L18.3643 74.0675ZM19.7594 73.8544L19.7595 73.8543L18.1503 72.6667L18.1502 72.6668L19.7594 73.8544ZM14.8982 68.8312C14.9785 70.8427 16.3439 72.5889 18.3642 74.0676L19.5454 72.4537C17.7098 71.1102 16.9406 69.8544 16.8966 68.7515L14.8982 68.8312ZM15.8945 69.7914H15.8974V67.7914H15.8945V69.7914ZM14.8945 68.647V68.7914H16.8945V68.647H14.8945ZM14.8945 30.1267V68.647H16.8945V30.1267H14.8945ZM15.8956 29.1267H15.8945V31.1267H15.8956V29.1267ZM80.6347 14C62.7145 14 46.4582 15.697 34.65 18.4562C28.7538 19.834 23.9116 21.4891 20.5169 23.3626C18.82 24.2992 17.4387 25.3152 16.4701 26.4177C15.496 27.5265 14.9011 28.7698 14.8957 30.1227L16.8956 30.1307C16.8986 29.3947 17.2163 28.5986 17.9726 27.7378C18.7344 26.8706 19.9012 25.9868 21.4833 25.1136C24.647 23.3676 29.2874 21.7632 35.1051 20.4038C46.7246 17.6886 62.8211 16 80.6347 16V14ZM146.374 30.0956C146.36 28.7448 145.76 27.5042 144.782 26.398C143.81 25.2978 142.426 24.2835 140.727 23.3483C137.328 21.4776 132.484 19.825 126.589 18.4492C114.784 15.6941 98.5398 14 80.6347 14V16C98.4333 16 114.518 17.6857 126.135 20.3969C131.951 21.7543 136.593 23.3564 139.762 25.1004C141.347 25.9726 142.517 26.8557 143.283 27.7225C144.044 28.5835 144.366 29.3798 144.374 30.1154L146.374 30.0956ZM145.686 29.1055H145.374V31.1055H145.686V29.1055ZM146.686 68.9259V30.1055H144.686V68.9259H146.686ZM145.362 69.9259H145.686V67.9259H145.362V69.9259ZM132.673 60.1556L132.817 59.6769L130.903 59.0984L130.758 59.577L132.673 60.1556ZM132.528 60.6342L132.673 60.1556L130.758 59.577L130.614 60.0557L132.528 60.6342ZM120.318 58.7165C124.433 59.4752 128.116 60.3456 131.282 61.3022L131.86 59.3877C128.609 58.4051 124.852 57.5187 120.681 56.7496L120.318 58.7165ZM119.607 57.06L119.516 57.5517L121.483 57.9144L121.573 57.4227L119.607 57.06ZM119.697 56.5683L119.607 57.06L121.573 57.4227L121.664 56.931L119.697 56.5683ZM132.149 58.4304C128.855 57.4349 125.061 56.5404 120.862 55.7662L120.499 57.7331C124.642 58.497 128.362 59.3753 131.571 60.3449L132.149 58.4304ZM110.246 55.6803L110.304 55.1836L108.317 54.9536L108.259 55.4503L110.246 55.6803ZM110.189 56.1769L110.246 55.6803L108.259 55.4503L108.202 55.947L110.189 56.1769ZM97.7373 56.044C101.687 56.2985 105.481 56.6388 109.08 57.0553L109.31 55.0686C105.675 54.6479 101.847 54.3047 97.8659 54.0482L97.7373 56.044ZM96.8358 54.4829L96.8037 54.9818L98.7995 55.1104L98.8317 54.6114L96.8358 54.4829ZM96.8679 53.9839L96.8358 54.4829L98.8317 54.6114L98.8638 54.1125L96.8679 53.9839ZM109.425 54.0752C105.773 53.6525 101.928 53.3078 97.9302 53.0502L97.8016 55.0461C101.767 55.3016 105.578 55.6433 109.195 56.062L109.425 54.0752ZM87.3728 54.0853L87.3831 53.5854L85.3836 53.5442L85.3733 54.0441L87.3728 54.0853ZM87.3626 54.5852L87.3728 54.0853L85.3733 54.0441L85.363 54.544L87.3626 54.5852ZM80.6336 55.5059C82.5576 55.5059 84.4616 55.5257 86.3422 55.5644L86.3833 53.5648C84.489 53.5258 82.5713 53.5059 80.6336 53.5059V55.5059ZM74.9251 55.5644C76.8057 55.5257 78.7097 55.5059 80.6336 55.5059V53.5059C78.696 53.5059 76.7783 53.5258 74.8839 53.5648L74.9251 55.5644ZM73.8944 54.0853L73.9047 54.5852L75.9043 54.544L75.894 54.0441L73.8944 54.0853ZM73.8841 53.5854L73.8944 54.0853L75.894 54.0441L75.8837 53.5442L73.8841 53.5854ZM80.6336 52.5059C78.6892 52.5059 76.7646 52.5259 74.8633 52.565L74.9045 54.5646C76.792 54.5257 78.7029 54.5059 80.6336 54.5059V52.5059ZM86.4039 52.565C84.5027 52.5259 82.5781 52.5059 80.6336 52.5059V54.5059C82.5644 54.5059 84.4753 54.5257 86.3628 54.5646L86.4039 52.565ZM64.4315 54.4829L64.3993 53.9839L62.4035 54.1125L62.4356 54.6114L64.4315 54.4829ZM64.4636 54.9818L64.4315 54.4829L62.4356 54.6114L62.4677 55.1104L64.4636 54.9818ZM52.187 57.0553C55.7862 56.6388 59.5803 56.2985 63.53 56.044L63.4014 54.0482C59.4198 54.3047 55.5919 54.6479 51.9571 55.0686L52.187 57.0553ZM51.0212 55.6803L51.0787 56.1769L53.0654 55.947L53.0079 55.4503L51.0212 55.6803ZM50.9637 55.1836L51.0212 55.6803L53.0079 55.4503L52.9504 54.9536L50.9637 55.1836ZM63.3371 53.0502C59.3396 53.3078 55.4947 53.6525 51.8421 54.0752L52.072 56.062C55.689 55.6433 59.5 55.3016 63.4657 55.0461L63.3371 53.0502ZM41.6607 57.06L41.5701 56.5683L39.6032 56.931L39.6939 57.4227L41.6607 57.06ZM41.7514 57.5517L41.6607 57.06L39.6939 57.4227L39.7845 57.9144L41.7514 57.5517ZM29.9857 61.3022C33.1514 60.3456 36.834 59.4752 40.9493 58.7165L40.5866 56.7496C36.4156 57.5187 32.6587 58.4051 29.4071 59.3877L29.9857 61.3022ZM28.5945 60.1556L28.7391 60.6342L30.6536 60.0557L30.509 59.577L28.5945 60.1556ZM28.4499 59.6769L28.5945 60.1556L30.509 59.577L30.3644 59.0984L28.4499 59.6769ZM40.4053 55.7662C36.2063 56.5404 32.4123 57.4349 29.1179 58.4304L29.6964 60.3449C32.905 59.3753 36.6248 58.497 40.768 57.7331L40.4053 55.7662Z" fill="white" mask="url(#path-2-inside-1)"/>
</g>
<defs>
<filter id="filter0_d" x="0.894531" y="0" width="159.792" height="98.7882" filterUnits="userSpaceOnUse" color-interpolation-filters="sRGB">
<feFlood flood-opacity="0" result="BackgroundImageFix"/>
<feColorMatrix in="SourceAlpha" type="matrix" values="0 0 0 0 0 0 0 0 0 0 0 0 0 0 0 0 0 0 127 0"/>
<feOffset/>
<feGaussianBlur stdDeviation="7.5"/>
<feColorMatrix type="matrix" values="0 0 0 0 1 0 0 0 0 1 0 0 0 0 1 0 0 0 1 0"/>
<feBlend mode="normal" in2="BackgroundImageFix" result="effect1_dropShadow"/>
<feBlend mode="normal" in="SourceGraphic" in2="effect1_dropShadow" result="shape"/>
</filter>
</defs>
</svg>
