<svg width="256" height="248" viewBox="0 0 256 248" fill="none" xmlns="http://www.w3.org/2000/svg">
<path fill-rule="evenodd" clip-rule="evenodd" d="M175.685 9.86954C153.152 0.535854 128.356 -1.90626 104.435 2.85201C80.5136 7.61028 58.5403 19.3552 41.2939 36.6016L42.001 37.3087C59.1076 20.2022 80.9026 8.55248 104.63 3.83279C128.358 -0.886893 152.952 1.53542 175.303 10.7934C197.653 20.0514 216.757 35.7293 230.197 55.8445C243.413 75.6231 250.57 98.8183 250.806 122.587L247.331 119.112L246.624 119.819L250.959 124.154L251.312 124.508L251.666 124.154L256.001 119.819L255.294 119.112L251.806 122.6C251.573 98.629 244.357 75.2356 231.029 55.2889C217.478 35.0093 198.219 19.2032 175.685 9.86954ZM81.3017 237.732C103.835 247.066 128.63 249.508 152.552 244.75C176.473 239.991 198.447 228.247 215.693 211L214.986 210.293C197.879 227.4 176.084 239.049 152.357 243.769C128.629 248.489 104.035 246.066 81.6844 236.808C59.3336 227.55 40.23 211.872 26.7895 191.757C13.5737 171.978 6.41674 148.783 6.18113 125.014L9.65702 128.49L10.3641 127.782L6.02903 123.447L5.67547 123.094L5.32192 123.447L0.986816 127.782L1.69392 128.49L5.18097 125.002C5.41448 148.973 12.6303 172.366 25.958 192.313C39.5084 212.592 58.7682 228.399 81.3017 237.732Z" fill="#979797"/>
</svg>
