<svg width="193" height="103" viewBox="0 0 193 103" fill="none" xmlns="http://www.w3.org/2000/svg">
<path opacity="0.7" fill-rule="evenodd" clip-rule="evenodd" d="M96.5279 1.41553C149.352 1.41553 192.232 11.3732 192.724 23.7005L192.732 59.5945V80.5939H192.724C192.233 92.9214 149.353 102.879 96.5279 102.879C43.7031 102.879 0.822677 92.9214 0.331412 80.5939H0.327149L0.327149 80.3831L0.327148 80.3798L0.327149 80.3766L0.327148 59.8093L0.327148 59.5945L0.331427 23.7005C0.823551 11.3732 43.7037 1.41553 96.5279 1.41553Z" fill="#161616"/>
<mask id="path-2-inside-1" fill="white">
<path fill-rule="evenodd" clip-rule="evenodd" d="M191.856 23.0784H191.835V23.5564C191.727 24.6692 191.188 25.8194 190.149 27.0073C188.971 28.3536 187.189 29.7 184.812 31.014C180.06 33.6418 173.117 36.0405 164.452 38.0671C147.137 42.1166 123.167 44.6308 96.6552 44.6308C70.1434 44.6308 46.1733 42.1166 28.8588 38.0671C20.1936 36.0405 13.2506 33.6418 8.49832 31.014C6.12185 29.7 4.33947 28.3536 3.16155 27.0073C1.98929 25.6675 1.45449 24.3757 1.45449 23.1314C1.45449 21.8871 1.98929 20.5953 3.16155 19.2555C4.33947 17.9092 6.12185 16.5628 8.49832 15.2487C13.2506 12.6209 20.1936 10.2223 28.8588 8.19566C46.1733 4.14615 70.1434 1.63202 96.6552 1.63202C123.167 1.63202 147.137 4.14615 164.452 8.19566C173.117 10.2223 180.06 12.6209 184.812 15.2487C187.189 16.5628 188.971 17.9092 190.149 19.2555C191.305 20.5763 191.841 21.8504 191.856 23.0784ZM192.835 23.6036C192.849 23.4466 192.856 23.2892 192.856 23.1314C192.856 10.7053 149.785 0.632019 96.6552 0.632019C43.556 0.632019 0.504628 10.6936 0.454533 23.1097H0.453613L0.453616 80.3453L0.453613 80.3505L0.453616 80.3557L0.453616 80.5645H0.457873C0.517587 82.0636 1.20422 83.5278 2.45941 84.9432L2.4596 84.943C4.21823 86.9262 7.09297 88.8138 10.9233 90.5682L10.9233 90.5684C13.6586 91.8213 16.8814 93.0063 20.533 94.1097L20.5331 94.1096C23.5559 95.023 26.8726 95.8805 30.4501 96.6744L30.4501 96.6746C33.6079 97.3754 36.9689 98.0265 40.5103 98.6228L40.5103 98.6226C43.7482 99.1678 47.1368 99.667 50.6588 100.116L50.6588 100.116C53.939 100.535 57.3349 100.91 60.8324 101.238L60.8324 101.238C64.1501 101.55 67.5592 101.819 71.0477 102.044L71.0477 102.044C74.3906 102.259 77.8065 102.434 81.2847 102.564L81.2847 102.564C84.645 102.69 88.0635 102.776 91.5306 102.818V102.819C93.2272 102.839 94.9355 102.85 96.6544 102.85C98.3732 102.85 100.081 102.839 101.778 102.819V102.818C105.245 102.776 108.664 102.69 112.024 102.564V102.564C115.502 102.434 118.918 102.259 122.261 102.044L122.261 102.044C125.75 101.819 129.159 101.55 132.476 101.238C135.974 100.91 139.37 100.535 142.65 100.116C146.172 99.6672 149.561 99.1679 152.798 98.6228C156.34 98.0265 159.701 97.3754 162.859 96.6746C166.436 95.8807 169.753 95.0231 172.776 94.1097C176.427 93.0063 179.65 91.8213 182.385 90.5684C186.216 88.814 189.091 86.9264 190.849 84.9432C191.024 84.7459 191.188 84.5476 191.341 84.3484C192.284 83.1188 192.8 81.8545 192.851 80.5643H192.851C192.854 80.4931 192.855 80.4218 192.855 80.3505C192.855 80.1961 192.848 80.042 192.835 79.8883V23.6036ZM190.101 84.2798L190.101 84.2797C191.175 83.0691 191.728 81.8973 191.835 80.7646H191.835V79.9346C191.727 78.8024 191.174 77.6312 190.101 76.4213L190.475 76.0896L190.849 75.7578C191.231 76.1883 191.56 76.6234 191.835 77.0625V26.4208C185.029 37.2876 145.008 45.6308 96.6552 45.6308C48.251 45.6308 8.19642 37.2698 1.45361 26.386L1.45362 77.0944C1.73253 76.6444 2.06838 76.1988 2.45942 75.7578L2.83351 76.0896L3.20761 76.4213C2.00416 77.7784 1.45497 79.0867 1.45362 80.3459L1.45361 80.3505L1.45362 80.3552C1.45369 80.4247 1.45544 80.4944 1.45887 80.5643H1.45912C1.51709 81.7425 2.05567 82.9631 3.16091 84.2263C4.33884 85.5726 6.12122 86.919 8.49769 88.233C13.25 90.8609 20.1929 93.2595 28.8581 95.2861C46.1726 99.3356 70.1428 101.85 96.6546 101.85C109.29 101.85 121.348 101.279 132.383 100.243C135.87 99.9153 139.255 99.5414 142.523 99.1245C146.033 98.6768 149.408 98.1795 152.632 97.6367C156.159 97.043 159.503 96.395 162.642 95.6983C163.253 95.5628 163.856 95.4253 164.451 95.2861C167.325 94.6141 170.009 93.9012 172.486 93.1525C176.106 92.0586 179.285 90.8887 181.969 89.6592C182.989 89.1922 183.937 88.7165 184.812 88.233C187.157 86.9364 188.923 85.6083 190.101 84.2798ZM182.385 70.1326L182.177 70.5872L181.969 71.0418C179.285 69.8123 176.106 68.6424 172.486 67.5486L172.631 67.0699L172.776 66.5913C176.427 67.6947 179.65 68.8797 182.385 70.1326ZM162.859 64.0264C159.701 63.3257 156.34 62.6745 152.798 62.0782L152.715 62.5713L152.632 63.0644C156.159 63.6581 159.503 64.306 162.642 65.0027L162.75 64.5146L162.859 64.0264ZM142.65 60.5846L142.587 61.0806L142.523 61.5766C139.255 61.1596 135.87 60.7858 132.383 60.4583L132.43 59.9605L132.476 59.4627C135.974 59.7911 139.37 60.1662 142.65 60.5846ZM122.261 58.6569L122.229 59.1559L122.197 59.6549C118.863 59.4401 115.456 59.2663 111.987 59.136L112.005 58.6364L112.024 58.1367C115.502 58.2674 118.918 58.4416 122.261 58.6569ZM101.778 57.8825L101.772 58.3825L101.766 58.8824C100.073 58.8617 98.3691 58.8511 96.6544 58.8511C94.9396 58.8511 93.2354 58.8617 91.5429 58.8824L91.5367 58.3825L91.5306 57.8825C93.2272 57.8617 94.9355 57.8511 96.6544 57.8511C98.3732 57.8511 100.081 57.8617 101.778 57.8825ZM81.2847 58.1367L81.3034 58.6364L81.3222 59.136C77.8528 59.2663 74.4458 59.4401 71.1119 59.6549L71.0798 59.1559L71.0477 58.6569C74.3906 58.4416 77.8065 58.2674 81.2847 58.1367ZM60.8324 59.4627L60.8792 59.9605L60.9259 60.4583C57.439 60.7858 54.0541 61.1596 50.7853 61.5766L50.722 61.0806L50.6588 60.5846C53.939 60.1662 57.3349 59.7911 60.8324 59.4627ZM40.5103 62.0782L40.5933 62.5713L40.6763 63.0644C37.1502 63.6581 33.8062 64.306 30.6667 65.0027L30.5584 64.5146L30.4501 64.0264C33.6079 63.3257 36.9689 62.6745 40.5103 62.0782ZM20.533 66.5913L20.6777 67.0699L20.8223 67.5486C17.2024 68.6424 14.024 69.8123 11.3397 71.0418L11.1315 70.5872L10.9233 70.1326C13.6586 68.8797 16.8814 67.6947 20.533 66.5913Z"/>
</mask>
<path fill-rule="evenodd" clip-rule="evenodd" d="M191.856 23.0784H191.835V23.5564C191.727 24.6692 191.188 25.8194 190.149 27.0073C188.971 28.3536 187.189 29.7 184.812 31.014C180.06 33.6418 173.117 36.0405 164.452 38.0671C147.137 42.1166 123.167 44.6308 96.6552 44.6308C70.1434 44.6308 46.1733 42.1166 28.8588 38.0671C20.1936 36.0405 13.2506 33.6418 8.49832 31.014C6.12185 29.7 4.33947 28.3536 3.16155 27.0073C1.98929 25.6675 1.45449 24.3757 1.45449 23.1314C1.45449 21.8871 1.98929 20.5953 3.16155 19.2555C4.33947 17.9092 6.12185 16.5628 8.49832 15.2487C13.2506 12.6209 20.1936 10.2223 28.8588 8.19566C46.1733 4.14615 70.1434 1.63202 96.6552 1.63202C123.167 1.63202 147.137 4.14615 164.452 8.19566C173.117 10.2223 180.06 12.6209 184.812 15.2487C187.189 16.5628 188.971 17.9092 190.149 19.2555C191.305 20.5763 191.841 21.8504 191.856 23.0784ZM192.835 23.6036C192.849 23.4466 192.856 23.2892 192.856 23.1314C192.856 10.7053 149.785 0.632019 96.6552 0.632019C43.556 0.632019 0.504628 10.6936 0.454533 23.1097H0.453613L0.453616 80.3453L0.453613 80.3505L0.453616 80.3557L0.453616 80.5645H0.457873C0.517587 82.0636 1.20422 83.5278 2.45941 84.9432L2.4596 84.943C4.21823 86.9262 7.09297 88.8138 10.9233 90.5682L10.9233 90.5684C13.6586 91.8213 16.8814 93.0063 20.533 94.1097L20.5331 94.1096C23.5559 95.023 26.8726 95.8805 30.4501 96.6744L30.4501 96.6746C33.6079 97.3754 36.9689 98.0265 40.5103 98.6228L40.5103 98.6226C43.7482 99.1678 47.1368 99.667 50.6588 100.116L50.6588 100.116C53.939 100.535 57.3349 100.91 60.8324 101.238L60.8324 101.238C64.1501 101.55 67.5592 101.819 71.0477 102.044L71.0477 102.044C74.3906 102.259 77.8065 102.434 81.2847 102.564L81.2847 102.564C84.645 102.69 88.0635 102.776 91.5306 102.818V102.819C93.2272 102.839 94.9355 102.85 96.6544 102.85C98.3732 102.85 100.081 102.839 101.778 102.819V102.818C105.245 102.776 108.664 102.69 112.024 102.564V102.564C115.502 102.434 118.918 102.259 122.261 102.044L122.261 102.044C125.75 101.819 129.159 101.55 132.476 101.238C135.974 100.91 139.37 100.535 142.65 100.116C146.172 99.6672 149.561 99.1679 152.798 98.6228C156.34 98.0265 159.701 97.3754 162.859 96.6746C166.436 95.8807 169.753 95.0231 172.776 94.1097C176.427 93.0063 179.65 91.8213 182.385 90.5684C186.216 88.814 189.091 86.9264 190.849 84.9432C191.024 84.7459 191.188 84.5476 191.341 84.3484C192.284 83.1188 192.8 81.8545 192.851 80.5643H192.851C192.854 80.4931 192.855 80.4218 192.855 80.3505C192.855 80.1961 192.848 80.042 192.835 79.8883V23.6036ZM190.101 84.2798L190.101 84.2797C191.175 83.0691 191.728 81.8973 191.835 80.7646H191.835V79.9346C191.727 78.8024 191.174 77.6312 190.101 76.4213L190.475 76.0896L190.849 75.7578C191.231 76.1883 191.56 76.6234 191.835 77.0625V26.4208C185.029 37.2876 145.008 45.6308 96.6552 45.6308C48.251 45.6308 8.19642 37.2698 1.45361 26.386L1.45362 77.0944C1.73253 76.6444 2.06838 76.1988 2.45942 75.7578L2.83351 76.0896L3.20761 76.4213C2.00416 77.7784 1.45497 79.0867 1.45362 80.3459L1.45361 80.3505L1.45362 80.3552C1.45369 80.4247 1.45544 80.4944 1.45887 80.5643H1.45912C1.51709 81.7425 2.05567 82.9631 3.16091 84.2263C4.33884 85.5726 6.12122 86.919 8.49769 88.233C13.25 90.8609 20.1929 93.2595 28.8581 95.2861C46.1726 99.3356 70.1428 101.85 96.6546 101.85C109.29 101.85 121.348 101.279 132.383 100.243C135.87 99.9153 139.255 99.5414 142.523 99.1245C146.033 98.6768 149.408 98.1795 152.632 97.6367C156.159 97.043 159.503 96.395 162.642 95.6983C163.253 95.5628 163.856 95.4253 164.451 95.2861C167.325 94.6141 170.009 93.9012 172.486 93.1525C176.106 92.0586 179.285 90.8887 181.969 89.6592C182.989 89.1922 183.937 88.7165 184.812 88.233C187.157 86.9364 188.923 85.6083 190.101 84.2798ZM182.385 70.1326L182.177 70.5872L181.969 71.0418C179.285 69.8123 176.106 68.6424 172.486 67.5486L172.631 67.0699L172.776 66.5913C176.427 67.6947 179.65 68.8797 182.385 70.1326ZM162.859 64.0264C159.701 63.3257 156.34 62.6745 152.798 62.0782L152.715 62.5713L152.632 63.0644C156.159 63.6581 159.503 64.306 162.642 65.0027L162.75 64.5146L162.859 64.0264ZM142.65 60.5846L142.587 61.0806L142.523 61.5766C139.255 61.1596 135.87 60.7858 132.383 60.4583L132.43 59.9605L132.476 59.4627C135.974 59.7911 139.37 60.1662 142.65 60.5846ZM122.261 58.6569L122.229 59.1559L122.197 59.6549C118.863 59.4401 115.456 59.2663 111.987 59.136L112.005 58.6364L112.024 58.1367C115.502 58.2674 118.918 58.4416 122.261 58.6569ZM101.778 57.8825L101.772 58.3825L101.766 58.8824C100.073 58.8617 98.3691 58.8511 96.6544 58.8511C94.9396 58.8511 93.2354 58.8617 91.5429 58.8824L91.5367 58.3825L91.5306 57.8825C93.2272 57.8617 94.9355 57.8511 96.6544 57.8511C98.3732 57.8511 100.081 57.8617 101.778 57.8825ZM81.2847 58.1367L81.3034 58.6364L81.3222 59.136C77.8528 59.2663 74.4458 59.4401 71.1119 59.6549L71.0798 59.1559L71.0477 58.6569C74.3906 58.4416 77.8065 58.2674 81.2847 58.1367ZM60.8324 59.4627L60.8792 59.9605L60.9259 60.4583C57.439 60.7858 54.0541 61.1596 50.7853 61.5766L50.722 61.0806L50.6588 60.5846C53.939 60.1662 57.3349 59.7911 60.8324 59.4627ZM40.5103 62.0782L40.5933 62.5713L40.6763 63.0644C37.1502 63.6581 33.8062 64.306 30.6667 65.0027L30.5584 64.5146L30.4501 64.0264C33.6079 63.3257 36.9689 62.6745 40.5103 62.0782ZM20.533 66.5913L20.6777 67.0699L20.8223 67.5486C17.2024 68.6424 14.024 69.8123 11.3397 71.0418L11.1315 70.5872L10.9233 70.1326C13.6586 68.8797 16.8814 67.6947 20.533 66.5913Z" fill="white"/>
<path d="M191.835 23.0784V22.0784H190.835V23.0784H191.835ZM191.856 23.0784V24.0784H192.868L192.856 23.0662L191.856 23.0784ZM191.835 23.5564L192.83 23.6536L192.835 23.6051V23.5564H191.835ZM190.149 27.0073L189.396 26.3488L190.149 27.0073ZM184.812 31.014L184.328 30.1389V30.1389L184.812 31.014ZM164.452 38.0671L164.224 37.0934L164.452 38.0671ZM28.8588 38.0671L29.0865 37.0934L28.8588 38.0671ZM8.49832 31.014L8.01442 31.8892L8.49832 31.014ZM3.16155 27.0073L2.40895 27.6658H2.40895L3.16155 27.0073ZM3.16155 19.2555L2.40895 18.597H2.40895L3.16155 19.2555ZM8.49832 15.2487L8.98222 16.1239L8.49832 15.2487ZM28.8588 8.19566L28.631 7.22193L28.8588 8.19566ZM164.452 8.19566L164.224 9.16938V9.16938L164.452 8.19566ZM184.812 15.2487L184.328 16.1239V16.1239L184.812 15.2487ZM190.149 19.2555L189.396 19.9139H189.396L190.149 19.2555ZM192.835 23.6036L191.839 23.5159L191.835 23.5597V23.6036H192.835ZM0.454533 23.1097V24.1097H1.45051L1.45452 23.1137L0.454533 23.1097ZM0.453613 23.1097V22.1097H-0.546387V23.1097H0.453613ZM0.453616 80.3453L1.45362 80.3458V80.3453H0.453616ZM0.453613 80.3505L-0.546387 80.35L-0.546387 80.351L0.453613 80.3505ZM0.453616 80.3557H1.45362L1.45362 80.3552L0.453616 80.3557ZM0.453616 80.5645H-0.546384V81.5645H0.453616V80.5645ZM0.457873 80.5645L1.45708 80.5247L1.41883 79.5645H0.457873V80.5645ZM2.45941 84.9432L1.71123 85.6067L2.37219 86.352L3.12004 85.6939L2.45941 84.9432ZM2.4596 84.943L3.2078 84.2796L2.54684 83.5342L1.79898 84.1923L2.4596 84.943ZM10.9233 90.5682L11.8306 90.9888L12.2531 90.0774L11.3398 89.659L10.9233 90.5682ZM10.9233 90.5684L10.016 90.1478L9.59352 91.0592L10.5068 91.4776L10.9233 90.5684ZM20.533 94.1097L20.2438 95.067L21.197 95.355L21.489 94.403L20.533 94.1097ZM20.5331 94.1096L20.8223 93.1523L19.8691 92.8643L19.5771 93.8162L20.5331 94.1096ZM30.4501 96.6744L31.4279 96.884L31.6359 95.9133L30.6668 95.6982L30.4501 96.6744ZM30.4501 96.6746L29.4723 96.4651L29.2643 97.4358L30.2334 97.6508L30.4501 96.6746ZM40.5103 98.6228L40.3442 99.6089L41.3405 99.7766L41.498 98.7787L40.5103 98.6228ZM40.5103 98.6226L40.6763 97.6365L39.6801 97.4688L39.5225 98.4667L40.5103 98.6226ZM50.6588 100.116L51.6493 100.254L51.7884 99.2523L50.7853 99.1243L50.6588 100.116ZM50.6588 100.116L49.6683 99.9789L49.5292 100.98L50.5322 101.108L50.6588 100.116ZM60.8324 101.238L60.7389 102.234L61.7347 102.327L61.8281 101.332L60.8324 101.238ZM60.8324 101.238L60.9259 100.243L59.9302 100.149L59.8368 101.145L60.8324 101.238ZM71.0477 102.044L72.0459 102.103L72.1043 101.11L71.112 101.046L71.0477 102.044ZM71.0477 102.044L70.0494 101.985L69.991 102.978L70.9834 103.042L71.0477 102.044ZM81.2847 102.564L81.2471 103.564L82.2178 103.6L82.2824 102.631L81.2847 102.564ZM81.2847 102.564L81.3222 101.565L80.3515 101.528L80.2869 102.498L81.2847 102.564ZM91.5306 102.818H92.5306V101.831L91.5429 101.818L91.5306 102.818ZM91.5306 102.819H90.5306V103.806L91.5183 103.818L91.5306 102.819ZM101.778 102.819L101.79 103.818L102.778 103.806V102.819H101.778ZM101.778 102.818L101.766 101.818L100.778 101.831V102.818H101.778ZM112.024 102.564H113.024V101.526L111.987 101.565L112.024 102.564ZM112.024 102.564H111.024V103.603L112.062 103.564L112.024 102.564ZM122.261 102.044L122.325 103.042L123.336 102.977L123.258 101.967L122.261 102.044ZM122.261 102.044L122.197 101.046L121.186 101.111L121.264 102.121L122.261 102.044ZM132.476 101.238L132.383 100.243L132.476 101.238ZM142.65 100.116L142.776 101.108L142.65 100.116ZM152.798 98.6228L152.964 99.6089L152.798 98.6228ZM162.859 96.6746L162.642 95.6983L162.859 96.6746ZM172.776 94.1097L173.065 95.067L172.776 94.1097ZM182.385 90.5684L181.969 89.6592L182.385 90.5684ZM190.849 84.9432L191.597 85.6067L191.597 85.6067L190.849 84.9432ZM191.341 84.3484L190.547 83.7399L190.547 83.7399L191.341 84.3484ZM192.851 80.5643L193.85 80.6041L193.892 79.5643H192.851V80.5643ZM192.851 80.5643L191.852 80.5244L191.81 81.5643H192.851V80.5643ZM192.835 79.8883H191.835V79.9313L191.839 79.9741L192.835 79.8883ZM190.101 84.2798L190.849 84.9433L191.534 84.1718L190.741 83.5116L190.101 84.2798ZM190.101 84.2797L189.353 83.6162L188.669 84.3878L189.461 85.0479L190.101 84.2797ZM191.835 80.7646L192.831 80.8594L192.935 79.7646H191.835V80.7646ZM191.835 80.7646H190.835V81.7646H191.835V80.7646ZM191.835 79.9346H192.835V79.8869L192.831 79.8394L191.835 79.9346ZM190.101 76.4213L189.438 75.6731L188.689 76.3366L189.353 77.0848L190.101 76.4213ZM190.475 76.0896L189.812 75.3414H189.812L190.475 76.0896ZM190.849 75.7578L191.598 75.0943L190.934 74.3461L190.186 75.0096L190.849 75.7578ZM191.835 77.0625L190.988 77.5932L192.835 80.5442V77.0625H191.835ZM191.835 26.4208H192.835V22.9404L190.988 25.89L191.835 26.4208ZM1.45361 26.386L2.3037 25.8594L0.453613 22.8731L0.453613 26.386H1.45361ZM1.45362 77.0944H0.453616L0.453616 80.606L2.30359 77.6213L1.45362 77.0944ZM2.45942 75.7578L3.1229 75.0096L2.37472 74.3461L1.71123 75.0943L2.45942 75.7578ZM2.83351 76.0896L3.497 75.3414L3.497 75.3414L2.83351 76.0896ZM3.20761 76.4213L3.95579 77.0848L4.61927 76.3366L3.8711 75.6731L3.20761 76.4213ZM1.45362 80.3459L0.453616 80.3448L0.453616 80.3453L1.45362 80.3459ZM1.45361 80.3505L0.453613 80.35L0.453613 80.3511L1.45361 80.3505ZM1.45362 80.3552L0.453616 80.3557L0.453616 80.3562L1.45362 80.3552ZM1.45887 80.5643L0.460079 80.6134L0.506844 81.5643H1.45887V80.5643ZM1.45912 80.5643L2.45791 80.5151L2.41113 79.5643H1.45912V80.5643ZM3.16091 84.2263L2.40831 84.8848H2.40831L3.16091 84.2263ZM8.49769 88.233L8.98159 87.3579H8.98159L8.49769 88.233ZM28.8581 95.2861L29.0859 94.3124L28.8581 95.2861ZM132.383 100.243L132.476 101.238H132.476L132.383 100.243ZM142.523 99.1245L142.397 98.1325L142.397 98.1325L142.523 99.1245ZM152.632 97.6367L152.798 98.6228L152.632 97.6367ZM162.642 95.6983L162.859 96.6746L162.642 95.6983ZM164.451 95.2861L164.223 94.3124L164.451 95.2861ZM172.486 93.1525L172.776 94.1097L172.486 93.1525ZM181.969 89.6592L182.385 90.5684L181.969 89.6592ZM184.812 88.233L184.328 87.3579L184.812 88.233ZM182.177 70.5872L181.268 70.1708L181.268 70.1708L182.177 70.5872ZM182.385 70.1326L183.295 70.5491L183.711 69.6399L182.802 69.2235L182.385 70.1326ZM181.969 71.0418L181.553 71.951L182.462 72.3674L182.878 71.4582L181.969 71.0418ZM172.486 67.5486L171.529 67.2593L171.24 68.2165L172.197 68.5058L172.486 67.5486ZM172.631 67.0699L173.588 67.3592L173.588 67.3592L172.631 67.0699ZM172.776 66.5913L173.065 65.6341L172.108 65.3448L171.818 66.3021L172.776 66.5913ZM152.798 62.0782L152.964 61.0921L151.978 60.9261L151.812 61.9122L152.798 62.0782ZM162.859 64.0264L163.835 64.2431L164.052 63.2668L163.075 63.0502L162.859 64.0264ZM152.715 62.5713L151.729 62.4053L152.715 62.5713ZM152.632 63.0644L151.646 62.8983L151.48 63.8845L152.466 64.0505L152.632 63.0644ZM162.642 65.0027L162.425 65.9789L163.402 66.1956L163.618 65.2193L162.642 65.0027ZM162.75 64.5146L161.774 64.2979L162.75 64.5146ZM142.587 61.0806L141.595 60.954V60.954L142.587 61.0806ZM142.65 60.5846L143.642 60.7112L143.768 59.7192L142.776 59.5926L142.65 60.5846ZM142.523 61.5766L142.397 62.5685L143.389 62.6951L143.515 61.7031L142.523 61.5766ZM132.383 60.4583L131.387 60.3648L131.294 61.3605L132.289 61.454L132.383 60.4583ZM132.43 59.9605L133.425 60.054V60.054L132.43 59.9605ZM132.476 59.4627L132.57 58.4671L131.574 58.3736L131.481 59.3693L132.476 59.4627ZM122.261 58.6569L123.259 58.7212L123.323 57.7233L122.325 57.659L122.261 58.6569ZM122.197 59.6549L122.132 60.6528L123.13 60.7171L123.195 59.7192L122.197 59.6549ZM111.987 59.136L110.987 59.0985L110.95 60.0978L111.949 60.1353L111.987 59.136ZM112.024 58.1367L112.062 57.1374L111.062 57.0999L111.025 58.0992L112.024 58.1367ZM101.772 58.3825L102.772 58.3948V58.3947L101.772 58.3825ZM101.778 57.8825L102.778 57.8948L102.79 56.8949L101.79 56.8826L101.778 57.8825ZM101.766 58.8824L101.754 59.8824L102.753 59.8946L102.766 58.8947L101.766 58.8824ZM91.5429 58.8824L90.5429 58.8947L90.5552 59.8946L91.5551 59.8824L91.5429 58.8824ZM91.5306 57.8825L91.5183 56.8826L90.5184 56.8949L90.5307 57.8948L91.5306 57.8825ZM81.3034 58.6364L80.3041 58.6739V58.6739L81.3034 58.6364ZM81.2847 58.1367L82.284 58.0992L82.2464 57.0999L81.2471 57.1374L81.2847 58.1367ZM81.3222 59.136L81.3597 60.1353L82.359 60.0978L82.3215 59.0985L81.3222 59.136ZM71.1119 59.6549L70.114 59.7192L70.1783 60.7171L71.1762 60.6528L71.1119 59.6549ZM71.0798 59.1559L70.0819 59.2202V59.2202L71.0798 59.1559ZM71.0477 58.6569L70.9834 57.659L69.9854 57.7233L70.0497 58.7212L71.0477 58.6569ZM60.8324 59.4627L61.8281 59.3692L61.7346 58.3736L60.739 58.4671L60.8324 59.4627ZM60.9259 60.4583L61.0194 61.454L62.015 61.3605L61.9215 60.3649L60.9259 60.4583ZM50.7853 61.5766L49.7934 61.7031L49.9199 62.6951L50.9118 62.5685L50.7853 61.5766ZM50.722 61.0806L51.714 60.954L50.722 61.0806ZM50.6588 60.5846L50.5322 59.5926L49.5403 59.7192L49.6668 60.7111L50.6588 60.5846ZM40.5933 62.5713L41.5794 62.4053L40.5933 62.5713ZM40.5103 62.0782L41.4964 61.9122L41.3304 60.9261L40.3442 61.0921L40.5103 62.0782ZM40.6763 63.0644L40.8423 64.0505L41.8284 63.8845L41.6624 62.8983L40.6763 63.0644ZM30.6667 65.0027L29.6905 65.2193L29.9071 66.1956L30.8834 65.9789L30.6667 65.0027ZM30.5584 64.5146L31.5347 64.2979L31.5347 64.2979L30.5584 64.5146ZM30.4501 64.0264L30.2334 63.0502L29.2572 63.2668L29.4738 64.2431L30.4501 64.0264ZM20.533 66.5913L21.4903 66.302L21.201 65.3448L20.2438 65.6341L20.533 66.5913ZM20.8223 67.5486L21.1115 68.5058L22.0688 68.2165L21.7795 67.2593L20.8223 67.5486ZM11.3397 71.0418L10.4305 71.4582L10.8469 72.3674L11.7561 71.951L11.3397 71.0418ZM11.1315 70.5872L10.2223 71.0036L10.2223 71.0037L11.1315 70.5872ZM10.9233 70.1326L10.5068 69.2235L9.59766 69.6399L10.0141 70.5491L10.9233 70.1326ZM191.835 24.0784H191.856V22.0784H191.835V24.0784ZM192.835 23.5564V23.0784H190.835V23.5564H192.835ZM190.902 27.6658C192.037 26.3682 192.696 25.0292 192.83 23.6536L190.84 23.4592C190.757 24.3091 190.34 25.2706 189.396 26.3488L190.902 27.6658ZM185.296 31.8892C187.73 30.5433 189.62 29.1305 190.902 27.6658L189.396 26.3488C188.322 27.5768 186.647 28.8566 184.328 30.1389L185.296 31.8892ZM164.679 39.0408C173.384 37.0051 180.428 34.581 185.296 31.8892L184.328 30.1389C179.692 32.7027 172.85 35.076 164.224 37.0934L164.679 39.0408ZM96.6552 45.6308C123.22 45.6308 147.271 43.1124 164.679 39.0408L164.224 37.0934C147.004 41.1208 123.114 43.6308 96.6552 43.6308V45.6308ZM28.631 39.0408C46.0399 43.1124 70.0901 45.6308 96.6552 45.6308V43.6308C70.1967 43.6308 46.3066 41.1208 29.0865 37.0934L28.631 39.0408ZM8.01442 31.8892C12.8825 34.581 19.9266 37.0051 28.631 39.0408L29.0865 37.0934C20.4605 35.076 13.6188 32.7027 8.98222 30.1389L8.01442 31.8892ZM2.40895 27.6658C3.69044 29.1305 5.58043 30.5433 8.01442 31.8892L8.98222 30.1389C6.66327 28.8566 4.98851 27.5768 3.91415 26.3488L2.40895 27.6658ZM0.454489 23.1314C0.454489 24.6842 1.1271 26.2007 2.40895 27.6658L3.91415 26.3488C2.85147 25.1343 2.45449 24.0671 2.45449 23.1314H0.454489ZM2.40895 18.597C1.1271 20.0621 0.454489 21.5786 0.454489 23.1314H2.45449C2.45449 22.1957 2.85147 21.1285 3.91415 19.9139L2.40895 18.597ZM8.01442 14.3736C5.58043 15.7195 3.69044 17.1323 2.40895 18.597L3.91415 19.9139C4.98851 18.686 6.66327 17.4061 8.98222 16.1239L8.01442 14.3736ZM28.631 7.22193C19.9266 9.25772 12.8825 11.6818 8.01442 14.3736L8.98222 16.1239C13.6188 13.5601 20.4605 11.1868 29.0865 9.16938L28.631 7.22193ZM96.6552 0.632019C70.0901 0.632019 46.0399 3.15035 28.631 7.22193L29.0865 9.16938C46.3066 5.14196 70.1967 2.63202 96.6552 2.63202V0.632019ZM164.679 7.22193C147.271 3.15035 123.22 0.632019 96.6552 0.632019V2.63202C123.114 2.63202 147.004 5.14196 164.224 9.16938L164.679 7.22193ZM185.296 14.3736C180.428 11.6818 173.384 9.25772 164.679 7.22193L164.224 9.16938C172.85 11.1868 179.692 13.5601 184.328 16.1239L185.296 14.3736ZM190.902 18.597C189.62 17.1323 187.73 15.7195 185.296 14.3736L184.328 16.1239C186.647 17.4061 188.322 18.686 189.396 19.9139L190.902 18.597ZM192.856 23.0662C192.837 21.5352 192.165 20.041 190.902 18.597L189.396 19.9139C190.444 21.1115 190.844 22.1657 190.856 23.0906L192.856 23.0662ZM191.856 23.1314C191.856 23.2598 191.85 23.388 191.839 23.5159L193.831 23.6913C193.848 23.5052 193.856 23.3186 193.856 23.1314H191.856ZM96.6552 1.63202C123.167 1.63202 147.137 4.14615 164.452 8.19566C173.117 10.2223 180.06 12.6209 184.812 15.2487C187.189 16.5628 188.971 17.9092 190.149 19.2555C191.321 20.5953 191.856 21.8871 191.856 23.1314H193.856C193.856 21.2692 193.045 19.528 191.654 17.9385C190.269 16.3555 188.271 14.8762 185.78 13.4985C180.796 10.7427 173.651 8.29318 164.907 6.24821C147.404 2.15454 123.274 -0.367981 96.6552 -0.367981V1.63202ZM1.45452 23.1137C1.45954 21.8702 1.99907 20.5786 3.17588 19.2391C4.35818 17.8934 6.14416 16.548 8.52314 15.235C13.2805 12.6095 20.225 10.2131 28.889 8.18859C46.2012 4.14322 70.1589 1.63202 96.6552 1.63202V-0.367981C70.0523 -0.367981 45.9347 2.15161 28.4339 6.24106C19.6914 8.28393 12.545 10.731 7.55675 13.484C5.06294 14.8603 3.06247 16.338 1.67339 17.9191C0.278834 19.5064 -0.537953 21.2452 -0.545459 23.1057L1.45452 23.1137ZM0.453613 24.1097H0.454533V22.1097H0.453613V24.1097ZM1.45362 80.3453L1.45361 23.1097H-0.546387L-0.546384 80.3453H1.45362ZM1.45361 80.351L1.45362 80.3458L-0.546384 80.3448L-0.546387 80.35L1.45361 80.351ZM1.45362 80.3552L1.45361 80.35L-0.546387 80.351L-0.546384 80.3562L1.45362 80.3552ZM1.45362 80.5645V80.3557H-0.546384V80.5645H1.45362ZM0.457873 79.5645H0.453616V81.5645H0.457873V79.5645ZM3.2076 84.2797C2.05685 82.9821 1.50506 81.7292 1.45708 80.5247L-0.541335 80.6043C-0.469885 82.3981 0.351587 84.0735 1.71123 85.6067L3.2076 84.2797ZM1.79898 84.1923L1.79879 84.1925L3.12004 85.6939L3.12023 85.6938L1.79898 84.1923ZM1.71141 85.6065C3.6037 87.7404 6.62279 89.6983 10.5069 91.4774L11.3398 89.659C7.56315 87.9292 4.83275 86.112 3.2078 84.2796L1.71141 85.6065ZM10.0161 90.1477L10.016 90.1478L11.8305 90.9889L11.8306 90.9888L10.0161 90.1477ZM10.5068 91.4776C13.2932 92.7538 16.5604 93.9539 20.2438 95.067L20.8223 93.1525C17.2024 92.0586 14.024 90.8887 11.3397 89.6592L10.5068 91.4776ZM21.489 94.403L21.4891 94.4029L19.5771 93.8162L19.577 93.8164L21.489 94.403ZM20.2438 95.0668C23.2941 95.9885 26.6354 96.8522 30.2335 97.6507L30.6668 95.6982C27.1099 94.9089 23.8177 94.0574 20.8223 93.1523L20.2438 95.0668ZM29.4723 96.4649L29.4723 96.4651L31.4279 96.8841L31.4279 96.884L29.4723 96.4649ZM30.2334 97.6508C33.4097 98.3557 36.7877 99.0101 40.3442 99.6089L40.6763 97.6367C37.1502 97.043 33.8062 96.395 30.6667 95.6983L30.2334 97.6508ZM41.498 98.7787L41.498 98.7786L39.5225 98.4667L39.5225 98.4668L41.498 98.7787ZM40.3443 99.6088C43.5961 100.156 46.998 100.657 50.5323 101.108L50.7853 99.1243C47.2756 98.6766 43.9002 98.1793 40.6763 97.6365L40.3443 99.6088ZM49.6683 99.9787L49.6683 99.9789L51.6493 100.254L51.6493 100.254L49.6683 99.9787ZM50.5322 101.108C53.824 101.528 57.2309 101.905 60.7389 102.234L60.9259 100.243C57.439 99.9153 54.0541 99.5414 50.7853 99.1245L50.5322 101.108ZM61.8281 101.332L61.8281 101.332L59.8368 101.145L59.8368 101.145L61.8281 101.332ZM60.739 102.234C64.0666 102.546 67.4855 102.817 70.9834 103.042L71.112 101.046C67.6329 100.822 64.2336 100.553 60.9259 100.243L60.739 102.234ZM70.0494 101.985L70.0494 101.985L72.0459 102.103L72.0459 102.103L70.0494 101.985ZM70.9834 103.042C74.3354 103.258 77.7602 103.433 81.2471 103.564L81.3222 101.565C77.8528 101.435 74.4458 101.261 71.1119 101.046L70.9834 103.042ZM82.2824 102.631L82.2824 102.631L80.2869 102.498L80.2869 102.498L82.2824 102.631ZM81.2471 103.563C84.6159 103.69 88.0428 103.776 91.5183 103.818L91.5429 101.818C88.0841 101.776 84.674 101.691 81.3222 101.565L81.2471 103.563ZM90.5306 102.818V102.819H92.5306V102.818H90.5306ZM91.5183 103.818C93.2191 103.839 94.9314 103.85 96.6544 103.85V101.85C94.9396 101.85 93.2354 101.839 91.5429 101.819L91.5183 103.818ZM96.6544 103.85C98.3773 103.85 100.09 103.839 101.79 103.818L101.766 101.819C100.073 101.839 98.3691 101.85 96.6544 101.85V103.85ZM102.778 102.819V102.818H100.778V102.819H102.778ZM101.79 103.818C105.266 103.776 108.693 103.69 112.062 103.563L111.987 101.565C108.635 101.691 105.225 101.776 101.766 101.818L101.79 103.818ZM111.024 102.564V102.564H113.024V102.564H111.024ZM112.062 103.564C115.549 103.433 118.973 103.258 122.325 103.042L122.197 101.046C118.863 101.261 115.456 101.435 111.987 101.565L112.062 103.564ZM123.258 101.967L123.258 101.967L121.264 102.121L121.264 102.121L123.258 101.967ZM122.325 103.042C125.823 102.817 129.242 102.546 132.57 102.234L132.383 100.243C129.075 100.553 125.676 100.822 122.197 101.046L122.325 103.042ZM132.57 102.234C136.078 101.905 139.485 101.528 142.776 101.108L142.523 99.1245C139.255 99.5414 135.87 99.9153 132.383 100.243L132.57 102.234ZM142.776 101.108C146.311 100.658 149.713 100.156 152.964 99.6089L152.632 97.6367C149.409 98.1795 146.033 98.6768 142.523 99.1245L142.776 101.108ZM152.964 99.6089C156.521 99.0101 159.899 98.3557 163.075 97.6508L162.642 95.6983C159.503 96.395 156.159 97.043 152.632 97.6367L152.964 99.6089ZM163.075 97.6508C166.673 96.8524 170.015 95.9887 173.065 95.067L172.486 93.1525C169.491 94.0576 166.199 94.909 162.642 95.6983L163.075 97.6508ZM173.065 95.067C176.748 93.9539 180.015 92.7538 182.802 91.4776L181.969 89.6592C179.285 90.8887 176.106 92.0586 172.486 93.1525L173.065 95.067ZM182.802 91.4776C186.686 89.6985 189.705 87.7406 191.597 85.6067L190.101 84.2797C188.476 86.1121 185.746 87.9294 181.969 89.6592L182.802 91.4776ZM190.547 83.7399C190.41 83.9192 190.261 84.0992 190.101 84.2797L191.597 85.6067C191.787 85.3926 191.967 85.176 192.135 84.9569L190.547 83.7399ZM192.135 84.9569C193.172 83.604 193.789 82.1464 193.85 80.6041L191.852 80.5245C191.811 81.5627 191.396 82.6335 190.547 83.7399L192.135 84.9569ZM192.851 79.5643H192.851V81.5643H192.851V79.5643ZM191.855 80.3505C191.855 80.4086 191.854 80.4665 191.852 80.5244L193.85 80.6041C193.853 80.5196 193.855 80.4351 193.855 80.3505H191.855ZM191.839 79.9741C191.85 80.0994 191.855 80.2248 191.855 80.3505H193.855C193.855 80.1673 193.847 79.9846 193.832 79.8024L191.839 79.9741ZM191.835 23.6036V79.8883H193.835V23.6036H191.835ZM190.741 83.5116L190.741 83.5115L189.461 85.0479L189.461 85.048L190.741 83.5116ZM190.849 84.9432C192.02 83.6231 192.698 82.2601 192.831 80.8594L190.84 80.6699C190.758 81.5346 190.329 82.5152 189.353 83.6162L190.849 84.9432ZM191.835 79.7646H191.835V81.7646H191.835V79.7646ZM192.835 80.7646V79.9346H190.835V80.7646H192.835ZM192.831 79.8394C192.697 78.4394 192.019 77.0772 190.849 75.7578L189.353 77.0848C190.329 78.1853 190.757 79.1654 190.84 80.0297L192.831 79.8394ZM190.765 77.1695L191.139 76.8377L189.812 75.3414L189.438 75.6731L190.765 77.1695ZM191.139 76.8377L191.513 76.506L190.186 75.0096L189.812 75.3414L191.139 76.8377ZM190.101 76.4213C190.451 76.8154 190.745 77.2063 190.988 77.5932L192.683 76.5318C192.375 76.0404 192.012 75.5613 191.598 75.0943L190.101 76.4213ZM192.835 77.0625V26.4208H190.835V77.0625H192.835ZM190.988 25.89C189.459 28.3313 185.93 30.7908 180.502 33.0857C175.12 35.3611 168.038 37.4065 159.625 39.121C142.805 42.5488 120.781 44.6308 96.6552 44.6308V46.6308C120.882 46.6308 143.045 44.5411 160.025 41.0807C168.512 39.351 175.734 37.273 181.281 34.9278C186.782 32.6021 190.809 29.9436 192.683 26.9516L190.988 25.89ZM96.6552 44.6308C72.504 44.6308 50.4584 42.5444 33.6314 39.11C25.2154 37.3923 18.1338 35.3432 12.7569 33.0639C7.33354 30.7649 3.81704 28.3021 2.3037 25.8594L0.603531 26.9127C2.46159 29.9118 6.48046 32.5756 11.9764 34.9053C17.5188 37.2548 24.7404 39.3366 33.2314 41.0696C50.2185 44.5367 72.4022 46.6308 96.6552 46.6308V44.6308ZM0.453613 26.386L0.453616 77.0944H2.45362L2.45361 26.386H0.453613ZM2.30359 77.6213C2.54903 77.2253 2.84966 76.8249 3.20761 76.4213L1.71123 75.0943C1.28711 75.5726 0.91602 76.0636 0.603639 76.5676L2.30359 77.6213ZM1.79593 76.506L2.17003 76.8377L3.497 75.3414L3.1229 75.0096L1.79593 76.506ZM2.17002 76.8377L2.54411 77.1695L3.8711 75.6731L3.497 75.3414L2.17002 76.8377ZM2.45942 75.7578C1.14583 77.2391 0.455301 78.7733 0.453616 80.3448L2.45362 80.3469C2.45463 79.4001 2.86248 78.3177 3.95579 77.0848L2.45942 75.7578ZM0.453616 80.3453L0.453613 80.35L2.45361 80.3511L2.45362 80.3464L0.453616 80.3453ZM0.453613 80.3511L0.453616 80.3557L2.45362 80.3546L2.45361 80.35L0.453613 80.3511ZM0.453616 80.3562C0.453708 80.4418 0.455857 80.5275 0.460079 80.6134L2.45766 80.5152C2.45502 80.4613 2.45367 80.4076 2.45362 80.3541L0.453616 80.3562ZM1.45912 79.5643H1.45887V81.5643H1.45912V79.5643ZM3.91352 83.5679C2.91085 82.4219 2.50182 81.4075 2.45791 80.5151L0.460328 80.6134C0.53236 82.0775 1.2005 83.5043 2.40831 84.8848L3.91352 83.5679ZM8.98159 87.3579C6.66264 86.0757 4.98787 84.7958 3.91352 83.5679L2.40831 84.8848C3.6898 86.3495 5.5798 87.7623 8.01379 89.1082L8.98159 87.3579ZM29.0859 94.3124C20.4599 92.295 13.6182 89.9217 8.98159 87.3579L8.01379 89.1082C12.8818 91.8 19.926 94.2241 28.6304 96.2599L29.0859 94.3124ZM96.6546 100.85C70.1961 100.85 46.3059 98.3398 29.0859 94.3124L28.6304 96.2599C46.0393 100.331 70.0895 102.85 96.6546 102.85V100.85ZM132.289 99.2471C121.287 100.28 109.26 100.85 96.6546 100.85V102.85C109.319 102.85 121.408 102.278 132.476 101.238L132.289 99.2471ZM142.397 98.1325C139.14 98.548 135.766 98.9206 132.289 99.2471L132.476 101.238C135.974 100.91 139.37 100.535 142.65 100.116L142.397 98.1325ZM152.466 96.6505C149.256 97.191 145.894 97.6864 142.397 98.1325L142.65 100.116C146.172 99.6672 149.56 99.168 152.798 98.6228L152.466 96.6505ZM162.425 94.7221C159.304 95.4147 155.977 96.0594 152.466 96.6505L152.798 98.6228C156.34 98.0265 159.701 97.3754 162.859 96.6746L162.425 94.7221ZM164.223 94.3124C163.632 94.4508 163.032 94.5874 162.425 94.7221L162.859 96.6746C163.473 96.5382 164.08 96.3999 164.679 96.2599L164.223 94.3124ZM172.197 92.1952C169.742 92.937 167.079 93.6445 164.223 94.3124L164.679 96.2599C167.57 95.5836 170.275 94.8653 172.776 94.1097L172.197 92.1952ZM181.553 88.75C178.919 89.9562 175.785 91.111 172.197 92.1952L172.776 94.1097C176.427 93.0063 179.65 91.8213 182.385 90.5684L181.553 88.75ZM184.328 87.3579C183.478 87.8277 182.552 88.2922 181.553 88.75L182.385 90.5684C183.425 90.0922 184.396 89.6053 185.295 89.1082L184.328 87.3579ZM189.353 83.6163C188.277 84.8298 186.616 86.0928 184.328 87.3579L185.295 89.1082C187.698 87.7799 189.569 86.3867 190.849 84.9433L189.353 83.6163ZM183.086 71.0037L183.295 70.5491L181.476 69.7162L181.268 70.1708L183.086 71.0037ZM182.878 71.4582L183.086 71.0036L181.268 70.1708L181.06 70.6254L182.878 71.4582ZM172.197 68.5058C175.785 69.5901 178.919 70.7448 181.553 71.951L182.385 70.1326C179.65 68.8797 176.427 67.6947 172.776 66.5913L172.197 68.5058ZM171.674 66.7807L171.529 67.2593L173.444 67.8378L173.588 67.3592L171.674 66.7807ZM171.818 66.3021L171.674 66.7807L173.588 67.3592L173.733 66.8806L171.818 66.3021ZM182.802 69.2235C180.015 67.9472 176.748 66.7471 173.065 65.6341L172.486 67.5486C176.106 68.6424 179.285 69.8123 181.969 71.0418L182.802 69.2235ZM152.632 63.0644C156.159 63.6581 159.503 64.306 162.642 65.0027L163.075 63.0502C159.899 62.3453 156.521 61.6909 152.964 61.0921L152.632 63.0644ZM153.702 62.7374L153.785 62.2443L151.812 61.9122L151.729 62.4053L153.702 62.7374ZM153.619 63.2304L153.702 62.7374L151.729 62.4053L151.646 62.8983L153.619 63.2304ZM162.859 64.0264C159.701 63.3257 156.34 62.6745 152.798 62.0782L152.466 64.0505C155.977 64.6416 159.304 65.2863 162.425 65.9789L162.859 64.0264ZM161.774 64.2979L161.666 64.786L163.618 65.2193L163.727 64.7312L161.774 64.2979ZM161.882 63.8098L161.774 64.2979L163.727 64.7312L163.835 64.2431L161.882 63.8098ZM143.579 61.2071L143.642 60.7112L141.658 60.458L141.595 60.954L143.579 61.2071ZM143.515 61.7031L143.579 61.2071L141.595 60.954L141.531 61.45L143.515 61.7031ZM132.289 61.454C135.766 61.7804 139.14 62.153 142.397 62.5685L142.65 60.5846C139.37 60.1662 135.974 59.7911 132.476 59.4627L132.289 61.454ZM131.434 59.867L131.387 60.3648L133.378 60.5519L133.425 60.054L131.434 59.867ZM131.481 59.3693L131.434 59.8671L133.425 60.054L133.472 59.5562L131.481 59.3693ZM142.776 59.5926C139.485 59.1727 136.078 58.7965 132.57 58.4671L132.383 60.4583C135.87 60.7858 139.255 61.1596 142.523 61.5766L142.776 59.5926ZM123.227 59.2202L123.259 58.7212L121.263 58.5927L121.231 59.0916L123.227 59.2202ZM123.195 59.7192L123.227 59.2202L121.231 59.0916L121.199 59.5906L123.195 59.7192ZM111.949 60.1353C115.41 60.2653 118.808 60.4386 122.132 60.6528L122.261 58.6569C118.918 58.4416 115.502 58.2674 112.024 58.1367L111.949 60.1353ZM111.006 58.5989L110.987 59.0985L112.986 59.1736L113.005 58.6739L111.006 58.5989ZM111.025 58.0992L111.006 58.5989L113.005 58.6739L113.023 58.1743L111.025 58.0992ZM122.325 57.659C118.973 57.4431 115.549 57.2684 112.062 57.1374L111.987 59.136C115.456 59.2663 118.863 59.4401 122.197 59.6549L122.325 57.659ZM102.772 58.3947L102.778 57.8948L100.778 57.8702L100.772 58.3702L102.772 58.3947ZM102.766 58.8947L102.772 58.3948L100.772 58.3702L100.766 58.8702L102.766 58.8947ZM96.6544 59.8511C98.365 59.8511 100.065 59.8616 101.754 59.8824L101.778 57.8825C100.081 57.8617 98.3732 57.8511 96.6544 57.8511V59.8511ZM91.5551 59.8824C93.2436 59.8616 94.9437 59.8511 96.6544 59.8511V57.8511C94.9355 57.8511 93.2272 57.8617 91.5306 57.8825L91.5551 59.8824ZM90.5368 58.3947L90.5429 58.8947L92.5428 58.8702L92.5367 58.3702L90.5368 58.3947ZM90.5307 57.8948L90.5368 58.3947L92.5367 58.3702L92.5305 57.8702L90.5307 57.8948ZM96.6544 56.8511C94.9314 56.8511 93.2191 56.8617 91.5183 56.8826L91.5429 58.8824C93.2354 58.8617 94.9396 58.8511 96.6544 58.8511V56.8511ZM101.79 56.8826C100.09 56.8617 98.3773 56.8511 96.6544 56.8511V58.8511C98.3691 58.8511 100.073 58.8617 101.766 58.8824L101.79 56.8826ZM82.3027 58.5989L82.284 58.0992L80.2854 58.1743L80.3041 58.6739L82.3027 58.5989ZM82.3215 59.0985L82.3027 58.5989L80.3041 58.6739L80.3229 59.1736L82.3215 59.0985ZM71.1762 60.6528C74.5011 60.4386 77.8991 60.2653 81.3597 60.1353L81.2847 58.1367C77.8065 58.2674 74.3906 58.4416 71.0477 58.6569L71.1762 60.6528ZM70.0819 59.2202L70.114 59.7192L72.1099 59.5906L72.0777 59.0916L70.0819 59.2202ZM70.0497 58.7212L70.0819 59.2202L72.0777 59.0916L72.0456 58.5927L70.0497 58.7212ZM81.2471 57.1374C77.7602 57.2684 74.3354 57.4431 70.9834 57.659L71.1119 59.6549C74.4458 59.4401 77.8528 59.2663 81.3222 59.136L81.2471 57.1374ZM61.8748 59.8671L61.8281 59.3692L59.8368 59.5562L59.8836 60.054L61.8748 59.8671ZM61.9215 60.3649L61.8748 59.8671L59.8836 60.054L59.9303 60.5518L61.9215 60.3649ZM50.9118 62.5685C54.1691 62.153 57.543 61.7804 61.0194 61.454L60.8324 59.4627C57.3349 59.7911 53.939 60.1662 50.6588 60.5846L50.9118 62.5685ZM49.7301 61.2071L49.7934 61.7031L51.7773 61.45L51.714 60.954L49.7301 61.2071ZM49.6668 60.7111L49.7301 61.2071L51.714 60.954L51.6507 60.4581L49.6668 60.7111ZM60.739 58.4671C57.2309 58.7965 53.824 59.1727 50.5322 59.5926L50.7853 61.5766C54.0541 61.1596 57.439 60.7858 60.9259 60.4583L60.739 58.4671ZM41.5794 62.4053L41.4964 61.9122L39.5241 62.2443L39.6072 62.7373L41.5794 62.4053ZM41.6624 62.8983L41.5794 62.4053L39.6072 62.7373L39.6902 63.2304L41.6624 62.8983ZM30.8834 65.9789C34.0044 65.2863 37.3314 64.6416 40.8423 64.0505L40.5103 62.0782C36.9689 62.6745 33.6079 63.3257 30.4501 64.0264L30.8834 65.9789ZM29.5822 64.7312L29.6905 65.2193L31.643 64.7861L31.5347 64.2979L29.5822 64.7312ZM29.4738 64.2431L29.5822 64.7312L31.5347 64.2979L31.4263 63.8098L29.4738 64.2431ZM40.3442 61.0921C36.7877 61.6909 33.4097 62.3453 30.2334 63.0502L30.6667 65.0027C33.8062 64.306 37.1502 63.6581 40.6763 63.0644L40.3442 61.0921ZM21.6349 66.7807L21.4903 66.302L19.5758 66.8806L19.7204 67.3592L21.6349 66.7807ZM21.7795 67.2593L21.6349 66.7807L19.7204 67.3592L19.865 67.8378L21.7795 67.2593ZM11.7561 71.951C14.3894 70.7448 17.5234 69.5901 21.1115 68.5058L20.533 66.5913C16.8814 67.6947 13.6586 68.8797 10.9233 70.1326L11.7561 71.951ZM10.2223 71.0037L10.4305 71.4582L12.2488 70.6254L12.0406 70.1708L10.2223 71.0037ZM10.0141 70.5491L10.2223 71.0036L12.0406 70.1708L11.8324 69.7162L10.0141 70.5491ZM20.2438 65.6341C16.5604 66.7471 13.2933 67.9472 10.5068 69.2235L11.3397 71.0418C14.024 69.8123 17.2024 68.6424 20.8223 67.5486L20.2438 65.6341Z" fill="white" mask="url(#path-2-inside-1)"/>
</svg>
