<svg width="552" height="188" viewBox="0 0 552 188" fill="none" xmlns="http://www.w3.org/2000/svg">
<mask id="path-1-inside-1" fill="white">
<path fill-rule="evenodd" clip-rule="evenodd" d="M550.146 64.0056H550.142V65.3228C549.95 69.2266 548.167 73.1102 544.807 76.9506C541.24 81.0279 535.934 85.0086 529.019 88.8323C515.189 96.4793 495.112 103.398 470.216 109.221C420.44 120.862 351.625 128.072 275.579 128.072C199.534 128.072 130.719 120.862 80.9433 109.221C56.0475 103.398 35.9699 96.4793 22.1405 88.8323C15.2255 85.0086 9.91902 81.0279 6.35161 76.9506C2.78987 72.8797 1.00022 68.7602 1.00022 64.6197C1.00022 60.4791 2.78987 56.3596 6.35161 52.2888C9.91902 48.2114 15.2255 44.2307 22.1405 40.407C35.9699 32.7601 56.0475 25.8413 80.9433 20.0187C130.719 8.37724 199.534 1.16736 275.579 1.16736C351.625 1.16736 420.44 8.37724 470.216 20.0187C495.112 25.8413 515.189 32.7601 529.019 40.407C535.934 44.2307 541.24 48.2114 544.807 52.2888C548.193 56.1583 549.977 60.0719 550.146 64.0056ZM551.142 65.3476C551.153 65.1053 551.159 64.8626 551.159 64.6197C551.159 29.0236 427.778 0.167358 275.579 0.167358C124.257 0.167358 1.42165 28.6924 0.012467 64.0056H0L2.78162e-06 123.538L0 123.548L2.78249e-06 123.557L2.81072e-06 124.161H0.0117602C0.183136 128.455 2.15021 132.649 5.74587 136.704C6.47886 137.531 7.27953 138.351 8.14647 139.166C9.59138 140.524 11.2204 141.864 13.0268 143.187L13.027 143.186C15.4653 144.971 18.2271 146.722 21.2962 148.435L21.2961 148.435C23.9656 149.925 26.8677 151.387 29.9916 152.818L29.9918 152.818C32.8263 154.116 35.8435 155.389 39.0354 156.634L39.0353 156.635C41.954 157.774 45.0187 158.89 48.2236 159.982L48.2237 159.981C51.2031 160.996 54.3035 161.99 57.5201 162.962L57.52 162.963C60.5524 163.879 63.6879 164.776 66.9227 165.652L66.9228 165.651C69.9933 166.483 73.1532 167.296 76.3989 168.09L76.3988 168.09C79.4982 168.848 82.6758 169.588 85.9287 170.31L85.9288 170.31C89.0511 171.002 92.2428 171.678 95.501 172.337L95.501 172.337C98.6423 172.972 101.846 173.591 105.109 174.192L105.109 174.192C108.267 174.774 111.48 175.34 114.747 175.89L114.747 175.891C117.92 176.425 121.143 176.944 124.415 177.447L124.415 177.446C127.601 177.936 130.833 178.411 134.11 178.87L134.11 178.871C137.305 179.318 140.542 179.752 143.819 180.17L143.819 180.169C147.012 180.576 150.242 180.969 153.51 181.347L153.51 181.348C156.713 181.719 159.952 182.075 163.225 182.417L163.225 182.417C166.439 182.753 169.685 183.075 172.963 183.383L172.963 183.383C176.187 183.686 179.441 183.975 182.724 184.25L182.724 184.249C185.95 184.519 189.203 184.775 192.483 185.018L192.483 185.018C195.705 185.256 198.953 185.481 202.226 185.692L202.226 185.691C205.457 185.899 208.713 186.094 211.991 186.275L211.991 186.276C215.232 186.455 218.494 186.62 221.778 186.772L221.778 186.772C225.015 186.922 228.273 187.058 231.551 187.181L231.551 187.182C234.788 187.303 238.044 187.412 241.317 187.507L241.317 187.506C244.562 187.6 247.825 187.681 251.104 187.749L251.104 187.749C254.354 187.816 257.62 187.87 260.902 187.91V187.91C264.142 187.949 267.398 187.976 270.668 187.989V187.99C272.302 187.997 273.939 188 275.579 188C277.22 188 278.857 187.997 280.491 187.99V187.989C283.76 187.976 287.016 187.949 290.257 187.91V187.91C293.538 187.87 296.804 187.816 300.054 187.749V187.749C303.334 187.681 306.596 187.6 309.841 187.506L309.841 187.507C313.115 187.412 316.371 187.303 319.608 187.182L319.608 187.181C322.885 187.058 326.143 186.922 329.381 186.772L329.381 186.772C332.664 186.62 335.927 186.455 339.167 186.276L339.167 186.275C342.446 186.094 345.701 185.899 348.933 185.691L348.933 185.692C352.205 185.481 355.453 185.256 358.675 185.018L358.675 185.018C361.955 184.775 365.209 184.519 368.435 184.249L368.435 184.25C371.718 183.975 374.972 183.686 378.196 183.383L378.196 183.383C381.473 183.075 384.72 182.753 387.934 182.417L387.934 182.417C391.207 182.075 394.445 181.719 397.649 181.348L397.649 181.347C400.916 180.969 404.147 180.576 407.339 180.169L407.339 180.17C410.617 179.752 413.854 179.318 417.049 178.871L417.049 178.87C420.325 178.411 423.557 177.936 426.743 177.446L426.744 177.447C430.015 176.944 433.239 176.425 436.411 175.891L436.411 175.89C439.678 175.34 442.892 174.774 446.05 174.191L446.05 174.192C449.313 173.591 452.516 172.972 455.658 172.337L455.658 172.337C458.916 171.678 462.107 171.002 465.23 170.309L465.23 170.31C468.483 169.588 471.66 168.848 474.76 168.09L474.76 168.089C478.005 167.296 481.165 166.483 484.236 165.651L484.236 165.652C487.471 164.776 490.606 163.879 493.639 162.963L493.638 162.962C496.855 161.99 499.955 160.996 502.935 159.981L502.935 159.982C506.14 158.89 509.205 157.774 512.123 156.635L512.123 156.634C515.315 155.389 518.332 154.116 521.167 152.817L521.167 152.818C524.291 151.387 527.193 149.925 529.862 148.435L529.862 148.435C532.931 146.721 535.693 144.971 538.131 143.186L538.132 143.187C541.022 141.071 543.458 138.908 545.413 136.704L545.412 136.704C547.829 133.978 549.51 131.189 550.405 128.349L550.405 128.349C550.905 126.764 551.159 125.163 551.159 123.548C551.159 123.306 551.153 123.065 551.142 122.825V65.3476ZM550.145 124.161H550.142V122.849C550.08 121.576 549.849 120.308 549.452 119.046L549.928 118.896L550.142 118.829V70.1964C538.054 103.181 419.745 129.072 275.579 129.072C131.345 129.072 12.9904 103.156 1 70.1486L1 118.824L1.23013 118.896L1.70705 119.046C1.23795 120.536 1.00095 122.033 1 123.539L1 123.548L1 123.557C1.00095 125.062 1.23795 126.559 1.70703 128.049L1.70693 128.049C2.5333 130.674 4.0828 133.286 6.3509 135.878C6.39832 135.932 6.44603 135.986 6.49406 136.04C7.70052 137.401 9.10179 138.752 10.6938 140.091C13.8 142.703 17.6275 145.265 22.1398 147.76C35.9692 155.407 56.0468 162.325 80.9426 168.148C130.718 179.789 199.533 186.999 275.579 186.999C351.625 186.999 420.439 179.789 470.215 168.148C495.111 162.325 515.188 155.407 529.018 147.76C535.933 143.936 541.239 139.955 544.807 135.878C548.192 132.008 549.977 128.095 550.145 124.161ZM545.413 110.391L545.039 110.723L544.664 111.055C542.767 108.915 540.387 106.799 537.541 104.716L537.836 104.312L538.132 103.909C541.022 106.024 543.458 108.187 545.413 110.391ZM529.862 98.6601L529.619 99.0967L529.375 99.5332C526.732 98.0576 523.854 96.6077 520.75 95.1864L520.959 94.7318L521.167 94.2772C524.291 95.7081 527.193 97.1699 529.862 98.6601ZM512.123 90.4605L511.941 90.9263L511.76 91.3921C508.856 90.2589 505.805 89.1478 502.613 88.0603L502.774 87.587L502.935 87.1137C506.14 88.2056 509.205 89.3216 512.123 90.4605ZM493.639 84.1326L493.494 84.6112L493.349 85.0899C490.327 84.1765 487.2 83.2825 483.974 82.4088L484.105 81.9262L484.236 81.4436C487.471 82.3196 490.606 83.2163 493.639 84.1326ZM474.76 79.0052L474.641 79.4909L474.522 79.9766C471.43 79.2205 468.259 78.4819 465.013 77.7615L465.121 77.2734L465.23 76.7852C468.483 77.5071 471.66 78.2473 474.76 79.0052ZM455.658 74.758L455.559 75.2481L455.46 75.7382C452.324 75.1046 449.126 74.4872 445.869 73.8866L445.959 73.3949L446.05 72.9032C449.313 73.5047 452.516 74.1232 455.658 74.758ZM436.411 71.2044L436.328 71.6974L436.245 72.1905C433.077 71.6571 429.859 71.1391 426.592 70.6369L426.668 70.1427L426.744 69.6485C430.015 70.1514 433.239 70.6702 436.411 71.2044ZM417.049 68.2247L416.98 68.7199L416.91 69.215C413.719 68.7677 410.486 68.3351 407.213 67.9176L407.276 67.4216L407.34 66.9256C410.617 67.3437 413.854 67.7768 417.049 68.2247ZM397.649 65.7473L397.591 66.244L397.534 66.7407C394.334 66.3704 391.099 66.0141 387.83 65.6723L387.882 65.1751L387.934 64.6778C391.207 65.0199 394.445 65.3766 397.649 65.7473ZM378.196 63.7119L378.149 64.2097L378.102 64.7075C374.882 64.4051 371.631 64.1166 368.351 63.8421L368.393 63.3438L368.435 62.8456C371.718 63.1203 374.972 63.4092 378.196 63.7119ZM358.675 62.0771L358.638 62.5757L358.602 63.0743C355.383 62.8365 352.138 62.6122 348.869 62.4016L348.901 61.9026L348.933 61.4037C352.205 61.6145 355.453 61.839 358.675 62.0771ZM339.167 60.8196L339.14 61.3188L339.112 61.8181C335.875 61.6392 332.615 61.4738 329.335 61.3219L329.358 60.8224L329.381 60.323C332.664 60.475 335.927 60.6406 339.167 60.8196ZM319.608 59.9135L319.589 60.4131L319.57 60.9128C316.336 60.7913 313.083 60.683 309.812 60.5882L309.827 60.0884L309.841 59.5886C313.115 59.6835 316.371 59.7919 319.608 59.9135ZM300.055 59.346L300.044 59.8459L300.034 60.3458C296.787 60.279 293.523 60.2253 290.245 60.1851L290.251 59.6851L290.257 59.1852C293.538 59.2254 296.805 59.2791 300.055 59.346ZM280.491 59.1053L280.489 59.6053L280.487 60.1053C278.854 60.0987 277.218 60.0953 275.579 60.0953C273.94 60.0953 272.304 60.0987 270.672 60.1053L270.67 59.6053L270.668 59.1053C272.302 59.0987 273.939 59.0953 275.579 59.0953C277.22 59.0953 278.857 59.0987 280.491 59.1053ZM260.902 59.1852L260.908 59.6851L260.914 60.1851C257.635 60.2253 254.372 60.279 251.125 60.3458L251.114 59.8459L251.104 59.346C254.354 59.2791 257.62 59.2254 260.902 59.1852ZM241.317 59.5886L241.332 60.0884L241.346 60.5882C238.075 60.683 234.822 60.7913 231.588 60.9128L231.57 60.4131L231.551 59.9135C234.788 59.7919 238.044 59.6835 241.317 59.5886ZM221.778 60.323L221.801 60.8224L221.824 61.3219C218.543 61.4738 215.284 61.6392 212.046 61.8181L212.019 61.3188L211.991 60.8196C215.232 60.6406 218.494 60.475 221.778 60.323ZM202.226 61.4037L202.258 61.9026L202.29 62.4016C199.021 62.6122 195.776 62.8365 192.557 63.0743L192.52 62.5757L192.483 62.0771C195.706 61.839 198.953 61.6145 202.226 61.4037ZM182.724 62.8456L182.766 63.3438L182.807 63.8421C179.528 64.1165 176.277 64.4051 173.056 64.7075L173.01 64.2097L172.963 63.7119C176.187 63.4092 179.441 63.1203 182.724 62.8456ZM163.225 64.6778L163.276 65.1751L163.328 65.6723C160.06 66.0141 156.825 66.3704 153.625 66.7407L153.567 66.244L153.51 65.7473C156.713 65.3766 159.952 65.0199 163.225 64.6778ZM143.819 66.9256L143.882 67.4216L143.946 67.9176C140.672 68.3351 137.439 68.7677 134.248 69.215L134.179 68.7199L134.11 68.2247C137.305 67.7768 140.542 67.3437 143.819 66.9256ZM124.415 69.6485L124.491 70.1427L124.567 70.6369C121.3 71.1391 118.081 71.6571 114.913 72.1905L114.83 71.6974L114.747 71.2044C117.92 70.6702 121.143 70.1514 124.415 69.6485ZM105.109 72.9032L105.199 73.3949L105.29 73.8866C102.032 74.4872 98.8346 75.1046 95.699 75.7382L95.6 75.2481L95.5009 74.758C98.6423 74.1232 101.846 73.5047 105.109 72.9032ZM85.9287 76.7852L86.037 77.2734L86.1454 77.7615C82.8991 78.4819 79.7284 79.2205 76.6363 79.9766L76.5175 79.4909L76.3988 79.0052C79.4981 78.2473 82.6758 77.5071 85.9287 76.7852ZM66.9227 81.4436L67.0534 81.9262L67.1841 82.4088C63.9581 83.2825 60.8318 84.1765 57.8093 85.0899L57.6647 84.6112L57.52 84.1326C60.5524 83.2163 63.6879 82.3197 66.9227 81.4436ZM48.2236 87.1137L48.3848 87.587L48.5461 88.0603C45.3539 89.1478 42.3028 90.2589 39.3988 91.3921L39.2171 90.9263L39.0353 90.4605C41.954 89.3216 45.0188 88.2055 48.2236 87.1137ZM29.9917 94.2772L30.1999 94.7318L30.4081 95.1864C27.3051 96.6076 24.427 98.0575 21.7835 99.5332L21.5398 99.0966L21.2961 98.6601C23.9656 97.1699 26.8677 95.7081 29.9917 94.2772ZM13.0269 103.909C10.1365 106.024 7.70054 108.187 5.74589 110.391L6.11999 110.723L6.49408 111.055C8.39181 108.915 10.7715 106.799 13.6175 104.716L13.3222 104.312L13.0269 103.909Z"/>
</mask>
<path fill-rule="evenodd" clip-rule="evenodd" d="M550.146 64.0056H550.142V65.3228C549.95 69.2266 548.167 73.1102 544.807 76.9506C541.24 81.0279 535.934 85.0086 529.019 88.8323C515.189 96.4793 495.112 103.398 470.216 109.221C420.44 120.862 351.625 128.072 275.579 128.072C199.534 128.072 130.719 120.862 80.9433 109.221C56.0475 103.398 35.9699 96.4793 22.1405 88.8323C15.2255 85.0086 9.91902 81.0279 6.35161 76.9506C2.78987 72.8797 1.00022 68.7602 1.00022 64.6197C1.00022 60.4791 2.78987 56.3596 6.35161 52.2888C9.91902 48.2114 15.2255 44.2307 22.1405 40.407C35.9699 32.7601 56.0475 25.8413 80.9433 20.0187C130.719 8.37724 199.534 1.16736 275.579 1.16736C351.625 1.16736 420.44 8.37724 470.216 20.0187C495.112 25.8413 515.189 32.7601 529.019 40.407C535.934 44.2307 541.24 48.2114 544.807 52.2888C548.193 56.1583 549.977 60.0719 550.146 64.0056ZM551.142 65.3476C551.153 65.1053 551.159 64.8626 551.159 64.6197C551.159 29.0236 427.778 0.167358 275.579 0.167358C124.257 0.167358 1.42165 28.6924 0.012467 64.0056H0L2.78162e-06 123.538L0 123.548L2.78249e-06 123.557L2.81072e-06 124.161H0.0117602C0.183136 128.455 2.15021 132.649 5.74587 136.704C6.47886 137.531 7.27953 138.351 8.14647 139.166C9.59138 140.524 11.2204 141.864 13.0268 143.187L13.027 143.186C15.4653 144.971 18.2271 146.722 21.2962 148.435L21.2961 148.435C23.9656 149.925 26.8677 151.387 29.9916 152.818L29.9918 152.818C32.8263 154.116 35.8435 155.389 39.0354 156.634L39.0353 156.635C41.954 157.774 45.0187 158.89 48.2236 159.982L48.2237 159.981C51.2031 160.996 54.3035 161.99 57.5201 162.962L57.52 162.963C60.5524 163.879 63.6879 164.776 66.9227 165.652L66.9228 165.651C69.9933 166.483 73.1532 167.296 76.3989 168.09L76.3988 168.09C79.4982 168.848 82.6758 169.588 85.9287 170.31L85.9288 170.31C89.0511 171.002 92.2428 171.678 95.501 172.337L95.501 172.337C98.6423 172.972 101.846 173.591 105.109 174.192L105.109 174.192C108.267 174.774 111.48 175.34 114.747 175.89L114.747 175.891C117.92 176.425 121.143 176.944 124.415 177.447L124.415 177.446C127.601 177.936 130.833 178.411 134.11 178.87L134.11 178.871C137.305 179.318 140.542 179.752 143.819 180.17L143.819 180.169C147.012 180.576 150.242 180.969 153.51 181.347L153.51 181.348C156.713 181.719 159.952 182.075 163.225 182.417L163.225 182.417C166.439 182.753 169.685 183.075 172.963 183.383L172.963 183.383C176.187 183.686 179.441 183.975 182.724 184.25L182.724 184.249C185.95 184.519 189.203 184.775 192.483 185.018L192.483 185.018C195.705 185.256 198.953 185.481 202.226 185.692L202.226 185.691C205.457 185.899 208.713 186.094 211.991 186.275L211.991 186.276C215.232 186.455 218.494 186.62 221.778 186.772L221.778 186.772C225.015 186.922 228.273 187.058 231.551 187.181L231.551 187.182C234.788 187.303 238.044 187.412 241.317 187.507L241.317 187.506C244.562 187.6 247.825 187.681 251.104 187.749L251.104 187.749C254.354 187.816 257.62 187.87 260.902 187.91V187.91C264.142 187.949 267.398 187.976 270.668 187.989V187.99C272.302 187.997 273.939 188 275.579 188C277.22 188 278.857 187.997 280.491 187.99V187.989C283.76 187.976 287.016 187.949 290.257 187.91V187.91C293.538 187.87 296.804 187.816 300.054 187.749V187.749C303.334 187.681 306.596 187.6 309.841 187.506L309.841 187.507C313.115 187.412 316.371 187.303 319.608 187.182L319.608 187.181C322.885 187.058 326.143 186.922 329.381 186.772L329.381 186.772C332.664 186.62 335.927 186.455 339.167 186.276L339.167 186.275C342.446 186.094 345.701 185.899 348.933 185.691L348.933 185.692C352.205 185.481 355.453 185.256 358.675 185.018L358.675 185.018C361.955 184.775 365.209 184.519 368.435 184.249L368.435 184.25C371.718 183.975 374.972 183.686 378.196 183.383L378.196 183.383C381.473 183.075 384.72 182.753 387.934 182.417L387.934 182.417C391.207 182.075 394.445 181.719 397.649 181.348L397.649 181.347C400.916 180.969 404.147 180.576 407.339 180.169L407.339 180.17C410.617 179.752 413.854 179.318 417.049 178.871L417.049 178.87C420.325 178.411 423.557 177.936 426.743 177.446L426.744 177.447C430.015 176.944 433.239 176.425 436.411 175.891L436.411 175.89C439.678 175.34 442.892 174.774 446.05 174.191L446.05 174.192C449.313 173.591 452.516 172.972 455.658 172.337L455.658 172.337C458.916 171.678 462.107 171.002 465.23 170.309L465.23 170.31C468.483 169.588 471.66 168.848 474.76 168.09L474.76 168.089C478.005 167.296 481.165 166.483 484.236 165.651L484.236 165.652C487.471 164.776 490.606 163.879 493.639 162.963L493.638 162.962C496.855 161.99 499.955 160.996 502.935 159.981L502.935 159.982C506.14 158.89 509.205 157.774 512.123 156.635L512.123 156.634C515.315 155.389 518.332 154.116 521.167 152.817L521.167 152.818C524.291 151.387 527.193 149.925 529.862 148.435L529.862 148.435C532.931 146.721 535.693 144.971 538.131 143.186L538.132 143.187C541.022 141.071 543.458 138.908 545.413 136.704L545.412 136.704C547.829 133.978 549.51 131.189 550.405 128.349L550.405 128.349C550.905 126.764 551.159 125.163 551.159 123.548C551.159 123.306 551.153 123.065 551.142 122.825V65.3476ZM550.145 124.161H550.142V122.849C550.08 121.576 549.849 120.308 549.452 119.046L549.928 118.896L550.142 118.829V70.1964C538.054 103.181 419.745 129.072 275.579 129.072C131.345 129.072 12.9904 103.156 1 70.1486L1 118.824L1.23013 118.896L1.70705 119.046C1.23795 120.536 1.00095 122.033 1 123.539L1 123.548L1 123.557C1.00095 125.062 1.23795 126.559 1.70703 128.049L1.70693 128.049C2.5333 130.674 4.0828 133.286 6.3509 135.878C6.39832 135.932 6.44603 135.986 6.49406 136.04C7.70052 137.401 9.10179 138.752 10.6938 140.091C13.8 142.703 17.6275 145.265 22.1398 147.76C35.9692 155.407 56.0468 162.325 80.9426 168.148C130.718 179.789 199.533 186.999 275.579 186.999C351.625 186.999 420.439 179.789 470.215 168.148C495.111 162.325 515.188 155.407 529.018 147.76C535.933 143.936 541.239 139.955 544.807 135.878C548.192 132.008 549.977 128.095 550.145 124.161ZM545.413 110.391L545.039 110.723L544.664 111.055C542.767 108.915 540.387 106.799 537.541 104.716L537.836 104.312L538.132 103.909C541.022 106.024 543.458 108.187 545.413 110.391ZM529.862 98.6601L529.619 99.0967L529.375 99.5332C526.732 98.0576 523.854 96.6077 520.75 95.1864L520.959 94.7318L521.167 94.2772C524.291 95.7081 527.193 97.1699 529.862 98.6601ZM512.123 90.4605L511.941 90.9263L511.76 91.3921C508.856 90.2589 505.805 89.1478 502.613 88.0603L502.774 87.587L502.935 87.1137C506.14 88.2056 509.205 89.3216 512.123 90.4605ZM493.639 84.1326L493.494 84.6112L493.349 85.0899C490.327 84.1765 487.2 83.2825 483.974 82.4088L484.105 81.9262L484.236 81.4436C487.471 82.3196 490.606 83.2163 493.639 84.1326ZM474.76 79.0052L474.641 79.4909L474.522 79.9766C471.43 79.2205 468.259 78.4819 465.013 77.7615L465.121 77.2734L465.23 76.7852C468.483 77.5071 471.66 78.2473 474.76 79.0052ZM455.658 74.758L455.559 75.2481L455.46 75.7382C452.324 75.1046 449.126 74.4872 445.869 73.8866L445.959 73.3949L446.05 72.9032C449.313 73.5047 452.516 74.1232 455.658 74.758ZM436.411 71.2044L436.328 71.6974L436.245 72.1905C433.077 71.6571 429.859 71.1391 426.592 70.6369L426.668 70.1427L426.744 69.6485C430.015 70.1514 433.239 70.6702 436.411 71.2044ZM417.049 68.2247L416.98 68.7199L416.91 69.215C413.719 68.7677 410.486 68.3351 407.213 67.9176L407.276 67.4216L407.34 66.9256C410.617 67.3437 413.854 67.7768 417.049 68.2247ZM397.649 65.7473L397.591 66.244L397.534 66.7407C394.334 66.3704 391.099 66.0141 387.83 65.6723L387.882 65.1751L387.934 64.6778C391.207 65.0199 394.445 65.3766 397.649 65.7473ZM378.196 63.7119L378.149 64.2097L378.102 64.7075C374.882 64.4051 371.631 64.1166 368.351 63.8421L368.393 63.3438L368.435 62.8456C371.718 63.1203 374.972 63.4092 378.196 63.7119ZM358.675 62.0771L358.638 62.5757L358.602 63.0743C355.383 62.8365 352.138 62.6122 348.869 62.4016L348.901 61.9026L348.933 61.4037C352.205 61.6145 355.453 61.839 358.675 62.0771ZM339.167 60.8196L339.14 61.3188L339.112 61.8181C335.875 61.6392 332.615 61.4738 329.335 61.3219L329.358 60.8224L329.381 60.323C332.664 60.475 335.927 60.6406 339.167 60.8196ZM319.608 59.9135L319.589 60.4131L319.57 60.9128C316.336 60.7913 313.083 60.683 309.812 60.5882L309.827 60.0884L309.841 59.5886C313.115 59.6835 316.371 59.7919 319.608 59.9135ZM300.055 59.346L300.044 59.8459L300.034 60.3458C296.787 60.279 293.523 60.2253 290.245 60.1851L290.251 59.6851L290.257 59.1852C293.538 59.2254 296.805 59.2791 300.055 59.346ZM280.491 59.1053L280.489 59.6053L280.487 60.1053C278.854 60.0987 277.218 60.0953 275.579 60.0953C273.94 60.0953 272.304 60.0987 270.672 60.1053L270.67 59.6053L270.668 59.1053C272.302 59.0987 273.939 59.0953 275.579 59.0953C277.22 59.0953 278.857 59.0987 280.491 59.1053ZM260.902 59.1852L260.908 59.6851L260.914 60.1851C257.635 60.2253 254.372 60.279 251.125 60.3458L251.114 59.8459L251.104 59.346C254.354 59.2791 257.62 59.2254 260.902 59.1852ZM241.317 59.5886L241.332 60.0884L241.346 60.5882C238.075 60.683 234.822 60.7913 231.588 60.9128L231.57 60.4131L231.551 59.9135C234.788 59.7919 238.044 59.6835 241.317 59.5886ZM221.778 60.323L221.801 60.8224L221.824 61.3219C218.543 61.4738 215.284 61.6392 212.046 61.8181L212.019 61.3188L211.991 60.8196C215.232 60.6406 218.494 60.475 221.778 60.323ZM202.226 61.4037L202.258 61.9026L202.29 62.4016C199.021 62.6122 195.776 62.8365 192.557 63.0743L192.52 62.5757L192.483 62.0771C195.706 61.839 198.953 61.6145 202.226 61.4037ZM182.724 62.8456L182.766 63.3438L182.807 63.8421C179.528 64.1165 176.277 64.4051 173.056 64.7075L173.01 64.2097L172.963 63.7119C176.187 63.4092 179.441 63.1203 182.724 62.8456ZM163.225 64.6778L163.276 65.1751L163.328 65.6723C160.06 66.0141 156.825 66.3704 153.625 66.7407L153.567 66.244L153.51 65.7473C156.713 65.3766 159.952 65.0199 163.225 64.6778ZM143.819 66.9256L143.882 67.4216L143.946 67.9176C140.672 68.3351 137.439 68.7677 134.248 69.215L134.179 68.7199L134.11 68.2247C137.305 67.7768 140.542 67.3437 143.819 66.9256ZM124.415 69.6485L124.491 70.1427L124.567 70.6369C121.3 71.1391 118.081 71.6571 114.913 72.1905L114.83 71.6974L114.747 71.2044C117.92 70.6702 121.143 70.1514 124.415 69.6485ZM105.109 72.9032L105.199 73.3949L105.29 73.8866C102.032 74.4872 98.8346 75.1046 95.699 75.7382L95.6 75.2481L95.5009 74.758C98.6423 74.1232 101.846 73.5047 105.109 72.9032ZM85.9287 76.7852L86.037 77.2734L86.1454 77.7615C82.8991 78.4819 79.7284 79.2205 76.6363 79.9766L76.5175 79.4909L76.3988 79.0052C79.4981 78.2473 82.6758 77.5071 85.9287 76.7852ZM66.9227 81.4436L67.0534 81.9262L67.1841 82.4088C63.9581 83.2825 60.8318 84.1765 57.8093 85.0899L57.6647 84.6112L57.52 84.1326C60.5524 83.2163 63.6879 82.3197 66.9227 81.4436ZM48.2236 87.1137L48.3848 87.587L48.5461 88.0603C45.3539 89.1478 42.3028 90.2589 39.3988 91.3921L39.2171 90.9263L39.0353 90.4605C41.954 89.3216 45.0188 88.2055 48.2236 87.1137ZM29.9917 94.2772L30.1999 94.7318L30.4081 95.1864C27.3051 96.6076 24.427 98.0575 21.7835 99.5332L21.5398 99.0966L21.2961 98.6601C23.9656 97.1699 26.8677 95.7081 29.9917 94.2772ZM13.0269 103.909C10.1365 106.024 7.70054 108.187 5.74589 110.391L6.11999 110.723L6.49408 111.055C8.39181 108.915 10.7715 106.799 13.6175 104.716L13.3222 104.312L13.0269 103.909Z" fill="white"/>
<path d="M550.142 64.0056V63.0056H549.142V64.0056H550.142ZM550.146 64.0056V65.0056H551.189L551.145 63.9629L550.146 64.0056ZM550.142 65.3228L551.14 65.3717L551.142 65.3473V65.3228H550.142ZM544.807 76.9506L545.56 77.6091L544.807 76.9506ZM529.019 88.8323L529.502 89.7074L529.019 88.8323ZM470.216 109.221L470.443 110.194L470.216 109.221ZM80.9433 109.221L81.171 108.247L80.9433 109.221ZM22.1405 88.8323L21.6566 89.7074L22.1405 88.8323ZM6.35161 76.9506L7.10421 76.2921H7.10421L6.35161 76.9506ZM6.35161 52.2888L5.59901 51.6303L6.35161 52.2888ZM22.1405 40.407L21.6566 39.5319L22.1405 40.407ZM80.9433 20.0187L81.171 20.9925V20.9925L80.9433 20.0187ZM470.216 20.0187L470.443 19.045V19.045L470.216 20.0187ZM529.019 40.407L529.502 39.5319L529.019 40.407ZM544.807 52.2888L545.56 51.6303V51.6303L544.807 52.2888ZM551.142 65.3476L550.143 65.3003L550.142 65.3239V65.3476H551.142ZM0.012467 64.0056V65.0056H0.973358L1.01167 64.0455L0.012467 64.0056ZM0 64.0056V63.0056H-1V64.0056H0ZM2.78162e-06 123.538L1 123.539V123.538H2.78162e-06ZM0 123.548L-1 123.547L-1 123.548L0 123.548ZM2.78249e-06 123.557H1L1 123.557L2.78249e-06 123.557ZM2.81072e-06 124.161H-0.999997L-0.999997 125.161H2.81072e-06V124.161ZM0.0117602 124.161L1.01096 124.121L0.972649 123.161H0.0117602V124.161ZM5.74587 136.704L6.49406 136.041L6.49404 136.04L5.74587 136.704ZM8.14647 139.166L7.46169 139.895L8.14647 139.166ZM13.0268 143.187L12.4362 143.994L13.257 144.594L13.8437 143.763L13.0268 143.187ZM13.027 143.186L13.6176 142.379L12.7968 141.779L12.2101 142.61L13.027 143.186ZM21.2962 148.435L22.1631 148.933L22.6679 148.055L21.7836 147.562L21.2962 148.435ZM21.2961 148.435L20.4291 147.937L19.9243 148.815L20.8086 149.308L21.2961 148.435ZM29.9916 152.818L29.5752 153.727L30.4857 154.144L30.9014 153.233L29.9916 152.818ZM29.9918 152.818L30.4082 151.909L29.4977 151.492L29.082 152.403L29.9918 152.818ZM39.0354 156.634L39.9667 156.999L40.3314 156.067L39.399 155.703L39.0354 156.634ZM39.0353 156.635L38.1041 156.27L37.7393 157.202L38.6718 157.566L39.0353 156.635ZM48.2236 159.982L47.9011 160.928L48.8568 161.254L49.1732 160.295L48.2236 159.982ZM48.2237 159.981L48.5462 159.035L47.5905 158.709L47.2741 159.668L48.2237 159.981ZM57.5201 162.962L58.4789 163.246L58.7615 162.293L57.8094 162.005L57.5201 162.962ZM57.52 162.963L56.5612 162.679L56.2787 163.632L57.2308 163.92L57.52 162.963ZM66.9227 165.652L66.6612 166.617L67.6292 166.879L67.8886 165.91L66.9227 165.652ZM66.9228 165.651L67.1842 164.686L66.2163 164.424L65.9568 165.393L66.9228 165.651ZM76.3989 168.09L77.371 168.324L77.6049 167.355L76.6364 167.118L76.3989 168.09ZM76.3988 168.09L75.4267 167.855L75.1927 168.825L76.1612 169.061L76.3988 168.09ZM85.9287 170.31L85.7121 171.286L86.6933 171.504L86.9061 170.522L85.9287 170.31ZM85.9288 170.31L86.1455 169.333L85.1643 169.116L84.9515 170.098L85.9288 170.31ZM95.501 172.337L96.4828 172.527L96.6713 171.553L95.6991 171.357L95.501 172.337ZM95.501 172.337L94.5192 172.147L94.3307 173.121L95.3029 173.317L95.501 172.337ZM105.109 174.192L104.927 175.176L105.908 175.356L106.091 174.376L105.109 174.192ZM105.109 174.192L105.29 173.208L104.309 173.027L104.126 174.007L105.109 174.192ZM114.747 175.89L115.733 176.06L115.903 175.071L114.913 174.904L114.747 175.89ZM114.747 175.891L113.762 175.721L113.592 176.71L114.581 176.877L114.747 175.891ZM124.415 177.447L124.263 178.435L125.254 178.587L125.404 177.597L124.415 177.447ZM124.415 177.446L124.567 176.458L123.576 176.306L123.426 177.296L124.415 177.446ZM134.11 178.87L135.098 179.02L135.25 178.02L134.249 177.88L134.11 178.87ZM134.11 178.871L133.121 178.721L132.969 179.72L133.971 179.861L134.11 178.871ZM143.819 180.17L143.693 181.162L144.691 181.289L144.812 180.29L143.819 180.17ZM143.819 180.169L143.946 179.177L142.947 179.05L142.826 180.049L143.819 180.169ZM153.51 181.347L154.503 181.464L154.62 180.469L153.625 180.354L153.51 181.347ZM153.51 181.348L152.517 181.231L152.4 182.226L153.395 182.341L153.51 181.348ZM163.225 182.417L163.121 183.412L164.106 183.515L164.218 182.531L163.225 182.417ZM163.225 182.417L163.329 181.422L162.343 181.319L162.231 182.303L163.225 182.417ZM172.963 183.383L173.959 183.468L174.044 182.48L173.056 182.387L172.963 183.383ZM172.963 183.383L171.966 183.298L171.882 184.286L172.869 184.379L172.963 183.383ZM182.724 184.25L182.64 185.246L183.635 185.329L183.72 184.335L182.724 184.25ZM182.724 184.249L182.807 183.253L181.813 183.169L181.728 184.164L182.724 184.249ZM192.483 185.018L193.48 185.103L193.566 184.095L192.557 184.02L192.483 185.018ZM192.483 185.018L191.487 184.933L191.4 185.941L192.41 186.015L192.483 185.018ZM202.226 185.692L202.161 186.69L203.168 186.754L203.224 185.747L202.226 185.692ZM202.226 185.691L202.29 184.693L201.283 184.628L201.227 185.636L202.226 185.691ZM211.991 186.275L212.99 186.331L213.045 185.332L212.046 185.277L211.991 186.275ZM211.991 186.276L210.993 186.22L210.937 187.219L211.936 187.274L211.991 186.276ZM221.778 186.772L221.731 187.771L222.723 187.817L222.776 186.826L221.778 186.772ZM221.778 186.772L221.824 185.773L220.833 185.727L220.779 186.718L221.778 186.772ZM231.551 187.181L232.55 187.209L232.578 186.219L231.588 186.182L231.551 187.181ZM231.551 187.182L230.551 187.154L230.524 188.144L231.513 188.181L231.551 187.182ZM241.317 187.507L241.288 188.506L242.29 188.535L242.317 187.534L241.317 187.507ZM241.317 187.506L241.346 186.507L240.345 186.477L240.318 187.479L241.317 187.506ZM251.104 187.749L252.104 187.774L252.13 186.77L251.125 186.749L251.104 187.749ZM251.104 187.749L250.104 187.724L250.079 188.728L251.083 188.749L251.104 187.749ZM260.902 187.91L260.889 188.91L261.902 188.922V187.91H260.902ZM260.902 187.91L260.914 186.91L259.902 186.897V187.91H260.902ZM270.668 187.989H271.668V186.993L270.672 186.989L270.668 187.989ZM270.668 187.99H269.668V188.986L270.664 188.99L270.668 187.99ZM280.491 187.99L280.495 188.99L281.491 188.986V187.99H280.491ZM280.491 187.989L280.487 186.989L279.491 186.993V187.989H280.491ZM290.257 187.91H291.257V186.897L290.245 186.91L290.257 187.91ZM290.257 187.91H289.257V188.922L290.269 188.91L290.257 187.91ZM300.054 187.749L300.075 188.749L301.054 188.729V187.749H300.054ZM300.054 187.749L300.034 186.749L299.054 186.769V187.749H300.054ZM309.841 187.506L310.84 187.455L310.79 186.478L309.812 186.507L309.841 187.506ZM309.841 187.507L308.843 187.558L308.893 188.535L309.87 188.506L309.841 187.507ZM319.608 187.182L319.645 188.181L320.658 188.143L320.606 187.131L319.608 187.182ZM319.608 187.181L319.57 186.182L318.557 186.22L318.609 187.232L319.608 187.181ZM329.381 186.772L330.38 186.722L330.33 185.727L329.335 185.773L329.381 186.772ZM329.381 186.772L328.382 186.822L328.432 187.817L329.427 187.771L329.381 186.772ZM339.167 186.276L339.223 187.274L340.216 187.219L340.166 186.226L339.167 186.276ZM339.167 186.275L339.112 185.277L338.119 185.331L338.169 186.325L339.167 186.275ZM348.933 185.691L349.932 185.642L349.882 184.628L348.869 184.693L348.933 185.691ZM348.933 185.692L347.934 185.74L347.984 186.755L348.997 186.69L348.933 185.692ZM358.675 185.018L358.749 186.015L359.723 185.944L359.674 184.968L358.675 185.018ZM358.675 185.018L358.602 184.02L357.628 184.092L357.677 185.068L358.675 185.018ZM368.435 184.249L369.43 184.15L369.332 183.17L368.351 183.253L368.435 184.249ZM368.435 184.25L367.44 184.349L367.538 185.328L368.518 185.246L368.435 184.25ZM378.196 183.383L378.289 184.379L379.288 184.285L379.191 183.286L378.196 183.383ZM378.196 183.383L378.102 182.387L377.103 182.481L377.2 183.48L378.196 183.383ZM387.934 182.417L388.93 182.322L388.834 181.317L387.83 181.422L387.934 182.417ZM387.934 182.417L386.939 182.512L387.034 183.517L388.038 183.412L387.934 182.417ZM397.649 181.348L397.764 182.341L398.739 182.228L398.644 181.251L397.649 181.348ZM397.649 181.347L397.534 180.354L396.558 180.467L396.653 181.444L397.649 181.347ZM407.339 180.169L408.329 180.024L408.187 179.053L407.213 179.177L407.339 180.169ZM407.339 180.17L406.35 180.314L406.492 181.286L407.466 181.162L407.339 180.17ZM417.049 178.871L417.188 179.861L418.181 179.722L418.039 178.729L417.049 178.871ZM417.049 178.87L416.91 177.88L415.917 178.019L416.059 179.011L417.049 178.87ZM426.743 177.446L427.734 177.308L427.594 176.304L426.592 176.458L426.743 177.446ZM426.744 177.447L425.753 177.585L425.893 178.589L426.896 178.435L426.744 177.447ZM436.411 175.891L436.577 176.877L437.58 176.708L437.394 175.708L436.411 175.891ZM436.411 175.89L436.245 174.904L435.242 175.073L435.428 176.073L436.411 175.89ZM446.05 174.191L447.033 174.009L446.85 173.027L445.869 173.208L446.05 174.191ZM446.05 174.192L445.067 174.375L445.25 175.357L446.231 175.176L446.05 174.192ZM455.658 172.337L455.856 173.317L456.821 173.122L456.641 172.154L455.658 172.337ZM455.658 172.337L455.459 171.356L454.494 171.551L454.674 172.52L455.658 172.337ZM465.23 170.309L466.205 170.088L465.984 169.118L465.013 169.333L465.23 170.309ZM465.23 170.31L464.255 170.532L464.475 171.502L465.446 171.286L465.23 170.31ZM474.76 168.09L474.997 169.061L475.953 168.828L475.735 167.868L474.76 168.09ZM474.76 168.089L474.522 167.118L473.567 167.352L473.785 168.311L474.76 168.089ZM484.236 165.651L485.2 165.388L484.938 164.425L483.974 164.686L484.236 165.651ZM484.236 165.652L483.271 165.915L483.534 166.878L484.497 166.617L484.236 165.652ZM493.639 162.963L493.928 163.92L494.893 163.628L494.593 162.666L493.639 162.963ZM493.638 162.962L493.349 162.005L492.384 162.296L492.683 163.259L493.638 162.962ZM502.935 159.981L503.888 159.678L503.578 158.705L502.612 159.034L502.935 159.981ZM502.935 159.982L501.982 160.285L502.292 161.257L503.257 160.928L502.935 159.982ZM512.123 156.635L512.487 157.566L513.397 157.211L513.063 156.293L512.123 156.635ZM512.123 156.634L511.759 155.702L510.849 156.058L511.183 156.976L512.123 156.634ZM521.167 152.817L522.077 152.404L521.662 151.491L520.75 151.908L521.167 152.817ZM521.167 152.818L520.257 153.232L520.672 154.145L521.583 153.727L521.167 152.818ZM529.862 148.435L530.35 149.308L531.223 148.821L530.736 147.948L529.862 148.435ZM529.862 148.435L529.375 147.561L528.502 148.049L528.989 148.922L529.862 148.435ZM538.131 143.186L538.957 142.622L538.374 141.769L537.541 142.379L538.131 143.186ZM538.132 143.187L537.306 143.751L537.889 144.604L538.722 143.994L538.132 143.187ZM545.413 136.704L546.161 137.368L546.824 136.62L546.077 135.957L545.413 136.704ZM545.412 136.704L544.664 136.04L544.001 136.787L544.748 137.451L545.412 136.704ZM550.405 128.349L550.721 127.4L549.756 127.079L549.451 128.049L550.405 128.349ZM550.405 128.349L550.089 129.298L551.054 129.62L551.359 128.65L550.405 128.349ZM551.142 122.825H550.142V122.848L550.143 122.872L551.142 122.825ZM550.145 124.161L551.144 124.204L551.189 123.161H550.145V124.161ZM550.142 124.161H549.142V125.161H550.142V124.161ZM550.142 122.849H551.142V122.825L551.14 122.8L550.142 122.849ZM549.452 119.046L549.151 118.092L548.197 118.393L548.498 119.347L549.452 119.046ZM549.928 118.896L549.628 117.942L549.928 118.896ZM550.142 118.829L550.442 119.783L551.142 119.563V118.829H550.142ZM550.142 70.1964H551.142L549.203 69.8523L550.142 70.1964ZM1 70.1486L1.93991 69.8072L2.38419e-07 70.1486H1ZM1 118.824H2.6226e-06L2.65853e-06 119.557L0.699657 119.777L1 118.824ZM1.23013 118.896L1.53049 117.942H1.53048L1.23013 118.896ZM1.70705 119.046L2.66088 119.347L2.96123 118.393L2.0074 118.092L1.70705 119.046ZM1 123.539L3.00946e-06 123.538L2.91118e-06 123.538L1 123.539ZM1 123.548L-1.5047e-07 123.547L5.01567e-08 123.548L1 123.548ZM1 123.557L2.86301e-06 123.557L3.05766e-06 123.557L1 123.557ZM1.70703 128.049L1.98695 129.009L2.96769 128.723L2.66086 127.749L1.70703 128.049ZM1.70693 128.049L1.42701 127.089L0.446298 127.375L0.753088 128.349L1.70693 128.049ZM6.3509 135.878L7.10354 135.22L7.10351 135.219L6.3509 135.878ZM6.49406 136.04L7.24225 135.377L7.2422 135.377L6.49406 136.04ZM10.6938 140.091L10.0502 140.856L10.0502 140.856L10.6938 140.091ZM22.1398 147.76L21.6559 148.635L22.1398 147.76ZM80.9426 168.148L81.1703 167.174H81.1703L80.9426 168.148ZM470.215 168.148L469.987 167.174L470.215 168.148ZM529.018 147.76L529.502 148.635L529.018 147.76ZM544.807 135.878L545.559 136.536V136.536L544.807 135.878ZM545.039 110.723L544.375 109.975L544.375 109.975L545.039 110.723ZM545.413 110.391L546.076 111.14L546.824 110.476L546.161 109.728L545.413 110.391ZM544.664 111.055L543.916 111.718L544.58 112.466L545.328 111.803L544.664 111.055ZM537.541 104.716L536.734 104.125L536.144 104.932L536.951 105.523L537.541 104.716ZM537.836 104.312L538.643 104.903L538.643 104.903L537.836 104.312ZM538.132 103.909L538.722 103.102L537.915 102.511L537.325 103.318L538.132 103.909ZM529.619 99.0967L530.492 99.5841L530.492 99.584L529.619 99.0967ZM529.862 98.6601L530.736 99.1474L531.223 98.2743L530.35 97.7869L529.862 98.6601ZM529.375 99.5332L528.888 100.406L529.761 100.894L530.248 100.021L529.375 99.5332ZM520.75 95.1864L519.841 94.7699L519.425 95.6791L520.334 96.0956L520.75 95.1864ZM520.959 94.7318L521.868 95.1483L521.868 95.1482L520.959 94.7318ZM521.167 94.2772L521.583 93.3681L520.674 92.9516L520.258 93.8608L521.167 94.2772ZM511.941 90.9263L511.01 90.5627L511.01 90.5628L511.941 90.9263ZM512.123 90.4605L513.055 90.8241L513.418 89.8925L512.487 89.5289L512.123 90.4605ZM511.76 91.3921L511.396 92.3237L512.328 92.6872L512.691 91.7556L511.76 91.3921ZM502.613 88.0603L501.666 87.7378L501.343 88.6844L502.29 89.0069L502.613 88.0603ZM502.774 87.587L503.72 87.9095L503.72 87.9095L502.774 87.587ZM502.935 87.1137L503.257 86.1671L502.311 85.8447L501.988 86.7913L502.935 87.1137ZM493.494 84.6112L492.537 84.3219V84.322L493.494 84.6112ZM493.639 84.1326L494.596 84.4219L494.885 83.4646L493.928 83.1754L493.639 84.1326ZM493.349 85.0899L493.06 86.0471L494.017 86.3364L494.307 85.3791L493.349 85.0899ZM483.974 82.4088L483.009 82.1474L482.748 83.1126L483.713 83.374L483.974 82.4088ZM484.236 81.4436L484.497 80.4783L483.532 80.2169L483.271 81.1822L484.236 81.4436ZM474.641 79.4909L473.67 79.2534V79.2534L474.641 79.4909ZM474.76 79.0052L475.731 79.2428L475.969 78.2714L474.997 78.0339L474.76 79.0052ZM474.522 79.9766L474.285 80.948L475.256 81.1855L475.494 80.2141L474.522 79.9766ZM465.013 77.7615L464.037 77.5449L463.82 78.5211L464.797 78.7377L465.013 77.7615ZM465.121 77.2734L464.145 77.0567V77.0567L465.121 77.2734ZM465.23 76.7852L465.446 75.809L464.47 75.5923L464.254 76.5686L465.23 76.7852ZM455.559 75.2481L454.578 75.05L455.559 75.2481ZM455.658 74.758L456.638 74.9561L456.836 73.9759L455.856 73.7778L455.658 74.758ZM455.46 75.7382L455.262 76.7184L456.242 76.9164L456.44 75.9362L455.46 75.7382ZM445.869 73.8866L444.885 73.7052L444.704 74.6887L445.687 74.87L445.869 73.8866ZM446.05 72.9032L446.231 71.9197L445.248 71.7384L445.067 72.7218L446.05 72.9032ZM436.328 71.6974L435.342 71.5314L436.328 71.6974ZM436.411 71.2044L437.397 71.3704L437.563 70.3843L436.577 70.2183L436.411 71.2044ZM436.245 72.1905L436.079 73.1766L437.065 73.3427L437.231 72.3565L436.245 72.1905ZM426.592 70.6369L425.603 70.485L425.451 71.4733L426.44 71.6253L426.592 70.6369ZM426.668 70.1427L425.679 69.9907L425.679 69.9908L426.668 70.1427ZM426.744 69.6485L426.896 68.6601L425.907 68.5082L425.755 69.4965L426.744 69.6485ZM416.98 68.7199L417.97 68.8587V68.8587L416.98 68.7199ZM417.049 68.2247L418.039 68.3635L418.178 67.3732L417.188 67.2344L417.049 68.2247ZM416.91 69.215L416.771 70.2053L417.762 70.3442L417.9 69.3539L416.91 69.215ZM407.213 67.9176L406.221 67.7911L406.094 68.783L407.086 68.9096L407.213 67.9176ZM407.276 67.4216L406.284 67.295L406.284 67.2951L407.276 67.4216ZM407.34 66.9256L407.466 65.9337L406.474 65.8071L406.348 66.799L407.34 66.9256ZM397.591 66.244L396.598 66.129V66.1291L397.591 66.244ZM397.649 65.7473L398.642 65.8623L398.757 64.8689L397.764 64.754L397.649 65.7473ZM397.534 66.7407L397.419 67.7341L398.412 67.8491L398.527 66.8556L397.534 66.7407ZM387.83 65.6723L386.836 65.5683L386.732 66.5629L387.726 66.6669L387.83 65.6723ZM387.882 65.1751L388.877 65.2791L388.877 65.279L387.882 65.1751ZM387.934 64.6778L388.038 63.6832L387.043 63.5792L386.939 64.5738L387.934 64.6778ZM378.149 64.2097L377.153 64.1162L377.153 64.1163L378.149 64.2097ZM378.196 63.7119L379.191 63.8054L379.285 62.8098L378.289 62.7163L378.196 63.7119ZM378.102 64.7075L378.009 65.7031L379.004 65.7966L379.098 64.801L378.102 64.7075ZM368.351 63.8421L367.355 63.7587L367.271 64.7552L368.268 64.8386L368.351 63.8421ZM368.393 63.3438L369.39 63.4273V63.4272L368.393 63.3438ZM368.435 62.8456L368.518 61.8491L367.522 61.7657L367.438 62.7622L368.435 62.8456ZM358.638 62.5757L357.641 62.502V62.502L358.638 62.5757ZM358.675 62.0771L359.673 62.1508L359.746 61.1535L358.749 61.0798L358.675 62.0771ZM358.602 63.0743L358.528 64.0716L359.525 64.1453L359.599 63.148L358.602 63.0743ZM348.869 62.4016L347.871 62.3373L347.807 63.3352L348.804 63.3995L348.869 62.4016ZM348.901 61.9026L347.903 61.8383V61.8383L348.901 61.9026ZM348.933 61.4037L348.997 60.4057L347.999 60.3414L347.935 61.3393L348.933 61.4037ZM339.14 61.3188L340.138 61.374L339.14 61.3188ZM339.167 60.8196L340.166 60.8748L340.221 59.8763L339.223 59.8211L339.167 60.8196ZM339.112 61.8181L339.057 62.8165L340.056 62.8717L340.111 61.8732L339.112 61.8181ZM329.335 61.3219L328.336 61.2757L328.29 62.2746L329.288 62.3208L329.335 61.3219ZM329.358 60.8224L328.359 60.7762V60.7762L329.358 60.8224ZM329.381 60.323L329.427 59.3241L328.428 59.2778L328.382 60.2767L329.381 60.323ZM319.589 60.4131L320.588 60.4506V60.4506L319.589 60.4131ZM319.608 59.9135L320.607 59.9509L320.645 58.9517L319.645 58.9142L319.608 59.9135ZM319.57 60.9128L319.533 61.912L320.532 61.9496L320.57 60.9503L319.57 60.9128ZM309.812 60.5882L308.813 60.5592L308.784 61.5587L309.783 61.5877L309.812 60.5882ZM309.841 59.5886L309.87 58.589L308.871 58.56L308.842 59.5596L309.841 59.5886ZM300.055 59.346L301.054 59.3666L301.075 58.3668L300.075 58.3462L300.055 59.346ZM300.034 60.3458L300.013 61.3456L301.013 61.3662L301.034 60.3664L300.034 60.3458ZM290.245 60.1851L289.245 60.1728L289.233 61.1727L290.232 61.185L290.245 60.1851ZM290.257 59.1852L290.269 58.1852L289.269 58.173L289.257 59.1729L290.257 59.1852ZM280.489 59.6053L279.489 59.6012V59.6013L280.489 59.6053ZM280.491 59.1053L281.491 59.1094L281.495 58.1094L280.495 58.1054L280.491 59.1053ZM280.487 60.1053L280.483 61.1053L281.483 61.1094L281.487 60.1094L280.487 60.1053ZM270.672 60.1053L269.672 60.1094L269.676 61.1094L270.676 61.1053L270.672 60.1053ZM270.668 59.1053L270.664 58.1054L269.664 58.1094L269.668 59.1094L270.668 59.1053ZM260.902 59.1852L261.902 59.1729L261.889 58.173L260.889 58.1852L260.902 59.1852ZM260.914 60.1851L260.926 61.185L261.926 61.1727L261.914 60.1728L260.914 60.1851ZM251.125 60.3458L250.125 60.3664L250.145 61.3662L251.145 61.3456L251.125 60.3458ZM251.104 59.346L251.084 58.3462L250.084 58.3668L250.104 59.3666L251.104 59.346ZM241.332 60.0884L242.331 60.0594L241.332 60.0884ZM241.317 59.5886L242.317 59.5596L242.288 58.56L241.288 58.589L241.317 59.5886ZM241.346 60.5882L241.375 61.5877L242.375 61.5587L242.346 60.5592L241.346 60.5882ZM231.588 60.9128L230.589 60.9503L230.627 61.9496L231.626 61.912L231.588 60.9128ZM231.57 60.4131L230.57 60.4506V60.4506L231.57 60.4131ZM231.551 59.9135L231.513 58.9142L230.514 58.9517L230.552 59.951L231.551 59.9135ZM221.778 60.323L222.777 60.2767L222.73 59.2778L221.731 59.324L221.778 60.323ZM221.824 61.3219L221.87 62.3208L222.869 62.2746L222.823 61.2757L221.824 61.3219ZM212.046 61.8181L211.048 61.8732L211.103 62.8717L212.101 62.8165L212.046 61.8181ZM212.019 61.3188L213.017 61.2637V61.2636L212.019 61.3188ZM211.991 60.8196L211.936 59.8211L210.937 59.8763L210.993 60.8748L211.991 60.8196ZM202.258 61.9026L203.256 61.8383L203.256 61.8383L202.258 61.9026ZM202.226 61.4037L203.224 61.3394L203.159 60.3414L202.161 60.4057L202.226 61.4037ZM202.29 62.4016L202.354 63.3995L203.352 63.3352L203.288 62.3373L202.29 62.4016ZM192.557 63.0743L191.56 63.148L191.633 64.1453L192.631 64.0716L192.557 63.0743ZM192.483 62.0771L192.41 61.0798L191.412 61.1535L191.486 62.1507L192.483 62.0771ZM182.766 63.3438L181.769 63.4272V63.4272L182.766 63.3438ZM182.724 62.8456L183.72 62.7622L183.637 61.7657L182.64 61.8491L182.724 62.8456ZM182.807 63.8421L182.891 64.8386L183.887 64.7552L183.804 63.7587L182.807 63.8421ZM173.056 64.7075L172.061 64.801L172.154 65.7966L173.15 65.7031L173.056 64.7075ZM172.963 63.7119L172.869 62.7163L171.874 62.8098L171.967 63.8054L172.963 63.7119ZM163.225 64.6778L164.219 64.5738L164.115 63.5792L163.121 63.6832L163.225 64.6778ZM163.328 65.6723L163.432 66.6669L164.427 66.5629L164.323 65.5684L163.328 65.6723ZM153.625 66.7407L152.631 66.8557L152.746 67.849L153.74 67.7341L153.625 66.7407ZM153.567 66.244L152.574 66.359V66.359L153.567 66.244ZM153.51 65.7473L153.395 64.754L152.401 64.8689L152.516 65.8623L153.51 65.7473ZM143.819 66.9256L144.811 66.7991L144.685 65.8071L143.693 65.9337L143.819 66.9256ZM143.946 67.9176L144.072 68.9096L145.064 68.783L144.938 67.7911L143.946 67.9176ZM134.248 69.215L133.258 69.3539L133.397 70.3442L134.387 70.2053L134.248 69.215ZM134.11 68.2247L133.971 67.2344L132.98 67.3732L133.119 68.3635L134.11 68.2247ZM124.415 69.6485L125.403 69.4966L125.251 68.5082L124.263 68.6601L124.415 69.6485ZM124.567 70.6369L124.719 71.6253L125.707 71.4733L125.555 70.4849L124.567 70.6369ZM114.913 72.1905L113.927 72.3565L114.093 73.3427L115.079 73.1766L114.913 72.1905ZM114.83 71.6974L115.817 71.5314L114.83 71.6974ZM114.747 71.2044L114.581 70.2183L113.595 70.3843L113.761 71.3704L114.747 71.2044ZM105.109 72.9032L106.092 72.7218L105.911 71.7384L104.927 71.9197L105.109 72.9032ZM105.29 73.8866L105.471 74.87L106.455 74.6887L106.273 73.7053L105.29 73.8866ZM95.699 75.7382L94.7188 75.9363L94.9169 76.9164L95.8971 76.7184L95.699 75.7382ZM95.6 75.2481L94.6198 75.4462L95.6 75.2481ZM95.5009 74.758L95.3029 73.7778L94.3227 73.9759L94.5208 74.9561L95.5009 74.758ZM86.037 77.2734L87.0133 77.0567L86.037 77.2734ZM85.9287 76.7852L86.905 76.5686L86.6883 75.5923L85.7121 75.809L85.9287 76.7852ZM86.1454 77.7615L86.362 78.7377L87.3383 78.5211L87.1216 77.5448L86.1454 77.7615ZM76.6363 79.9766L75.6649 80.2142L75.9025 81.1855L76.8738 80.948L76.6363 79.9766ZM76.5175 79.4909L75.5461 79.7285L76.5175 79.4909ZM76.3988 79.0052L76.1612 78.0339L75.1898 78.2714L75.4274 79.2428L76.3988 79.0052ZM67.0534 81.9262L66.0882 82.1876V82.1876L67.0534 81.9262ZM66.9227 81.4436L67.8879 81.1822L67.6265 80.2169L66.6612 80.4783L66.9227 81.4436ZM67.1841 82.4088L67.4455 83.374L68.4107 83.1126L68.1493 82.1474L67.1841 82.4088ZM57.8093 85.0899L56.852 85.3791L57.1413 86.3364L58.0986 86.0471L57.8093 85.0899ZM57.6647 84.6112L56.7074 84.9005H56.7074L57.6647 84.6112ZM57.52 84.1326L57.2308 83.1754L56.2735 83.4646L56.5628 84.4219L57.52 84.1326ZM48.3848 87.587L47.4382 87.9095V87.9095L48.3848 87.587ZM48.2236 87.1137L49.1702 86.7912L48.8477 85.8447L47.9011 86.1671L48.2236 87.1137ZM48.5461 88.0603L48.8685 89.0069L49.8151 88.6844L49.4926 87.7378L48.5461 88.0603ZM39.3988 91.3921L38.4672 91.7556L38.8308 92.6872L39.7624 92.3237L39.3988 91.3921ZM39.2171 90.9263L40.1487 90.5628L39.2171 90.9263ZM39.0353 90.4605L38.6718 89.5289L37.7402 89.8925L38.1037 90.824L39.0353 90.4605ZM29.9917 94.2772L30.9008 93.8608L30.4844 92.9516L29.5752 93.368L29.9917 94.2772ZM30.4081 95.1864L30.8245 96.0956L31.7337 95.6791L31.3173 94.77L30.4081 95.1864ZM21.7835 99.5332L20.9103 100.021L21.3978 100.894L22.2709 100.406L21.7835 99.5332ZM21.5398 99.0966L22.413 98.6092L22.413 98.6092L21.5398 99.0966ZM21.2961 98.6601L20.8087 97.7869L19.9355 98.2743L20.4229 99.1475L21.2961 98.6601ZM5.74589 110.391L4.99771 109.728L4.33422 110.476L5.08241 111.139L5.74589 110.391ZM13.0269 103.909L13.8338 103.318L13.2432 102.511L12.4363 103.102L13.0269 103.909ZM6.11999 110.723L6.78348 109.975L6.78347 109.975L6.11999 110.723ZM6.49408 111.055L5.83059 111.803L6.57878 112.466L7.24227 111.718L6.49408 111.055ZM13.6175 104.716L14.2081 105.523L15.0151 104.932L14.4245 104.125L13.6175 104.716ZM13.3222 104.312L14.1291 103.722H14.1291L13.3222 104.312ZM550.142 65.0056H550.146V63.0056H550.142V65.0056ZM551.142 65.3228V64.0056H549.142V65.3228H551.142ZM545.56 77.6091C549.023 73.6516 550.935 69.5616 551.14 65.3717L549.143 65.2739C548.966 68.8916 547.312 72.5689 544.055 76.2921L545.56 77.6091ZM529.502 89.7074C536.475 85.8519 541.889 81.8048 545.56 77.6091L544.055 76.2921C540.591 80.2511 535.392 84.1653 528.535 87.9572L529.502 89.7074ZM470.443 110.194C495.378 104.363 515.557 97.4184 529.502 89.7074L528.535 87.9572C514.821 95.5402 494.845 102.433 469.988 108.247L470.443 110.194ZM275.579 129.072C351.679 129.072 420.573 121.858 470.443 110.194L469.988 108.247C420.307 119.866 351.572 127.072 275.579 127.072V129.072ZM80.7155 110.194C130.586 121.858 199.48 129.072 275.579 129.072V127.072C199.587 127.072 130.852 119.866 81.171 108.247L80.7155 110.194ZM21.6566 89.7074C35.6017 97.4184 55.7805 104.363 80.7155 110.194L81.171 108.247C56.3144 102.433 36.338 95.5402 22.6244 87.9572L21.6566 89.7074ZM5.59901 77.6091C9.26998 81.8048 14.6841 85.8519 21.6566 89.7074L22.6244 87.9572C15.7669 84.1653 10.5681 80.2511 7.10421 76.2921L5.59901 77.6091ZM0.000219584 64.6197C0.000219584 69.069 1.92793 73.4132 5.59901 77.6091L7.10421 76.2921C3.65181 72.3462 2.00022 68.4514 2.00022 64.6197H0.000219584ZM5.59901 51.6303C1.92793 55.8261 0.000219584 60.1703 0.000219584 64.6197H2.00022C2.00022 60.788 3.65181 56.8931 7.10421 52.9472L5.59901 51.6303ZM21.6566 39.5319C14.6841 43.3874 9.26998 47.4346 5.59901 51.6303L7.10421 52.9472C10.5681 48.9883 15.7669 45.074 22.6244 41.2822L21.6566 39.5319ZM80.7155 19.045C55.7805 24.8768 35.6017 31.821 21.6566 39.5319L22.6244 41.2822C36.338 33.6992 56.3144 26.8059 81.171 20.9925L80.7155 19.045ZM275.579 0.167358C199.48 0.167358 130.586 7.38143 80.7155 19.045L81.171 20.9925C130.852 9.37304 199.587 2.16736 275.579 2.16736V0.167358ZM470.443 19.045C420.573 7.38143 351.679 0.167358 275.579 0.167358V2.16736C351.572 2.16736 420.307 9.37304 469.988 20.9925L470.443 19.045ZM529.502 39.5319C515.557 31.821 495.378 24.8768 470.443 19.045L469.988 20.9925C494.845 26.8059 514.821 33.6992 528.535 41.2822L529.502 39.5319ZM545.56 51.6303C541.889 47.4346 536.475 43.3874 529.502 39.5319L528.535 41.2822C535.392 45.074 540.591 48.9883 544.055 52.9472L545.56 51.6303ZM551.145 63.9629C550.964 59.7402 549.049 55.618 545.56 51.6303L544.055 52.9472C547.337 56.6987 548.991 60.4036 549.147 64.0483L551.145 63.9629ZM550.159 64.6197C550.159 64.8469 550.153 65.0737 550.143 65.3003L552.141 65.3949C552.153 65.1368 552.159 64.8784 552.159 64.6197H550.159ZM275.579 1.16736C351.625 1.16736 420.44 8.37724 470.216 20.0187C495.112 25.8413 515.189 32.7601 529.018 40.407C535.934 44.2307 541.24 48.2114 544.807 52.2888C548.369 56.3596 550.159 60.4791 550.159 64.6197H552.159C552.159 59.8612 550.093 55.2923 546.313 50.9718C542.538 46.6578 537.016 42.5441 529.986 38.6568C515.926 30.8818 495.646 23.9122 470.671 18.0713C420.707 6.38562 351.732 -0.832642 275.579 -0.832642V1.16736ZM1.01167 64.0455C1.17572 59.9345 3.10707 55.8407 6.79051 51.7972C10.4779 47.7495 15.8788 43.8015 22.8616 40.012C36.8268 32.4333 56.9436 25.5818 81.8045 19.8182C131.511 8.29443 199.972 1.16736 275.579 1.16736V-0.832642C199.865 -0.832642 131.247 6.30279 81.3528 17.8699C56.4134 23.6517 36.0993 30.5526 21.9077 38.2542C14.8121 42.1049 9.20307 46.179 5.31201 50.4504C1.41703 54.7261 -0.798494 59.2485 -0.986738 63.9658L1.01167 64.0455ZM0 65.0056H0.012467V63.0056H0V65.0056ZM1 123.538L1 64.0056H-1L-0.999997 123.538H1ZM1 123.548L1 123.539L-0.999997 123.538L-1 123.547L1 123.548ZM1 123.557L1 123.547L-1 123.548L-0.999997 123.557L1 123.557ZM1 124.161L1 123.557H-0.999997V124.161H1ZM0.0117602 123.161H2.81072e-06V125.161H0.0117602V123.161ZM-0.987445 124.201C-0.804312 128.79 1.29759 133.195 4.9977 137.367L6.49404 136.04C3.00282 132.104 1.17058 128.121 1.01096 124.121L-0.987445 124.201ZM4.99768 137.367C5.75241 138.219 6.57448 139.061 7.46169 139.895L8.83125 138.437C7.98459 137.642 7.20531 136.843 6.49406 136.041L4.99768 137.367ZM7.46169 139.895C8.94019 141.284 10.6013 142.651 12.4362 143.994L13.6175 142.38C11.8394 141.078 10.2426 139.763 8.83125 138.437L7.46169 139.895ZM13.8437 143.763L13.8438 143.763L12.2101 142.61L12.21 142.61L13.8437 143.763ZM12.4364 143.993C14.913 145.806 17.7101 147.578 20.8088 149.308L21.7836 147.562C18.7441 145.865 16.0177 144.136 13.6176 142.379L12.4364 143.993ZM20.4293 147.936L20.4291 147.937L22.163 148.934L22.1631 148.933L20.4293 147.936ZM20.8086 149.308C23.5042 150.813 26.4303 152.287 29.5752 153.727L30.4081 151.909C27.3051 150.488 24.427 149.038 21.7835 147.562L20.8086 149.308ZM30.9014 153.233L30.9015 153.233L29.082 152.403L29.0818 152.403L30.9014 153.233ZM29.5753 153.727C32.429 155.034 35.464 156.314 38.6719 157.566L39.399 155.703C36.223 154.464 33.2236 153.198 30.4082 151.909L29.5753 153.727ZM38.1042 156.27L38.1041 156.27L39.9665 156.999L39.9667 156.999L38.1042 156.27ZM38.6718 157.566C41.6051 158.711 44.6836 159.832 47.9011 160.928L48.5461 159.035C45.3539 157.947 42.3028 156.836 39.3988 155.703L38.6718 157.566ZM49.1732 160.295L49.1733 160.295L47.2741 159.668L47.2739 159.668L49.1732 160.295ZM47.9012 160.928C50.8924 161.947 54.0039 162.944 57.2309 163.919L57.8094 162.005C54.6031 161.036 51.5138 160.046 48.5462 159.035L47.9012 160.928ZM56.5614 162.678L56.5612 162.679L58.4788 163.247L58.4789 163.246L56.5614 162.678ZM57.2308 163.92C60.2729 164.839 63.4177 165.738 66.6612 166.617L67.1841 164.686C63.9581 163.813 60.8318 162.919 57.8093 162.005L57.2308 163.92ZM67.8886 165.91L67.8887 165.91L65.9568 165.393L65.9567 165.393L67.8886 165.91ZM66.6614 166.616C69.7402 167.45 72.908 168.265 76.1613 169.061L76.6364 167.118C73.3983 166.326 70.2464 165.515 67.1842 164.686L66.6614 166.616ZM75.4268 167.855L75.4267 167.855L77.3709 168.325L77.371 168.324L75.4268 167.855ZM76.1612 169.061C79.2679 169.821 82.4525 170.563 85.7121 171.286L86.1454 169.334C82.8991 168.613 79.7284 167.875 76.6363 167.119L76.1612 169.061ZM86.9061 170.522L86.9062 170.521L84.9515 170.098L84.9514 170.098L86.9061 170.522ZM85.7122 171.286C88.8409 171.98 92.0387 172.657 95.303 173.317L95.6991 171.357C92.4468 170.699 89.2614 170.025 86.1455 169.333L85.7122 171.286ZM94.5193 172.147L94.5192 172.147L96.4827 172.527L96.4828 172.527L94.5193 172.147ZM95.3029 173.317C98.45 173.953 101.659 174.573 104.927 175.176L105.29 173.209C102.032 172.608 98.8346 171.991 95.699 171.357L95.3029 173.317ZM106.091 174.376L106.091 174.376L104.126 174.007L104.126 174.008L106.091 174.376ZM104.927 175.175C108.09 175.758 111.309 176.326 114.581 176.876L114.913 174.904C111.651 174.355 108.443 173.789 105.29 173.208L104.927 175.175ZM113.762 175.721L113.762 175.721L115.733 176.06L115.733 176.06L113.762 175.721ZM114.581 176.877C117.759 177.412 120.987 177.932 124.263 178.435L124.567 176.458C121.3 175.956 118.081 175.438 114.913 174.905L114.581 176.877ZM125.404 177.597L125.404 177.596L123.426 177.296L123.426 177.297L125.404 177.597ZM124.263 178.435C127.454 178.925 130.69 179.4 133.971 179.86L134.249 177.88C130.976 177.421 127.749 176.947 124.567 176.458L124.263 178.435ZM133.121 178.72L133.121 178.721L135.098 179.02L135.098 179.02L133.121 178.72ZM133.971 179.861C137.17 180.309 140.411 180.743 143.693 181.162L143.946 179.178C140.672 178.76 137.439 178.328 134.248 177.88L133.971 179.861ZM144.812 180.29L144.812 180.289L142.826 180.049L142.826 180.049L144.812 180.29ZM143.693 181.161C146.889 181.569 150.124 181.962 153.395 182.341L153.625 180.354C150.361 179.976 147.134 179.584 143.946 179.177L143.693 181.161ZM152.517 181.231L152.517 181.231L154.503 181.465L154.503 181.464L152.517 181.231ZM153.395 182.341C156.602 182.712 159.844 183.07 163.121 183.412L163.328 181.423C160.06 181.081 156.825 180.725 153.625 180.355L153.395 182.341ZM164.218 182.531L164.218 182.531L162.231 182.303L162.231 182.304L164.218 182.531ZM163.121 183.412C166.338 183.748 169.588 184.07 172.869 184.378L173.056 182.387C169.782 182.08 166.539 181.758 163.329 181.422L163.121 183.412ZM171.967 183.297L171.966 183.298L173.959 183.469L173.959 183.468L171.967 183.297ZM172.869 184.379C176.097 184.682 179.354 184.971 182.64 185.246L182.807 183.253C179.528 182.979 176.277 182.69 173.056 182.388L172.869 184.379ZM183.72 184.335L183.72 184.335L181.728 184.164L181.727 184.164L183.72 184.335ZM182.64 185.246C185.87 185.516 189.126 185.772 192.41 186.015L192.557 184.02C189.28 183.778 186.03 183.522 182.807 183.253L182.64 185.246ZM193.48 185.104L193.48 185.103L191.487 184.932L191.487 184.933L193.48 185.104ZM202.29 184.694C199.021 184.483 195.776 184.259 192.557 184.021L192.41 186.015C195.635 186.254 198.886 186.479 202.161 186.69L202.29 184.694ZM201.227 185.636L201.227 185.636L203.224 185.747L203.224 185.747L201.227 185.636ZM202.161 186.689C205.396 186.897 208.655 187.092 211.936 187.274L212.046 185.277C208.771 185.096 205.519 184.901 202.29 184.693L202.161 186.689ZM210.993 186.22L210.993 186.22L212.99 186.331L212.99 186.331L210.993 186.22ZM211.936 187.274C215.179 187.453 218.445 187.619 221.731 187.771L221.824 185.773C218.543 185.622 215.284 185.456 212.046 185.277L211.936 187.274ZM222.776 186.826L222.776 186.826L220.779 186.718L220.779 186.718L222.776 186.826ZM221.731 187.771C224.972 187.921 228.233 188.057 231.513 188.181L231.588 186.182C228.314 186.059 225.059 185.923 221.824 185.773L221.731 187.771ZM230.551 187.153L230.551 187.154L232.55 187.21L232.55 187.209L230.551 187.153ZM231.513 188.181C234.753 188.303 238.012 188.411 241.288 188.506L241.346 186.507C238.075 186.412 234.822 186.304 231.588 186.182L231.513 188.181ZM242.317 187.534L242.317 187.533L240.318 187.479L240.318 187.48L242.317 187.534ZM241.288 188.506C244.536 188.6 247.802 188.681 251.083 188.748L251.125 186.749C247.848 186.681 244.589 186.601 241.346 186.507L241.288 188.506ZM250.104 187.723L250.104 187.724L252.104 187.775L252.104 187.774L250.104 187.723ZM251.083 188.749C254.336 188.816 257.605 188.87 260.889 188.91L260.914 186.91C257.635 186.87 254.372 186.816 251.125 186.749L251.083 188.749ZM261.902 187.91V187.91H259.902V187.91H261.902ZM260.889 188.909C264.133 188.949 267.391 188.976 270.664 188.989L270.672 186.989C267.405 186.976 264.152 186.949 260.914 186.91L260.889 188.909ZM269.668 187.989V187.99H271.668V187.989H269.668ZM270.664 188.99C272.299 188.997 273.937 189 275.579 189V187C273.94 187 272.304 186.997 270.672 186.99L270.664 188.99ZM275.579 189C277.221 189 278.86 188.997 280.495 188.99L280.487 186.99C278.854 186.997 277.218 187 275.579 187V189ZM281.491 187.99V187.989H279.491V187.99H281.491ZM280.495 188.989C283.767 188.976 287.026 188.949 290.269 188.909L290.245 186.91C287.007 186.949 283.754 186.976 280.487 186.989L280.495 188.989ZM289.257 187.91V187.91H291.257V187.91H289.257ZM290.269 188.91C293.553 188.87 296.822 188.816 300.075 188.749L300.034 186.749C296.787 186.816 293.523 186.87 290.245 186.91L290.269 188.91ZM301.054 187.749V187.749H299.054V187.749H301.054ZM300.075 188.748C303.357 188.681 306.622 188.6 309.87 188.506L309.812 186.507C306.57 186.601 303.31 186.681 300.034 186.749L300.075 188.748ZM308.843 187.557L308.843 187.558L310.84 187.455L310.84 187.455L308.843 187.557ZM309.87 188.506C313.147 188.411 316.405 188.303 319.645 188.181L319.57 186.182C316.336 186.304 313.083 186.412 309.812 186.507L309.87 188.506ZM320.606 187.131L320.606 187.13L318.609 187.232L318.609 187.233L320.606 187.131ZM319.645 188.18C322.926 188.057 326.186 187.921 329.427 187.771L329.335 185.773C326.1 185.922 322.845 186.059 319.57 186.182L319.645 188.18ZM328.382 186.822L328.382 186.822L330.38 186.722L330.38 186.722L328.382 186.822ZM329.427 187.771C332.714 187.619 335.979 187.453 339.223 187.274L339.112 185.277C335.875 185.456 332.615 185.622 329.335 185.773L329.427 187.771ZM340.166 186.226L340.166 186.225L338.169 186.325L338.169 186.326L340.166 186.226ZM339.223 187.274C342.504 187.092 345.762 186.897 348.997 186.689L348.869 184.693C345.64 184.901 342.387 185.096 339.112 185.277L339.223 187.274ZM347.934 185.74L347.934 185.74L349.932 185.643L349.932 185.642L347.934 185.74ZM348.997 186.69C352.273 186.479 355.524 186.254 358.749 186.015L358.602 184.021C355.383 184.259 352.138 184.483 348.869 184.694L348.997 186.69ZM359.674 184.968L359.674 184.968L357.677 185.068L357.677 185.068L359.674 184.968ZM358.749 186.015C362.032 185.772 365.289 185.516 368.518 185.246L368.351 183.253C365.129 183.522 361.879 183.778 358.602 184.02L358.749 186.015ZM367.44 184.349L367.44 184.349L369.43 184.15L369.43 184.15L367.44 184.349ZM368.518 185.246C371.804 184.971 375.062 184.682 378.289 184.379L378.102 182.388C374.882 182.69 371.631 182.979 368.351 183.253L368.518 185.246ZM379.191 183.286L379.191 183.286L377.2 183.48L377.2 183.48L379.191 183.286ZM378.289 184.378C381.57 184.07 384.82 183.748 388.038 183.411L387.83 181.422C384.62 181.758 381.376 182.08 378.102 182.387L378.289 184.378ZM386.939 182.512L386.939 182.512L388.93 182.323L388.93 182.322L386.939 182.512ZM388.038 183.412C391.314 183.07 394.557 182.712 397.764 182.341L397.534 180.355C394.334 180.725 391.099 181.081 387.83 181.423L388.038 183.412ZM398.644 181.251L398.644 181.25L396.653 181.444L396.654 181.445L398.644 181.251ZM397.764 182.341C401.035 181.962 404.27 181.569 407.466 181.161L407.213 179.177C404.024 179.584 400.797 179.976 397.534 180.354L397.764 182.341ZM406.35 180.314L406.35 180.314L408.329 180.025L408.329 180.024L406.35 180.314ZM407.466 181.162C410.747 180.743 413.989 180.309 417.188 179.861L416.91 177.88C413.719 178.328 410.486 178.76 407.213 179.178L407.466 181.162ZM418.039 178.729L418.039 178.728L416.059 179.011L416.059 179.012L418.039 178.729ZM417.188 179.86C420.468 179.4 423.705 178.925 426.895 178.435L426.592 176.458C423.41 176.947 420.182 177.421 416.91 177.88L417.188 179.86ZM425.753 177.584L425.753 177.585L427.734 177.309L427.734 177.308L425.753 177.584ZM426.896 178.435C430.172 177.932 433.4 177.412 436.577 176.877L436.245 174.905C433.077 175.438 429.859 175.956 426.592 176.458L426.896 178.435ZM437.394 175.708L437.394 175.707L435.428 176.073L435.428 176.074L437.394 175.708ZM436.577 176.876C439.849 176.325 443.068 175.758 446.231 175.175L445.869 173.208C442.716 173.789 439.507 174.355 436.245 174.904L436.577 176.876ZM445.067 174.374L445.067 174.375L447.033 174.009L447.033 174.009L445.067 174.374ZM446.231 175.176C449.5 174.573 452.709 173.953 455.856 173.317L455.46 171.357C452.324 171.991 449.126 172.608 445.869 173.209L446.231 175.176ZM456.641 172.154L456.641 172.154L454.674 172.52L454.674 172.52L456.641 172.154ZM455.856 173.317C459.12 172.657 462.318 171.98 465.446 171.286L465.013 169.333C461.897 170.025 458.712 170.699 455.459 171.356L455.856 173.317ZM464.255 170.531L464.255 170.532L466.205 170.088L466.205 170.088L464.255 170.531ZM465.446 171.286C468.706 170.563 471.891 169.821 474.997 169.061L474.522 167.119C471.43 167.875 468.259 168.613 465.013 169.334L465.446 171.286ZM475.735 167.868L475.735 167.868L473.785 168.311L473.785 168.312L475.735 167.868ZM474.997 169.061C478.25 168.265 481.418 167.45 484.497 166.616L483.974 164.686C480.912 165.515 477.76 166.326 474.522 167.118L474.997 169.061ZM485.201 165.389L485.2 165.388L483.271 165.914L483.271 165.915L485.201 165.389ZM493.349 162.005C490.327 162.919 487.2 163.813 483.974 164.686L484.497 166.617C487.741 165.738 490.886 164.839 493.928 163.92L493.349 162.005ZM492.683 163.259L492.684 163.26L494.593 162.666L494.593 162.665L492.683 163.259ZM493.928 163.919C497.155 162.944 500.266 161.946 503.257 160.927L502.612 159.034C499.645 160.045 496.555 161.036 493.349 162.005L493.928 163.919ZM501.982 160.284L501.982 160.285L503.888 159.678L503.888 159.678L501.982 160.284ZM503.257 160.928C506.475 159.832 509.553 158.711 512.487 157.566L511.76 155.703C508.856 156.836 505.805 157.947 502.613 159.035L503.257 160.928ZM513.063 156.293L513.063 156.292L511.183 156.976L511.183 156.976L513.063 156.293ZM512.487 157.566C515.694 156.314 518.729 155.034 521.583 153.727L520.75 151.908C517.935 153.198 514.935 154.463 511.759 155.702L512.487 157.566ZM520.256 153.231L520.257 153.232L522.077 152.404L522.077 152.404L520.256 153.231ZM521.583 153.727C524.728 152.287 527.654 150.813 530.35 149.308L529.375 147.562C526.732 149.038 523.854 150.488 520.75 151.909L521.583 153.727ZM530.736 147.948L530.735 147.947L528.989 148.922L528.989 148.923L530.736 147.948ZM530.35 149.308C533.448 147.578 536.245 145.805 538.722 143.993L537.541 142.379C535.141 144.136 532.414 145.865 529.375 147.561L530.35 149.308ZM537.305 143.75L537.306 143.751L538.958 142.623L538.957 142.622L537.305 143.75ZM538.722 143.994C541.657 141.846 544.149 139.636 546.161 137.368L544.664 136.041C542.767 138.181 540.387 140.297 537.541 142.38L538.722 143.994ZM546.077 135.957L546.076 135.956L544.748 137.451L544.748 137.451L546.077 135.957ZM546.16 137.367C548.648 134.562 550.413 131.653 551.359 128.65L549.451 128.049C548.608 130.725 547.011 133.393 544.664 136.04L546.16 137.367ZM550.722 127.401L550.721 127.4L550.089 129.298L550.089 129.298L550.722 127.401ZM550.159 123.548C550.159 125.056 549.922 126.556 549.451 128.049L551.359 128.65C551.888 126.972 552.159 125.269 552.159 123.548H550.159ZM550.143 122.872C550.153 123.097 550.159 123.322 550.159 123.548H552.159C552.159 123.291 552.153 123.034 552.141 122.778L550.143 122.872ZM550.142 65.3476V122.825H552.142V65.3476H550.142ZM550.145 123.161H550.142V125.161H550.145V123.161ZM551.142 124.161V122.849H549.142V124.161H551.142ZM551.14 122.8C551.074 121.438 550.827 120.086 550.405 118.746L548.498 119.347C548.871 120.531 549.085 121.713 549.143 122.897L551.14 122.8ZM549.752 120L550.229 119.85L549.628 117.942L549.151 118.092L549.752 120ZM550.229 119.85L550.442 119.783L549.841 117.875L549.628 117.942L550.229 119.85ZM551.142 118.829V70.1964H549.142V118.829H551.142ZM549.203 69.8523C547.774 73.752 544.742 77.6278 540.149 81.4259C535.561 85.2201 529.464 88.8956 521.99 92.4061C507.041 99.4274 486.695 105.737 462.179 111.026C413.156 121.603 347.61 128.072 275.579 128.072V130.072C347.714 130.072 413.406 123.595 462.601 112.981C487.194 107.675 507.702 101.327 522.84 94.2164C530.41 90.6611 536.665 86.9023 541.424 82.9671C546.178 79.0357 549.488 74.887 551.081 70.5404L549.203 69.8523ZM275.579 128.072C203.514 128.072 137.94 121.597 88.9091 111.011C64.3894 105.717 44.0446 99.4023 29.104 92.3756C21.634 88.8624 15.5433 85.1843 10.9632 81.3874C6.37856 77.5869 3.35722 73.7088 1.93991 69.8072L0.0600928 70.49C1.64037 74.8403 4.9405 78.9926 9.6868 82.9272C14.4376 86.8655 20.6873 90.6273 28.2529 94.1854C43.3833 101.301 63.89 107.655 88.487 112.966C137.689 123.589 203.41 130.072 275.579 130.072V128.072ZM2.38419e-07 70.1486L2.6226e-06 118.824H2L2 70.1486H2.38419e-07ZM0.699657 119.777L0.929787 119.85L1.53048 117.942L1.30035 117.87L0.699657 119.777ZM0.929779 119.85L1.40669 120L2.0074 118.092L1.53049 117.942L0.929779 119.85ZM0.753218 118.746C0.255015 120.328 0.00101375 121.926 3.05761e-06 123.538L2 123.539C2.00088 122.14 2.22089 120.744 2.66088 119.347L0.753218 118.746ZM2.91118e-06 123.538L5.01567e-08 123.547L2 123.548L2 123.539L2.91118e-06 123.538ZM5.01567e-08 123.548L2.91118e-06 123.557L2 123.556L2 123.547L5.01567e-08 123.548ZM3.05766e-06 123.557C0.00101387 125.169 0.25501 126.767 0.753202 128.349L2.66086 127.749C2.22088 126.351 2.00088 124.955 2 123.556L3.05766e-06 123.557ZM1.42712 127.089L1.42701 127.089L1.98684 129.009L1.98695 129.009L1.42712 127.089ZM7.10351 135.219C4.9043 132.706 3.4365 130.212 2.66077 127.749L0.753088 128.349C1.6301 131.135 3.2613 133.865 5.5983 136.536L7.10351 135.219ZM7.2422 135.377C7.19575 135.325 7.14954 135.272 7.10354 135.22L5.59826 136.536C5.64709 136.592 5.6963 136.648 5.74592 136.704L7.2422 135.377ZM11.3374 139.325C9.77735 138.013 8.41206 136.696 7.24225 135.377L5.74587 136.704C6.98899 138.106 8.42623 139.49 10.0502 140.856L11.3374 139.325ZM22.6237 146.885C18.1532 144.413 14.3826 141.886 11.3374 139.325L10.0502 140.856C13.2175 143.519 17.1018 146.117 21.6559 148.635L22.6237 146.885ZM81.1703 167.174C56.3137 161.361 36.3373 154.468 22.6237 146.885L21.6559 148.635C35.601 156.346 55.7798 163.29 80.7148 169.122L81.1703 167.174ZM275.579 185.999C199.586 185.999 130.851 178.794 81.1703 167.174L80.7148 169.122C130.585 180.785 199.48 187.999 275.579 187.999V185.999ZM469.987 167.174C420.306 178.794 351.571 185.999 275.579 185.999V187.999C351.678 187.999 420.573 180.785 470.443 169.122L469.987 167.174ZM528.534 146.885C514.82 154.468 494.844 161.361 469.987 167.174L470.443 169.122C495.378 163.29 515.557 156.346 529.502 148.635L528.534 146.885ZM544.054 135.219C540.59 139.178 535.391 143.093 528.534 146.885L529.502 148.635C536.474 144.779 541.888 140.732 545.559 136.536L544.054 135.219ZM549.146 124.118C548.99 127.763 547.336 131.468 544.054 135.219L545.559 136.536C549.048 132.549 550.964 128.427 551.144 124.204L549.146 124.118ZM545.702 111.471L546.076 111.14L544.749 109.643L544.375 109.975L545.702 111.471ZM545.328 111.803L545.702 111.471L544.375 109.975L544.001 110.307L545.328 111.803ZM536.951 105.523C539.752 107.573 542.076 109.642 543.916 111.718L545.413 110.391C543.458 108.187 541.022 106.024 538.132 103.909L536.951 105.523ZM537.029 103.722L536.734 104.125L538.348 105.306L538.643 104.903L537.029 103.722ZM537.325 103.318L537.029 103.722L538.643 104.903L538.939 104.499L537.325 103.318ZM546.161 109.728C544.149 107.459 541.657 105.25 538.722 103.102L537.541 104.716C540.387 106.799 542.767 108.915 544.665 111.055L546.161 109.728ZM530.492 99.584L530.736 99.1474L528.989 98.1727L528.746 98.6093L530.492 99.584ZM530.248 100.021L530.492 99.5841L528.746 98.6092L528.502 99.0458L530.248 100.021ZM520.334 96.0956C523.416 97.5072 526.27 98.9453 528.888 100.406L529.863 98.6601C527.193 97.1699 524.291 95.7081 521.167 94.2772L520.334 96.0956ZM520.05 94.3153L519.841 94.7699L521.66 95.6029L521.868 95.1483L520.05 94.3153ZM520.258 93.8608L520.05 94.3154L521.868 95.1482L522.076 94.6936L520.258 93.8608ZM530.35 97.7869C527.654 96.2822 524.728 94.8085 521.583 93.3681L520.75 95.1864C523.854 96.6077 526.732 98.0576 529.375 99.5332L530.35 97.7869ZM512.873 91.2899L513.055 90.8241L511.192 90.097L511.01 90.5627L512.873 91.2899ZM512.691 91.7556L512.873 91.2898L511.01 90.5628L510.828 91.0286L512.691 91.7556ZM502.29 89.0069C505.47 90.0901 508.507 91.1963 511.396 92.3237L512.123 90.4605C509.205 89.3216 506.14 88.2056 502.935 87.1137L502.29 89.0069ZM501.827 87.2645L501.666 87.7378L503.559 88.3828L503.72 87.9095L501.827 87.2645ZM501.988 86.7913L501.827 87.2645L503.72 87.9095L503.882 87.4362L501.988 86.7913ZM512.487 89.5289C509.553 88.3843 506.475 87.2633 503.257 86.1671L502.613 88.0603C505.805 89.1478 508.856 90.2589 511.76 91.3921L512.487 89.5289ZM494.451 84.9005L494.596 84.4219L492.681 83.8433L492.537 84.3219L494.451 84.9005ZM494.307 85.3791L494.451 84.9005L492.537 84.322L492.392 84.8006L494.307 85.3791ZM483.713 83.374C486.93 84.2454 490.047 85.1367 493.06 86.0471L493.639 84.1326C490.606 83.2163 487.471 82.3196 484.236 81.4436L483.713 83.374ZM483.14 81.6648L483.009 82.1474L484.94 82.6702L485.07 82.1876L483.14 81.6648ZM483.271 81.1822L483.14 81.6648L485.07 82.1876L485.201 81.705L483.271 81.1822ZM493.928 83.1754C490.886 82.2561 487.741 81.3568 484.497 80.4783L483.974 82.4088C487.2 83.2825 490.327 84.1765 493.349 85.0899L493.928 83.1754ZM475.612 79.7285L475.731 79.2428L473.788 78.7677L473.67 79.2534L475.612 79.7285ZM475.494 80.2141L475.612 79.7284L473.67 79.2534L473.551 79.7391L475.494 80.2141ZM464.797 78.7377C468.036 79.4566 471.2 80.1936 474.285 80.948L474.76 79.0052C471.66 78.2473 468.483 77.5071 465.23 76.7852L464.797 78.7377ZM464.145 77.0567L464.037 77.5449L465.989 77.9781L466.098 77.49L464.145 77.0567ZM464.254 76.5686L464.145 77.0567L466.098 77.49L466.206 77.0019L464.254 76.5686ZM474.997 78.0339C471.891 77.2742 468.706 76.5323 465.446 75.809L465.013 77.7615C468.259 78.4819 471.43 79.2205 474.522 79.9766L474.997 78.0339ZM456.539 75.4461L456.638 74.9561L454.677 74.5599L454.578 75.05L456.539 75.4461ZM456.44 75.9362L456.539 75.4461L454.578 75.05L454.479 75.5401L456.44 75.9362ZM445.687 74.87C448.939 75.4696 452.132 76.0859 455.262 76.7184L455.658 74.758C452.516 74.1232 449.313 73.5047 446.05 72.9032L445.687 74.87ZM444.976 73.2135L444.885 73.7052L446.852 74.0679L446.943 73.5762L444.976 73.2135ZM445.067 72.7218L444.976 73.2135L446.943 73.5762L447.033 73.0845L445.067 72.7218ZM455.856 73.7778C452.709 73.1419 449.5 72.5223 446.231 71.9197L445.869 73.8866C449.126 74.4872 452.324 75.1046 455.46 75.7382L455.856 73.7778ZM437.314 71.8635L437.397 71.3704L435.425 71.0384L435.342 71.5314L437.314 71.8635ZM437.231 72.3565L437.314 71.8635L435.342 71.5314L435.259 72.0245L437.231 72.3565ZM426.44 71.6253C429.702 72.1268 432.916 72.6441 436.079 73.1766L436.411 71.2044C433.239 70.6702 430.015 70.1514 426.744 69.6485L426.44 71.6253ZM425.679 69.9908L425.603 70.485L427.58 70.7888L427.656 70.2946L425.679 69.9908ZM425.755 69.4965L425.679 69.9907L427.656 70.2947L427.732 69.8005L425.755 69.4965ZM436.577 70.2183C433.4 69.6833 430.172 69.1637 426.896 68.6601L426.592 70.6369C429.859 71.1391 433.077 71.6571 436.245 72.1905L436.577 70.2183ZM417.97 68.8587L418.039 68.3635L416.059 68.0859L415.989 68.5811L417.97 68.8587ZM417.9 69.3539L417.97 68.8587L415.989 68.581L415.92 69.0762L417.9 69.3539ZM407.086 68.9096C410.356 69.3266 413.585 69.7587 416.771 70.2053L417.049 68.2247C413.854 67.7768 410.617 67.3437 407.339 66.9256L407.086 68.9096ZM406.284 67.2951L406.221 67.7911L408.205 68.0441L408.268 67.5481L406.284 67.2951ZM406.348 66.799L406.284 67.295L408.268 67.5482L408.331 67.0522L406.348 66.799ZM417.188 67.2344C413.989 66.7859 410.747 66.3522 407.466 65.9337L407.213 67.9176C410.486 68.3351 413.719 68.7677 416.91 69.215L417.188 67.2344ZM398.585 66.359L398.642 65.8623L396.655 65.6324L396.598 66.129L398.585 66.359ZM398.527 66.8556L398.585 66.359L396.598 66.1291L396.54 66.6258L398.527 66.8556ZM387.726 66.6669C390.991 67.0083 394.223 67.3642 397.419 67.7341L397.649 65.7473C394.445 65.3766 391.207 65.0199 387.934 64.6778L387.726 66.6669ZM386.888 65.0711L386.836 65.5683L388.825 65.7764L388.877 65.2791L386.888 65.0711ZM386.939 64.5738L386.887 65.0711L388.877 65.279L388.929 64.7817L386.939 64.5738ZM397.764 64.754C394.557 64.3828 391.314 64.0257 388.038 63.6832L387.83 65.6723C391.099 66.0141 394.334 66.3704 397.534 66.7407L397.764 64.754ZM379.145 64.3032L379.191 63.8054L377.2 63.6184L377.153 64.1162L379.145 64.3032ZM379.098 64.801L379.145 64.3032L377.153 64.1163L377.107 64.6141L379.098 64.801ZM368.268 64.8386C371.544 65.1128 374.792 65.4011 378.009 65.7031L378.196 63.7119C374.972 63.4092 371.718 63.1203 368.435 62.8456L368.268 64.8386ZM367.397 63.2604L367.355 63.7587L369.348 63.9255L369.39 63.4273L367.397 63.2604ZM367.438 62.7622L367.397 63.2605L369.39 63.4272L369.431 62.929L367.438 62.7622ZM378.289 62.7163C375.062 62.4132 371.804 62.1241 368.518 61.8491L368.351 63.8421C371.631 64.1166 374.882 64.4051 378.102 64.7075L378.289 62.7163ZM359.636 62.6494L359.673 62.1508L357.678 62.0033L357.641 62.502L359.636 62.6494ZM359.599 63.148L359.636 62.6494L357.641 62.502L357.604 63.0007L359.599 63.148ZM348.804 63.3995C352.07 63.6099 355.312 63.8341 358.528 64.0716L358.675 62.0771C355.453 61.839 352.205 61.6145 348.933 61.4037L348.804 63.3995ZM347.903 61.8383L347.871 62.3373L349.867 62.4659L349.899 61.9669L347.903 61.8383ZM347.935 61.3393L347.903 61.8383L349.899 61.9669L349.931 61.468L347.935 61.3393ZM358.749 61.0798C355.524 60.8415 352.273 60.6167 348.997 60.4057L348.869 62.4016C352.138 62.6122 355.383 62.8365 358.602 63.0743L358.749 61.0798ZM340.138 61.374L340.166 60.8748L338.169 60.7644L338.141 61.2637L340.138 61.374ZM340.111 61.8732L340.138 61.374L338.141 61.2637L338.114 61.7629L340.111 61.8732ZM329.288 62.3208C332.566 62.4725 335.823 62.6379 339.057 62.8165L339.167 60.8196C335.927 60.6406 332.664 60.475 329.381 60.323L329.288 62.3208ZM328.359 60.7762L328.336 61.2757L330.334 61.3681L330.357 60.8687L328.359 60.7762ZM328.382 60.2767L328.359 60.7762L330.357 60.8687L330.38 60.3692L328.382 60.2767ZM339.223 59.8211C335.979 59.6419 332.714 59.4762 329.427 59.3241L329.335 61.3219C332.615 61.4738 335.875 61.6392 339.112 61.8181L339.223 59.8211ZM320.588 60.4506L320.607 59.9509L318.608 59.876L318.59 60.3756L320.588 60.4506ZM320.57 60.9503L320.588 60.4506L318.59 60.3756L318.571 60.8752L320.57 60.9503ZM309.783 61.5877C313.051 61.6825 316.301 61.7907 319.533 61.912L319.608 59.9135C316.371 59.7919 313.115 59.6835 309.841 59.5886L309.783 61.5877ZM308.827 60.0594L308.813 60.5592L310.812 60.6171L310.826 60.1174L308.827 60.0594ZM308.842 59.5596L308.827 60.0594L310.826 60.1174L310.841 59.6176L308.842 59.5596ZM319.645 58.9142C316.405 58.7925 313.147 58.684 309.87 58.589L309.812 60.5882C313.083 60.683 316.336 60.7913 319.57 60.9128L319.645 58.9142ZM301.044 59.8665L301.054 59.3666L299.055 59.3255L299.044 59.8254L301.044 59.8665ZM301.034 60.3664L301.044 59.8665L299.044 59.8254L299.034 60.3253L301.034 60.3664ZM290.232 61.185C293.508 61.2252 296.769 61.2788 300.013 61.3456L300.055 59.346C296.805 59.2791 293.538 59.2254 290.257 59.1852L290.232 61.185ZM289.251 59.6729L289.245 60.1728L291.245 60.1974L291.251 59.6974L289.251 59.6729ZM289.257 59.1729L289.251 59.6729L291.251 59.6974L291.257 59.1974L289.257 59.1729ZM300.075 58.3462C296.822 58.2793 293.553 58.2256 290.269 58.1852L290.245 60.1851C293.523 60.2253 296.787 60.279 300.034 60.3458L300.075 58.3462ZM281.489 59.6094L281.491 59.1094L279.491 59.1013L279.489 59.6012L281.489 59.6094ZM281.487 60.1094L281.489 59.6094L279.489 59.6013L279.487 60.1013L281.487 60.1094ZM275.579 61.0953C277.217 61.0953 278.852 61.0987 280.483 61.1053L280.491 59.1053C278.857 59.0987 277.22 59.0953 275.579 59.0953V61.0953ZM270.676 61.1053C272.307 61.0987 273.941 61.0953 275.579 61.0953V59.0953C273.939 59.0953 272.302 59.0987 270.668 59.1053L270.676 61.1053ZM269.67 59.6094L269.672 60.1094L271.672 60.1012L271.67 59.6012L269.67 59.6094ZM269.668 59.1094L269.67 59.6094L271.67 59.6012L271.668 59.1013L269.668 59.1094ZM275.579 58.0953C273.937 58.0953 272.299 58.0987 270.664 58.1054L270.672 60.1053C272.304 60.0987 273.94 60.0953 275.579 60.0953V58.0953ZM280.495 58.1054C278.86 58.0987 277.221 58.0953 275.579 58.0953V60.0953C277.218 60.0953 278.854 60.0987 280.487 60.1053L280.495 58.1054ZM261.908 59.6729L261.902 59.1729L259.902 59.1974L259.908 59.6974L261.908 59.6729ZM261.914 60.1728L261.908 59.6729L259.908 59.6974L259.914 60.1974L261.914 60.1728ZM251.145 61.3456C254.39 61.2788 257.65 61.2252 260.926 61.185L260.902 59.1852C257.62 59.2254 254.354 59.2791 251.104 59.346L251.145 61.3456ZM250.115 59.8665L250.125 60.3664L252.124 60.3253L252.114 59.8254L250.115 59.8665ZM250.104 59.3666L250.115 59.8665L252.114 59.8254L252.104 59.3255L250.104 59.3666ZM260.889 58.1852C257.605 58.2256 254.336 58.2793 251.084 58.3462L251.125 60.3458C254.372 60.279 257.635 60.2253 260.914 60.1851L260.889 58.1852ZM242.331 60.0594L242.317 59.5596L240.318 59.6176L240.332 60.1174L242.331 60.0594ZM242.346 60.5592L242.331 60.0594L240.332 60.1174L240.347 60.6171L242.346 60.5592ZM231.626 61.912C234.857 61.7907 238.107 61.6825 241.375 61.5877L241.317 59.5886C238.044 59.6835 234.788 59.7919 231.551 59.9135L231.626 61.912ZM230.57 60.4506L230.589 60.9503L232.588 60.8752L232.569 60.3756L230.57 60.4506ZM230.552 59.951L230.57 60.4506L232.569 60.3756L232.55 59.8759L230.552 59.951ZM241.288 58.589C238.012 58.684 234.753 58.7925 231.513 58.9142L231.588 60.9127C234.822 60.7913 238.075 60.683 241.346 60.5882L241.288 58.589ZM222.8 60.7762L222.777 60.2767L220.779 60.3692L220.802 60.8687L222.8 60.7762ZM222.823 61.2757L222.8 60.7762L220.802 60.8687L220.825 61.3681L222.823 61.2757ZM212.101 62.8165C215.336 62.6379 218.593 62.4725 221.87 62.3208L221.778 60.323C218.494 60.475 215.232 60.6406 211.991 60.8196L212.101 62.8165ZM211.02 61.374L211.048 61.8732L213.045 61.7629L213.017 61.2637L211.02 61.374ZM210.993 60.8748L211.02 61.374L213.017 61.2636L212.99 60.7644L210.993 60.8748ZM221.731 59.324C218.445 59.4762 215.179 59.6419 211.936 59.8211L212.046 61.8181C215.284 61.6392 218.543 61.4738 221.824 61.3219L221.731 59.324ZM203.256 61.8383L203.224 61.3394L201.228 61.468L201.26 61.9669L203.256 61.8383ZM203.288 62.3373L203.256 61.8383L201.26 61.9669L201.292 62.4659L203.288 62.3373ZM192.631 64.0716C195.847 63.8341 199.088 63.6099 202.354 63.3995L202.226 61.4036C198.953 61.6145 195.706 61.839 192.483 62.0771L192.631 64.0716ZM191.523 62.6494L191.56 63.148L193.554 63.0007L193.517 62.502L191.523 62.6494ZM191.486 62.1507L191.523 62.6494L193.517 62.502L193.481 62.0034L191.486 62.1507ZM202.161 60.4057C198.886 60.6167 195.635 60.8415 192.41 61.0798L192.557 63.0743C195.776 62.8365 199.021 62.6122 202.29 62.4016L202.161 60.4057ZM183.762 63.2605L183.72 62.7622L181.727 62.929L181.769 63.4272L183.762 63.2605ZM183.804 63.7587L183.762 63.2604L181.769 63.4272L181.811 63.9255L183.804 63.7587ZM173.15 65.7031C176.367 65.4011 179.614 65.1128 182.891 64.8386L182.724 62.8456C179.441 63.1203 176.187 63.4092 172.963 63.7119L173.15 65.7031ZM172.014 64.3032L172.061 64.801L174.052 64.614L174.005 64.1162L172.014 64.3032ZM171.967 63.8054L172.014 64.3032L174.005 64.1162L173.958 63.6184L171.967 63.8054ZM182.64 61.8491C179.354 62.1241 176.097 62.4132 172.869 62.7163L173.056 64.7075C176.277 64.4051 179.528 64.1166 182.807 63.8421L182.64 61.8491ZM164.271 65.0711L164.219 64.5738L162.23 64.7817L162.282 65.279L164.271 65.0711ZM164.323 65.5684L164.271 65.0711L162.282 65.279L162.334 65.7763L164.323 65.5684ZM153.74 67.7341C156.936 67.3642 160.167 67.0083 163.432 66.6669L163.224 64.6778C159.952 65.0199 156.713 65.3766 153.51 65.7473L153.74 67.7341ZM152.574 66.359L152.631 66.8557L154.618 66.6257L154.561 66.129L152.574 66.359ZM152.516 65.8623L152.574 66.359L154.561 66.1291L154.503 65.6324L152.516 65.8623ZM163.121 63.6832C159.844 64.0257 156.602 64.3828 153.395 64.754L153.625 66.7407C156.825 66.3704 160.06 66.0141 163.328 65.6723L163.121 63.6832ZM144.874 67.2951L144.811 66.7991L142.827 67.0522L142.89 67.5481L144.874 67.2951ZM144.938 67.7911L144.874 67.2951L142.89 67.5481L142.954 68.0441L144.938 67.7911ZM134.387 70.2053C137.574 69.7587 140.803 69.3266 144.072 68.9096L143.819 66.9256C140.542 67.3437 137.305 67.7768 134.11 68.2247L134.387 70.2053ZM133.189 68.8587L133.258 69.3539L135.239 69.0762L135.169 68.581L133.189 68.8587ZM133.119 68.3635L133.189 68.8587L135.169 68.581L135.1 68.0859L133.119 68.3635ZM143.693 65.9337C140.411 66.3522 137.17 66.7859 133.971 67.2344L134.248 69.215C137.439 68.7677 140.672 68.3351 143.946 67.9176L143.693 65.9337ZM125.479 69.9908L125.403 69.4966L123.427 69.8004L123.503 70.2946L125.479 69.9908ZM125.555 70.4849L125.479 69.9908L123.503 70.2946L123.579 70.7888L125.555 70.4849ZM115.079 73.1766C118.242 72.6441 121.456 72.1268 124.719 71.6253L124.415 69.6485C121.143 70.1514 117.92 70.6702 114.747 71.2044L115.079 73.1766ZM113.844 71.8635L113.927 72.3565L115.9 72.0245L115.817 71.5314L113.844 71.8635ZM113.761 71.3704L113.844 71.8635L115.817 71.5314L115.733 71.0384L113.761 71.3704ZM124.263 68.6601C120.987 69.1637 117.759 69.6833 114.581 70.2183L114.913 72.1905C118.081 71.6571 121.3 71.1391 124.567 70.6369L124.263 68.6601ZM106.183 73.2135L106.092 72.7218L104.125 73.0845L104.216 73.5762L106.183 73.2135ZM106.273 73.7053L106.183 73.2135L104.216 73.5762L104.306 74.0679L106.273 73.7053ZM95.8971 76.7184C99.0269 76.0859 102.219 75.4696 105.471 74.87L105.109 72.9032C101.846 73.5047 98.6423 74.1232 95.5009 74.758L95.8971 76.7184ZM94.6198 75.4462L94.7188 75.9363L96.6792 75.5401L96.5802 75.05L94.6198 75.4462ZM94.5208 74.9561L94.6198 75.4462L96.5802 75.05L96.4811 74.5599L94.5208 74.9561ZM104.927 71.9197C101.659 72.5223 98.45 73.1419 95.3029 73.7778L95.699 75.7382C98.8346 75.1046 102.032 74.4872 105.29 73.8866L104.927 71.9197ZM87.0133 77.0567L86.905 76.5686L84.9525 77.0019L85.0608 77.49L87.0133 77.0567ZM87.1216 77.5448L87.0133 77.0567L85.0608 77.49L85.1691 77.9781L87.1216 77.5448ZM76.8738 80.948C79.9587 80.1936 83.1224 79.4566 86.362 78.7377L85.9287 76.7852C82.6758 77.5071 79.4981 78.2473 76.3988 79.0052L76.8738 80.948ZM75.5461 79.7285L75.6649 80.2142L77.6077 79.7391L77.4889 79.2534L75.5461 79.7285ZM75.4274 79.2428L75.5461 79.7285L77.4889 79.2534L77.3701 78.7677L75.4274 79.2428ZM85.7121 75.809C82.4525 76.5323 79.2678 77.2742 76.1612 78.0339L76.6363 79.9766C79.7284 79.2205 82.8991 78.4819 86.1454 77.7615L85.7121 75.809ZM68.0186 81.6648L67.8879 81.1822L65.9574 81.705L66.0882 82.1876L68.0186 81.6648ZM68.1493 82.1474L68.0186 81.6648L66.0882 82.1876L66.2189 82.6702L68.1493 82.1474ZM58.0986 86.0471C61.1113 85.1367 64.2283 84.2454 67.4455 83.374L66.9227 81.4436C63.6879 82.3196 60.5524 83.2163 57.52 84.1326L58.0986 86.0471ZM56.7074 84.9005L56.852 85.3791L58.7665 84.8006L58.6219 84.322L56.7074 84.9005ZM56.5628 84.4219L56.7074 84.9005L58.6219 84.322L58.4773 83.8434L56.5628 84.4219ZM66.6612 80.4783C63.4178 81.3568 60.2729 82.2561 57.2308 83.1754L57.8093 85.0899C60.8318 84.1765 63.9581 83.2825 67.1841 82.4088L66.6612 80.4783ZM49.3314 87.2645L49.1702 86.7912L47.277 87.4362L47.4382 87.9095L49.3314 87.2645ZM49.4926 87.7378L49.3314 87.2645L47.4382 87.9095L47.5995 88.3828L49.4926 87.7378ZM39.7624 92.3237C42.6517 91.1962 45.689 90.0901 48.8685 89.0069L48.2236 87.1137C45.0188 88.2055 41.954 89.3216 39.0353 90.4605L39.7624 92.3237ZM38.2855 91.2898L38.4672 91.7556L40.3304 91.0286L40.1487 90.5628L38.2855 91.2898ZM38.1037 90.824L38.2855 91.2898L40.1487 90.5628L39.9669 90.097L38.1037 90.824ZM47.9011 86.1671C44.6837 87.2633 41.6051 88.3843 38.6718 89.5289L39.3988 91.3921C42.3028 90.2589 45.3539 89.1478 48.5461 88.0603L47.9011 86.1671ZM31.109 94.3154L30.9008 93.8608L29.0825 94.6936L29.2907 95.1482L31.109 94.3154ZM31.3173 94.77L31.109 94.3154L29.2907 95.1482L29.4989 95.6028L31.3173 94.77ZM22.2709 100.406C24.8884 98.9452 27.7425 97.5072 30.8245 96.0956L29.9917 94.2772C26.8677 95.7081 23.9656 97.1698 21.2961 98.6601L22.2709 100.406ZM20.6666 99.5841L20.9103 100.021L22.6567 99.0458L22.413 98.6092L20.6666 99.5841ZM20.4229 99.1475L20.6666 99.5841L22.413 98.6092L22.1692 98.1726L20.4229 99.1475ZM29.5752 93.368C26.4303 94.8085 23.5042 96.2822 20.8087 97.7869L21.7835 99.5332C24.427 98.0575 27.3051 96.6076 30.4081 95.1864L29.5752 93.368ZM6.49408 111.055C8.39181 108.915 10.7715 106.799 13.6175 104.716L12.4363 103.102C9.50145 105.25 7.00926 107.459 4.99771 109.728L6.49408 111.055ZM6.78347 109.975L6.40938 109.643L5.08241 111.139L5.4565 111.471L6.78347 109.975ZM7.15758 110.307L6.78348 109.975L5.45649 111.471L5.83059 111.803L7.15758 110.307ZM13.0269 103.909C10.1365 106.024 7.70054 108.187 5.74589 110.391L7.24227 111.718C9.08309 109.642 11.4066 107.573 14.2081 105.523L13.0269 103.909ZM12.5152 104.903L12.8105 105.306L14.4245 104.125L14.1291 103.722L12.5152 104.903ZM12.2199 104.499L12.5152 104.903L14.1291 103.722L13.8338 103.318L12.2199 104.499Z" fill="white" mask="url(#path-1-inside-1)"/>
</svg>
