<svg width="184" height="47" viewBox="0 0 184 47" fill="none" xmlns="http://www.w3.org/2000/svg">
<g filter="url(#filter0_d)">
<path fill-rule="evenodd" clip-rule="evenodd" d="M0 3.52093C0 1.59283 1.50172 0 3.38971 0C5.27771 0 6.77943 1.59283 6.77943 3.52093C6.77943 3.99612 6.68822 4.45095 6.52249 4.86658L14.3642 13.0524C14.7583 12.8853 15.1904 12.7931 15.6448 12.7931C17.0617 12.7931 18.2611 13.6902 18.7714 14.9528H37.0285C37.5388 13.6902 38.7382 12.7931 40.1551 12.7931C42.0431 12.7931 43.5448 14.3859 43.5448 16.314C43.5448 18.2421 42.0431 19.8349 40.1551 19.8349C38.738 19.8349 37.5386 18.9376 37.0284 17.6747H18.7715C18.2613 18.9376 17.0619 19.8349 15.6448 19.8349C13.7568 19.8349 12.2551 18.2421 12.2551 16.314C12.2551 15.8388 12.3463 15.384 12.5121 14.9683L4.67038 6.78254C4.27624 6.94958 3.84417 7.04187 3.38971 7.04187C1.50172 7.04187 0 5.44904 0 3.52093ZM3.38971 1.87026C2.54158 1.87026 1.82523 2.59284 1.82523 3.52093C1.82523 4.44903 2.54158 5.17161 3.38971 5.17161C4.23785 5.17161 4.9542 4.44903 4.9542 3.52093C4.9542 2.59284 4.23785 1.87026 3.38971 1.87026ZM38.5906 16.314C38.5906 15.3859 39.3069 14.6633 40.1551 14.6633C41.0032 14.6633 41.7196 15.3859 41.7196 16.314C41.7196 17.2421 41.0032 17.9647 40.1551 17.9647C39.3069 17.9647 38.5906 17.2421 38.5906 16.314ZM15.6448 14.6633C14.7967 14.6633 14.0804 15.3859 14.0804 16.314C14.0804 17.2421 14.7967 17.9647 15.6448 17.9647C16.493 17.9647 17.2093 17.2421 17.2093 16.314C17.2093 15.3859 16.493 14.6633 15.6448 14.6633Z" fill="white"/>
<path d="M15.6448 6.10674C17.0129 6.10674 18.1219 4.94904 18.1219 3.52093C18.1219 2.09283 17.0129 0.935131 15.6448 0.935131C14.2768 0.935131 13.1677 2.09283 13.1677 3.52093C13.1677 4.94904 14.2768 6.10674 15.6448 6.10674Z" fill="white"/>
<path d="M30.3771 3.52093C30.3771 4.94904 29.268 6.10674 27.9 6.10674C26.5319 6.10674 25.4229 4.94904 25.4229 3.52093C25.4229 2.09283 26.5319 0.935131 27.9 0.935131C29.268 0.935131 30.3771 2.09283 30.3771 3.52093Z" fill="white"/>
<path d="M42.6322 3.52093C42.6322 4.94904 41.5231 6.10674 40.1551 6.10674C38.787 6.10674 37.678 4.94904 37.678 3.52093C37.678 2.09283 38.787 0.935131 40.1551 0.935131C41.5231 0.935131 42.6322 2.09283 42.6322 3.52093Z" fill="white"/>
<path d="M3.38971 18.8998C4.75778 18.8998 5.86681 17.7421 5.86681 16.314C5.86681 14.8859 4.75778 13.7282 3.38971 13.7282C2.02165 13.7282 0.912615 14.8859 0.912615 16.314C0.912615 17.7421 2.02165 18.8998 3.38971 18.8998Z" fill="white"/>
<path fill-rule="evenodd" clip-rule="evenodd" d="M40.1551 25.5858C38.7381 25.5858 37.5386 26.483 37.0284 27.7459H31.0266C30.5164 26.483 29.317 25.5858 27.9 25.5858C26.012 25.5858 24.5102 27.1786 24.5102 29.1067C24.5102 29.5863 24.6032 30.0452 24.7718 30.4639L16.9366 38.6429C16.5395 38.4729 16.1036 38.3788 15.6448 38.3788C13.7568 38.3788 12.2551 39.9717 12.2551 41.8998C12.2551 43.8279 13.7568 45.4207 15.6448 45.4207C17.5328 45.4207 19.0345 43.8279 19.0345 41.8998C19.0345 41.429 18.945 40.9782 18.7822 40.5657L26.6305 32.373C27.0216 32.5371 27.4498 32.6277 27.9 32.6277C29.3169 32.6277 30.5162 31.7305 31.0265 30.4678H37.0285C37.5388 31.7305 38.7382 32.6277 40.1551 32.6277C42.0431 32.6277 43.5448 31.0348 43.5448 29.1067C43.5448 27.1786 42.0431 25.5858 40.1551 25.5858ZM40.1551 27.456C39.3069 27.456 38.5906 28.1786 38.5906 29.1067C38.5906 30.0348 39.3069 30.7574 40.1551 30.7574C41.0032 30.7574 41.7196 30.0348 41.7196 29.1067C41.7196 28.1786 41.0032 27.456 40.1551 27.456ZM26.3355 29.1067C26.3355 28.1786 27.0518 27.456 27.9 27.456C28.7481 27.456 29.4644 28.1786 29.4644 29.1067C29.4644 30.0348 28.7481 30.7574 27.9 30.7574C27.0518 30.7574 26.3355 30.0348 26.3355 29.1067ZM15.6448 40.2491C14.7967 40.2491 14.0804 40.9717 14.0804 41.8998C14.0804 42.8279 14.7967 43.5504 15.6448 43.5504C16.493 43.5504 17.2093 42.8279 17.2093 41.8998C17.2093 40.9717 16.493 40.2491 15.6448 40.2491Z" fill="white"/>
<path d="M18.1219 29.1067C18.1219 30.5348 17.0129 31.6925 15.6448 31.6925C14.2768 31.6925 13.1677 30.5348 13.1677 29.1067C13.1677 27.6786 14.2768 26.5209 15.6448 26.5209C17.0129 26.5209 18.1219 27.6786 18.1219 29.1067Z" fill="white"/>
<path d="M3.38971 31.6925C4.75778 31.6925 5.86681 30.5348 5.86681 29.1067C5.86681 27.6786 4.75778 26.5209 3.38971 26.5209C2.02165 26.5209 0.912615 27.6786 0.912615 29.1067C0.912615 30.5348 2.02165 31.6925 3.38971 31.6925Z" fill="white"/>
<path d="M42.6322 41.8998C42.6322 43.3279 41.5231 44.4856 40.1551 44.4856C38.787 44.4856 37.678 43.3279 37.678 41.8998C37.678 40.4717 38.787 39.314 40.1551 39.314C41.5231 39.314 42.6322 40.4717 42.6322 41.8998Z" fill="white"/>
<path d="M27.9 44.4856C29.268 44.4856 30.3771 43.3279 30.3771 41.8998C30.3771 40.4717 29.268 39.314 27.9 39.314C26.5319 39.314 25.4229 40.4717 25.4229 41.8998C25.4229 43.3279 26.5319 44.4856 27.9 44.4856Z" fill="white"/>
<path d="M3.38971 44.4856C4.75778 44.4856 5.86681 43.3279 5.86681 41.8998C5.86681 40.4717 4.75778 39.314 3.38971 39.314C2.02165 39.314 0.912615 40.4717 0.912615 41.8998C0.912615 43.3279 2.02165 44.4856 3.38971 44.4856Z" fill="white"/>
<path d="M63.6818 14.0772L70.7572 3.5228H73.8858V20.2915H70.7572V9.73708H70.3721L63.2967 20.2915H60.1681V3.5228H63.2967V14.0772H63.6818Z" fill="white"/>
<path d="M85.4182 12.5483V7.59167H88.5468V20.2915H85.4182V15.7541H79.907V20.2915H76.7784V7.59167H79.907V12.5483H85.4182Z" fill="white"/>
<path d="M110.086 7.59167H106.331L103.082 12.351H101.927V7.59167H98.7985V12.351H97.8359L94.587 7.59167H90.8327L95.0924 13.9539L90.8327 20.2915H94.587L97.8359 15.5568H98.7985V20.2915H101.927V15.5568H103.082L106.331 20.2915H110.086L105.826 13.9539L110.086 7.59167Z" fill="white"/>
<path fill-rule="evenodd" clip-rule="evenodd" d="M116.408 7.59167C120.307 7.59167 121.799 10.2303 121.799 13.6827V15.1622H114.194C114.459 16.3952 115.253 17.0857 117.515 17.0857C118.237 17.0857 119.32 17.0857 120.981 16.6912V19.8476C119.104 20.2915 118.189 20.2915 117.275 20.2915C111.715 20.2915 110.921 16.2719 110.921 13.9539C110.921 10.4276 112.413 7.59167 116.408 7.59167ZM118.646 12.6963C118.55 11.2907 117.852 10.7975 116.36 10.7975C114.916 10.7975 114.218 11.3646 114.074 12.6963H118.646Z" fill="white"/>
<path d="M132.704 7.59167V12.5483H127.193V7.59167H124.065V20.2915H127.193V15.7541H132.704V20.2915H135.833V7.59167H132.704Z" fill="white"/>
<path fill-rule="evenodd" clip-rule="evenodd" d="M143.248 7.59167C147.146 7.59167 148.638 10.2303 148.638 13.6827V15.1622H141.034C141.298 16.3952 142.093 17.0857 144.355 17.0857C145.077 17.0857 146.16 17.0857 147.82 16.6912V19.8476C145.943 20.2915 145.029 20.2915 144.114 20.2915C138.555 20.2915 137.761 16.2719 137.761 13.9539C137.761 10.4276 139.253 7.59167 143.248 7.59167ZM145.486 12.6963C145.39 11.2907 144.692 10.7975 143.2 10.7975C141.756 10.7975 141.058 11.3646 140.913 12.6963H145.486Z" fill="white"/>
<path fill-rule="evenodd" clip-rule="evenodd" d="M157.504 7.59167C156.06 7.59167 154.856 8.13419 154.038 8.99728V7.59167H150.91V24.2371H154.038V18.8612C154.856 19.749 156.06 20.2915 157.504 20.2915C161.282 20.2915 162.894 17.5543 162.894 13.9293C162.894 10.3043 161.282 7.59167 157.504 7.59167ZM156.902 17.0857C154.905 17.0857 154.038 16.4692 154.038 13.9293C154.038 11.4139 154.905 10.7975 156.902 10.7975C158.899 10.7975 159.766 11.4139 159.766 13.9293C159.766 16.4692 158.899 17.0857 156.902 17.0857Z" fill="white"/>
<path fill-rule="evenodd" clip-rule="evenodd" d="M168.063 11.4879H170.686C174.056 11.4879 175.211 13.51 175.211 15.8774C175.211 18.2694 174.056 20.2915 170.686 20.2915H164.935V7.59167H168.063V11.4879ZM168.063 17.0857H170.301C171.601 17.0857 172.082 16.9624 172.082 15.8774C172.082 14.817 171.601 14.6937 170.301 14.6937H168.063V17.0857Z" fill="white"/>
<path d="M176.871 20.2915V7.59167H180V20.2915H176.871Z" fill="white"/>
<path d="M74.5596 26.2857H59.9275V43.0544H63.056V29.4915H71.4311V43.0544H74.5596V26.2857Z" fill="white"/>
<path fill-rule="evenodd" clip-rule="evenodd" d="M80.6882 31.7602C81.5065 30.8971 82.7098 30.3546 84.1537 30.3546C87.9321 30.3546 89.5446 33.0672 89.5446 36.6922C89.5446 40.3172 87.9321 43.0544 84.1537 43.0544C82.7098 43.0544 81.5065 42.5119 80.6882 41.6242V47H77.5596V30.3546H80.6882V31.7602ZM80.6882 36.6922C80.6882 39.2322 81.5546 39.8486 83.5521 39.8486C85.5496 39.8486 86.416 39.2322 86.416 36.6922C86.416 34.1769 85.5496 33.5604 83.5521 33.5604C81.5546 33.5604 80.6882 34.1769 80.6882 36.6922Z" fill="white"/>
<path fill-rule="evenodd" clip-rule="evenodd" d="M97.3365 43.0544C101.235 43.0544 103.329 40.3172 103.329 36.6922C103.329 33.0672 101.235 30.3546 97.3365 30.3546C93.4378 30.3546 91.3441 33.0672 91.3441 36.6922C91.3441 40.3172 93.4378 43.0544 97.3365 43.0544ZM97.3365 39.8486C95.2187 39.8486 94.4726 39.1582 94.4726 36.6922C94.4726 34.2262 95.2187 33.5604 97.3365 33.5604C99.4543 33.5604 100.2 34.2262 100.2 36.6922C100.2 39.1582 99.4543 39.8486 97.3365 39.8486Z" fill="white"/>
<path fill-rule="evenodd" clip-rule="evenodd" d="M114.136 31.7602V25.7925H117.265V43.0544H114.136V41.6242C113.318 42.5119 112.115 43.0544 110.671 43.0544C106.892 43.0544 105.28 40.3172 105.28 36.6922C105.28 33.0672 106.892 30.3546 110.671 30.3546C112.115 30.3546 113.318 30.8971 114.136 31.7602ZM108.408 36.6922C108.408 39.2322 109.275 39.8486 111.272 39.8486C113.27 39.8486 114.136 39.2322 114.136 36.6922C114.136 34.1769 113.27 33.5604 111.272 33.5604C109.275 33.5604 108.408 34.1769 108.408 36.6922Z" fill="white"/>
<path fill-rule="evenodd" clip-rule="evenodd" d="M130.327 39.8486V30.3546H120.941V33.5604H127.199V35.9031C126.597 35.2373 125.658 34.6701 123.853 34.6701C120.917 34.6701 119.546 36.5935 119.546 38.8623C119.546 41.131 120.917 43.0544 123.853 43.0544C125.658 43.0544 126.597 42.4626 127.199 41.8214V43.0544H131.891V39.8486H130.327ZM124.936 40.1446C123.3 40.1446 122.674 39.8486 122.674 38.8623C122.674 37.8759 123.3 37.5799 124.936 37.5799C126.573 37.5799 127.199 37.8759 127.199 38.8623C127.199 39.8486 126.573 40.1446 124.936 40.1446Z" fill="white"/>
<path d="M149.081 30.3546H152.835L148.575 36.7168L152.835 43.0544H149.081L145.832 38.3197H144.676V43.0544H141.548V38.3197H140.585L137.336 43.0544H133.582L137.842 36.7168L133.582 30.3546H137.336L140.585 35.114H141.548V30.3546H144.676V35.114H145.832L149.081 30.3546Z" fill="white"/>
</g>
<defs>
<filter id="filter0_d" x="-4" y="0" width="188" height="55" filterUnits="userSpaceOnUse" color-interpolation-filters="sRGB">
<feFlood flood-opacity="0" result="BackgroundImageFix"/>
<feColorMatrix in="SourceAlpha" type="matrix" values="0 0 0 0 0 0 0 0 0 0 0 0 0 0 0 0 0 0 127 0"/>
<feOffset dy="4"/>
<feGaussianBlur stdDeviation="2"/>
<feColorMatrix type="matrix" values="0 0 0 0 0 0 0 0 0 0 0 0 0 0 0 0 0 0 0.25 0"/>
<feBlend mode="normal" in2="BackgroundImageFix" result="effect1_dropShadow"/>
<feBlend mode="normal" in="SourceGraphic" in2="effect1_dropShadow" result="shape"/>
</filter>
</defs>
</svg>
