<svg width="351" height="141" viewBox="0 0 351 141" fill="none" xmlns="http://www.w3.org/2000/svg">
<path opacity="0.7" fill-rule="evenodd" clip-rule="evenodd" d="M175.465 0.928162C271.607 0.928162 349.649 19.0513 350.545 41.4873L350.559 61.5368V99.7562H350.545C349.651 122.193 271.608 140.316 175.465 140.316C79.3228 140.316 1.27932 122.193 0.385202 99.7562H0.377443L0.377443 99.3725L0.377441 99.3666L0.377443 99.3608L0.377441 61.9277L0.377441 61.5368L0.385229 41.4873C1.28091 19.0513 79.3237 0.928162 175.465 0.928162Z" fill="#161616"/>
<mask id="path-2-inside-1" fill="white">
<path fill-rule="evenodd" clip-rule="evenodd" d="M349.753 42.5473C349.565 44.8272 348.484 47.1204 346.474 49.4181C344.245 51.9655 340.913 54.4703 336.54 56.8881C327.796 61.7232 315.077 66.1097 299.274 69.8057C298.916 69.8893 298.558 69.9725 298.197 70.0553C296.868 69.7507 295.517 69.4511 294.147 69.1565L294.042 69.6453L293.937 70.1341C294.604 70.2777 295.267 70.4224 295.925 70.5683C264.631 77.5078 222.307 81.7733 175.696 81.7733C129.084 81.7733 86.7606 77.5078 55.4661 70.5683C56.1241 70.4224 56.787 70.2777 57.4547 70.1341L57.3496 69.6453L57.2445 69.1565C55.8741 69.4511 54.5237 69.7507 53.194 70.0553C52.8337 69.9725 52.4749 69.8893 52.1176 69.8057C36.3146 66.1097 23.5953 61.7232 14.8511 56.8881C10.4787 54.4703 7.14644 51.9655 4.91767 49.4181C2.69457 46.8772 1.60791 44.3418 1.60791 41.8239C1.60791 39.3059 2.69457 36.7705 4.91767 34.2296C7.14644 31.6823 10.4787 29.1774 14.8511 26.7596C23.5953 21.9245 36.3146 17.538 52.1176 13.842C83.7079 6.45368 127.4 1.87445 175.696 1.87445C223.991 1.87445 267.683 6.45368 299.274 13.842C315.077 17.538 327.796 21.9245 336.54 26.7596C340.913 29.1774 344.245 31.6823 346.474 34.2296C348.484 36.5273 349.565 38.8205 349.753 41.1004V42.5473ZM350.746 40.9734C348.81 18.7503 271.179 0.874451 175.696 0.874451C78.9973 0.874451 0.60791 19.2081 0.60791 41.8239V41.8453L0.607913 99.3057L0.60791 99.3128L0.607913 99.3198L0.607913 99.7026H0.615517C0.638669 100.282 0.713247 100.858 0.838229 101.431C0.84681 101.471 0.855628 101.51 0.864684 101.55C1.07538 102.465 1.41461 103.372 1.87823 104.271L1.87844 104.271C3.2144 106.859 5.58291 109.373 8.8848 111.79L8.88445 111.79C11.3547 113.598 14.3475 115.352 17.8211 117.041L17.8214 117.04C20.6746 118.427 23.8521 119.771 27.3311 121.066L27.3308 121.067C30.3787 122.202 33.6579 123.299 37.1529 124.355L37.1532 124.354C40.3126 125.309 43.6485 126.23 47.1494 127.115L47.1492 127.116C50.377 127.932 53.7451 128.717 57.2445 129.469L57.2447 129.468C60.5137 130.171 63.8973 130.845 67.3882 131.489L67.388 131.489C70.7057 132.101 74.1203 132.685 77.6255 133.241L77.6256 133.24C80.9547 133.767 84.3655 134.268 87.8526 134.742L87.8525 134.743C91.2122 135.2 94.6428 135.631 98.1395 136.036L98.1396 136.035C101.516 136.426 104.953 136.792 108.448 137.132L108.448 137.133C111.832 137.462 115.269 137.768 118.756 138.048L118.756 138.047C122.155 138.32 125.601 138.57 129.091 138.795L129.091 138.796C132.501 139.015 135.954 139.211 139.444 139.383L139.444 139.382C142.859 139.551 146.311 139.696 149.797 139.816L149.797 139.817C153.215 139.936 156.666 140.031 160.145 140.103L160.145 140.102C163.57 140.172 167.024 140.22 170.502 140.244V140.244C172.227 140.256 173.958 140.262 175.696 140.262C177.433 140.262 179.164 140.256 180.889 140.244V140.244C184.368 140.22 187.821 140.172 191.246 140.102L191.246 140.103C194.726 140.031 198.176 139.936 201.595 139.817L201.595 139.816C205.08 139.695 208.532 139.551 211.947 139.382L211.947 139.383C215.438 139.211 218.89 139.015 222.3 138.796L222.3 138.795C225.79 138.57 229.236 138.32 232.635 138.047L232.635 138.048C236.122 137.768 239.56 137.462 242.943 137.133L242.943 137.132C246.438 136.792 249.876 136.426 253.252 136.035L253.252 136.036C256.748 135.631 260.179 135.2 263.539 134.743L263.539 134.742C267.026 134.268 270.437 133.767 273.766 133.24L273.766 133.241C277.271 132.685 280.686 132.101 284.003 131.489L284.003 131.489C287.494 130.845 290.878 130.171 294.147 129.468L294.147 129.469C297.646 128.717 301.014 127.932 304.242 127.116L304.242 127.115C307.743 126.23 311.079 125.309 314.238 124.354L314.238 124.355C317.733 123.299 321.013 122.202 324.06 121.067L324.06 121.066C327.539 119.771 330.717 118.427 333.57 117.04L333.57 117.041C337.044 115.352 340.037 113.598 342.507 111.79L342.506 111.79C345.808 109.373 348.177 106.859 349.512 104.27L349.513 104.271C350.352 102.645 350.783 100.991 350.783 99.3128C350.783 99.0574 350.773 98.8025 350.753 98.5482V42.5884C350.773 42.3341 350.783 42.0793 350.783 41.8239C350.783 41.5684 350.773 41.3136 350.753 41.0593V40.9734H350.746ZM349.753 100.033V98.5885C349.649 97.33 349.274 96.0725 348.624 94.8133L349.069 94.584L349.513 94.3547C349.597 94.518 349.677 94.6816 349.753 94.8455V46.2912C345.384 55.7107 327.356 64.1716 300.398 70.5683C301.7 70.8774 302.982 71.1912 304.242 71.5098L304.12 71.9946L303.997 72.4793C302.112 72.0027 300.178 71.5366 298.197 71.0813C266.621 78.3141 223.385 82.7733 175.696 82.7733C128.006 82.7733 84.7703 78.3141 53.194 71.0813C51.2135 71.5366 49.2796 72.0027 47.3942 72.4793L47.2717 71.9946L47.1492 71.5098C48.4094 71.1912 49.6911 70.8774 50.9936 70.5683C23.9733 64.1569 5.92468 55.6718 1.60791 46.2262L1.60791 94.9104C1.69273 94.7248 1.78284 94.5396 1.87822 94.3548L2.32255 94.5841L2.76687 94.8133C1.99364 96.3118 1.60907 97.8079 1.60791 99.306L1.60791 99.3128L1.60791 99.3195C1.60812 99.592 1.62102 99.8644 1.64663 100.137C1.65182 100.192 1.65753 100.247 1.66377 100.302C1.91194 102.494 2.98563 104.698 4.91747 106.906C7.14624 109.453 10.4785 111.958 14.8509 114.376C23.5951 119.211 36.3144 123.598 52.1174 127.294C83.7077 134.682 127.4 139.261 175.695 139.261C223.991 139.261 267.683 134.682 299.273 127.294C315.076 123.598 327.796 119.211 336.54 114.376C340.912 111.958 344.245 109.453 346.473 106.906C348.484 104.608 349.565 102.314 349.753 100.033ZM342.507 86.8353L342.211 87.2388L341.916 87.6422C339.506 85.878 336.567 84.1542 333.133 82.4842L333.351 82.0346L333.57 81.5849C337.044 83.274 340.037 85.0273 342.507 86.8353ZM324.06 77.5586C321.013 76.424 317.733 75.3268 314.238 74.2707L314.094 74.7493L313.949 75.2279C317.427 76.2787 320.686 77.3693 323.712 78.4958L323.886 78.0272L324.06 77.5586ZM284.003 67.1361L283.913 67.6278L283.822 68.1195C280.513 67.5094 277.107 66.9266 273.609 66.3725L273.688 65.8787L273.766 65.3849C277.271 65.9402 280.686 66.5244 284.003 67.1361ZM263.539 63.8822L263.471 64.3777L263.404 64.8731C260.051 64.4174 256.627 63.987 253.137 63.583L253.194 63.0864L253.252 62.5897C256.748 62.9944 260.179 63.4256 263.539 63.8822ZM242.943 61.4926L242.895 61.9902L242.846 62.4879C239.468 62.159 236.037 61.8541 232.555 61.5742L232.595 61.0759L232.635 60.5775C236.122 60.8578 239.56 61.1631 242.943 61.4926ZM222.3 59.8299L222.268 60.3289L222.236 60.8279C218.831 60.6085 215.384 60.4126 211.898 60.2409L211.923 59.7416L211.947 59.2422C215.438 59.414 218.89 59.6102 222.3 59.8299ZM201.595 58.8082L201.577 59.3079L201.56 59.8076C198.146 59.6893 194.7 59.594 191.225 59.5224L191.235 59.0225L191.246 58.5226C194.726 58.5943 198.176 58.6897 201.595 58.8082ZM180.889 58.381L180.886 58.881L180.882 59.381C179.16 59.3693 177.431 59.3633 175.696 59.3633C173.961 59.3633 172.232 59.3693 170.509 59.381L170.506 58.881L170.502 58.381C172.227 58.3693 173.958 58.3633 175.696 58.3633C177.433 58.3633 179.164 58.3693 180.889 58.381ZM160.145 58.5226L160.156 59.0225L160.166 59.5224C156.691 59.594 153.245 59.6893 149.831 59.8076L149.814 59.3079L149.797 58.8082C153.215 58.6897 156.666 58.5943 160.145 58.5226ZM139.444 59.2422L139.469 59.7416L139.493 60.2409C136.008 60.4126 132.561 60.6085 129.155 60.8279L129.123 60.3289L129.091 59.8299C132.501 59.6102 135.954 59.414 139.444 59.2422ZM118.756 60.5775L118.796 61.0759L118.836 61.5742C115.354 61.8541 111.923 62.159 108.545 62.4879L108.497 61.9902L108.448 61.4926C111.832 61.1631 115.269 60.8578 118.756 60.5775ZM98.1395 62.5897L98.197 63.0864L98.2544 63.583C94.7642 63.987 91.3401 64.4174 87.9872 64.8731L87.9199 64.3777L87.8525 63.8822C91.2122 63.4256 94.6428 62.9944 98.1395 62.5897ZM77.6255 65.3849L77.7037 65.8787L77.782 66.3725C74.2847 66.9266 70.8784 67.5094 67.5693 68.1195L67.4787 67.6278L67.388 67.1361C70.7057 66.5244 74.1203 65.9402 77.6255 65.3849ZM37.1529 74.2707L37.2976 74.7493L37.4422 75.2279C33.9647 76.2787 30.7056 77.3693 27.6797 78.4958L27.5053 78.0272L27.3308 77.5586C30.3787 76.424 33.6579 75.3268 37.1529 74.2707ZM17.8211 81.5849L18.0398 82.0346L18.2584 82.4842C14.824 84.1542 11.8856 85.878 9.47504 87.6422L9.17974 87.2388L8.88444 86.8353C11.3547 85.0273 14.3475 83.274 17.8211 81.5849Z"/>
</mask>
<path fill-rule="evenodd" clip-rule="evenodd" d="M349.753 42.5473C349.565 44.8272 348.484 47.1204 346.474 49.4181C344.245 51.9655 340.913 54.4703 336.54 56.8881C327.796 61.7232 315.077 66.1097 299.274 69.8057C298.916 69.8893 298.558 69.9725 298.197 70.0553C296.868 69.7507 295.517 69.4511 294.147 69.1565L294.042 69.6453L293.937 70.1341C294.604 70.2777 295.267 70.4224 295.925 70.5683C264.631 77.5078 222.307 81.7733 175.696 81.7733C129.084 81.7733 86.7606 77.5078 55.4661 70.5683C56.1241 70.4224 56.787 70.2777 57.4547 70.1341L57.3496 69.6453L57.2445 69.1565C55.8741 69.4511 54.5237 69.7507 53.194 70.0553C52.8337 69.9725 52.4749 69.8893 52.1176 69.8057C36.3146 66.1097 23.5953 61.7232 14.8511 56.8881C10.4787 54.4703 7.14644 51.9655 4.91767 49.4181C2.69457 46.8772 1.60791 44.3418 1.60791 41.8239C1.60791 39.3059 2.69457 36.7705 4.91767 34.2296C7.14644 31.6823 10.4787 29.1774 14.8511 26.7596C23.5953 21.9245 36.3146 17.538 52.1176 13.842C83.7079 6.45368 127.4 1.87445 175.696 1.87445C223.991 1.87445 267.683 6.45368 299.274 13.842C315.077 17.538 327.796 21.9245 336.54 26.7596C340.913 29.1774 344.245 31.6823 346.474 34.2296C348.484 36.5273 349.565 38.8205 349.753 41.1004V42.5473ZM350.746 40.9734C348.81 18.7503 271.179 0.874451 175.696 0.874451C78.9973 0.874451 0.60791 19.2081 0.60791 41.8239V41.8453L0.607913 99.3057L0.60791 99.3128L0.607913 99.3198L0.607913 99.7026H0.615517C0.638669 100.282 0.713247 100.858 0.838229 101.431C0.84681 101.471 0.855628 101.51 0.864684 101.55C1.07538 102.465 1.41461 103.372 1.87823 104.271L1.87844 104.271C3.2144 106.859 5.58291 109.373 8.8848 111.79L8.88445 111.79C11.3547 113.598 14.3475 115.352 17.8211 117.041L17.8214 117.04C20.6746 118.427 23.8521 119.771 27.3311 121.066L27.3308 121.067C30.3787 122.202 33.6579 123.299 37.1529 124.355L37.1532 124.354C40.3126 125.309 43.6485 126.23 47.1494 127.115L47.1492 127.116C50.377 127.932 53.7451 128.717 57.2445 129.469L57.2447 129.468C60.5137 130.171 63.8973 130.845 67.3882 131.489L67.388 131.489C70.7057 132.101 74.1203 132.685 77.6255 133.241L77.6256 133.24C80.9547 133.767 84.3655 134.268 87.8526 134.742L87.8525 134.743C91.2122 135.2 94.6428 135.631 98.1395 136.036L98.1396 136.035C101.516 136.426 104.953 136.792 108.448 137.132L108.448 137.133C111.832 137.462 115.269 137.768 118.756 138.048L118.756 138.047C122.155 138.32 125.601 138.57 129.091 138.795L129.091 138.796C132.501 139.015 135.954 139.211 139.444 139.383L139.444 139.382C142.859 139.551 146.311 139.696 149.797 139.816L149.797 139.817C153.215 139.936 156.666 140.031 160.145 140.103L160.145 140.102C163.57 140.172 167.024 140.22 170.502 140.244V140.244C172.227 140.256 173.958 140.262 175.696 140.262C177.433 140.262 179.164 140.256 180.889 140.244V140.244C184.368 140.22 187.821 140.172 191.246 140.102L191.246 140.103C194.726 140.031 198.176 139.936 201.595 139.817L201.595 139.816C205.08 139.695 208.532 139.551 211.947 139.382L211.947 139.383C215.438 139.211 218.89 139.015 222.3 138.796L222.3 138.795C225.79 138.57 229.236 138.32 232.635 138.047L232.635 138.048C236.122 137.768 239.56 137.462 242.943 137.133L242.943 137.132C246.438 136.792 249.876 136.426 253.252 136.035L253.252 136.036C256.748 135.631 260.179 135.2 263.539 134.743L263.539 134.742C267.026 134.268 270.437 133.767 273.766 133.24L273.766 133.241C277.271 132.685 280.686 132.101 284.003 131.489L284.003 131.489C287.494 130.845 290.878 130.171 294.147 129.468L294.147 129.469C297.646 128.717 301.014 127.932 304.242 127.116L304.242 127.115C307.743 126.23 311.079 125.309 314.238 124.354L314.238 124.355C317.733 123.299 321.013 122.202 324.06 121.067L324.06 121.066C327.539 119.771 330.717 118.427 333.57 117.04L333.57 117.041C337.044 115.352 340.037 113.598 342.507 111.79L342.506 111.79C345.808 109.373 348.177 106.859 349.512 104.27L349.513 104.271C350.352 102.645 350.783 100.991 350.783 99.3128C350.783 99.0574 350.773 98.8025 350.753 98.5482V42.5884C350.773 42.3341 350.783 42.0793 350.783 41.8239C350.783 41.5684 350.773 41.3136 350.753 41.0593V40.9734H350.746ZM349.753 100.033V98.5885C349.649 97.33 349.274 96.0725 348.624 94.8133L349.069 94.584L349.513 94.3547C349.597 94.518 349.677 94.6816 349.753 94.8455V46.2912C345.384 55.7107 327.356 64.1716 300.398 70.5683C301.7 70.8774 302.982 71.1912 304.242 71.5098L304.12 71.9946L303.997 72.4793C302.112 72.0027 300.178 71.5366 298.197 71.0813C266.621 78.3141 223.385 82.7733 175.696 82.7733C128.006 82.7733 84.7703 78.3141 53.194 71.0813C51.2135 71.5366 49.2796 72.0027 47.3942 72.4793L47.2717 71.9946L47.1492 71.5098C48.4094 71.1912 49.6911 70.8774 50.9936 70.5683C23.9733 64.1569 5.92468 55.6718 1.60791 46.2262L1.60791 94.9104C1.69273 94.7248 1.78284 94.5396 1.87822 94.3548L2.32255 94.5841L2.76687 94.8133C1.99364 96.3118 1.60907 97.8079 1.60791 99.306L1.60791 99.3128L1.60791 99.3195C1.60812 99.592 1.62102 99.8644 1.64663 100.137C1.65182 100.192 1.65753 100.247 1.66377 100.302C1.91194 102.494 2.98563 104.698 4.91747 106.906C7.14624 109.453 10.4785 111.958 14.8509 114.376C23.5951 119.211 36.3144 123.598 52.1174 127.294C83.7077 134.682 127.4 139.261 175.695 139.261C223.991 139.261 267.683 134.682 299.273 127.294C315.076 123.598 327.796 119.211 336.54 114.376C340.912 111.958 344.245 109.453 346.473 106.906C348.484 104.608 349.565 102.314 349.753 100.033ZM342.507 86.8353L342.211 87.2388L341.916 87.6422C339.506 85.878 336.567 84.1542 333.133 82.4842L333.351 82.0346L333.57 81.5849C337.044 83.274 340.037 85.0273 342.507 86.8353ZM324.06 77.5586C321.013 76.424 317.733 75.3268 314.238 74.2707L314.094 74.7493L313.949 75.2279C317.427 76.2787 320.686 77.3693 323.712 78.4958L323.886 78.0272L324.06 77.5586ZM284.003 67.1361L283.913 67.6278L283.822 68.1195C280.513 67.5094 277.107 66.9266 273.609 66.3725L273.688 65.8787L273.766 65.3849C277.271 65.9402 280.686 66.5244 284.003 67.1361ZM263.539 63.8822L263.471 64.3777L263.404 64.8731C260.051 64.4174 256.627 63.987 253.137 63.583L253.194 63.0864L253.252 62.5897C256.748 62.9944 260.179 63.4256 263.539 63.8822ZM242.943 61.4926L242.895 61.9902L242.846 62.4879C239.468 62.159 236.037 61.8541 232.555 61.5742L232.595 61.0759L232.635 60.5775C236.122 60.8578 239.56 61.1631 242.943 61.4926ZM222.3 59.8299L222.268 60.3289L222.236 60.8279C218.831 60.6085 215.384 60.4126 211.898 60.2409L211.923 59.7416L211.947 59.2422C215.438 59.414 218.89 59.6102 222.3 59.8299ZM201.595 58.8082L201.577 59.3079L201.56 59.8076C198.146 59.6893 194.7 59.594 191.225 59.5224L191.235 59.0225L191.246 58.5226C194.726 58.5943 198.176 58.6897 201.595 58.8082ZM180.889 58.381L180.886 58.881L180.882 59.381C179.16 59.3693 177.431 59.3633 175.696 59.3633C173.961 59.3633 172.232 59.3693 170.509 59.381L170.506 58.881L170.502 58.381C172.227 58.3693 173.958 58.3633 175.696 58.3633C177.433 58.3633 179.164 58.3693 180.889 58.381ZM160.145 58.5226L160.156 59.0225L160.166 59.5224C156.691 59.594 153.245 59.6893 149.831 59.8076L149.814 59.3079L149.797 58.8082C153.215 58.6897 156.666 58.5943 160.145 58.5226ZM139.444 59.2422L139.469 59.7416L139.493 60.2409C136.008 60.4126 132.561 60.6085 129.155 60.8279L129.123 60.3289L129.091 59.8299C132.501 59.6102 135.954 59.414 139.444 59.2422ZM118.756 60.5775L118.796 61.0759L118.836 61.5742C115.354 61.8541 111.923 62.159 108.545 62.4879L108.497 61.9902L108.448 61.4926C111.832 61.1631 115.269 60.8578 118.756 60.5775ZM98.1395 62.5897L98.197 63.0864L98.2544 63.583C94.7642 63.987 91.3401 64.4174 87.9872 64.8731L87.9199 64.3777L87.8525 63.8822C91.2122 63.4256 94.6428 62.9944 98.1395 62.5897ZM77.6255 65.3849L77.7037 65.8787L77.782 66.3725C74.2847 66.9266 70.8784 67.5094 67.5693 68.1195L67.4787 67.6278L67.388 67.1361C70.7057 66.5244 74.1203 65.9402 77.6255 65.3849ZM37.1529 74.2707L37.2976 74.7493L37.4422 75.2279C33.9647 76.2787 30.7056 77.3693 27.6797 78.4958L27.5053 78.0272L27.3308 77.5586C30.3787 76.424 33.6579 75.3268 37.1529 74.2707ZM17.8211 81.5849L18.0398 82.0346L18.2584 82.4842C14.824 84.1542 11.8856 85.878 9.47504 87.6422L9.17974 87.2388L8.88444 86.8353C11.3547 85.0273 14.3475 83.274 17.8211 81.5849Z" fill="white"/>
<path d="M346.474 49.4181L347.226 50.0766V50.0766L346.474 49.4181ZM349.753 42.5473L350.75 42.6297L350.753 42.5886V42.5473H349.753ZM336.54 56.8881L336.056 56.013L336.54 56.8881ZM299.274 69.8057L299.501 70.7795L299.274 69.8057ZM298.197 70.0553L297.974 71.0301L298.198 71.0813L298.421 71.0299L298.197 70.0553ZM294.147 69.1565L294.357 68.1788L293.379 67.9686L293.169 68.9463L294.147 69.1565ZM294.042 69.6453L295.019 69.8555V69.8554L294.042 69.6453ZM293.937 70.1341L292.959 69.9239L292.749 70.9016L293.726 71.1118L293.937 70.1341ZM295.925 70.5683L296.142 71.5446V69.592L295.925 70.5683ZM55.4661 70.5683L55.2496 69.592L55.2496 71.5446L55.4661 70.5683ZM57.4547 70.1341L57.6649 71.1118L58.6425 70.9016L58.4324 69.924L57.4547 70.1341ZM57.2445 69.1565L58.2222 68.9463L58.012 67.9686L57.0344 68.1788L57.2445 69.1565ZM53.194 70.0553L52.97 71.0299L53.1936 71.0813L53.4173 71.0301L53.194 70.0553ZM52.1176 69.8057L51.8899 70.7795H51.8899L52.1176 69.8057ZM14.8511 56.8881L14.3672 57.7632L14.8511 56.8881ZM4.91767 49.4181L4.16507 50.0766H4.16507L4.91767 49.4181ZM4.91767 34.2296L4.16507 33.5711H4.16507L4.91767 34.2296ZM14.8511 26.7596L14.3672 25.8845L14.8511 26.7596ZM52.1176 13.842L51.8899 12.8683L52.1176 13.842ZM299.274 13.842L299.501 12.8683L299.274 13.842ZM336.54 26.7596L336.056 27.6347V27.6347L336.54 26.7596ZM346.474 34.2296L347.226 33.5711V33.5711L346.474 34.2296ZM349.753 41.1004H350.753V41.0591L350.75 41.018L349.753 41.1004ZM350.746 40.9734L349.75 41.0602L349.83 41.9734H350.746V40.9734ZM0.60791 41.8453H-0.39209H0.60791ZM0.607913 99.3057L1.60791 99.3061V99.3057H0.607913ZM0.60791 99.3128L-0.39209 99.3124L-0.39209 99.3131L0.60791 99.3128ZM0.607913 99.3198H1.60791L1.60791 99.3195L0.607913 99.3198ZM0.607913 99.7026H-0.392087L-0.392087 100.703H0.607913V99.7026ZM0.615517 99.7026L1.61472 99.6627L1.57635 98.7026H0.615517V99.7026ZM0.838229 101.431L1.8153 101.219L1.81528 101.218L0.838229 101.431ZM0.864684 101.55L1.8392 101.325H1.8392L0.864684 101.55ZM1.87823 104.271L0.989576 104.729L1.44659 105.615L2.33376 105.161L1.87823 104.271ZM1.87844 104.271L2.76706 103.812L2.31002 102.926L1.42291 103.38L1.87844 104.271ZM8.8848 111.79L9.69081 112.382L10.2837 111.574L9.47539 110.983L8.8848 111.79ZM8.88445 111.79L8.07844 111.198L7.48557 112.006L8.29384 112.597L8.88445 111.79ZM17.8211 117.041L17.3838 117.94L18.2839 118.378L18.7208 117.477L17.8211 117.041ZM17.8214 117.04L18.2587 116.141L17.3587 115.703L16.9218 116.603L17.8214 117.04ZM27.3311 121.066L28.2686 121.414L28.6161 120.478L27.68 120.129L27.3311 121.066ZM27.3308 121.067L26.3933 120.719L26.0458 121.656L26.9819 122.004L27.3308 121.067ZM37.1529 124.355L36.8637 125.312L37.8211 125.601L38.1102 124.644L37.1529 124.355ZM37.1532 124.354L37.4424 123.397L36.485 123.108L36.1959 124.065L37.1532 124.354ZM47.1494 127.115L48.1184 127.362L48.3658 126.391L47.3944 126.145L47.1494 127.115ZM47.1492 127.116L46.1801 126.869L45.9327 127.84L46.9041 128.085L47.1492 127.116ZM57.2445 129.469L57.0344 130.447L58.0139 130.657L58.2226 129.677L57.2445 129.469ZM57.2447 129.468L57.4549 128.491L56.4753 128.28L56.2666 129.26L57.2447 129.468ZM67.3882 131.489L68.372 131.667L68.5505 130.686L67.5695 130.505L67.3882 131.489ZM67.388 131.489L66.4042 131.311L66.2257 132.292L67.2067 132.473L67.388 131.489ZM77.6255 133.241L77.469 134.228L78.4545 134.384L78.6128 133.399L77.6255 133.241ZM77.6256 133.24L77.7821 132.252L76.7966 132.096L76.6383 133.081L77.6256 133.24ZM87.8526 134.742L88.8438 134.875L88.9763 133.886L87.9873 133.752L87.8526 134.742ZM87.8525 134.743L86.8614 134.611L86.7289 135.6L87.7178 135.734L87.8525 134.743ZM98.1395 136.036L98.0245 137.029L99.0175 137.144L99.1328 136.151L98.1395 136.036ZM98.1396 136.035L98.2545 135.042L97.2615 134.927L97.1462 135.92L98.1396 136.035ZM108.448 137.132L109.444 137.228L109.54 136.234L108.545 136.137L108.448 137.132ZM108.448 137.133L107.453 137.037L107.357 138.031L108.351 138.128L108.448 137.133ZM118.756 138.048L118.676 139.045L119.675 139.125L119.753 138.125L118.756 138.048ZM118.756 138.047L118.836 137.05L117.836 136.97L117.759 137.97L118.756 138.047ZM129.091 138.795L130.088 138.865L130.159 137.861L129.155 137.797L129.091 138.795ZM129.091 138.796L128.093 138.726L128.023 139.729L129.027 139.793L129.091 138.796ZM139.444 139.383L139.395 140.382L140.392 140.431L140.443 139.434L139.444 139.383ZM139.444 139.382L139.493 138.384L138.496 138.335L138.445 139.332L139.444 139.382ZM149.797 139.816L150.796 139.851L150.83 138.852L149.831 138.817L149.797 139.816ZM149.797 139.817L148.797 139.783L148.763 140.782L149.762 140.817L149.797 139.817ZM160.145 140.103L160.125 141.103L161.128 141.123L161.145 140.12L160.145 140.103ZM160.145 140.102L160.166 139.102L159.163 139.082L159.146 140.085L160.145 140.102ZM170.502 140.244H171.502V139.25L170.509 139.244L170.502 140.244ZM170.502 140.244H169.502V141.238L170.495 141.244L170.502 140.244ZM180.889 140.244L180.896 141.244L181.889 141.238V140.244H180.889ZM180.889 140.244L180.882 139.244L179.889 139.25V140.244H180.889ZM191.246 140.102L192.246 140.085L192.229 139.082L191.225 139.102L191.246 140.102ZM191.246 140.103L190.246 140.12L190.263 141.123L191.266 141.103L191.246 140.103ZM201.595 139.817L201.629 140.817L202.628 140.782L202.594 139.783L201.595 139.817ZM201.595 139.816L201.56 138.817L200.561 138.852L200.595 139.85L201.595 139.816ZM211.947 139.382L212.946 139.333L212.896 138.335L211.898 138.384L211.947 139.382ZM211.947 139.383L210.948 139.433L210.998 140.431L211.996 140.382L211.947 139.383ZM222.3 138.796L222.365 139.793L223.366 139.729L223.298 138.728L222.3 138.796ZM222.3 138.795L222.236 137.797L221.235 137.861L221.303 138.862L222.3 138.795ZM232.635 138.047L233.632 137.964L233.549 136.97L232.555 137.05L232.635 138.047ZM232.635 138.048L231.639 138.131L231.722 139.125L232.716 139.045L232.635 138.048ZM242.943 137.133L243.04 138.128L244.038 138.031L243.938 137.033L242.943 137.133ZM242.943 137.132L242.846 136.137L241.848 136.234L241.948 137.232L242.943 137.132ZM253.252 136.035L254.245 135.917L254.127 134.927L253.137 135.042L253.252 136.035ZM253.252 136.036L252.259 136.154L252.376 137.144L253.367 137.029L253.252 136.036ZM263.539 134.743L263.673 135.734L264.662 135.6L264.53 134.611L263.539 134.743ZM263.539 134.742L263.404 133.751L262.416 133.886L262.547 134.875L263.539 134.742ZM273.766 133.24L274.752 133.075L274.589 132.097L273.609 132.252L273.766 133.24ZM273.766 133.241L272.779 133.405L272.942 134.384L273.922 134.228L273.766 133.241ZM284.003 131.489L284.185 132.473L285.183 132.289L284.984 131.293L284.003 131.489ZM284.003 131.489L283.822 130.505L282.823 130.689L283.022 131.685L284.003 131.489ZM294.147 129.468L295.126 129.269L294.925 128.278L293.936 128.49L294.147 129.468ZM294.147 129.469L293.167 129.668L293.368 130.659L294.357 130.447L294.147 129.469ZM304.242 127.116L304.487 128.085L305.443 127.844L305.215 126.885L304.242 127.116ZM304.242 127.115L303.997 126.145L303.041 126.387L303.269 127.346L304.242 127.115ZM314.238 124.354L315.194 124.06L314.901 123.109L313.949 123.397L314.238 124.354ZM314.238 124.355L313.283 124.649L313.575 125.6L314.528 125.312L314.238 124.355ZM324.06 121.067L324.409 122.004L325.358 121.651L324.993 120.707L324.06 121.067ZM324.06 121.066L323.711 120.129L322.763 120.482L323.127 121.426L324.06 121.066ZM333.57 117.04L334.467 116.599L334.029 115.705L333.132 116.14L333.57 117.04ZM333.57 117.041L332.672 117.481L333.111 118.376L334.007 117.94L333.57 117.041ZM342.507 111.79L343.097 112.597L343.908 112.004L343.311 111.196L342.507 111.79ZM342.506 111.79L341.916 110.983L341.105 111.576L341.702 112.384L342.506 111.79ZM349.512 104.27L349.979 103.386L349.087 102.915L348.624 103.812L349.512 104.27ZM349.513 104.271L349.046 105.155L349.939 105.626L350.402 104.729L349.513 104.271ZM350.753 98.5482H349.753V98.5873L349.756 98.6262L350.753 98.5482ZM350.753 42.5884L349.756 42.5104L349.753 42.5494V42.5884H350.753ZM350.753 41.0593H349.753V41.0984L349.756 41.1373L350.753 41.0593ZM350.753 40.9734H351.753V39.9734H350.753V40.9734ZM349.753 100.033L350.75 100.115L350.753 100.074V100.033H349.753ZM349.753 98.5885H350.753V98.5472L350.75 98.5061L349.753 98.5885ZM348.624 94.8133L348.166 93.9247L347.277 94.3833L347.736 95.2719L348.624 94.8133ZM349.069 94.584L348.61 93.6954L348.61 93.6954L349.069 94.584ZM349.513 94.3547L350.402 93.8961L349.943 93.0075L349.054 93.4661L349.513 94.3547ZM349.753 94.8455L348.846 95.2663L350.753 94.8455H349.753ZM349.753 46.2912H350.753L348.846 45.8703L349.753 46.2912ZM300.398 70.5683L300.167 69.5953V71.5413L300.398 70.5683ZM304.242 71.5098L305.212 71.7549L305.457 70.7854L304.487 70.5403L304.242 71.5098ZM304.12 71.9946L305.089 72.2397L305.089 72.2396L304.12 71.9946ZM303.997 72.4793L303.752 73.4488L304.721 73.6939L304.966 72.7244L303.997 72.4793ZM298.197 71.0813L298.421 70.1067L298.198 70.0553L297.974 70.1065L298.197 71.0813ZM53.194 71.0813L53.4173 70.1065L53.1936 70.0553L52.97 70.1067L53.194 71.0813ZM47.3942 72.4793L46.4247 72.7244L46.6698 73.6939L47.6393 73.4488L47.3942 72.4793ZM47.2717 71.9946L46.3022 72.2396L47.2717 71.9946ZM47.1492 71.5098L46.9041 70.5403L45.9346 70.7854L46.1797 71.7549L47.1492 71.5098ZM50.9936 70.5683L51.2245 71.5413V69.5953L50.9936 70.5683ZM1.60791 46.2262L2.51743 45.8106L0.60791 46.2262H1.60791ZM1.60791 94.9104H0.607913L2.51743 95.3261L1.60791 94.9104ZM1.87822 94.3548L2.33679 93.4661L1.44814 93.0075L0.989565 93.8962L1.87822 94.3548ZM2.32255 94.5841L1.86397 95.4727H1.86397L2.32255 94.5841ZM2.76687 94.8133L3.65553 95.2719L4.11411 94.3833L3.22545 93.9247L2.76687 94.8133ZM1.60791 99.306L0.607913 99.3052L0.607913 99.3056L1.60791 99.306ZM1.60791 99.3128L0.60791 99.3124L0.60791 99.3131L1.60791 99.3128ZM1.60791 99.3195L0.607913 99.3199L0.607913 99.3203L1.60791 99.3195ZM1.64663 100.137L0.651019 100.23H0.651019L1.64663 100.137ZM1.66377 100.302L0.670086 100.415L0.670116 100.415L1.66377 100.302ZM4.91747 106.906L4.16487 107.565H4.16487L4.91747 106.906ZM14.8509 114.376L14.367 115.251H14.367L14.8509 114.376ZM52.1174 127.294L52.3452 126.32L52.1174 127.294ZM299.273 127.294L299.046 126.32L299.273 127.294ZM336.54 114.376L336.056 113.501L336.54 114.376ZM346.473 106.906L347.226 107.565L346.473 106.906ZM342.211 87.2388L341.405 86.6481L341.405 86.6482L342.211 87.2388ZM342.507 86.8353L343.314 87.4259L343.904 86.6189L343.097 86.0283L342.507 86.8353ZM341.916 87.6422L341.326 88.4492L342.133 89.0398L342.723 88.2328L341.916 87.6422ZM333.133 82.4842L332.233 82.0469L331.796 82.9463L332.696 83.3836L333.133 82.4842ZM333.351 82.0346L334.251 82.4719V82.4718L333.351 82.0346ZM333.57 81.5849L334.007 80.6856L333.108 80.2483L332.671 81.1477L333.57 81.5849ZM314.238 74.2707L314.528 73.3134L313.57 73.0241L313.281 73.9814L314.238 74.2707ZM324.06 77.5586L324.998 77.9075L325.346 76.9703L324.409 76.6214L324.06 77.5586ZM314.094 74.7493L315.051 75.0386V75.0385L314.094 74.7493ZM313.949 75.2279L312.992 74.9386L312.702 75.8959L313.66 76.1852L313.949 75.2279ZM323.712 78.4958L323.363 79.4329L324.3 79.7818L324.649 78.8446L323.712 78.4958ZM283.913 67.6278L284.896 67.8091V67.8091L283.913 67.6278ZM284.003 67.1361L284.987 67.3174L285.168 66.334L284.185 66.1527L284.003 67.1361ZM283.822 68.1195L283.641 69.1029L284.624 69.2842L284.805 68.3008L283.822 68.1195ZM273.609 66.3725L272.622 66.216L272.465 67.2037L273.453 67.3602L273.609 66.3725ZM273.688 65.8787L274.675 66.0352L274.675 66.0351L273.688 65.8787ZM273.766 65.3849L273.922 64.3972L272.934 64.2407L272.778 65.2284L273.766 65.3849ZM263.471 64.3777L264.462 64.5124L264.462 64.5123L263.471 64.3777ZM263.539 63.8822L264.53 64.0169L264.664 63.026L263.673 62.8913L263.539 63.8822ZM263.404 64.8731L263.269 65.864L264.26 65.9987L264.395 65.0078L263.404 64.8731ZM253.137 63.583L252.143 63.4681L252.028 64.4614L253.022 64.5764L253.137 63.583ZM253.194 63.0864L252.201 62.9714L252.201 62.9714L253.194 63.0864ZM253.252 62.5897L253.367 61.5963L252.373 61.4813L252.258 62.4747L253.252 62.5897ZM242.895 61.9902L241.899 61.8933L241.899 61.8933L242.895 61.9902ZM242.943 61.4926L243.938 61.5895L244.035 60.5942L243.04 60.4973L242.943 61.4926ZM242.846 62.4879L242.749 63.4832L243.744 63.5801L243.841 62.5848L242.846 62.4879ZM232.555 61.5742L231.559 61.4941L231.478 62.4909L232.475 62.571L232.555 61.5742ZM232.595 61.0759L233.592 61.156V61.156L232.595 61.0759ZM232.635 60.5775L232.716 59.5807L231.719 59.5005L231.639 60.4974L232.635 60.5775ZM222.268 60.3289L223.266 60.3932L223.266 60.3932L222.268 60.3289ZM222.3 59.8299L223.298 59.8942L223.363 58.8963L222.365 58.832L222.3 59.8299ZM222.236 60.8279L222.172 61.8258L223.17 61.8901L223.234 60.8922L222.236 60.8279ZM211.898 60.2409L210.899 60.1918L210.85 61.1906L211.849 61.2397L211.898 60.2409ZM211.923 59.7416L212.921 59.7907V59.7907L211.923 59.7416ZM211.947 59.2422L211.996 58.2434L210.998 58.1942L210.948 59.193L211.947 59.2422ZM201.595 58.8082L202.594 58.8429L202.629 57.8435L201.629 57.8088L201.595 58.8082ZM201.56 59.8076L201.525 60.807L202.525 60.8417L202.559 59.8423L201.56 59.8076ZM191.225 59.5224L190.225 59.5018L190.205 60.5016L191.205 60.5222L191.225 59.5224ZM191.235 59.0225L192.235 59.0431V59.0431L191.235 59.0225ZM191.246 58.5226L191.266 57.5229L190.267 57.5023L190.246 58.5021L191.246 58.5226ZM180.886 58.881L181.886 58.8878V58.8878L180.886 58.881ZM180.889 58.381L181.889 58.3878L181.896 57.3879L180.896 57.381L180.889 58.381ZM180.882 59.381L180.875 60.381L181.875 60.3878L181.882 59.3878L180.882 59.381ZM170.509 59.381L169.509 59.3878L169.516 60.3878L170.516 60.381L170.509 59.381ZM170.502 58.381L170.495 57.381L169.495 57.3879L169.502 58.3878L170.502 58.381ZM160.145 58.5226L161.145 58.5021L161.125 57.5023L160.125 57.5229L160.145 58.5226ZM160.166 59.5224L160.187 60.5222L161.186 60.5016L161.166 59.5019L160.166 59.5224ZM149.831 59.8076L148.832 59.8423L148.867 60.8417L149.866 60.807L149.831 59.8076ZM149.814 59.3079L148.815 59.3426V59.3426L149.814 59.3079ZM149.797 58.8082L149.762 57.8088L148.763 57.8435L148.797 58.8429L149.797 58.8082ZM139.444 59.2422L140.443 59.193L140.394 58.1942L139.395 58.2434L139.444 59.2422ZM139.493 60.2409L139.542 61.2397L140.541 61.1906L140.492 60.1918L139.493 60.2409ZM129.155 60.8279L128.157 60.8921L128.221 61.8901L129.219 61.8258L129.155 60.8279ZM129.123 60.3289L130.121 60.2646L130.121 60.2646L129.123 60.3289ZM129.091 59.8299L129.027 58.832L128.029 58.8963L128.093 59.8942L129.091 59.8299ZM118.796 61.0759L117.799 61.156L117.799 61.156L118.796 61.0759ZM118.756 60.5775L119.753 60.4973L119.672 59.5005L118.676 59.5807L118.756 60.5775ZM118.836 61.5742L118.916 62.571L119.913 62.4909L119.833 61.4941L118.836 61.5742ZM108.545 62.4879L107.55 62.5848L107.647 63.5801L108.642 63.4832L108.545 62.4879ZM108.497 61.9902L109.492 61.8933V61.8933L108.497 61.9902ZM108.448 61.4926L108.351 60.4973L107.356 60.5942L107.453 61.5895L108.448 61.4926ZM98.197 63.0864L97.2036 63.2013L98.197 63.0864ZM98.1395 62.5897L99.1328 62.4747L99.0179 61.4813L98.0245 61.5963L98.1395 62.5897ZM98.2544 63.583L98.3694 64.5764L99.3628 64.4614L99.2478 63.4681L98.2544 63.583ZM87.9872 64.8731L86.9963 65.0078L87.131 65.9987L88.1219 65.864L87.9872 64.8731ZM87.8525 63.8822L87.7178 62.8913L86.727 63.026L86.8616 64.0169L87.8525 63.8822ZM77.7037 65.8787L76.7161 66.0352L76.7161 66.0352L77.7037 65.8787ZM77.6255 65.3849L78.6132 65.2284L78.4567 64.2407L77.469 64.3972L77.6255 65.3849ZM77.782 66.3725L77.9385 67.3602L78.9261 67.2038L78.7697 66.2161L77.782 66.3725ZM67.5693 68.1195L66.5859 68.3008L66.7672 69.2842L67.7507 69.1029L67.5693 68.1195ZM67.4787 67.6278L66.4952 67.8091L66.4953 67.8091L67.4787 67.6278ZM67.388 67.1361L67.2067 66.1527L66.2233 66.334L66.4046 67.3174L67.388 67.1361ZM37.2976 74.7493L38.2548 74.46H38.2548L37.2976 74.7493ZM37.1529 74.2707L38.1102 73.9814L37.8209 73.0241L36.8637 73.3134L37.1529 74.2707ZM37.4422 75.2279L37.7315 76.1852L38.6887 75.8959L38.3995 74.9386L37.4422 75.2279ZM27.6797 78.4958L26.7425 78.8446L27.0914 79.7818L28.0286 79.4329L27.6797 78.4958ZM27.5053 78.0272L28.4424 77.6783L28.4424 77.6783L27.5053 78.0272ZM27.3308 77.5586L26.9819 76.6214L26.0448 76.9703L26.3937 77.9075L27.3308 77.5586ZM17.8211 81.5849L18.7205 81.1476L18.2832 80.2483L17.3838 80.6856L17.8211 81.5849ZM18.2584 82.4842L18.6957 83.3836L19.595 82.9463L19.1577 82.047L18.2584 82.4842ZM9.47504 87.6422L8.66808 88.2328L9.25869 89.0398L10.0656 88.4492L9.47504 87.6422ZM9.17974 87.2388L9.9867 86.6482H9.9867L9.17974 87.2388ZM8.88444 86.8353L8.29383 86.0283L7.48687 86.6189L8.07748 87.4259L8.88444 86.8353ZM347.226 50.0766C349.334 47.6669 350.539 45.1796 350.75 42.6297L348.757 42.4649C348.591 44.4748 347.633 46.5739 345.721 48.7596L347.226 50.0766ZM337.024 57.7632C341.454 55.3137 344.894 52.7423 347.226 50.0766L345.721 48.7596C343.596 51.1886 340.371 53.627 336.056 56.013L337.024 57.7632ZM299.501 70.7795C315.344 67.0743 328.164 62.6623 337.024 57.7632L336.056 56.013C327.428 60.7841 314.81 65.1452 299.046 68.832L299.501 70.7795ZM298.421 71.0299C298.783 70.9468 299.143 70.8633 299.501 70.7795L299.046 68.832C298.69 68.9153 298.332 68.9982 297.973 69.0807L298.421 71.0299ZM293.937 70.1341C295.303 70.4278 296.649 70.7265 297.974 71.0301L298.42 69.0806C297.086 68.775 295.732 68.4743 294.357 68.1788L293.937 70.1341ZM295.019 69.8554L295.124 69.3666L293.169 68.9463L293.064 69.4352L295.019 69.8554ZM294.914 70.3443L295.019 69.8555L293.064 69.4351L292.959 69.9239L294.914 70.3443ZM296.142 69.592C295.481 69.4456 294.816 69.3005 294.147 69.1565L293.726 71.1118C294.392 71.2549 295.053 71.3992 295.709 71.5446L296.142 69.592ZM175.696 82.7733C222.36 82.7733 264.759 78.5037 296.142 71.5446L295.709 69.592C264.503 76.5119 222.255 80.7733 175.696 80.7733V82.7733ZM55.2496 71.5446C86.6326 78.5037 129.031 82.7733 175.696 82.7733V80.7733C129.136 80.7733 86.8885 76.5119 55.6826 69.592L55.2496 71.5446ZM57.2445 69.1565C56.5747 69.3005 55.9098 69.4456 55.2496 69.592L55.6826 71.5446C56.3385 71.3992 56.9992 71.2549 57.6649 71.1118L57.2445 69.1565ZM56.372 69.8555L56.477 70.3443L58.4324 69.924L58.3273 69.4351L56.372 69.8555ZM56.2669 69.3666L56.372 69.8555L58.3273 69.4351L58.2222 68.9463L56.2669 69.3666ZM53.4173 71.0301C54.7425 70.7265 56.0885 70.4278 57.4547 70.1341L57.0344 68.1788C55.6596 68.4743 54.3049 68.775 52.9707 69.0806L53.4173 71.0301ZM51.8899 70.7795C52.2484 70.8633 52.6084 70.9468 52.97 71.0299L53.4181 69.0807C53.059 68.9982 52.7014 68.9153 52.3454 68.832L51.8899 70.7795ZM14.3672 57.7632C23.2271 62.6623 36.0476 67.0743 51.8899 70.7795L52.3454 68.832C36.5815 65.1452 23.9635 60.7841 15.335 56.013L14.3672 57.7632ZM4.16507 50.0766C6.4974 52.7423 9.93722 55.3137 14.3672 57.7632L15.335 56.013C11.0201 53.627 7.79548 51.1886 5.67027 48.7596L4.16507 50.0766ZM0.60791 41.8239C0.60791 44.6506 1.83256 47.4107 4.16507 50.0766L5.67027 48.7596C3.55657 46.3438 2.60791 44.0331 2.60791 41.8239H0.60791ZM4.16507 33.5711C1.83256 36.237 0.60791 38.9971 0.60791 41.8239H2.60791C2.60791 39.6146 3.55657 37.3039 5.67027 34.8881L4.16507 33.5711ZM14.3672 25.8845C9.93722 28.3341 6.4974 30.9054 4.16507 33.5711L5.67027 34.8881C7.79548 32.4591 11.0201 30.0207 15.335 27.6347L14.3672 25.8845ZM51.8899 12.8683C36.0476 16.5734 23.2271 20.9854 14.3672 25.8845L15.335 27.6347C23.9635 22.8636 36.5815 18.5025 52.3454 14.8157L51.8899 12.8683ZM175.696 0.874451C127.346 0.874451 83.5746 5.45787 51.8899 12.8683L52.3454 14.8157C83.8412 7.44948 127.453 2.87445 175.696 2.87445V0.874451ZM299.501 12.8683C267.817 5.45787 224.045 0.874451 175.696 0.874451V2.87445C223.938 2.87445 267.55 7.44948 299.046 14.8157L299.501 12.8683ZM337.024 25.8845C328.164 20.9854 315.344 16.5734 299.501 12.8683L299.046 14.8157C314.81 18.5025 327.428 22.8636 336.056 27.6347L337.024 25.8845ZM347.226 33.5711C344.894 30.9054 341.454 28.3341 337.024 25.8845L336.056 27.6347C340.371 30.0207 343.596 32.4591 345.721 34.8881L347.226 33.5711ZM350.75 41.018C350.539 38.4681 349.334 35.9808 347.226 33.5711L345.721 34.8881C347.633 37.0738 348.591 39.1729 348.757 41.1828L350.75 41.018ZM350.753 42.5473V41.1004H348.753V42.5473H350.753ZM175.696 1.87445C223.384 1.87445 266.585 6.33924 298.078 13.5649C313.831 17.1793 326.604 21.4734 335.536 26.2158C340.002 28.5871 343.467 31.049 345.861 33.5601C348.254 36.069 349.534 38.5769 349.75 41.0602L351.743 40.8866C351.475 37.8141 349.905 34.902 347.309 32.1798C344.715 29.4596 341.05 26.879 336.474 24.4493C327.322 19.5898 314.357 15.248 298.525 11.6156C266.847 4.34757 223.49 -0.125549 175.696 -0.125549V1.87445ZM1.60791 41.8239C1.60791 39.3059 2.69457 36.7705 4.91767 34.2296C7.14644 31.6823 10.4787 29.1774 14.8511 26.7596C23.5953 21.9245 36.3146 17.538 52.1176 13.842C83.7079 6.45368 127.4 1.87445 175.696 1.87445V-0.125549C127.293 -0.125549 83.4412 4.46206 51.6622 11.8945C35.7806 15.6089 22.8589 20.0463 13.8833 25.0094C9.39577 27.4908 5.84835 30.1286 3.41247 32.9126C0.970924 35.7032 -0.39209 38.6879 -0.39209 41.8239H1.60791ZM1.60791 41.8453V41.8239H-0.39209V41.8453H1.60791ZM1.60791 99.3057L1.60791 41.8453H-0.39209L-0.392087 99.3057H1.60791ZM1.60791 99.3131L1.60791 99.3061L-0.392087 99.3053L-0.39209 99.3124L1.60791 99.3131ZM1.60791 99.3195L1.60791 99.3124L-0.39209 99.3131L-0.392087 99.3202L1.60791 99.3195ZM1.60791 99.7026L1.60791 99.3198H-0.392087V99.7026H1.60791ZM0.615517 98.7026H0.607913V100.703H0.615517V98.7026ZM-0.383685 99.7425C-0.358155 100.381 -0.275943 101.016 -0.13882 101.645L1.81528 101.218C1.70244 100.701 1.63549 100.182 1.61472 99.6627L-0.383685 99.7425ZM1.8392 101.325C1.83102 101.29 1.82305 101.254 1.8153 101.219L-0.13884 101.644C-0.129429 101.688 -0.119761 101.731 -0.109835 101.774L1.8392 101.325ZM2.76688 103.812C2.33806 102.981 2.02953 102.152 1.8392 101.325L-0.109835 101.774C0.121218 102.778 0.49115 103.763 0.989576 104.729L2.76688 103.812ZM1.42291 103.38L1.4227 103.381L2.33376 105.161L2.33397 105.161L1.42291 103.38ZM0.989815 104.729C2.42173 107.504 4.92019 110.127 8.29421 112.597L9.47539 110.983C6.24563 108.619 4.00706 106.215 2.76706 103.812L0.989815 104.729ZM8.0788 111.198L8.07844 111.198L9.69045 112.382L9.69081 112.382L8.0788 111.198ZM8.29384 112.597C10.8238 114.449 13.8709 116.232 17.3838 117.94L18.2584 116.141C14.824 114.471 11.8856 112.748 9.47505 110.983L8.29384 112.597ZM18.7208 117.477L18.7211 117.477L16.9218 116.603L16.9215 116.604L18.7208 117.477ZM17.3842 117.939C20.2708 119.343 23.4785 120.699 26.9822 122.003L27.68 120.129C24.2257 118.843 21.0783 117.512 18.2587 116.141L17.3842 117.939ZM26.3935 120.718L26.3933 120.719L28.2683 121.415L28.2686 121.414L26.3935 120.718ZM26.9819 122.004C30.0518 123.147 33.351 124.251 36.8637 125.312L37.4422 123.398C33.9647 122.347 30.7055 121.256 27.6797 120.13L26.9819 122.004ZM38.1102 124.644L38.1105 124.643L36.1959 124.065L36.1956 124.066L38.1102 124.644ZM36.8639 125.311C40.0393 126.271 43.39 127.196 46.9043 128.084L47.3944 126.145C43.907 125.264 40.5859 124.347 37.4424 123.397L36.8639 125.311ZM46.1803 126.868L46.1801 126.869L48.1182 127.363L48.1184 127.362L46.1803 126.868ZM46.9041 128.085C50.1444 128.904 53.5241 129.692 57.0344 130.447L57.4547 128.491C53.9661 127.741 50.6097 126.959 47.3942 126.146L46.9041 128.085ZM58.2226 129.677L58.2228 129.677L56.2666 129.26L56.2665 129.261L58.2226 129.677ZM57.0345 130.446C60.3137 131.151 63.7069 131.827 67.2069 132.472L67.5695 130.505C64.0877 129.863 60.7138 129.191 57.4549 128.491L57.0345 130.446ZM66.4043 131.31L66.4042 131.311L68.3719 131.668L68.372 131.667L66.4043 131.31ZM67.2067 132.473C70.533 133.086 73.9559 133.672 77.469 134.228L77.782 132.253C74.2847 131.699 70.8784 131.116 67.5693 130.506L67.2067 132.473ZM78.6128 133.399L78.613 133.398L76.6383 133.081L76.6382 133.082L78.6128 133.399ZM77.4692 134.227C80.8057 134.756 84.2238 135.258 87.7179 135.733L87.9873 133.752C84.5071 133.279 81.1036 132.778 77.7821 132.252L77.4692 134.227ZM88.8437 134.876L88.8438 134.875L86.8615 134.61L86.8614 134.611L88.8437 134.876ZM98.2544 135.042C94.7641 134.639 91.3401 134.208 87.9872 133.752L87.7178 135.734C91.0843 136.192 94.5214 136.624 98.0245 137.029L98.2544 135.042ZM97.1462 135.92L97.1461 135.921L99.1328 136.151L99.1329 136.15L97.1462 135.92ZM98.0246 137.028C101.407 137.42 104.851 137.786 108.351 138.127L108.545 136.137C105.056 135.797 101.624 135.432 98.2545 135.042L98.0246 137.028ZM107.453 137.036L107.453 137.037L109.444 137.229L109.444 137.228L107.453 137.036ZM108.351 138.128C111.741 138.458 115.183 138.764 118.676 139.045L118.836 137.051C115.354 136.771 111.923 136.467 108.545 136.138L108.351 138.128ZM119.753 138.125L119.753 138.125L117.759 137.97L117.759 137.971L119.753 138.125ZM118.676 139.044C122.08 139.318 125.531 139.567 129.027 139.793L129.155 137.797C125.67 137.572 122.23 137.323 118.836 137.05L118.676 139.044ZM128.093 138.725L128.093 138.726L130.088 138.866L130.088 138.865L128.093 138.725ZM129.027 139.793C132.442 140.014 135.899 140.21 139.395 140.382L139.493 138.385C136.008 138.213 132.561 138.017 129.155 137.798L129.027 139.793ZM140.443 139.434L140.443 139.433L138.445 139.332L138.445 139.333L140.443 139.434ZM139.395 140.381C142.815 140.55 146.272 140.695 149.762 140.816L149.831 138.817C146.351 138.696 142.904 138.552 139.493 138.384L139.395 140.381ZM148.797 139.782L148.797 139.783L150.796 139.852L150.796 139.851L148.797 139.782ZM149.762 140.817C153.185 140.935 156.64 141.031 160.125 141.103L160.166 139.103C156.691 139.032 153.245 138.936 149.831 138.818L149.762 140.817ZM161.145 140.12L161.145 140.119L159.146 140.085L159.146 140.086L161.145 140.12ZM160.125 141.102C163.554 141.172 167.012 141.22 170.495 141.244L170.509 139.244C167.035 139.22 163.586 139.173 160.166 139.102L160.125 141.102ZM169.502 140.244V140.244H171.502V140.244H169.502ZM170.495 141.244C172.223 141.256 173.956 141.262 175.696 141.262V139.262C173.961 139.262 172.232 139.256 170.509 139.245L170.495 141.244ZM175.696 141.262C177.435 141.262 179.169 141.256 180.896 141.244L180.882 139.245C179.16 139.256 177.431 139.262 175.696 139.262V141.262ZM181.889 140.244V140.244H179.889V140.244H181.889ZM180.896 141.244C184.379 141.22 187.837 141.172 191.266 141.102L191.225 139.102C187.805 139.173 184.356 139.22 180.882 139.244L180.896 141.244ZM190.246 140.119L190.246 140.12L192.246 140.086L192.246 140.085L190.246 140.119ZM191.266 141.103C194.751 141.031 198.206 140.935 201.629 140.817L201.56 138.818C198.146 138.936 194.7 139.032 191.225 139.103L191.266 141.103ZM202.594 139.783L202.594 139.782L200.595 139.85L200.595 139.851L202.594 139.783ZM201.629 140.816C205.119 140.695 208.576 140.55 211.996 140.381L211.898 138.384C208.488 138.552 205.041 138.696 201.56 138.817L201.629 140.816ZM210.948 139.432L210.948 139.433L212.946 139.333L212.946 139.333L210.948 139.432ZM211.996 140.382C215.492 140.21 218.949 140.014 222.365 139.793L222.236 137.798C218.831 138.017 215.384 138.213 211.898 138.385L211.996 140.382ZM223.298 138.728L223.298 138.727L221.303 138.862L221.303 138.863L223.298 138.728ZM222.365 139.793C225.86 139.567 229.311 139.318 232.715 139.044L232.555 137.05C229.162 137.323 225.721 137.572 222.236 137.797L222.365 139.793ZM231.639 138.13L231.639 138.131L233.632 137.965L233.632 137.964L231.639 138.13ZM232.716 139.045C236.208 138.764 239.651 138.458 243.04 138.128L242.846 136.138C239.468 136.467 236.037 136.771 232.555 137.051L232.716 139.045ZM243.938 137.033L243.938 137.033L241.948 137.232L241.948 137.232L243.938 137.033ZM243.04 138.127C246.541 137.786 249.984 137.42 253.367 137.028L253.137 135.042C249.767 135.432 246.335 135.797 242.846 136.137L243.04 138.127ZM252.259 136.153L252.259 136.154L254.245 135.918L254.245 135.917L252.259 136.153ZM253.367 137.029C256.87 136.624 260.307 136.192 263.673 135.734L263.404 133.752C260.051 134.208 256.627 134.639 253.137 135.042L253.367 137.029ZM264.53 134.611L264.53 134.61L262.547 134.875L262.547 134.875L264.53 134.611ZM263.673 135.733C267.167 135.258 270.585 134.756 273.922 134.227L273.609 132.252C270.288 132.778 266.884 133.278 263.404 133.751L263.673 135.733ZM272.779 133.404L272.779 133.405L274.752 133.076L274.752 133.075L272.779 133.404ZM273.922 134.228C277.435 133.672 280.858 133.086 284.185 132.473L283.822 130.506C280.513 131.116 277.107 131.699 273.609 132.253L273.922 134.228ZM284.984 131.293L284.984 131.292L283.022 131.685L283.023 131.686L284.984 131.293ZM284.184 132.472C287.684 131.827 291.078 131.151 294.357 130.446L293.936 128.49C290.677 129.191 287.303 129.863 283.822 130.505L284.184 132.472ZM293.167 129.667L293.167 129.668L295.127 129.27L295.126 129.269L293.167 129.667ZM294.357 130.447C297.867 129.692 301.247 128.904 304.487 128.085L303.997 126.146C300.782 126.959 297.425 127.741 293.937 128.491L294.357 130.447ZM305.215 126.885L305.215 126.884L303.269 127.346L303.269 127.347L305.215 126.885ZM304.487 128.084C308.001 127.196 311.352 126.271 314.527 125.311L313.949 123.397C310.805 124.347 307.484 125.264 303.997 126.145L304.487 128.084ZM313.282 124.648L313.283 124.649L315.194 124.061L315.194 124.06L313.282 124.648ZM314.528 125.312C318.04 124.251 321.339 123.147 324.409 122.004L323.712 120.13C320.686 121.256 317.427 122.347 313.949 123.398L314.528 125.312ZM324.993 120.707L324.993 120.706L323.127 121.426L323.128 121.427L324.993 120.707ZM324.409 122.003C327.913 120.699 331.12 119.343 334.007 117.939L333.132 116.14C330.313 117.511 327.165 118.843 323.711 120.129L324.409 122.003ZM332.672 117.48L332.672 117.481L334.468 116.6L334.467 116.599L332.672 117.48ZM334.007 117.94C337.52 116.232 340.567 114.449 343.097 112.597L341.916 110.983C339.506 112.748 336.567 114.471 333.133 116.141L334.007 117.94ZM343.311 111.196L343.31 111.195L341.702 112.384L341.703 112.385L343.311 111.196ZM343.097 112.597C346.471 110.127 348.969 107.503 350.401 104.729L348.624 103.812C347.384 106.214 345.145 108.619 341.916 110.983L343.097 112.597ZM349.98 103.386L349.979 103.386L349.046 105.155L349.046 105.155L349.98 103.386ZM349.783 99.3128C349.783 100.813 349.399 102.312 348.624 103.812L350.402 104.729C351.305 102.979 351.783 101.169 351.783 99.3128H349.783ZM349.756 98.6262C349.774 98.8547 349.783 99.0835 349.783 99.3128H351.783C351.783 99.0312 351.772 98.7503 351.75 98.4702L349.756 98.6262ZM349.753 42.5884V98.5482H351.753V42.5884H349.753ZM349.783 41.8239C349.783 42.0531 349.774 42.282 349.756 42.5104L351.75 42.6664C351.772 42.3863 351.783 42.1054 351.783 41.8239H349.783ZM349.756 41.1373C349.774 41.3658 349.783 41.5946 349.783 41.8239H351.783C351.783 41.5423 351.772 41.2614 351.75 40.9813L349.756 41.1373ZM349.753 40.9734V41.0593H351.753V40.9734H349.753ZM350.746 41.9734H350.753V39.9734H350.746V41.9734ZM350.753 100.033V98.5885H348.753V100.033H350.753ZM350.75 98.5061C350.634 97.1018 350.216 95.7172 349.513 94.3548L347.736 95.2719C348.332 96.4277 348.665 97.5583 348.757 98.6708L350.75 98.5061ZM349.083 95.702L349.527 95.4727L348.61 93.6954L348.166 93.9247L349.083 95.702ZM349.527 95.4727L349.972 95.2434L349.054 93.4661L348.61 93.6954L349.527 95.4727ZM348.624 94.8133C348.702 94.9644 348.776 95.1153 348.846 95.2663L350.661 94.4246C350.579 94.2478 350.492 94.0717 350.402 93.8961L348.624 94.8133ZM350.753 94.8455V46.2912H348.753V94.8455H350.753ZM348.846 45.8703C346.814 50.2508 341.489 54.5927 333.109 58.6638C324.776 62.7123 313.607 66.4062 300.167 69.5953L300.629 71.5413C314.147 68.3337 325.47 64.5988 333.983 60.4627C342.45 56.3493 348.323 51.751 350.661 46.712L348.846 45.8703ZM300.167 71.5413C301.465 71.8493 302.742 72.162 303.997 72.4793L304.487 70.5403C303.222 70.2205 301.936 69.9055 300.629 69.5953L300.167 71.5413ZM303.273 71.2648L303.15 71.7495L305.089 72.2396L305.212 71.7549L303.273 71.2648ZM303.15 71.7495L303.027 72.2342L304.966 72.7244L305.089 72.2397L303.15 71.7495ZM304.242 71.5098C302.349 71.0314 300.409 70.5635 298.421 70.1067L297.973 72.0559C299.947 72.5096 301.874 72.9741 303.752 73.4488L304.242 71.5098ZM297.974 70.1065C266.49 77.3183 223.332 81.7733 175.696 81.7733V83.7733C223.438 83.7733 266.752 79.3099 298.421 72.0561L297.974 70.1065ZM175.696 81.7733C128.059 81.7733 84.9015 77.3183 53.4173 70.1065L52.9707 72.0561C84.639 79.3099 127.953 83.7733 175.696 83.7733V81.7733ZM52.97 70.1067C50.9827 70.5635 49.0418 71.0314 47.1492 71.5098L47.6393 73.4488C49.5174 72.9741 51.4442 72.5096 53.418 72.0559L52.97 70.1067ZM48.3637 72.2342L48.2412 71.7495L46.3022 72.2396L46.4247 72.7244L48.3637 72.2342ZM48.2412 71.7495L48.1187 71.2647L46.1797 71.7549L46.3022 72.2396L48.2412 71.7495ZM47.3942 72.4793C48.6496 72.162 49.9266 71.8493 51.2245 71.5413L50.7627 69.5953C49.4556 69.9055 48.1692 70.2205 46.9041 70.5403L47.3942 72.4793ZM51.2245 69.5953C37.7532 66.3988 26.5634 62.6953 18.2246 58.6359C9.83866 54.5536 4.52368 50.2005 2.51743 45.8106L0.698393 46.6419C3.00891 51.6975 8.87665 56.3097 17.3493 60.4342C25.869 64.5816 37.2137 68.3264 50.7627 71.5413L51.2245 69.5953ZM0.60791 46.2262L0.607913 94.9104H2.60791L2.60791 46.2262H0.60791ZM2.51743 95.3261C2.59549 95.1553 2.67863 94.9844 2.76687 94.8133L0.989565 93.8962C0.887052 94.0948 0.789965 94.2944 0.698397 94.4947L2.51743 95.3261ZM1.41965 95.2434L1.86397 95.4727L2.78112 93.6954L2.33679 93.4661L1.41965 95.2434ZM1.86397 95.4727L2.3083 95.702L3.22545 93.9247L2.78112 93.6954L1.86397 95.4727ZM1.87822 94.3548C1.04078 95.9776 0.609204 97.6297 0.607913 99.3052L2.60791 99.3068C2.60893 97.9862 2.94651 96.6459 3.65553 95.2719L1.87822 94.3548ZM0.607913 99.3056L0.60791 99.3124L2.60791 99.3131L2.60791 99.3064L0.607913 99.3056ZM0.60791 99.3131L0.607913 99.3199L2.60791 99.3191L2.60791 99.3124L0.60791 99.3131ZM0.607913 99.3203C0.608147 99.6239 0.622515 99.9272 0.651019 100.23L2.64224 100.043C2.61952 99.8016 2.6081 99.5601 2.60791 99.3188L0.607913 99.3203ZM0.651019 100.23C0.656795 100.292 0.663151 100.353 0.670086 100.415L2.65745 100.19C2.65191 100.141 2.64684 100.092 2.64224 100.043L0.651019 100.23ZM5.67007 106.248C3.83219 104.147 2.87668 102.126 2.65742 100.19L0.670116 100.415C0.9472 102.862 2.13906 105.249 4.16487 107.565L5.67007 106.248ZM15.3348 113.501C11.0199 111.115 7.79528 108.677 5.67007 106.248L4.16487 107.565C6.4972 110.23 9.93702 112.802 14.367 115.251L15.3348 113.501ZM52.3452 126.32C36.5813 122.633 23.9633 118.272 15.3348 113.501L14.367 115.251C23.2269 120.15 36.0474 124.562 51.8897 128.267L52.3452 126.32ZM175.695 138.261C127.453 138.261 83.841 133.686 52.3452 126.32L51.8897 128.267C83.5744 135.678 127.346 140.261 175.695 140.261V138.261ZM299.046 126.32C267.55 133.686 223.938 138.261 175.695 138.261V140.261C224.045 140.261 267.816 135.678 299.501 128.267L299.046 126.32ZM336.056 113.501C327.428 118.272 314.809 122.633 299.046 126.32L299.501 128.267C315.343 124.562 328.164 120.15 337.024 115.251L336.056 113.501ZM345.721 106.248C343.596 108.677 340.371 111.115 336.056 113.501L337.024 115.251C341.454 112.802 344.894 110.23 347.226 107.565L345.721 106.248ZM348.757 99.9508C348.591 101.961 347.634 104.061 345.721 106.248L347.226 107.565C349.335 105.154 350.54 102.666 350.75 100.115L348.757 99.9508ZM343.018 87.8294L343.314 87.4259L341.7 86.2446L341.405 86.6481L343.018 87.8294ZM342.723 88.2328L343.018 87.8293L341.405 86.6482L341.109 87.0517L342.723 88.2328ZM332.696 83.3836C336.091 85.0344 338.975 86.7286 341.326 88.4492L342.507 86.8353C340.037 85.0273 337.044 83.2739 333.57 81.5849L332.696 83.3836ZM332.452 81.5973L332.233 82.0469L334.032 82.9215L334.251 82.4719L332.452 81.5973ZM332.671 81.1477L332.452 81.5973L334.251 82.4718L334.469 82.0222L332.671 81.1477ZM343.097 86.0283C340.567 84.1767 337.52 82.3937 334.007 80.6856L333.133 82.4842C336.567 84.1542 339.506 85.878 341.916 87.6422L343.097 86.0283ZM313.949 75.2279C317.427 76.2787 320.686 77.3693 323.712 78.4958L324.409 76.6214C321.339 75.4786 318.04 74.3748 314.528 73.3134L313.949 75.2279ZM315.051 75.0385L315.196 74.5599L313.281 73.9814L313.136 74.46L315.051 75.0385ZM314.906 75.5172L315.051 75.0386L313.136 74.46L312.992 74.9386L314.906 75.5172ZM324.06 77.5586C321.013 76.424 317.733 75.3268 314.238 74.2707L313.66 76.1852C317.12 77.2307 320.359 78.3147 323.363 79.4329L324.06 77.5586ZM322.949 77.6783L322.774 78.1469L324.649 78.8446L324.823 78.3761L322.949 77.6783ZM323.123 77.2097L322.949 77.6783L324.823 78.3761L324.998 77.9075L323.123 77.2097ZM284.896 67.8091L284.987 67.3174L283.02 66.9548L282.929 67.4465L284.896 67.8091ZM284.805 68.3008L284.896 67.8091L282.929 67.4465L282.838 67.9382L284.805 68.3008ZM273.453 67.3602C276.942 67.913 280.34 68.4944 283.641 69.1029L284.003 67.1361C280.686 66.5244 277.271 65.9402 273.766 65.3848L273.453 67.3602ZM272.7 65.7222L272.622 66.216L274.597 66.529L274.675 66.0352L272.7 65.7222ZM272.778 65.2284L272.7 65.7223L274.675 66.0351L274.753 65.5413L272.778 65.2284ZM284.185 66.1527C280.858 65.5394 277.435 64.9537 273.922 64.3972L273.609 66.3725C277.107 66.9266 280.513 67.5094 283.822 68.1195L284.185 66.1527ZM264.462 64.5123L264.53 64.0169L262.548 63.7476L262.48 64.243L264.462 64.5123ZM264.395 65.0078L264.462 64.5124L262.481 64.243L262.413 64.7384L264.395 65.0078ZM253.022 64.5764C256.506 64.9797 259.923 65.4092 263.269 65.864L263.539 63.8822C260.179 63.4256 256.748 62.9944 253.252 62.5897L253.022 64.5764ZM252.201 62.9714L252.143 63.4681L254.13 63.698L254.188 63.2013L252.201 62.9714ZM252.258 62.4747L252.201 62.9714L254.188 63.2014L254.245 62.7047L252.258 62.4747ZM263.673 62.8913C260.307 62.4338 256.87 62.0018 253.367 61.5963L253.137 63.583C256.627 63.987 260.051 64.4174 263.404 64.8731L263.673 62.8913ZM243.89 62.0871L243.938 61.5895L241.948 61.3956L241.899 61.8933L243.89 62.0871ZM243.841 62.5848L243.89 62.0871L241.899 61.8933L241.851 62.391L243.841 62.5848ZM232.475 62.571C235.951 62.8505 239.377 63.1548 242.749 63.4832L242.943 61.4926C239.56 61.1631 236.122 60.8578 232.635 60.5775L232.475 62.571ZM231.599 60.9957L231.559 61.4941L233.552 61.6544L233.592 61.156L231.599 60.9957ZM231.639 60.4974L231.599 60.9957L233.592 61.156L233.632 60.6576L231.639 60.4974ZM243.04 60.4973C239.651 60.1673 236.208 59.8614 232.716 59.5807L232.555 61.5742C236.037 61.8541 239.468 62.159 242.846 62.4879L243.04 60.4973ZM223.266 60.3932L223.298 59.8942L221.303 59.7657L221.27 60.2646L223.266 60.3932ZM223.234 60.8922L223.266 60.3932L221.27 60.2646L221.238 60.7636L223.234 60.8922ZM211.849 61.2397C215.329 61.4111 218.772 61.6067 222.172 61.8258L222.3 59.8299C218.89 59.6102 215.438 59.414 211.947 59.2422L211.849 61.2397ZM210.924 59.6924L210.899 60.1918L212.897 60.2901L212.921 59.7907L210.924 59.6924ZM210.948 59.193L210.924 59.6924L212.921 59.7907L212.946 59.2913L210.948 59.193ZM222.365 58.832C218.949 58.612 215.492 58.4155 211.996 58.2434L211.898 60.241C215.384 60.4126 218.831 60.6085 222.236 60.8279L222.365 58.832ZM202.577 59.3426L202.594 58.8429L200.595 58.7736L200.578 59.2733L202.577 59.3426ZM202.559 59.8423L202.577 59.3426L200.578 59.2733L200.561 59.773L202.559 59.8423ZM191.205 60.5222C194.675 60.5937 198.116 60.6888 201.525 60.807L201.595 58.8082C198.176 58.6897 194.726 58.5943 191.246 58.5226L191.205 60.5222ZM190.236 59.0019L190.225 59.5018L192.225 59.543L192.235 59.0431L190.236 59.0019ZM190.246 58.5021L190.236 59.002L192.235 59.0431L192.246 58.5432L190.246 58.5021ZM201.629 57.8088C198.206 57.6901 194.751 57.5946 191.266 57.5229L191.225 59.5224C194.7 59.594 198.146 59.6893 201.56 59.8076L201.629 57.8088ZM181.886 58.8878L181.889 58.3878L179.889 58.3742L179.886 58.8742L181.886 58.8878ZM181.882 59.3878L181.886 58.8878L179.886 58.8742L179.882 59.3742L181.882 59.3878ZM175.696 60.3633C177.428 60.3633 179.155 60.3693 180.875 60.381L180.889 58.381C179.164 58.3693 177.433 58.3633 175.696 58.3633V60.3633ZM170.516 60.381C172.236 60.3693 173.963 60.3633 175.696 60.3633V58.3633C173.958 58.3633 172.227 58.3693 170.502 58.381L170.516 60.381ZM169.506 58.8878L169.509 59.3878L171.509 59.3742L171.506 58.8742L169.506 58.8878ZM169.502 58.3878L169.506 58.8878L171.506 58.8742L171.502 58.3742L169.502 58.3878ZM175.696 57.3633C173.956 57.3633 172.223 57.3693 170.495 57.381L170.509 59.381C172.232 59.3693 173.961 59.3633 175.696 59.3633V57.3633ZM180.896 57.381C179.169 57.3693 177.435 57.3633 175.696 57.3633V59.3633C177.431 59.3633 179.16 59.3693 180.882 59.381L180.896 57.381ZM161.156 59.002L161.145 58.5021L159.146 58.5432L159.156 59.0431L161.156 59.002ZM161.166 59.5019L161.156 59.002L159.156 59.0431L159.166 59.543L161.166 59.5019ZM149.866 60.807C153.275 60.6888 156.716 60.5937 160.187 60.5222L160.145 58.5226C156.666 58.5943 153.215 58.6897 149.797 58.8082L149.866 60.807ZM148.815 59.3426L148.832 59.8423L150.831 59.773L150.813 59.2733L148.815 59.3426ZM148.797 58.8429L148.815 59.3426L150.813 59.2733L150.796 58.7736L148.797 58.8429ZM160.125 57.5229C156.64 57.5946 153.185 57.6901 149.762 57.8088L149.831 59.8076C153.245 59.6893 156.691 59.594 160.166 59.5224L160.125 57.5229ZM140.467 59.6924L140.443 59.193L138.445 59.2914L138.47 59.7907L140.467 59.6924ZM140.492 60.1918L140.467 59.6924L138.47 59.7907L138.494 60.2901L140.492 60.1918ZM129.219 61.8258C132.62 61.6067 136.062 61.4111 139.542 61.2397L139.444 59.2422C135.954 59.414 132.501 59.6102 129.091 59.8299L129.219 61.8258ZM128.125 60.3932L128.157 60.8921L130.153 60.7636L130.121 60.2646L128.125 60.3932ZM128.093 59.8942L128.125 60.3932L130.121 60.2646L130.089 59.7656L128.093 59.8942ZM139.395 58.2434C135.899 58.4155 132.442 58.612 129.027 58.832L129.155 60.8279C132.561 60.6085 136.008 60.4126 139.493 60.241L139.395 58.2434ZM119.793 60.9957L119.753 60.4973L117.759 60.6576L117.799 61.156L119.793 60.9957ZM119.833 61.4941L119.793 60.9957L117.799 61.156L117.839 61.6544L119.833 61.4941ZM108.642 63.4832C112.014 63.1548 115.44 62.8505 118.916 62.571L118.756 60.5775C115.269 60.8578 111.832 61.1631 108.448 61.4926L108.642 63.4832ZM107.501 62.0871L107.55 62.5848L109.54 62.3909L109.492 61.8933L107.501 62.0871ZM107.453 61.5895L107.501 62.0871L109.492 61.8933L109.444 61.3956L107.453 61.5895ZM118.676 59.5807C115.183 59.8614 111.741 60.1673 108.351 60.4973L108.545 62.4879C111.923 62.159 115.355 61.8541 118.836 61.5742L118.676 59.5807ZM99.1903 62.9714L99.1328 62.4747L97.1461 62.7047L97.2036 63.2013L99.1903 62.9714ZM99.2478 63.4681L99.1903 62.9714L97.2036 63.2013L97.2611 63.698L99.2478 63.4681ZM88.1219 65.864C91.4681 65.4092 94.8855 64.9797 98.3694 64.5764L98.1395 62.5897C94.6428 62.9944 91.2122 63.4256 87.8525 63.8822L88.1219 65.864ZM86.929 64.5123L86.9963 65.0078L88.9781 64.7384L88.9107 64.243L86.929 64.5123ZM86.8616 64.0169L86.929 64.5123L88.9107 64.243L88.8434 63.7476L86.8616 64.0169ZM98.0245 61.5963C94.5214 62.0018 91.0843 62.4338 87.7178 62.8913L87.9872 64.8731C91.3401 64.4174 94.7642 63.987 98.2544 63.583L98.0245 61.5963ZM78.6914 65.7222L78.6132 65.2284L76.6378 65.5413L76.7161 66.0352L78.6914 65.7222ZM78.7697 66.2161L78.6914 65.7222L76.7161 66.0352L76.7943 66.529L78.7697 66.2161ZM67.7507 69.1029C71.0511 68.4944 74.4491 67.913 77.9385 67.3602L77.6255 65.3848C74.1203 65.9402 70.7057 66.5244 67.388 67.1361L67.7507 69.1029ZM66.4953 67.8091L66.5859 68.3008L68.5528 67.9382L68.4621 67.4465L66.4953 67.8091ZM66.4046 67.3174L66.4952 67.8091L68.4621 67.4465L68.3715 66.9548L66.4046 67.3174ZM77.469 64.3972C73.9559 64.9537 70.533 65.5394 67.2067 66.1527L67.5693 68.1195C70.8784 67.5094 74.2847 66.9266 77.782 66.3725L77.469 64.3972ZM38.2548 74.46L38.1102 73.9814L36.1957 74.5599L36.3403 75.0385L38.2548 74.46ZM38.3995 74.9386L38.2548 74.46L36.3403 75.0385L36.485 75.5172L38.3995 74.9386ZM28.0286 79.4329C31.0324 78.3147 34.2715 77.2307 37.7315 76.1852L37.1529 74.2707C33.6579 75.3268 30.3787 76.424 27.3308 77.5586L28.0286 79.4329ZM26.5681 78.3761L26.7425 78.8446L28.6169 78.1469L28.4424 77.6783L26.5681 78.3761ZM26.3937 77.9075L26.5681 78.3761L28.4424 77.6783L28.268 77.2097L26.3937 77.9075ZM36.8637 73.3134C33.3511 74.3748 30.0518 75.4786 26.9819 76.6214L27.6797 78.4958C30.7056 77.3693 33.9647 76.2787 37.4422 75.2279L36.8637 73.3134ZM18.9391 81.5973L18.7205 81.1476L16.9218 82.0222L17.1405 82.4719L18.9391 81.5973ZM19.1577 82.047L18.9391 81.5973L17.1405 82.4719L17.3591 82.9215L19.1577 82.047ZM10.0656 88.4492C12.4165 86.7286 15.3006 85.0344 18.6957 83.3836L17.8211 81.5849C14.3475 83.2739 11.3547 85.0273 8.88443 86.8353L10.0656 88.4492ZM8.37278 87.8294L8.66808 88.2328L10.282 87.0516L9.9867 86.6482L8.37278 87.8294ZM8.07748 87.4259L8.37278 87.8294L9.9867 86.6482L9.6914 86.2447L8.07748 87.4259ZM17.3838 80.6856C13.8709 82.3937 10.8238 84.1767 8.29383 86.0283L9.47504 87.6422C11.8856 85.878 14.824 84.1542 18.2584 82.4842L17.3838 80.6856Z" fill="white" mask="url(#path-2-inside-1)"/>
</svg>
