<svg width="447" height="164" viewBox="0 0 447 164" fill="none" xmlns="http://www.w3.org/2000/svg">
<path opacity="0.7" fill-rule="evenodd" clip-rule="evenodd" d="M223.579 1.53302C346.106 1.53302 445.567 24.6299 446.708 53.2232L446.726 61.6651V110.374H446.708C445.569 138.967 346.107 162.065 223.579 162.065C101.052 162.065 1.58982 138.967 0.45032 110.374H0.440432L0.440432 109.885C0.44043 109.882 0.44043 109.88 0.44043 109.877C0.44043 109.875 0.44043 109.872 0.440432 109.87L0.44043 62.1633L0.44043 61.6651L0.450354 53.2232C1.59184 24.6299 101.053 1.53302 223.579 1.53302Z" fill="#161616"/>
<mask id="path-2-inside-1" fill="white">
<path fill-rule="evenodd" clip-rule="evenodd" d="M445.708 52.1171H445.648V53.8642C445.33 56.7355 443.929 59.6041 441.432 62.4572C438.563 65.7361 434.287 68.9467 428.699 72.0367C417.523 78.2164 401.286 83.8137 381.135 88.5266C340.849 97.9486 285.144 103.786 223.579 103.786C162.015 103.786 106.31 97.9486 66.024 88.5266C45.8732 83.8137 29.6354 78.2164 18.4597 72.0367C12.8715 68.9467 8.59528 65.7361 5.72642 62.4572C2.86343 59.185 1.44063 55.8924 1.44043 52.5988V52.5981V52.5974C1.44063 49.3038 2.86343 46.0111 5.72642 42.7389C8.59528 39.46 12.8715 36.2494 18.4597 33.1594C29.6354 26.9798 45.8732 21.3825 66.024 16.6696C106.31 7.24756 162.015 1.41046 223.579 1.41046C285.144 1.41046 340.849 7.24756 381.135 16.6696C401.286 21.3825 417.523 26.9798 428.699 33.1594C434.287 36.2494 438.563 39.46 441.432 42.7389C444.156 45.8521 445.576 48.9837 445.708 52.1171ZM223.579 104.786C107.515 104.786 12.1476 84.0609 1.44043 57.5713L1.44043 106.06L1.84808 106.219L2.31356 106.402C1.73339 107.881 1.44144 109.366 1.44043 110.857L1.44043 110.865L1.44043 110.873C1.44088 111.531 1.49805 112.189 1.61173 112.845C2.0684 115.477 3.43684 118.107 5.72603 120.723C8.59488 124.002 12.8711 127.212 18.4593 130.302C29.635 136.482 45.8728 142.079 66.0237 146.792C106.309 156.214 162.014 162.051 223.579 162.051C285.144 162.051 340.849 156.214 381.134 146.792C401.285 142.079 417.523 136.482 428.699 130.302C434.287 127.212 438.563 124.002 441.432 120.723C444.151 117.615 445.571 114.489 445.707 111.361H445.708C445.71 111.311 445.712 111.261 445.713 111.21H445.648V109.598C445.53 108.529 445.262 107.464 444.845 106.402L445.311 106.22L445.648 106.087V57.7418C434.602 84.1498 339.394 104.786 223.579 104.786ZM445.775 115.693L445.776 115.693C446.4 114.103 446.718 112.493 446.718 110.865C446.718 110.423 446.695 109.983 446.648 109.544V53.9194C446.695 53.4803 446.718 53.0398 446.718 52.5981C446.718 23.7756 346.816 0.410461 223.579 0.410461C101.029 0.410461 1.55383 23.5161 0.449711 52.1171H0.44043V52.5981L0.440432 110.857L0.44043 110.865L0.440432 110.873L0.440432 111.21H0.445218C0.446609 111.261 0.448304 111.311 0.450301 111.361H0.449951C0.500643 112.631 0.74543 113.891 1.17769 115.138C1.20978 115.231 1.2429 115.323 1.27705 115.416C1.3112 115.508 1.34638 115.601 1.38259 115.693L1.38263 115.693C2.44656 118.405 4.39772 121.057 7.16762 123.633L7.16726 123.633C9.32409 125.639 11.9774 127.599 15.0948 129.505L15.0952 129.504C17.6923 131.092 20.6115 132.643 23.8341 134.152L23.8338 134.153C26.6553 135.474 29.7094 136.763 32.9836 138.018L32.9839 138.017C35.9122 139.139 39.0165 140.233 42.2878 141.297L42.2876 141.298C45.3167 142.283 48.489 143.243 51.7974 144.175L51.7976 144.174C54.8638 145.038 58.0469 145.878 61.3412 146.694L61.341 146.695C64.459 147.467 67.6767 148.217 70.9892 148.943L70.9894 148.942C74.1435 149.634 77.3835 150.304 80.7054 150.953L80.7052 150.954C83.8806 151.573 87.1309 152.173 90.4522 152.751L90.4524 152.75C93.6406 153.305 96.8945 153.841 100.211 154.357L100.21 154.358C103.417 154.856 106.682 155.336 110.002 155.796L110.002 155.795C113.223 156.241 116.496 156.669 119.819 157.078L119.819 157.079C123.052 157.477 126.331 157.857 129.655 158.218L129.655 158.217C132.898 158.569 136.183 158.904 139.508 159.221L139.508 159.222C142.759 159.531 146.049 159.823 149.374 160.097L149.374 160.096C152.633 160.365 155.926 160.616 159.251 160.85L159.251 160.851C162.516 161.081 165.812 161.293 169.138 161.488L169.138 161.487C172.409 161.679 175.708 161.854 179.033 162.011L179.033 162.012C182.305 162.167 185.603 162.306 188.925 162.427L188.925 162.426C192.199 162.545 195.496 162.648 198.815 162.734L198.815 162.735C202.093 162.819 205.392 162.887 208.711 162.938L208.711 162.937C211.992 162.988 215.292 163.022 218.611 163.039V163.04C220.263 163.048 221.919 163.053 223.579 163.053C225.24 163.053 226.896 163.048 228.548 163.04V163.039C231.866 163.022 235.167 162.988 238.448 162.937L238.448 162.938C241.767 162.887 245.066 162.819 248.343 162.735L248.343 162.734C251.663 162.648 254.96 162.545 258.234 162.426L258.234 162.427C261.556 162.306 264.854 162.167 268.125 162.012L268.125 162.011C271.451 161.854 274.75 161.679 278.02 161.487L278.02 161.488C281.346 161.293 284.643 161.081 287.907 160.851L287.907 160.85C291.233 160.616 294.526 160.365 297.785 160.096L297.785 160.097C301.11 159.823 304.4 159.531 307.651 159.222L307.651 159.22C310.976 158.904 314.261 158.569 317.503 158.217L317.503 158.218C320.828 157.857 324.107 157.477 327.34 157.079L327.34 157.078C330.663 156.669 333.936 156.241 337.157 155.795L337.157 155.796C340.477 155.336 343.742 154.856 346.948 154.358L346.948 154.356C350.264 153.841 353.518 153.305 356.706 152.75L356.707 152.751C360.028 152.173 363.278 151.573 366.454 150.954L366.453 150.952C369.775 150.304 373.015 149.634 376.169 148.942L376.17 148.943C379.482 148.217 382.7 147.467 385.818 146.695L385.818 146.694C389.112 145.878 392.295 145.038 395.361 144.174L395.361 144.175C398.67 143.243 401.842 142.283 404.871 141.298L404.871 141.297C408.142 140.233 411.246 139.139 414.175 138.017L414.175 138.018C417.449 136.763 420.503 135.474 423.325 134.153L423.324 134.152C426.547 132.643 429.466 131.092 432.063 129.504L432.064 129.505C435.181 127.599 437.835 125.639 439.991 123.633L439.991 123.632C442.761 121.057 444.712 118.405 445.775 115.693ZM439.991 98.0965L439.651 98.4627L439.31 98.8288C437.214 96.8786 434.617 94.9579 431.542 93.0779L431.803 92.6513L432.064 92.2247C435.181 94.1308 437.835 96.0906 439.991 98.0965ZM423.325 87.5771C420.503 86.2559 417.449 84.9666 414.175 83.7121L413.996 84.179L413.817 84.6459C417.072 85.8929 420.104 87.1729 422.901 88.4827L423.113 88.0299L423.325 87.5771ZM404.871 80.432L404.717 80.9075L404.562 81.383C401.546 80.4021 398.387 79.4463 395.09 78.5174L395.226 78.0362L395.361 77.5549C398.67 78.4871 401.842 79.4467 404.871 80.432ZM385.818 75.0348L385.698 75.5201L385.577 76.0055C382.469 75.2358 379.26 74.488 375.955 73.7635L376.062 73.2751L376.17 72.7867C379.482 73.5131 382.7 74.2628 385.818 75.0348ZM366.454 70.7763L366.358 71.267L366.262 71.7578C363.094 71.1394 359.85 70.5412 356.535 69.9639L356.621 69.4713L356.707 68.9787C360.028 69.5571 363.278 70.1566 366.454 70.7763ZM346.948 67.3722L346.871 67.8663L346.795 68.3604C343.594 67.8627 340.334 67.3839 337.02 66.9246L337.088 66.4293L337.157 65.934C340.477 66.3941 343.742 66.8737 346.948 67.3722ZM327.34 64.6509L327.279 65.1471L327.218 65.6434C323.99 65.2461 320.715 64.8668 317.395 64.506L317.449 64.009L317.503 63.5119C320.828 63.8732 324.107 64.253 327.34 64.6509ZM307.651 62.5082L307.603 63.006L307.556 63.5037C304.309 63.1946 301.024 62.9029 297.703 62.6291L297.744 62.1308L297.785 61.6325C301.11 61.9067 304.4 62.1987 307.651 62.5082ZM287.907 60.8786L287.872 61.3774L287.837 61.8761C284.576 61.6469 281.284 61.4347 277.962 61.2399L277.991 60.7407L278.02 60.2416C281.346 60.4366 284.643 60.6491 287.907 60.8786ZM268.125 59.7174L268.102 60.2168L268.078 60.7162C264.81 60.5614 261.516 60.4232 258.197 60.3022L258.216 59.8026L258.234 59.3029C261.556 59.424 264.854 59.5623 268.125 59.7174ZM248.344 58.9951L248.331 59.4949L248.318 59.9947C245.044 59.9102 241.748 59.8422 238.433 59.7912L238.44 59.2913L238.448 58.7913C241.767 58.8424 245.066 58.9104 248.344 58.9951ZM228.548 58.69L228.545 59.19L228.543 59.69C226.893 59.6815 225.238 59.6773 223.579 59.6773C221.921 59.6773 220.266 59.6815 218.616 59.69L218.613 59.19L218.611 58.69C220.263 58.6815 221.919 58.6773 223.579 58.6773C225.24 58.6773 226.896 58.6815 228.548 58.69ZM208.711 58.7913L208.719 59.2913L208.726 59.7912C205.411 59.8422 202.115 59.9102 198.841 59.9947L198.828 59.4949L198.815 58.9951C202.093 58.9104 205.392 58.8424 208.711 58.7913ZM188.925 59.3029L188.943 59.8026L188.961 60.3022C185.643 60.4232 182.349 60.5614 179.081 60.7162L179.057 60.2168L179.033 59.7174C182.305 59.5623 185.603 59.424 188.925 59.3029ZM169.138 60.2416L169.168 60.7407L169.197 61.2399C165.875 61.4347 162.582 61.6469 159.321 61.8761L159.286 61.3774L159.251 60.8786C162.516 60.6491 165.812 60.4366 169.138 60.2416ZM149.374 61.6325L149.415 62.1308L149.456 62.6291C146.135 62.9029 142.85 63.1946 139.603 63.5037L139.555 63.006L139.508 62.5082C142.759 62.1987 146.049 61.9067 149.374 61.6325ZM129.655 63.5119L129.709 64.009L129.763 64.5061C126.444 64.8668 123.169 65.2461 119.941 65.6434L119.88 65.1471L119.819 64.6509C123.052 64.253 126.331 63.8732 129.655 63.5119ZM110.002 65.934L110.071 66.4293L110.139 66.9246C106.824 67.3839 103.565 67.8627 100.364 68.3604L100.287 67.8663L100.21 67.3722C103.417 66.8737 106.682 66.3941 110.002 65.934ZM90.4522 68.9787L90.538 69.4713L90.6238 69.9639C87.3088 70.5412 84.0652 71.1394 80.8967 71.7578L80.8009 71.267L80.7051 70.7763C83.8806 70.1566 87.1308 69.5571 90.4522 68.9787ZM70.9892 72.7867L71.0963 73.2751L71.2034 73.7635C67.8991 74.488 64.6902 75.2358 61.5813 76.0055L61.4611 75.5202L61.341 75.0348C64.459 74.2628 67.6767 73.5131 70.9892 72.7867ZM51.7974 77.5549L51.933 78.0362L52.0686 78.5174C48.7719 79.4463 45.6124 80.4021 42.5969 81.383L42.4422 80.9075L42.2876 80.432C45.3167 79.4467 48.489 78.4871 51.7974 77.5549ZM32.9836 83.7121L33.1625 84.179L33.3413 84.6459C30.0867 85.8929 27.055 87.1729 24.2579 88.4827L24.0458 88.0299L23.8338 87.5771C26.6553 86.2559 29.7094 84.9666 32.9836 83.7121ZM15.0949 92.2247L15.3557 92.6513L15.6165 93.0779C12.5418 94.9579 9.94528 96.8785 7.8483 98.8288L7.50778 98.4627L7.16727 98.0965C9.3241 96.0906 11.9774 94.1308 15.0949 92.2247Z"/>
</mask>
<path fill-rule="evenodd" clip-rule="evenodd" d="M445.708 52.1171H445.648V53.8642C445.33 56.7355 443.929 59.6041 441.432 62.4572C438.563 65.7361 434.287 68.9467 428.699 72.0367C417.523 78.2164 401.286 83.8137 381.135 88.5266C340.849 97.9486 285.144 103.786 223.579 103.786C162.015 103.786 106.31 97.9486 66.024 88.5266C45.8732 83.8137 29.6354 78.2164 18.4597 72.0367C12.8715 68.9467 8.59528 65.7361 5.72642 62.4572C2.86343 59.185 1.44063 55.8924 1.44043 52.5988V52.5981V52.5974C1.44063 49.3038 2.86343 46.0111 5.72642 42.7389C8.59528 39.46 12.8715 36.2494 18.4597 33.1594C29.6354 26.9798 45.8732 21.3825 66.024 16.6696C106.31 7.24756 162.015 1.41046 223.579 1.41046C285.144 1.41046 340.849 7.24756 381.135 16.6696C401.286 21.3825 417.523 26.9798 428.699 33.1594C434.287 36.2494 438.563 39.46 441.432 42.7389C444.156 45.8521 445.576 48.9837 445.708 52.1171ZM223.579 104.786C107.515 104.786 12.1476 84.0609 1.44043 57.5713L1.44043 106.06L1.84808 106.219L2.31356 106.402C1.73339 107.881 1.44144 109.366 1.44043 110.857L1.44043 110.865L1.44043 110.873C1.44088 111.531 1.49805 112.189 1.61173 112.845C2.0684 115.477 3.43684 118.107 5.72603 120.723C8.59488 124.002 12.8711 127.212 18.4593 130.302C29.635 136.482 45.8728 142.079 66.0237 146.792C106.309 156.214 162.014 162.051 223.579 162.051C285.144 162.051 340.849 156.214 381.134 146.792C401.285 142.079 417.523 136.482 428.699 130.302C434.287 127.212 438.563 124.002 441.432 120.723C444.151 117.615 445.571 114.489 445.707 111.361H445.708C445.71 111.311 445.712 111.261 445.713 111.21H445.648V109.598C445.53 108.529 445.262 107.464 444.845 106.402L445.311 106.22L445.648 106.087V57.7418C434.602 84.1498 339.394 104.786 223.579 104.786ZM445.775 115.693L445.776 115.693C446.4 114.103 446.718 112.493 446.718 110.865C446.718 110.423 446.695 109.983 446.648 109.544V53.9194C446.695 53.4803 446.718 53.0398 446.718 52.5981C446.718 23.7756 346.816 0.410461 223.579 0.410461C101.029 0.410461 1.55383 23.5161 0.449711 52.1171H0.44043V52.5981L0.440432 110.857L0.44043 110.865L0.440432 110.873L0.440432 111.21H0.445218C0.446609 111.261 0.448304 111.311 0.450301 111.361H0.449951C0.500643 112.631 0.74543 113.891 1.17769 115.138C1.20978 115.231 1.2429 115.323 1.27705 115.416C1.3112 115.508 1.34638 115.601 1.38259 115.693L1.38263 115.693C2.44656 118.405 4.39772 121.057 7.16762 123.633L7.16726 123.633C9.32409 125.639 11.9774 127.599 15.0948 129.505L15.0952 129.504C17.6923 131.092 20.6115 132.643 23.8341 134.152L23.8338 134.153C26.6553 135.474 29.7094 136.763 32.9836 138.018L32.9839 138.017C35.9122 139.139 39.0165 140.233 42.2878 141.297L42.2876 141.298C45.3167 142.283 48.489 143.243 51.7974 144.175L51.7976 144.174C54.8638 145.038 58.0469 145.878 61.3412 146.694L61.341 146.695C64.459 147.467 67.6767 148.217 70.9892 148.943L70.9894 148.942C74.1435 149.634 77.3835 150.304 80.7054 150.953L80.7052 150.954C83.8806 151.573 87.1309 152.173 90.4522 152.751L90.4524 152.75C93.6406 153.305 96.8945 153.841 100.211 154.357L100.21 154.358C103.417 154.856 106.682 155.336 110.002 155.796L110.002 155.795C113.223 156.241 116.496 156.669 119.819 157.078L119.819 157.079C123.052 157.477 126.331 157.857 129.655 158.218L129.655 158.217C132.898 158.569 136.183 158.904 139.508 159.221L139.508 159.222C142.759 159.531 146.049 159.823 149.374 160.097L149.374 160.096C152.633 160.365 155.926 160.616 159.251 160.85L159.251 160.851C162.516 161.081 165.812 161.293 169.138 161.488L169.138 161.487C172.409 161.679 175.708 161.854 179.033 162.011L179.033 162.012C182.305 162.167 185.603 162.306 188.925 162.427L188.925 162.426C192.199 162.545 195.496 162.648 198.815 162.734L198.815 162.735C202.093 162.819 205.392 162.887 208.711 162.938L208.711 162.937C211.992 162.988 215.292 163.022 218.611 163.039V163.04C220.263 163.048 221.919 163.053 223.579 163.053C225.24 163.053 226.896 163.048 228.548 163.04V163.039C231.866 163.022 235.167 162.988 238.448 162.937L238.448 162.938C241.767 162.887 245.066 162.819 248.343 162.735L248.343 162.734C251.663 162.648 254.96 162.545 258.234 162.426L258.234 162.427C261.556 162.306 264.854 162.167 268.125 162.012L268.125 162.011C271.451 161.854 274.75 161.679 278.02 161.487L278.02 161.488C281.346 161.293 284.643 161.081 287.907 160.851L287.907 160.85C291.233 160.616 294.526 160.365 297.785 160.096L297.785 160.097C301.11 159.823 304.4 159.531 307.651 159.222L307.651 159.22C310.976 158.904 314.261 158.569 317.503 158.217L317.503 158.218C320.828 157.857 324.107 157.477 327.34 157.079L327.34 157.078C330.663 156.669 333.936 156.241 337.157 155.795L337.157 155.796C340.477 155.336 343.742 154.856 346.948 154.358L346.948 154.356C350.264 153.841 353.518 153.305 356.706 152.75L356.707 152.751C360.028 152.173 363.278 151.573 366.454 150.954L366.453 150.952C369.775 150.304 373.015 149.634 376.169 148.942L376.17 148.943C379.482 148.217 382.7 147.467 385.818 146.695L385.818 146.694C389.112 145.878 392.295 145.038 395.361 144.174L395.361 144.175C398.67 143.243 401.842 142.283 404.871 141.298L404.871 141.297C408.142 140.233 411.246 139.139 414.175 138.017L414.175 138.018C417.449 136.763 420.503 135.474 423.325 134.153L423.324 134.152C426.547 132.643 429.466 131.092 432.063 129.504L432.064 129.505C435.181 127.599 437.835 125.639 439.991 123.633L439.991 123.632C442.761 121.057 444.712 118.405 445.775 115.693ZM439.991 98.0965L439.651 98.4627L439.31 98.8288C437.214 96.8786 434.617 94.9579 431.542 93.0779L431.803 92.6513L432.064 92.2247C435.181 94.1308 437.835 96.0906 439.991 98.0965ZM423.325 87.5771C420.503 86.2559 417.449 84.9666 414.175 83.7121L413.996 84.179L413.817 84.6459C417.072 85.8929 420.104 87.1729 422.901 88.4827L423.113 88.0299L423.325 87.5771ZM404.871 80.432L404.717 80.9075L404.562 81.383C401.546 80.4021 398.387 79.4463 395.09 78.5174L395.226 78.0362L395.361 77.5549C398.67 78.4871 401.842 79.4467 404.871 80.432ZM385.818 75.0348L385.698 75.5201L385.577 76.0055C382.469 75.2358 379.26 74.488 375.955 73.7635L376.062 73.2751L376.17 72.7867C379.482 73.5131 382.7 74.2628 385.818 75.0348ZM366.454 70.7763L366.358 71.267L366.262 71.7578C363.094 71.1394 359.85 70.5412 356.535 69.9639L356.621 69.4713L356.707 68.9787C360.028 69.5571 363.278 70.1566 366.454 70.7763ZM346.948 67.3722L346.871 67.8663L346.795 68.3604C343.594 67.8627 340.334 67.3839 337.02 66.9246L337.088 66.4293L337.157 65.934C340.477 66.3941 343.742 66.8737 346.948 67.3722ZM327.34 64.6509L327.279 65.1471L327.218 65.6434C323.99 65.2461 320.715 64.8668 317.395 64.506L317.449 64.009L317.503 63.5119C320.828 63.8732 324.107 64.253 327.34 64.6509ZM307.651 62.5082L307.603 63.006L307.556 63.5037C304.309 63.1946 301.024 62.9029 297.703 62.6291L297.744 62.1308L297.785 61.6325C301.11 61.9067 304.4 62.1987 307.651 62.5082ZM287.907 60.8786L287.872 61.3774L287.837 61.8761C284.576 61.6469 281.284 61.4347 277.962 61.2399L277.991 60.7407L278.02 60.2416C281.346 60.4366 284.643 60.6491 287.907 60.8786ZM268.125 59.7174L268.102 60.2168L268.078 60.7162C264.81 60.5614 261.516 60.4232 258.197 60.3022L258.216 59.8026L258.234 59.3029C261.556 59.424 264.854 59.5623 268.125 59.7174ZM248.344 58.9951L248.331 59.4949L248.318 59.9947C245.044 59.9102 241.748 59.8422 238.433 59.7912L238.44 59.2913L238.448 58.7913C241.767 58.8424 245.066 58.9104 248.344 58.9951ZM228.548 58.69L228.545 59.19L228.543 59.69C226.893 59.6815 225.238 59.6773 223.579 59.6773C221.921 59.6773 220.266 59.6815 218.616 59.69L218.613 59.19L218.611 58.69C220.263 58.6815 221.919 58.6773 223.579 58.6773C225.24 58.6773 226.896 58.6815 228.548 58.69ZM208.711 58.7913L208.719 59.2913L208.726 59.7912C205.411 59.8422 202.115 59.9102 198.841 59.9947L198.828 59.4949L198.815 58.9951C202.093 58.9104 205.392 58.8424 208.711 58.7913ZM188.925 59.3029L188.943 59.8026L188.961 60.3022C185.643 60.4232 182.349 60.5614 179.081 60.7162L179.057 60.2168L179.033 59.7174C182.305 59.5623 185.603 59.424 188.925 59.3029ZM169.138 60.2416L169.168 60.7407L169.197 61.2399C165.875 61.4347 162.582 61.6469 159.321 61.8761L159.286 61.3774L159.251 60.8786C162.516 60.6491 165.812 60.4366 169.138 60.2416ZM149.374 61.6325L149.415 62.1308L149.456 62.6291C146.135 62.9029 142.85 63.1946 139.603 63.5037L139.555 63.006L139.508 62.5082C142.759 62.1987 146.049 61.9067 149.374 61.6325ZM129.655 63.5119L129.709 64.009L129.763 64.5061C126.444 64.8668 123.169 65.2461 119.941 65.6434L119.88 65.1471L119.819 64.6509C123.052 64.253 126.331 63.8732 129.655 63.5119ZM110.002 65.934L110.071 66.4293L110.139 66.9246C106.824 67.3839 103.565 67.8627 100.364 68.3604L100.287 67.8663L100.21 67.3722C103.417 66.8737 106.682 66.3941 110.002 65.934ZM90.4522 68.9787L90.538 69.4713L90.6238 69.9639C87.3088 70.5412 84.0652 71.1394 80.8967 71.7578L80.8009 71.267L80.7051 70.7763C83.8806 70.1566 87.1308 69.5571 90.4522 68.9787ZM70.9892 72.7867L71.0963 73.2751L71.2034 73.7635C67.8991 74.488 64.6902 75.2358 61.5813 76.0055L61.4611 75.5202L61.341 75.0348C64.459 74.2628 67.6767 73.5131 70.9892 72.7867ZM51.7974 77.5549L51.933 78.0362L52.0686 78.5174C48.7719 79.4463 45.6124 80.4021 42.5969 81.383L42.4422 80.9075L42.2876 80.432C45.3167 79.4467 48.489 78.4871 51.7974 77.5549ZM32.9836 83.7121L33.1625 84.179L33.3413 84.6459C30.0867 85.8929 27.055 87.1729 24.2579 88.4827L24.0458 88.0299L23.8338 87.5771C26.6553 86.2559 29.7094 84.9666 32.9836 83.7121ZM15.0949 92.2247L15.3557 92.6513L15.6165 93.0779C12.5418 94.9579 9.94528 96.8785 7.8483 98.8288L7.50778 98.4627L7.16727 98.0965C9.3241 96.0906 11.9774 94.1308 15.0949 92.2247Z" fill="white"/>
<path d="M445.648 52.1171V51.1171H444.648V52.1171H445.648ZM445.708 52.1171V53.1171H446.751L446.707 52.075L445.708 52.1171ZM445.648 53.8642L446.642 53.9744L446.648 53.9195V53.8642H445.648ZM441.432 62.4572L442.185 63.1157L441.432 62.4572ZM428.699 72.0367L429.183 72.9118H429.183L428.699 72.0367ZM381.135 88.5266L381.362 89.5003L381.135 88.5266ZM66.024 88.5266L65.7963 89.5003L66.024 88.5266ZM18.4597 72.0367L17.9758 72.9118L18.4597 72.0367ZM5.72642 62.4572L4.97382 63.1157H4.97382L5.72642 62.4572ZM1.44043 52.5988H0.44043L0.44043 52.5988L1.44043 52.5988ZM1.44043 52.5974L0.44043 52.5973V52.5974H1.44043ZM5.72642 42.7389L4.97382 42.0804H4.97382L5.72642 42.7389ZM18.4597 33.1594L17.9758 32.2843L18.4597 33.1594ZM66.024 16.6696L66.2518 17.6433L66.024 16.6696ZM381.135 16.6696L381.362 15.6959L381.135 16.6696ZM428.699 33.1594L429.183 32.2843H429.183L428.699 33.1594ZM441.432 42.7389L442.185 42.0804L441.432 42.7389ZM1.44043 57.5713L2.36756 57.1965L0.44043 57.5713H1.44043ZM1.44043 106.06H0.440432L0.440432 106.742L1.07529 106.991L1.44043 106.06ZM1.84808 106.219L1.48294 107.15H1.48295L1.84808 106.219ZM2.31356 106.402L3.24452 106.767L3.60965 105.836L2.67869 105.471L2.31356 106.402ZM1.44043 110.857L0.440432 110.856L0.440432 110.857L1.44043 110.857ZM1.44043 110.865L0.44043 110.865L0.44043 110.865L1.44043 110.865ZM1.44043 110.873L0.440432 110.873L0.440433 110.873L1.44043 110.873ZM1.61173 112.845L0.626413 113.015L0.626444 113.015L1.61173 112.845ZM5.72603 120.723L4.97343 121.381H4.97343L5.72603 120.723ZM18.4593 130.302L17.9754 131.178H17.9754L18.4593 130.302ZM66.0237 146.792L65.7959 147.766L66.0237 146.792ZM381.134 146.792L381.362 147.766L381.134 146.792ZM428.699 130.302L429.183 131.178H429.183L428.699 130.302ZM441.432 120.723L442.185 121.381L441.432 120.723ZM445.707 111.361V110.361H444.75L444.708 111.318L445.707 111.361ZM445.708 111.361V112.361H446.665L446.707 111.404L445.708 111.361ZM445.713 111.21L446.713 111.241L446.744 110.21H445.713V111.21ZM445.648 111.21H444.648V112.21H445.648V111.21ZM445.648 109.598H446.648V109.542L446.642 109.488L445.648 109.598ZM444.845 106.402L444.48 105.471L443.549 105.836L443.914 106.767L444.845 106.402ZM445.311 106.22L444.946 105.289L444.946 105.289L445.311 106.22ZM445.648 106.087L446.013 107.018L446.648 106.769V106.087H445.648ZM445.648 57.7418H446.648L444.726 57.3559L445.648 57.7418ZM445.775 115.693L446.135 114.759L445.207 114.402L444.844 115.327L445.775 115.693ZM445.776 115.693L445.417 116.626L446.344 116.983L446.707 116.058L445.776 115.693ZM446.648 109.544H445.648V109.597L445.654 109.649L446.648 109.544ZM446.648 53.9194L445.654 53.8138L445.648 53.8664V53.9194H446.648ZM0.449711 52.1171V53.1171H1.41185L1.44897 52.1556L0.449711 52.1171ZM0.44043 52.1171V51.1171H-0.55957V52.1171H0.44043ZM0.44043 52.5981H-0.55957H0.44043ZM0.440432 110.857L1.44043 110.857V110.857H0.440432ZM0.44043 110.865L-0.55957 110.865L-0.55957 110.865L0.44043 110.865ZM0.440432 110.873H1.44043L1.44043 110.873L0.440432 110.873ZM0.440432 111.21H-0.559568L-0.559568 112.21H0.440432V111.21ZM0.445218 111.21L1.44483 111.183L1.41788 110.21H0.445218V111.21ZM0.450301 111.361V112.361H1.4909L1.44951 111.321L0.450301 111.361ZM0.449951 111.361V110.361H-0.590746L-0.549254 111.401L0.449951 111.361ZM1.17769 115.138L2.12257 114.811L2.12255 114.811L1.17769 115.138ZM1.38259 115.693L0.451639 116.058L0.827031 117.015L1.77338 116.613L1.38259 115.693ZM1.38263 115.693L2.31356 115.328L1.93813 114.371L0.991846 114.772L1.38263 115.693ZM7.16762 123.633L7.90155 124.312L8.57914 123.58L7.84863 122.901L7.16762 123.633ZM7.16726 123.633L6.43333 122.954L5.75576 123.686L6.48623 124.366L7.16726 123.633ZM15.0948 129.505L14.5732 130.358L15.4227 130.878L15.9457 130.03L15.0948 129.505ZM15.0952 129.504L15.6169 128.651L14.7674 128.132L14.2443 128.979L15.0952 129.504ZM23.8341 134.152L24.7385 134.579L25.1666 133.672L24.2582 133.246L23.8341 134.152ZM23.8338 134.153L22.9294 133.726L22.5014 134.633L23.4097 135.058L23.8338 134.153ZM32.9836 138.018L32.6258 138.951L33.5607 139.31L33.9178 138.374L32.9836 138.018ZM32.9839 138.017L33.3417 137.083L32.4068 136.725L32.0497 137.66L32.9839 138.017ZM42.2878 141.297L43.2394 141.605L43.5464 140.655L42.5972 140.346L42.2878 141.297ZM42.2876 141.298L41.336 140.99L41.029 141.94L41.9782 142.249L42.2876 141.298ZM51.7974 144.175L51.5261 145.137L52.4873 145.408L52.7595 144.447L51.7974 144.175ZM51.7976 144.174L52.0688 143.211L51.1077 142.941L50.8355 143.901L51.7976 144.174ZM61.3412 146.694L62.3123 146.933L62.5508 145.963L61.5815 145.723L61.3412 146.694ZM61.341 146.695L60.3699 146.456L60.1314 147.426L61.1006 147.666L61.341 146.695ZM70.9892 148.943L70.775 149.92L71.7523 150.134L71.9661 149.157L70.9892 148.943ZM70.9894 148.942L71.2036 147.965L70.2263 147.751L70.0125 148.728L70.9894 148.942ZM80.7054 150.953L81.6865 151.146L81.8801 150.163L80.8969 149.971L80.7054 150.953ZM80.7052 150.954L79.724 150.76L79.5304 151.743L80.5136 151.935L80.7052 150.954ZM90.4522 152.751L90.2807 153.736L91.2657 153.908L91.4374 152.923L90.4522 152.751ZM90.4524 152.75L90.6239 151.765L89.6389 151.593L89.4672 152.578L90.4524 152.75ZM100.211 154.357L101.199 154.511L101.354 153.522L100.364 153.368L100.211 154.357ZM100.21 154.358L99.2225 154.203L99.0675 155.192L100.057 155.346L100.21 154.358ZM110.002 155.796L109.865 156.786L110.852 156.923L110.992 155.936L110.002 155.796ZM110.002 155.795L110.139 154.804L109.152 154.667L109.012 155.654L110.002 155.795ZM119.819 157.078L120.811 157.2L120.934 156.208L119.941 156.085L119.819 157.078ZM119.819 157.079L118.826 156.957L118.704 157.949L119.697 158.071L119.819 157.079ZM129.655 158.218L129.547 159.212L130.547 159.321L130.65 158.32L129.655 158.218ZM129.655 158.217L129.763 157.223L128.764 157.114L128.661 158.114L129.655 158.217ZM139.508 159.221L140.503 159.32L140.603 158.32L139.603 158.225L139.508 159.221ZM139.508 159.222L138.513 159.122L138.413 160.122L139.413 160.217L139.508 159.222ZM149.374 160.097L149.292 161.094L150.285 161.176L150.37 160.183L149.374 160.097ZM149.374 160.096L149.456 159.1L148.463 159.018L148.378 160.011L149.374 160.096ZM159.251 160.85L160.249 160.92L160.319 159.923L159.322 159.853L159.251 160.85ZM159.251 160.851L158.254 160.781L158.184 161.779L159.181 161.849L159.251 160.851ZM169.138 161.488L169.08 162.486L170.08 162.545L170.137 161.544L169.138 161.488ZM169.138 161.487L169.197 160.489L168.196 160.43L168.14 161.431L169.138 161.487ZM179.033 162.011L180.033 162.053L180.074 161.06L179.081 161.012L179.033 162.011ZM179.033 162.012L178.034 161.971L177.993 162.964L178.986 163.011L179.033 162.012ZM188.925 162.427L188.889 163.426L189.883 163.463L189.924 162.469L188.925 162.427ZM188.925 162.426L188.961 161.426L187.967 161.39L187.926 162.384L188.925 162.426ZM198.815 162.734L199.815 162.761L199.843 161.76L198.841 161.734L198.815 162.734ZM198.815 162.735L197.816 162.707L197.788 163.709L198.789 163.734L198.815 162.735ZM208.711 162.938L208.695 163.938L209.697 163.954L209.711 162.952L208.711 162.938ZM208.711 162.937L208.726 161.938L207.725 161.922L207.711 162.923L208.711 162.937ZM218.611 163.039H219.611V162.044L218.616 162.039L218.611 163.039ZM218.611 163.04H217.611V164.035L218.606 164.04L218.611 163.04ZM228.548 163.04L228.553 164.04L229.548 164.035V163.04H228.548ZM228.548 163.039L228.543 162.039L227.548 162.044V163.039H228.548ZM238.448 162.937L239.448 162.924L239.434 161.922L238.432 161.937L238.448 162.937ZM238.448 162.938L237.448 162.952L237.462 163.954L238.463 163.938L238.448 162.938ZM248.343 162.735L248.369 163.734L249.371 163.709L249.343 162.707L248.343 162.735ZM248.343 162.734L248.318 161.734L247.316 161.76L247.344 162.761L248.343 162.734ZM258.234 162.426L259.233 162.399L259.206 161.39L258.197 161.426L258.234 162.426ZM258.234 162.427L257.234 162.454L257.261 163.463L258.27 163.426L258.234 162.427ZM268.125 162.012L268.173 163.011L269.178 162.964L269.124 161.958L268.125 162.012ZM268.125 162.011L268.078 161.012L267.072 161.06L267.127 162.065L268.125 162.011ZM278.02 161.487L279.019 161.433L278.965 160.43L277.962 160.489L278.02 161.487ZM278.02 161.488L277.022 161.542L277.076 162.545L278.079 162.486L278.02 161.488ZM287.907 160.851L287.978 161.849L288.986 161.778L288.904 160.77L287.907 160.851ZM287.907 160.85L287.837 159.853L286.829 159.923L286.911 160.931L287.907 160.85ZM297.785 160.096L298.781 160.015L298.7 159.017L297.702 159.1L297.785 160.096ZM297.785 160.097L296.788 160.178L296.869 161.176L297.867 161.094L297.785 160.097ZM307.651 159.222L307.745 160.217L308.752 160.121L308.645 159.116L307.651 159.222ZM307.651 159.22L307.556 158.225L306.549 158.321L306.656 159.327L307.651 159.22ZM317.503 158.217L318.498 158.109L318.39 157.115L317.395 157.223L317.503 158.217ZM317.503 158.218L316.509 158.325L316.617 159.32L317.611 159.212L317.503 158.218ZM327.34 157.079L327.462 158.071L328.465 157.948L328.331 156.947L327.34 157.079ZM327.34 157.078L327.218 156.085L326.215 156.209L326.349 157.21L327.34 157.078ZM337.157 155.795L338.148 155.661L338.013 154.666L337.019 154.804L337.157 155.795ZM337.157 155.796L336.166 155.93L336.3 156.924L337.294 156.786L337.157 155.796ZM346.948 154.358L347.102 155.346L348.092 155.192L347.936 154.202L346.948 154.358ZM346.948 154.356L346.795 153.368L345.804 153.522L345.96 154.512L346.948 154.356ZM356.706 152.75L357.689 152.566L357.508 151.595L356.535 151.765L356.706 152.75ZM356.707 152.751L355.724 152.935L355.905 153.906L356.878 153.736L356.707 152.751ZM366.454 150.954L366.645 151.935L367.619 151.745L367.437 150.77L366.454 150.954ZM366.453 150.952L366.262 149.971L365.288 150.161L365.47 151.136L366.453 150.952ZM376.169 148.942L377.147 148.733L376.937 147.75L375.955 147.965L376.169 148.942ZM376.17 148.943L375.192 149.152L375.401 150.135L376.384 149.92L376.17 148.943ZM385.818 146.695L386.058 147.666L387.022 147.427L386.79 146.462L385.818 146.695ZM385.818 146.694L385.577 145.723L384.613 145.962L384.845 146.927L385.818 146.694ZM395.361 144.174L396.326 143.913L396.063 142.937L395.09 143.211L395.361 144.174ZM395.361 144.175L394.396 144.436L394.66 145.412L395.633 145.137L395.361 144.175ZM404.871 141.298L405.181 142.249L406.134 141.938L405.821 140.985L404.871 141.298ZM404.871 141.297L404.561 140.346L403.608 140.656L403.921 141.609L404.871 141.297ZM414.175 138.017L415.107 137.654L414.746 136.727L413.817 137.083L414.175 138.017ZM414.175 138.018L413.243 138.38L413.604 139.307L414.533 138.951L414.175 138.018ZM423.325 134.153L423.749 135.058L424.646 134.638L424.234 133.737L423.325 134.153ZM423.324 134.152L422.9 133.246L422.003 133.666L422.415 134.567L423.324 134.152ZM432.063 129.504L432.923 128.994L432.406 128.122L431.542 128.651L432.063 129.504ZM432.064 129.505L431.204 130.016L431.721 130.887L432.586 130.358L432.064 129.505ZM439.991 123.633L440.673 124.366L441.402 123.687L440.726 122.955L439.991 123.633ZM439.991 123.632L439.31 122.9L438.58 123.579L439.256 124.311L439.991 123.632ZM439.651 98.4627L438.919 97.7817V97.7817L439.651 98.4627ZM439.991 98.0965L440.724 98.7776L441.405 98.0453L440.673 97.3643L439.991 98.0965ZM439.31 98.8288L438.629 99.5611L439.362 100.242L440.043 99.5098L439.31 98.8288ZM431.542 93.0779L430.689 92.5563L430.167 93.4094L431.021 93.9311L431.542 93.0779ZM431.803 92.6513L430.95 92.1297L430.95 92.1297L431.803 92.6513ZM432.064 92.2247L432.586 91.3716L431.732 90.8499L431.211 91.7031L432.064 92.2247ZM414.175 83.7121L414.533 82.7783L413.599 82.4205L413.241 83.3543L414.175 83.7121ZM423.325 87.5771L424.231 88.0011L424.655 87.0955L423.749 86.6714L423.325 87.5771ZM413.817 84.6459L412.884 84.2881L412.526 85.222L413.46 85.5797L413.817 84.6459ZM422.901 88.4827L422.477 89.3883L423.382 89.8124L423.807 88.9068L422.901 88.4827ZM423.113 88.0299L424.019 88.454V88.454L423.113 88.0299ZM404.871 80.432L405.822 80.7413L406.131 79.7904L405.181 79.481L404.871 80.432ZM404.562 81.383L404.253 82.3339L405.203 82.6432L405.513 81.6923L404.562 81.383ZM395.09 78.5174L394.128 78.2462L393.856 79.2087L394.819 79.4799L395.09 78.5174ZM395.226 78.0362L394.263 77.7649V77.765L395.226 78.0362ZM395.361 77.5549L395.633 76.5924L394.67 76.3212L394.399 77.2837L395.361 77.5549ZM385.698 75.5201L384.727 75.2798L384.727 75.2799L385.698 75.5201ZM385.818 75.0348L386.788 75.2752L387.029 74.3045L386.058 74.0641L385.818 75.0348ZM385.577 76.0055L385.337 76.9762L386.308 77.2165L386.548 76.2458L385.577 76.0055ZM375.955 73.7635L374.979 73.5492L374.764 74.5261L375.741 74.7403L375.955 73.7635ZM376.062 73.2751L377.039 73.4893L377.039 73.4892L376.062 73.2751ZM376.17 72.7867L376.384 71.8099L375.407 71.5957L375.193 72.5725L376.17 72.7867ZM366.358 71.267L365.376 71.0754V71.0755L366.358 71.267ZM366.454 70.7763L367.435 70.9679L367.627 69.9864L366.645 69.7948L366.454 70.7763ZM366.262 71.7578L366.07 72.7393L367.052 72.9308L367.244 71.9493L366.262 71.7578ZM356.535 69.9639L355.55 69.7923L355.378 70.7775L356.363 70.9491L356.535 69.9639ZM356.621 69.4713L357.606 69.6429L356.621 69.4713ZM356.707 68.9787L356.878 67.9936L355.893 67.822L355.721 68.8072L356.707 68.9787ZM346.871 67.8663L347.86 68.0199L346.871 67.8663ZM346.948 67.3722L347.936 67.5259L348.09 66.5377L347.102 66.3841L346.948 67.3722ZM346.795 68.3604L346.641 69.3485L347.629 69.5021L347.783 68.514L346.795 68.3604ZM337.02 66.9246L336.029 66.7873L335.892 67.7778L336.882 67.9151L337.02 66.9246ZM337.088 66.4293L338.079 66.5666V66.5665L337.088 66.4293ZM337.157 65.934L337.294 64.9435L336.303 64.8062L336.166 65.7968L337.157 65.934ZM327.279 65.1471L326.286 65.0249L326.286 65.025L327.279 65.1471ZM327.34 64.6509L328.333 64.773L328.455 63.7805L327.462 63.6583L327.34 64.6509ZM327.218 65.6434L327.096 66.6359L328.088 66.758L328.21 65.7655L327.218 65.6434ZM317.395 64.506L316.401 64.398L316.293 65.3921L317.287 65.5002L317.395 64.506ZM317.449 64.009L318.444 64.117L317.449 64.009ZM317.503 63.5119L317.611 62.5178L316.617 62.4097L316.509 63.4039L317.503 63.5119ZM307.603 63.006L308.599 63.1008L307.603 63.006ZM307.651 62.5082L308.646 62.603L308.741 61.6075L307.746 61.5127L307.651 62.5082ZM307.556 63.5037L307.461 64.4992L308.457 64.594L308.551 63.5985L307.556 63.5037ZM297.703 62.6291L296.706 62.547L296.624 63.5436L297.62 63.6257L297.703 62.6291ZM297.785 61.6325L297.867 60.6359L296.87 60.5537L296.788 61.5503L297.785 61.6325ZM287.907 60.8786L288.905 60.9487L288.975 59.9512L287.978 59.8811L287.907 60.8786ZM287.837 61.8761L287.767 62.8737L288.765 62.9438L288.835 61.9463L287.837 61.8761ZM277.962 61.2399L276.964 61.1814L276.905 62.1796L277.903 62.2382L277.962 61.2399ZM277.991 60.7407L276.993 60.6822V60.6822L277.991 60.7407ZM278.02 60.2416L278.079 59.2433L277.081 59.1848L277.022 60.183L278.02 60.2416ZM268.102 60.2168L267.103 60.1694V60.1695L268.102 60.2168ZM268.125 59.7174L269.124 59.7647L269.172 58.7658L268.173 58.7185L268.125 59.7174ZM268.078 60.7162L268.031 61.7151L269.03 61.7624L269.077 60.7635L268.078 60.7162ZM258.197 60.3022L257.198 60.2658L257.162 61.2651L258.161 61.3016L258.197 60.3022ZM258.234 59.3029L258.27 58.3036L257.271 58.2671L257.234 59.2665L258.234 59.3029ZM248.331 59.4949L247.331 59.4691L248.331 59.4949ZM248.344 58.9951L249.343 59.0209L249.369 58.0212L248.369 57.9954L248.344 58.9951ZM248.318 59.9947L248.292 60.9944L249.292 61.0202L249.317 60.0205L248.318 59.9947ZM238.433 59.7912L237.433 59.7758L237.417 60.7757L238.417 60.7911L238.433 59.7912ZM238.44 59.2913L239.44 59.3066L238.44 59.2913ZM238.448 58.7913L238.463 57.7914L237.463 57.7761L237.448 58.7759L238.448 58.7913ZM228.545 59.19L229.545 59.1951V59.1951L228.545 59.19ZM228.548 58.69L229.548 58.6951L229.553 57.6951L228.553 57.69L228.548 58.69ZM228.543 59.69L228.538 60.69L229.538 60.6951L229.543 59.6951L228.543 59.69ZM218.616 59.69L217.616 59.6951L217.621 60.6951L218.621 60.69L218.616 59.69ZM218.613 59.19L217.613 59.1951V59.1951L218.613 59.19ZM218.611 58.69L218.606 57.69L217.606 57.6951L217.611 58.6951L218.611 58.69ZM208.719 59.2913L207.719 59.3066L208.719 59.2913ZM208.711 58.7913L209.711 58.7759L209.695 57.7761L208.696 57.7914L208.711 58.7913ZM208.726 59.7912L208.742 60.7911L209.742 60.7757L209.726 59.7758L208.726 59.7912ZM198.841 59.9947L197.841 60.0205L197.867 61.0202L198.867 60.9944L198.841 59.9947ZM198.828 59.4949L197.829 59.5207L198.828 59.4949ZM198.815 58.9951L198.789 57.9954L197.79 58.0212L197.816 59.0209L198.815 58.9951ZM188.943 59.8026L189.943 59.7661V59.7661L188.943 59.8026ZM188.925 59.3029L189.924 59.2664L189.888 58.2671L188.889 58.3036L188.925 59.3029ZM188.961 60.3022L188.998 61.3016L189.997 61.2651L189.961 60.2658L188.961 60.3022ZM179.081 60.7162L178.082 60.7636L178.129 61.7624L179.128 61.7151L179.081 60.7162ZM179.033 59.7174L178.986 58.7185L177.987 58.7658L178.035 59.7647L179.033 59.7174ZM169.168 60.7407L170.166 60.6822V60.6822L169.168 60.7407ZM169.138 60.2416L170.137 60.183L170.078 59.1848L169.08 59.2433L169.138 60.2416ZM169.197 61.2399L169.255 62.2382L170.254 62.1796L170.195 61.1814L169.197 61.2399ZM159.321 61.8761L158.324 61.9462L158.394 62.9438L159.392 62.8737L159.321 61.8761ZM159.286 61.3774L160.284 61.3073V61.3072L159.286 61.3774ZM159.251 60.8786L159.181 59.8811L158.184 59.9512L158.254 60.9487L159.251 60.8786ZM149.415 62.1308L150.412 62.0486V62.0486L149.415 62.1308ZM149.374 61.6325L150.371 61.5503L150.288 60.5537L149.292 60.6359L149.374 61.6325ZM149.456 62.6291L149.538 63.6257L150.535 63.5436L150.453 62.5469L149.456 62.6291ZM139.603 63.5037L138.607 63.5985L138.702 64.594L139.698 64.4992L139.603 63.5037ZM139.555 63.006L140.551 62.9112V62.9112L139.555 63.006ZM139.508 62.5082L139.413 61.5127L138.418 61.6075L138.512 62.603L139.508 62.5082ZM129.709 64.009L130.703 63.9009L129.709 64.009ZM129.655 63.5119L130.649 63.4039L130.541 62.4097L129.547 62.5178L129.655 63.5119ZM129.763 64.5061L129.871 65.5002L130.866 65.3922L130.757 64.398L129.763 64.5061ZM119.941 65.6434L118.948 65.7655L119.07 66.758L120.063 66.6359L119.941 65.6434ZM119.88 65.1471L120.872 65.025L119.88 65.1471ZM119.819 64.6509L119.697 63.6583L118.704 63.7805L118.826 64.773L119.819 64.6509ZM110.071 66.4293L109.08 66.5665L109.08 66.5666L110.071 66.4293ZM110.002 65.934L110.992 65.7968L110.855 64.8062L109.865 64.9435L110.002 65.934ZM110.139 66.9246L110.276 67.9151L111.267 67.7778L111.13 66.7873L110.139 66.9246ZM100.364 68.3604L99.3759 68.514L99.5295 69.5021L100.518 69.3485L100.364 68.3604ZM100.21 67.3722L100.057 66.3841L99.0687 66.5377L99.2223 67.5259L100.21 67.3722ZM90.538 69.4713L91.5232 69.2998L90.538 69.4713ZM90.4522 68.9787L91.4374 68.8072L91.2658 67.822L90.2807 67.9936L90.4522 68.9787ZM90.6238 69.9639L90.7953 70.9491L91.7805 70.7775L91.6089 69.7924L90.6238 69.9639ZM80.8967 71.7578L79.9152 71.9493L80.1067 72.9308L81.0882 72.7393L80.8967 71.7578ZM80.8009 71.267L81.7824 71.0755L80.8009 71.267ZM80.7051 70.7763L80.5136 69.7948L79.5321 69.9864L79.7237 70.9678L80.7051 70.7763ZM71.0963 73.2751L72.0731 73.0609V73.0609L71.0963 73.2751ZM70.9892 72.7867L71.966 72.5725L71.7518 71.5957L70.775 71.8099L70.9892 72.7867ZM71.2034 73.7635L71.4176 74.7403L72.3943 74.5261L72.1802 73.5493L71.2034 73.7635ZM61.5813 76.0055L60.6106 76.2458L60.8509 77.2165L61.8216 76.9762L61.5813 76.0055ZM61.4611 75.5202L60.4904 75.7605L61.4611 75.5202ZM61.341 75.0348L61.1006 74.0641L60.1299 74.3045L60.3703 75.2751L61.341 75.0348ZM51.933 78.0362L52.8955 77.765L52.8955 77.7649L51.933 78.0362ZM51.7974 77.5549L52.7599 77.2837L52.4887 76.3212L51.5261 76.5924L51.7974 77.5549ZM52.0686 78.5174L52.3398 79.4799L53.3023 79.2087L53.0311 78.2462L52.0686 78.5174ZM42.5969 81.383L41.6459 81.6923L41.9552 82.6432L42.9062 82.3339L42.5969 81.383ZM42.4422 80.9075L43.3932 80.5982L43.3932 80.5982L42.4422 80.9075ZM42.2876 80.432L41.9782 79.481L41.0273 79.7904L41.3366 80.7413L42.2876 80.432ZM33.1625 84.179L34.0963 83.8213V83.8212L33.1625 84.179ZM32.9836 83.7121L33.9174 83.3543L33.5596 82.4205L32.6258 82.7783L32.9836 83.7121ZM33.3413 84.6459L33.6991 85.5797L34.6329 85.222L34.2752 84.2882L33.3413 84.6459ZM24.2579 88.4827L23.3522 88.9068L23.7763 89.8124L24.6819 89.3883L24.2579 88.4827ZM23.8338 87.5771L23.4097 86.6714L22.5041 87.0955L22.9282 88.0011L23.8338 87.5771ZM15.3557 92.6513L16.2089 92.1297L16.2088 92.1297L15.3557 92.6513ZM15.0949 92.2247L15.948 91.7031L15.4264 90.8499L14.5732 91.3716L15.0949 92.2247ZM15.6165 93.0779L16.1382 93.9311L16.9913 93.4094L16.4697 92.5563L15.6165 93.0779ZM7.8483 98.8288L7.11605 99.5098L7.79707 100.242L8.52932 99.5611L7.8483 98.8288ZM7.50778 98.4627L6.77552 99.1437L6.77553 99.1437L7.50778 98.4627ZM7.16727 98.0965L6.48625 97.3643L5.75399 98.0453L6.43501 98.7776L7.16727 98.0965ZM445.648 53.1171H445.708V51.1171H445.648V53.1171ZM446.648 53.8642V52.1171H444.648V53.8642H446.648ZM442.185 63.1157C444.776 60.1548 446.296 57.1021 446.642 53.9744L444.654 53.7541C444.365 56.3689 443.082 59.0534 440.68 61.7987L442.185 63.1157ZM429.183 72.9118C434.829 69.79 439.213 66.513 442.185 63.1157L440.68 61.7987C437.914 64.9593 433.746 68.1034 428.215 71.1616L429.183 72.9118ZM381.362 89.5003C401.553 84.7782 417.891 79.1555 429.183 72.9118L428.215 71.1616C417.155 77.2773 401.019 82.8491 380.907 87.5528L381.362 89.5003ZM223.579 104.786C285.197 104.786 340.982 98.9444 381.362 89.5003L380.907 87.5528C340.716 96.9528 285.091 102.786 223.579 102.786V104.786ZM65.7963 89.5003C106.177 98.9444 161.961 104.786 223.579 104.786V102.786C162.068 102.786 106.443 96.9528 66.2518 87.5528L65.7963 89.5003ZM17.9758 72.9118C29.2672 79.1555 45.6062 84.7782 65.7963 89.5003L66.2518 87.5528C46.1402 82.8491 30.0036 77.2773 18.9436 71.1616L17.9758 72.9118ZM4.97382 63.1157C7.94624 66.513 12.3301 69.79 17.9758 72.9118L18.9436 71.1616C13.4129 68.1034 9.24432 64.9593 6.47902 61.7987L4.97382 63.1157ZM0.44043 52.5988C0.44065 56.2012 2.00148 59.7185 4.97382 63.1157L6.47902 61.7987C3.72539 58.6515 2.44061 55.5835 2.44043 52.5987L0.44043 52.5988ZM0.44043 52.5981V52.5988H2.44043V52.5981H0.44043ZM0.44043 52.5974V52.5981H2.44043V52.5974H0.44043ZM4.97382 42.0804C2.00148 45.4776 0.44065 48.9949 0.44043 52.5973L2.44043 52.5974C2.44061 49.6126 3.72539 46.5446 6.47902 43.3974L4.97382 42.0804ZM17.9758 32.2843C12.3301 35.4061 7.94624 38.6832 4.97382 42.0804L6.47902 43.3974C9.24432 40.2368 13.4129 37.0927 18.9436 34.0345L17.9758 32.2843ZM65.7963 15.6959C45.6062 20.4179 29.2672 26.0407 17.9758 32.2843L18.9436 34.0345C30.0036 27.9189 46.1402 22.347 66.2518 17.6433L65.7963 15.6959ZM223.579 0.410461C161.961 0.410461 106.177 6.25176 65.7963 15.6959L66.2518 17.6433C106.443 8.24337 162.068 2.41046 223.579 2.41046V0.410461ZM381.362 15.6959C340.982 6.25176 285.197 0.410461 223.579 0.410461V2.41046C285.091 2.41046 340.716 8.24337 380.907 17.6433L381.362 15.6959ZM429.183 32.2843C417.891 26.0407 401.553 20.4179 381.362 15.6959L380.907 17.6433C401.019 22.347 417.155 27.9189 428.215 34.0345L429.183 32.2843ZM442.185 42.0804C439.213 38.6832 434.829 35.4061 429.183 32.2843L428.215 34.0345C433.746 37.0927 437.914 40.2368 440.68 43.3974L442.185 42.0804ZM446.707 52.075C446.563 48.6524 445.012 45.3119 442.185 42.0804L440.68 43.3974C443.3 46.3923 444.589 49.315 444.709 52.1591L446.707 52.075ZM0.513303 57.946C3.34457 64.9506 11.6362 71.3499 23.9256 77.0315C36.2783 82.7425 52.9091 87.8355 72.7918 92.09C112.565 100.6 165.495 105.786 223.579 105.786V103.786C165.599 103.786 112.814 98.6085 73.2103 90.1342C53.4046 85.8963 36.9319 80.8413 24.7649 75.2161C12.5343 69.5617 4.88988 63.4368 2.36756 57.1965L0.513303 57.946ZM2.44043 106.06L2.44043 57.5713H0.44043L0.440432 106.06H2.44043ZM2.21322 105.289L1.80557 105.129L1.07529 106.991L1.48294 107.15L2.21322 105.289ZM2.67869 105.471L2.21321 105.289L1.48295 107.15L1.94843 107.333L2.67869 105.471ZM2.44043 110.858C2.44135 109.5 2.70663 108.139 3.24452 106.767L1.3826 106.037C0.760162 107.624 0.441528 109.232 0.440433 110.856L2.44043 110.858ZM2.44043 110.865L2.44043 110.857L0.440432 110.857L0.44043 110.865L2.44043 110.865ZM2.44043 110.872L2.44043 110.865L0.44043 110.865L0.440432 110.873L2.44043 110.872ZM2.59705 112.674C2.49298 112.073 2.44084 111.473 2.44043 110.872L0.440433 110.873C0.440916 111.59 0.503133 112.304 0.626413 113.015L2.59705 112.674ZM6.47863 120.064C4.27571 117.547 3.01443 115.08 2.59701 112.674L0.626444 113.015C1.12238 115.874 2.59797 118.666 4.97343 121.381L6.47863 120.064ZM18.9432 129.427C13.4126 126.369 9.24392 123.225 6.47863 120.064L4.97343 121.381C7.94584 124.779 12.3297 128.056 17.9754 131.178L18.9432 129.427ZM66.2514 145.819C46.1398 141.115 30.0032 135.543 18.9432 129.427L17.9754 131.178C29.2669 137.421 45.6058 143.044 65.7959 147.766L66.2514 145.819ZM223.579 161.051C162.067 161.051 106.443 155.218 66.2514 145.819L65.7959 147.766C106.176 157.21 161.961 163.051 223.579 163.051V161.051ZM380.907 145.819C340.715 155.218 285.091 161.051 223.579 161.051V163.051C285.197 163.051 340.982 157.21 381.362 147.766L380.907 145.819ZM428.215 129.427C417.155 135.543 401.018 141.115 380.907 145.819L381.362 147.766C401.552 143.044 417.891 137.421 429.183 131.178L428.215 129.427ZM440.679 120.064C437.914 123.225 433.745 126.369 428.215 129.427L429.183 131.178C434.828 128.056 439.212 124.779 442.185 121.381L440.679 120.064ZM444.708 111.318C444.585 114.157 443.295 117.075 440.679 120.064L442.185 121.381C445.007 118.156 446.558 114.821 446.706 111.404L444.708 111.318ZM445.708 110.361H445.707V112.361H445.708V110.361ZM444.714 111.18C444.712 111.226 444.71 111.272 444.709 111.318L446.707 111.404C446.709 111.349 446.711 111.295 446.713 111.241L444.714 111.18ZM445.648 112.21H445.713V110.21H445.648V112.21ZM444.648 109.598V111.21H446.648V109.598H444.648ZM443.914 106.767C444.301 107.753 444.546 108.732 444.654 109.708L446.642 109.488C446.513 108.326 446.223 107.176 445.776 106.037L443.914 106.767ZM444.946 105.289L444.48 105.471L445.21 107.333L445.676 107.15L444.946 105.289ZM445.283 105.156L444.946 105.289L445.676 107.15L446.013 107.018L445.283 105.156ZM444.648 57.7418V106.087H446.648V57.7418H444.648ZM223.579 105.786C281.539 105.786 334.367 100.623 374.111 92.1447C393.979 87.9065 410.613 82.8325 422.994 77.1419C435.312 71.4799 443.652 65.1044 446.571 58.1277L444.726 57.3559C442.121 63.5832 434.417 69.6901 422.159 75.3247C409.962 80.9305 393.485 85.967 373.693 90.1887C334.118 98.6307 281.435 103.786 223.579 103.786V105.786ZM445.416 116.626L445.417 116.626L446.136 114.76L446.135 114.759L445.416 116.626ZM446.707 116.058C447.373 114.36 447.718 112.626 447.718 110.865H445.718C445.718 112.359 445.426 113.846 444.845 115.328L446.707 116.058ZM447.718 110.865C447.718 110.388 447.693 109.912 447.643 109.438L445.654 109.649C445.697 110.053 445.718 110.459 445.718 110.865H447.718ZM447.648 109.544V53.9194H445.648V109.544H447.648ZM447.643 54.0251C447.693 53.5511 447.718 53.0753 447.718 52.5981H445.718C445.718 53.0043 445.697 53.4095 445.654 53.8138L447.643 54.0251ZM447.718 52.5981C447.718 48.6863 446.019 44.9441 442.938 41.422C439.862 37.9063 435.37 34.5628 429.667 31.4092C418.26 25.1015 401.82 19.4534 381.59 14.7221C341.116 5.25595 285.251 -0.589539 223.579 -0.589539V1.41046C285.144 1.41046 340.849 7.24756 381.135 16.6696C401.286 21.3825 417.523 26.9798 428.699 33.1594C434.287 36.2494 438.563 39.46 441.432 42.7389C444.296 46.0114 445.718 49.3042 445.718 52.5981H447.718ZM223.579 -0.589539C162.251 -0.589539 106.666 5.19106 66.2464 14.5643C46.0444 19.2491 29.578 24.8434 18.0687 31.0931C12.3144 34.2178 7.75514 37.5297 4.58817 41.0107C1.41723 44.4961 -0.399821 48.2 -0.549545 52.0785L1.44897 52.1556C1.57527 48.8838 3.10836 45.6093 6.06754 42.3567C9.03068 39.0997 13.3816 35.9141 19.0231 32.8507C30.3058 26.724 46.5747 21.1792 66.6983 16.5126C106.93 7.1827 162.358 1.41046 223.579 1.41046V-0.589539ZM0.449711 51.1171H0.44043V53.1171H0.449711V51.1171ZM-0.55957 52.1171V52.5981H1.44043V52.1171H-0.55957ZM-0.55957 52.5981L-0.559568 110.857H1.44043L1.44043 52.5981H-0.55957ZM-0.559568 110.857L-0.55957 110.865L1.44043 110.865L1.44043 110.857L-0.559568 110.857ZM-0.55957 110.865L-0.559568 110.873L1.44043 110.873L1.44043 110.865L-0.55957 110.865ZM-0.559568 110.873V111.21H1.44043V110.873H-0.559568ZM0.440432 112.21H0.445218V110.21H0.440432V112.21ZM-0.554398 111.238C-0.552895 111.292 -0.551065 111.347 -0.548908 111.401L1.44951 111.321C1.44767 111.275 1.44611 111.229 1.44483 111.183L-0.554398 111.238ZM0.450301 110.361H0.449951V112.361H0.450301V110.361ZM-0.549254 111.401C-0.49444 112.775 -0.229771 114.131 0.232837 115.466L2.12255 114.811C1.72063 113.651 1.49573 112.488 1.44916 111.321L-0.549254 111.401ZM0.232813 115.465C0.26712 115.564 0.302515 115.663 0.338994 115.762L2.21511 115.069C2.18329 114.983 2.15244 114.897 2.12257 114.811L0.232813 115.465ZM0.338994 115.762C0.375461 115.861 0.413011 115.959 0.451639 116.058L2.31355 115.328C2.27976 115.242 2.24694 115.155 2.21511 115.069L0.338994 115.762ZM1.77338 116.613L1.77342 116.613L0.991846 114.772L0.99181 114.772L1.77338 116.613ZM0.451702 116.058C1.58569 118.949 3.64246 121.72 6.48662 124.365L7.84863 122.901C5.15298 120.394 3.30743 117.861 2.31356 115.328L0.451702 116.058ZM6.4337 122.954L6.43333 122.954L7.90118 124.312L7.90155 124.312L6.4337 122.954ZM6.48623 124.366C8.70291 126.427 11.413 128.426 14.5732 130.358L15.6165 128.652C12.5418 126.772 9.94526 124.851 7.84828 122.901L6.48623 124.366ZM15.9457 130.03L15.9461 130.03L14.2443 128.979L14.2439 128.98L15.9457 130.03ZM14.5736 130.358C17.2073 131.968 20.1599 133.536 23.4101 135.058L24.2582 133.246C21.0631 131.75 18.1773 130.217 15.6169 128.651L14.5736 130.358ZM22.9298 133.725L22.9294 133.726L24.7381 134.58L24.7385 134.579L22.9298 133.725ZM23.4097 135.058C26.2557 136.391 29.3321 137.69 32.6258 138.951L33.3413 137.084C30.0867 135.837 27.0549 134.557 24.2579 133.247L23.4097 135.058ZM33.9178 138.374L33.9181 138.374L32.0497 137.66L32.0493 137.661L33.9178 138.374ZM32.6261 138.951C35.572 140.079 38.6925 141.179 41.9785 142.248L42.5972 140.346C39.3405 139.287 36.2524 138.198 33.3417 137.083L32.6261 138.951ZM41.3363 140.989L41.336 140.99L43.2391 141.605L43.2394 141.605L41.3363 140.989ZM41.9782 142.249C45.0209 143.238 48.206 144.202 51.5261 145.137L52.0686 143.212C48.7719 142.283 45.6124 141.328 42.5969 140.347L41.9782 142.249ZM52.7595 144.447L52.7597 144.447L50.8355 143.901L50.8352 143.902L52.7595 144.447ZM51.5264 145.137C54.6035 146.004 57.7969 146.847 61.1009 147.665L61.5815 145.723C58.2969 144.91 55.1241 144.072 52.0688 143.211L51.5264 145.137ZM60.3702 146.455L60.3699 146.456L62.312 146.934L62.3123 146.933L60.3702 146.455ZM61.1006 147.666C64.2278 148.44 67.4542 149.192 70.775 149.92L71.2034 147.966C67.8991 147.242 64.6902 146.494 61.5813 145.724L61.1006 147.666ZM71.9661 149.157L71.9663 149.156L70.0125 148.728L70.0123 148.729L71.9661 149.157ZM70.7752 149.919C73.9371 150.612 77.1847 151.284 80.5138 151.934L80.8969 149.971C77.5823 149.324 74.3498 148.655 71.2036 147.965L70.7752 149.919ZM79.7242 150.759L79.724 150.76L81.6863 151.147L81.6865 151.146L79.7242 150.759ZM80.5136 151.935C83.696 152.556 86.9529 153.157 90.2807 153.736L90.6238 151.766C87.3088 151.189 84.0653 150.59 80.8967 149.972L80.5136 151.935ZM91.4374 152.923L91.4375 152.922L89.4672 152.578L89.4671 152.579L91.4374 152.923ZM90.2808 153.735C93.4753 154.292 96.7351 154.828 100.057 155.345L100.364 153.368C97.0539 152.854 93.806 152.319 90.6239 151.765L90.2808 153.735ZM99.2227 154.202L99.2225 154.203L101.198 154.512L101.199 154.511L99.2227 154.202ZM100.057 155.346C103.269 155.845 106.539 156.326 109.865 156.786L110.139 154.805C106.824 154.346 103.565 153.867 100.364 153.369L100.057 155.346ZM110.992 155.936L110.992 155.935L109.012 155.654L109.012 155.655L110.992 155.936ZM109.865 156.785C113.091 157.232 116.369 157.661 119.697 158.07L119.941 156.085C116.623 155.677 113.355 155.25 110.139 154.804L109.865 156.785ZM118.826 156.956L118.826 156.957L120.811 157.201L120.811 157.2L118.826 156.956ZM119.697 158.071C122.934 158.47 126.219 158.85 129.547 159.212L129.763 157.224C126.444 156.863 123.169 156.484 119.941 156.086L119.697 158.071ZM130.65 158.32L130.65 158.319L128.661 158.114L128.661 158.115L130.65 158.32ZM129.547 159.211C132.795 159.564 136.084 159.899 139.413 160.216L139.603 158.225C136.282 157.909 133.002 157.575 129.763 157.223L129.547 159.211ZM138.513 159.121L138.513 159.122L140.503 159.321L140.503 159.32L138.513 159.121ZM139.413 160.217C142.669 160.527 145.962 160.819 149.292 161.094L149.456 159.101C146.135 158.827 142.85 158.535 139.603 158.226L139.413 160.217ZM150.37 160.183L150.37 160.182L148.378 160.011L148.378 160.012L150.37 160.183ZM149.292 161.093C152.554 161.362 155.852 161.614 159.181 161.848L159.322 159.853C156 159.619 152.711 159.368 149.456 159.1L149.292 161.093ZM158.254 160.78L158.254 160.781L160.249 160.921L160.249 160.92L158.254 160.78ZM159.181 161.849C162.45 162.079 165.75 162.291 169.08 162.486L169.197 160.49C165.875 160.295 162.582 160.083 159.321 159.854L159.181 161.849ZM170.137 161.544L170.137 161.543L168.14 161.431L168.14 161.432L170.137 161.544ZM169.08 162.485C172.354 162.677 175.657 162.852 178.986 163.01L179.081 161.012C175.759 160.855 172.463 160.68 169.197 160.489L169.08 162.485ZM178.034 161.97L178.034 161.971L180.033 162.054L180.033 162.053L178.034 161.97ZM178.986 163.011C182.262 163.167 185.563 163.305 188.889 163.426L188.961 161.428C185.643 161.307 182.349 161.168 179.081 161.014L178.986 163.011ZM189.924 162.469L189.924 162.467L187.926 162.384L187.926 162.385L189.924 162.469ZM188.889 163.425C192.166 163.545 195.467 163.648 198.789 163.733L198.841 161.734C195.525 161.648 192.232 161.546 188.961 161.426L188.889 163.425ZM197.816 162.706L197.816 162.707L199.815 162.763L199.815 162.761L197.816 162.706ZM198.789 163.734C202.071 163.819 205.373 163.887 208.695 163.938L208.726 161.939C205.411 161.888 202.115 161.82 198.841 161.735L198.789 163.734ZM209.711 162.952L209.711 162.951L207.711 162.923L207.711 162.925L209.711 162.952ZM208.695 163.937C211.98 163.988 215.284 164.022 218.606 164.039L218.616 162.039C215.301 162.022 212.004 161.988 208.726 161.938L208.695 163.937ZM217.611 163.039V163.04H219.611V163.039H217.611ZM218.606 164.04C220.259 164.048 221.917 164.053 223.579 164.053V162.053C221.921 162.053 220.266 162.048 218.616 162.04L218.606 164.04ZM223.579 164.053C225.242 164.053 226.899 164.048 228.553 164.04L228.543 162.04C226.893 162.048 225.238 162.053 223.579 162.053V164.053ZM229.548 163.04V163.039H227.548V163.04H229.548ZM228.553 164.039C231.875 164.022 235.179 163.988 238.463 163.937L238.432 161.937C235.155 161.988 231.858 162.022 228.543 162.039L228.553 164.039ZM237.448 162.951L237.448 162.952L239.448 162.925L239.448 162.924L237.448 162.951ZM238.463 163.938C241.786 163.887 245.088 163.819 248.369 163.734L248.318 161.735C245.043 161.82 241.748 161.888 238.432 161.939L238.463 163.938ZM249.343 162.707L249.343 162.706L247.344 162.761L247.344 162.762L249.343 162.707ZM248.369 163.733C251.692 163.647 254.993 163.545 258.27 163.425L258.197 161.426C254.927 161.546 251.633 161.648 248.318 161.734L248.369 163.733ZM257.234 162.453L257.234 162.454L259.233 162.4L259.233 162.399L257.234 162.453ZM258.27 163.426C261.596 163.305 264.897 163.167 268.173 163.011L268.078 161.014C264.81 161.168 261.516 161.307 258.197 161.428L258.27 163.426ZM269.124 161.958L269.124 161.957L267.127 162.065L267.127 162.066L269.124 161.958ZM268.173 163.01C271.502 162.852 274.805 162.677 278.079 162.485L277.962 160.489C274.695 160.68 271.4 160.855 268.078 161.012L268.173 163.01ZM277.022 161.541L277.022 161.542L279.019 161.434L279.019 161.433L277.022 161.541ZM278.079 162.486C281.409 162.291 284.709 162.079 287.978 161.849L287.837 159.854C284.576 160.083 281.284 160.295 277.962 160.49L278.079 162.486ZM288.904 160.77L288.904 160.769L286.911 160.931L286.911 160.932L288.904 160.77ZM287.977 161.848C291.307 161.614 294.604 161.362 297.867 161.093L297.702 159.1C294.448 159.368 291.159 159.619 287.837 159.853L287.977 161.848ZM296.788 160.177L296.788 160.178L298.781 160.017L298.781 160.015L296.788 160.177ZM297.867 161.094C301.197 160.819 304.49 160.527 307.745 160.217L307.556 158.226C304.309 158.535 301.024 158.827 297.703 159.101L297.867 161.094ZM308.645 159.116L308.645 159.114L306.656 159.327L306.656 159.328L308.645 159.116ZM307.745 160.216C311.075 159.899 314.364 159.564 317.611 159.211L317.395 157.223C314.157 157.575 310.876 157.909 307.556 158.225L307.745 160.216ZM316.509 158.324L316.509 158.325L318.498 158.11L318.498 158.109L316.509 158.324ZM317.611 159.212C320.94 158.85 324.225 158.47 327.462 158.071L327.218 156.086C323.99 156.484 320.715 156.863 317.395 157.224L317.611 159.212ZM328.331 156.947L328.331 156.946L326.349 157.21L326.349 157.211L328.331 156.947ZM327.462 158.07C330.79 157.661 334.068 157.232 337.294 156.785L337.019 154.804C333.804 155.25 330.535 155.677 327.218 156.085L327.462 158.07ZM336.166 155.929L336.166 155.93L338.148 155.662L338.148 155.661L336.166 155.929ZM337.294 156.786C340.62 156.326 343.89 155.845 347.102 155.346L346.795 153.369C343.594 153.867 340.334 154.346 337.02 154.805L337.294 156.786ZM347.936 154.202L347.936 154.2L345.96 154.512L345.961 154.514L347.936 154.202ZM347.102 155.345C350.424 154.828 353.683 154.291 356.878 153.735L356.535 151.765C353.353 152.319 350.105 152.854 346.795 153.368L347.102 155.345ZM355.723 152.933L355.724 152.935L357.69 152.568L357.689 152.566L355.723 152.933ZM356.878 153.736C360.206 153.157 363.463 152.556 366.645 151.935L366.262 149.972C363.094 150.59 359.85 151.189 356.535 151.766L356.878 153.736ZM367.437 150.77L367.436 150.769L365.47 151.136L365.471 151.137L367.437 150.77ZM366.645 151.934C369.974 151.284 373.222 150.612 376.384 149.919L375.955 147.965C372.809 148.655 369.576 149.324 366.262 149.971L366.645 151.934ZM375.191 149.151L375.192 149.152L377.148 148.734L377.147 148.733L375.191 149.151ZM376.384 149.92C379.704 149.192 382.931 148.44 386.058 147.666L385.577 145.724C382.469 146.494 379.26 147.242 375.955 147.966L376.384 149.92ZM386.79 146.462L386.79 146.46L384.845 146.927L384.845 146.928L386.79 146.462ZM386.058 147.665C389.362 146.847 392.555 146.003 395.632 145.136L395.09 143.211C392.035 144.072 388.862 144.91 385.577 145.723L386.058 147.665ZM394.396 144.435L394.396 144.436L396.327 143.914L396.326 143.913L394.396 144.435ZM395.633 145.137C398.953 144.202 402.138 143.238 405.181 142.249L404.562 140.347C401.546 141.328 398.387 142.283 395.09 143.212L395.633 145.137ZM405.821 140.985L405.821 140.984L403.921 141.609L403.921 141.61L405.821 140.985ZM405.18 142.248C408.466 141.179 411.587 140.079 414.533 138.95L413.817 137.083C410.906 138.198 407.818 139.286 404.561 140.346L405.18 142.248ZM413.243 138.379L413.243 138.38L415.107 137.655L415.107 137.654L413.243 138.379ZM414.533 138.951C417.827 137.69 420.903 136.391 423.749 135.058L422.901 133.247C420.104 134.557 417.072 135.837 413.817 137.084L414.533 138.951ZM424.234 133.737L424.234 133.736L422.415 134.567L422.415 134.568L424.234 133.737ZM423.749 135.057C426.999 133.535 429.951 131.968 432.585 130.357L431.542 128.651C428.981 130.216 426.095 131.75 422.9 133.246L423.749 135.057ZM431.203 130.015L431.204 130.016L432.924 128.995L432.923 128.994L431.203 130.015ZM432.586 130.358C435.746 128.426 438.456 126.427 440.673 124.366L439.31 122.901C437.213 124.851 434.617 126.772 431.542 128.652L432.586 130.358ZM440.726 122.955L440.726 122.954L439.256 124.311L439.257 124.312L440.726 122.955ZM440.672 124.365C443.516 121.72 445.572 118.948 446.706 116.058L444.844 115.327C443.851 117.861 442.005 120.393 439.31 122.9L440.672 124.365ZM440.383 99.1437L440.724 98.7776L439.259 97.4155L438.919 97.7817L440.383 99.1437ZM440.043 99.5098L440.383 99.1437L438.919 97.7817L438.578 98.1478L440.043 99.5098ZM431.021 93.9311C434.053 95.7849 436.592 97.6665 438.629 99.5611L439.992 98.0965C437.835 96.0906 435.181 94.1309 432.064 92.2247L431.021 93.9311ZM430.95 92.1297L430.689 92.5563L432.395 93.5995L432.656 93.1729L430.95 92.1297ZM431.211 91.7031L430.95 92.1297L432.656 93.173L432.917 92.7464L431.211 91.7031ZM440.673 97.3643C438.456 95.3027 435.746 93.3038 432.586 91.3716L431.542 93.0779C434.617 94.9579 437.213 96.8786 439.31 98.8288L440.673 97.3643ZM413.817 84.6459C417.072 85.8929 420.104 87.1729 422.901 88.4827L423.749 86.6714C420.903 85.3388 417.827 84.0402 414.533 82.7783L413.817 84.6459ZM414.93 84.5368L415.109 84.0699L413.241 83.3543L413.062 83.8212L414.93 84.5368ZM414.751 85.0037L414.93 84.5368L413.062 83.8212L412.884 84.2881L414.751 85.0037ZM423.325 87.5771C420.503 86.2559 417.449 84.9666 414.175 83.7121L413.46 85.5797C416.695 86.8193 419.704 88.09 422.477 89.3883L423.325 87.5771ZM422.207 87.6058L421.995 88.0586L423.807 88.9068L424.019 88.454L422.207 87.6058ZM422.419 87.153L422.207 87.6058L424.019 88.454L424.231 88.0011L422.419 87.153ZM405.667 81.2168L405.822 80.7413L403.92 80.1227L403.766 80.5982L405.667 81.2168ZM405.513 81.6923L405.667 81.2168L403.766 80.5982L403.611 81.0736L405.513 81.6923ZM394.819 79.4799C398.104 80.4055 401.251 81.3575 404.253 82.3339L404.871 80.432C401.842 79.4467 398.67 78.4871 395.361 77.5549L394.819 79.4799ZM394.263 77.765L394.128 78.2462L396.053 78.7886L396.188 78.3073L394.263 77.765ZM394.399 77.2837L394.263 77.7649L396.188 78.3074L396.324 77.8261L394.399 77.2837ZM405.181 79.481C402.138 78.4913 398.953 77.5279 395.633 76.5924L395.09 78.5174C398.387 79.4463 401.546 80.4021 404.562 81.383L405.181 79.481ZM386.668 75.7605L386.788 75.2752L384.847 74.7944L384.727 75.2798L386.668 75.7605ZM386.548 76.2458L386.668 75.7604L384.727 75.2799L384.607 75.7652L386.548 76.2458ZM375.741 74.7403C379.037 75.463 382.237 76.2087 385.337 76.9762L385.818 75.0348C382.7 74.2628 379.482 73.513 376.17 72.7867L375.741 74.7403ZM375.086 73.0608L374.979 73.5492L376.932 73.9777L377.039 73.4893L375.086 73.0608ZM375.193 72.5725L375.086 73.0609L377.039 73.4892L377.146 73.0008L375.193 72.5725ZM386.058 74.0641C382.931 73.2898 379.704 72.5381 376.384 71.8099L375.955 73.7635C379.26 74.488 382.469 75.2358 385.577 76.0055L386.058 74.0641ZM367.339 71.4586L367.435 70.9679L365.472 70.5847L365.376 71.0754L367.339 71.4586ZM367.244 71.9493L367.339 71.4586L365.376 71.0755L365.281 71.5662L367.244 71.9493ZM356.363 70.9491C359.672 71.5252 362.909 72.1222 366.07 72.7393L366.454 70.7763C363.278 70.1566 360.028 69.5571 356.707 68.9787L356.363 70.9491ZM355.636 69.2998L355.55 69.7923L357.52 70.1355L357.606 69.6429L355.636 69.2998ZM355.721 68.8072L355.636 69.2998L357.606 69.6429L357.692 69.1503L355.721 68.8072ZM366.645 69.7948C363.463 69.1737 360.206 68.5731 356.878 67.9936L356.535 69.9639C359.85 70.5412 363.094 71.1394 366.262 71.7578L366.645 69.7948ZM347.86 68.0199L347.936 67.5259L345.96 67.2186L345.883 67.7127L347.86 68.0199ZM347.783 68.514L347.86 68.0199L345.883 67.7127L345.807 68.2067L347.783 68.514ZM336.882 67.9151C340.192 68.3737 343.446 68.8517 346.641 69.3485L346.948 67.3722C343.742 66.8737 340.477 66.3941 337.157 65.934L336.882 67.9151ZM336.098 66.292L336.029 66.7873L338.01 67.0618L338.079 66.5666L336.098 66.292ZM336.166 65.7968L336.098 66.2921L338.079 66.5665L338.147 66.0712L336.166 65.7968ZM347.102 66.3841C343.89 65.8847 340.62 65.4043 337.294 64.9435L337.02 66.9246C340.334 67.3839 343.594 67.8627 346.795 68.3604L347.102 66.3841ZM328.271 65.2693L328.333 64.773L326.348 64.5287L326.286 65.0249L328.271 65.2693ZM328.21 65.7655L328.272 65.2692L326.286 65.025L326.225 65.5212L328.21 65.7655ZM317.287 65.5002C320.602 65.8605 323.873 66.2392 327.096 66.6359L327.34 64.6509C324.107 64.253 320.828 63.8732 317.503 63.5119L317.287 65.5002ZM316.455 63.9009L316.401 64.398L318.39 64.6141L318.444 64.117L316.455 63.9009ZM316.509 63.4039L316.455 63.9009L318.444 64.117L318.498 63.6199L316.509 63.4039ZM327.462 63.6583C324.225 63.2599 320.94 62.8795 317.611 62.5178L317.395 64.506C320.715 64.8668 323.99 65.2461 327.218 65.6434L327.462 63.6583ZM308.599 63.1008L308.646 62.603L306.655 62.4134L306.608 62.9112L308.599 63.1008ZM308.551 63.5985L308.599 63.1008L306.608 62.9112L306.56 63.4089L308.551 63.5985ZM297.62 63.6257C300.938 63.8992 304.219 64.1905 307.461 64.4992L307.651 62.5082C304.4 62.1987 301.11 61.9067 297.785 61.6325L297.62 63.6257ZM296.747 62.0486L296.706 62.547L298.699 62.7113L298.74 62.2129L296.747 62.0486ZM296.788 61.5503L296.747 62.0486L298.74 62.2129L298.781 61.7146L296.788 61.5503ZM307.746 61.5127C304.49 61.2028 301.197 60.9104 297.867 60.6359L297.703 62.6291C301.024 62.9029 304.309 63.1946 307.556 63.5037L307.746 61.5127ZM288.87 61.4475L288.905 60.9487L286.91 60.8085L286.875 61.3072L288.87 61.4475ZM288.835 61.9463L288.87 61.4475L286.875 61.3072L286.84 61.806L288.835 61.9463ZM277.903 62.2382C281.222 62.4328 284.51 62.6447 287.767 62.8737L287.907 60.8786C284.643 60.6491 281.346 60.4366 278.02 60.2416L277.903 62.2382ZM276.993 60.6822L276.964 61.1814L278.96 61.2984L278.989 60.7993L276.993 60.6822ZM277.022 60.183L276.993 60.6822L278.989 60.7993L279.019 60.3002L277.022 60.183ZM287.978 59.8811C284.709 59.6513 281.409 59.4386 278.079 59.2433L277.962 61.2399C281.284 61.4347 284.576 61.6469 287.837 61.8761L287.978 59.8811ZM269.1 60.2642L269.124 59.7647L267.126 59.67L267.103 60.1694L269.1 60.2642ZM269.077 60.7635L269.1 60.2641L267.103 60.1695L267.079 60.6689L269.077 60.7635ZM258.161 61.3016C261.476 61.4225 264.766 61.5604 268.031 61.7151L268.125 59.7174C264.854 59.5623 261.556 59.424 258.234 59.3029L258.161 61.3016ZM257.216 59.7661L257.198 60.2658L259.197 60.3387L259.215 59.839L257.216 59.7661ZM257.234 59.2665L257.216 59.7661L259.215 59.839L259.233 59.3393L257.234 59.2665ZM268.173 58.7185C264.897 58.5633 261.596 58.4248 258.27 58.3036L258.197 60.3022C261.516 60.4232 264.81 60.5614 268.078 60.7162L268.173 58.7185ZM249.33 59.5207L249.343 59.0209L247.344 58.9692L247.331 59.4691L249.33 59.5207ZM249.317 60.0205L249.33 59.5207L247.331 59.4691L247.318 59.9689L249.317 60.0205ZM238.417 60.7911C241.729 60.842 245.021 60.9099 248.292 60.9944L248.344 58.9951C245.066 58.9104 241.767 58.8424 238.448 58.7913L238.417 60.7911ZM237.44 59.2759L237.433 59.7758L239.432 59.8066L239.44 59.3066L237.44 59.2759ZM237.448 58.7759L237.44 59.2759L239.44 59.3066L239.448 58.8067L237.448 58.7759ZM248.369 57.9954C245.088 57.9107 241.786 57.8426 238.463 57.7914L238.433 59.7912C241.748 59.8422 245.044 59.9102 248.318 59.9947L248.369 57.9954ZM229.545 59.1951L229.548 58.6951L227.548 58.6849L227.545 59.1849L229.545 59.1951ZM229.543 59.6951L229.545 59.1951L227.545 59.1848L227.543 59.6848L229.543 59.6951ZM223.579 60.6773C225.236 60.6773 226.889 60.6815 228.538 60.69L228.548 58.69C226.896 58.6815 225.24 58.6773 223.579 58.6773V60.6773ZM218.621 60.69C220.27 60.6815 221.922 60.6773 223.579 60.6773V58.6773C221.919 58.6773 220.263 58.6815 218.611 58.69L218.621 60.69ZM217.613 59.1951L217.616 59.6951L219.616 59.6848L219.613 59.1848L217.613 59.1951ZM217.611 58.6951L217.613 59.1951L219.613 59.1849L219.611 58.6849L217.611 58.6951ZM223.579 57.6773C221.917 57.6773 220.259 57.6815 218.606 57.69L218.616 59.69C220.266 59.6815 221.921 59.6773 223.579 59.6773V57.6773ZM228.553 57.69C226.899 57.6815 225.242 57.6773 223.579 57.6773V59.6773C225.238 59.6773 226.893 59.6815 228.543 59.69L228.553 57.69ZM209.718 59.2759L209.711 58.7759L207.711 58.8067L207.719 59.3066L209.718 59.2759ZM209.726 59.7758L209.718 59.2759L207.719 59.3066L207.726 59.8066L209.726 59.7758ZM198.867 60.9944C202.138 60.9099 205.43 60.842 208.742 60.7911L208.711 58.7913C205.392 58.8424 202.093 58.9104 198.815 58.9951L198.867 60.9944ZM197.829 59.5207L197.841 60.0205L199.841 59.9689L199.828 59.4691L197.829 59.5207ZM197.816 59.0209L197.829 59.5207L199.828 59.4691L199.815 58.9692L197.816 59.0209ZM208.696 57.7914C205.373 57.8426 202.071 57.9107 198.789 57.9954L198.841 59.9947C202.115 59.9102 205.411 59.8422 208.726 59.7912L208.696 57.7914ZM189.943 59.7661L189.924 59.2664L187.926 59.3394L187.944 59.839L189.943 59.7661ZM189.961 60.2658L189.943 59.7661L187.944 59.839L187.962 60.3387L189.961 60.2658ZM179.128 61.7151C182.393 61.5604 185.683 61.4225 188.998 61.3016L188.925 59.3029C185.603 59.424 182.305 59.5623 179.033 59.7174L179.128 61.7151ZM178.058 60.2641L178.082 60.7636L180.08 60.6689L180.056 60.1695L178.058 60.2641ZM178.035 59.7647L178.058 60.2641L180.056 60.1695L180.032 59.67L178.035 59.7647ZM188.889 58.3036C185.563 58.4248 182.262 58.5633 178.986 58.7185L179.081 60.7162C182.349 60.5614 185.643 60.4232 188.961 60.3022L188.889 58.3036ZM170.166 60.6822L170.137 60.183L168.14 60.3002L168.169 60.7993L170.166 60.6822ZM170.195 61.1814L170.166 60.6822L168.169 60.7993L168.199 61.2984L170.195 61.1814ZM159.392 62.8737C162.649 62.6447 165.937 62.4327 169.255 62.2382L169.138 60.2416C165.812 60.4366 162.516 60.6491 159.251 60.8786L159.392 62.8737ZM158.289 61.4475L158.324 61.9462L160.319 61.806L160.284 61.3073L158.289 61.4475ZM158.254 60.9487L158.289 61.4475L160.284 61.3072L160.249 60.8085L158.254 60.9487ZM169.08 59.2433C165.75 59.4386 162.45 59.6513 159.181 59.8811L159.322 61.8761C162.582 61.6469 165.875 61.4347 169.197 61.2399L169.08 59.2433ZM150.412 62.0486L150.371 61.5503L148.377 61.7147L148.419 62.213L150.412 62.0486ZM150.453 62.5469L150.412 62.0486L148.419 62.2129L148.46 62.7113L150.453 62.5469ZM139.698 64.4992C142.94 64.1905 146.221 63.8992 149.538 63.6257L149.374 61.6325C146.049 61.9067 142.759 62.1987 139.508 62.5082L139.698 64.4992ZM138.56 63.1007L138.607 63.5985L140.598 63.409L140.551 62.9112L138.56 63.1007ZM138.512 62.603L138.56 63.1008L140.551 62.9112L140.503 62.4134L138.512 62.603ZM149.292 60.6359C145.962 60.9104 142.669 61.2028 139.413 61.5127L139.603 63.5037C142.85 63.1946 146.135 62.9029 149.456 62.6291L149.292 60.6359ZM130.703 63.9009L130.649 63.4039L128.661 63.6199L128.715 64.117L130.703 63.9009ZM130.757 64.398L130.703 63.9009L128.715 64.117L128.769 64.6141L130.757 64.398ZM120.063 66.6359C123.286 66.2392 126.557 65.8605 129.871 65.5002L129.655 63.5119C126.331 63.8732 123.052 64.253 119.819 64.6509L120.063 66.6359ZM118.887 65.2693L118.948 65.7655L120.933 65.5212L120.872 65.025L118.887 65.2693ZM118.826 64.773L118.887 65.2693L120.872 65.025L120.811 64.5287L118.826 64.773ZM129.547 62.5178C126.219 62.8795 122.934 63.2599 119.697 63.6583L119.941 65.6434C123.169 65.2461 126.444 64.8668 129.763 64.5061L129.547 62.5178ZM111.061 66.292L110.992 65.7968L109.011 66.0713L109.08 66.5665L111.061 66.292ZM111.13 66.7873L111.061 66.292L109.08 66.5666L109.149 67.0618L111.13 66.7873ZM100.518 69.3485C103.713 68.8517 106.967 68.3737 110.276 67.9151L110.002 65.934C106.682 66.3941 103.417 66.8737 100.21 67.3722L100.518 69.3485ZM99.2991 68.0199L99.3759 68.514L101.352 68.2067L101.275 67.7127L99.2991 68.0199ZM99.2223 67.5259L99.2991 68.0199L101.275 67.7127L101.199 67.2186L99.2223 67.5259ZM109.865 64.9435C106.539 65.4043 103.269 65.8847 100.057 66.3841L100.364 68.3604C103.565 67.8627 106.824 67.3839 110.139 66.9246L109.865 64.9435ZM91.5232 69.2998L91.4374 68.8072L89.467 69.1503L89.5528 69.6429L91.5232 69.2998ZM91.6089 69.7924L91.5232 69.2998L89.5528 69.6429L89.6386 70.1355L91.6089 69.7924ZM81.0882 72.7393C84.2499 72.1222 87.4868 71.5252 90.7953 70.9491L90.4522 68.9787C87.1308 69.5571 83.8806 70.1566 80.7051 70.7763L81.0882 72.7393ZM79.8194 71.4586L79.9152 71.9493L81.8782 71.5662L81.7824 71.0755L79.8194 71.4586ZM79.7237 70.9678L79.8194 71.4586L81.7824 71.0755L81.6866 70.5848L79.7237 70.9678ZM90.2807 67.9936C86.9529 68.5731 83.696 69.1737 80.5136 69.7948L80.8967 71.7578C84.0652 71.1394 87.3088 70.5412 90.6238 69.9639L90.2807 67.9936ZM72.0731 73.0609L71.966 72.5725L70.0124 73.0009L70.1195 73.4893L72.0731 73.0609ZM72.1802 73.5493L72.0731 73.0609L70.1195 73.4893L70.2266 73.9777L72.1802 73.5493ZM61.8216 76.9762C64.9214 76.2087 68.1216 75.463 71.4176 74.7403L70.9892 72.7867C67.6767 73.5131 64.459 74.2628 61.341 75.0348L61.8216 76.9762ZM60.4904 75.7605L60.6106 76.2458L62.552 75.7652L62.4318 75.2798L60.4904 75.7605ZM60.3703 75.2751L60.4904 75.7605L62.4318 75.2798L62.3116 74.7945L60.3703 75.2751ZM70.775 71.8099C67.4542 72.5381 64.2278 73.2899 61.1006 74.0641L61.5813 76.0055C64.6902 75.2358 67.8991 74.488 71.2034 73.7635L70.775 71.8099ZM52.8955 77.7649L52.7599 77.2837L50.8348 77.8261L50.9704 78.3074L52.8955 77.7649ZM53.0311 78.2462L52.8955 77.765L50.9704 78.3074L51.106 78.7886L53.0311 78.2462ZM42.9062 82.3339C45.9081 81.3575 49.0549 80.4056 52.3398 79.4799L51.7974 77.5549C48.489 78.4871 45.3167 79.4467 42.2876 80.432L42.9062 82.3339ZM41.4913 81.2168L41.6459 81.6923L43.5478 81.0736L43.3932 80.5982L41.4913 81.2168ZM41.3366 80.7413L41.4913 81.2168L43.3932 80.5982L43.2385 80.1227L41.3366 80.7413ZM51.5261 76.5924C48.206 77.5279 45.0209 78.4913 41.9782 79.481L42.5969 81.383C45.6124 80.4021 48.7719 79.4463 52.0686 78.5174L51.5261 76.5924ZM34.0963 83.8212L33.9174 83.3543L32.0498 84.0699L32.2287 84.5368L34.0963 83.8212ZM34.2752 84.2882L34.0963 83.8213L32.2286 84.5368L32.4075 85.0037L34.2752 84.2882ZM24.6819 89.3883C27.4546 88.09 30.4639 86.8193 33.6991 85.5797L32.9836 83.7121C29.7094 84.9666 26.6553 86.2559 23.8338 87.5771L24.6819 89.3883ZM23.1402 88.454L23.3522 88.9068L25.1635 88.0586L24.9515 87.6058L23.1402 88.454ZM22.9282 88.0011L23.1402 88.454L24.9515 87.6058L24.7394 87.153L22.9282 88.0011ZM32.6258 82.7783C29.3322 84.0402 26.2557 85.3388 23.4097 86.6714L24.2579 88.4827C27.055 87.1729 30.0867 85.8929 33.3413 84.6459L32.6258 82.7783ZM16.2088 92.1297L15.948 91.7031L14.2417 92.7464L14.5025 93.173L16.2088 92.1297ZM16.4697 92.5563L16.2089 92.1297L14.5025 93.1729L14.7633 93.5995L16.4697 92.5563ZM8.52932 99.5611C10.5665 97.6665 13.1062 95.7849 16.1382 93.9311L15.0949 92.2247C11.9774 94.1308 9.3241 96.0906 7.16727 98.0965L8.52932 99.5611ZM6.77553 99.1437L7.11605 99.5098L8.58055 98.1478L8.24003 97.7816L6.77553 99.1437ZM6.43501 98.7776L6.77552 99.1437L8.24005 97.7817L7.89954 97.4155L6.43501 98.7776ZM14.5732 91.3716C11.413 93.3038 8.70292 95.3027 6.48625 97.3643L7.8483 98.8288C9.94528 96.8785 12.5418 94.9579 15.6165 93.0779L14.5732 91.3716Z" fill="white" mask="url(#path-2-inside-1)"/>
</svg>
