<svg width="160" height="85" viewBox="0 0 160 85" fill="none" xmlns="http://www.w3.org/2000/svg">
<path fill-rule="evenodd" clip-rule="evenodd" d="M159 4.5C159 6.433 157.433 8 155.5 8C153.567 8 152 6.433 152 4.5C152 2.567 153.567 1 155.5 1C157.433 1 159 2.567 159 4.5ZM160 4.5C160 6.98528 157.985 9 155.5 9C154.298 9 153.206 8.52859 152.399 7.76053L89.3698 63.9847L89.0375 64.2811L88.7047 63.9852L56.2277 35.1103L8.05199 77.7368C8.6461 78.4994 9 79.4584 9 80.5C9 82.9853 6.98528 85 4.5 85C2.01472 85 0 82.9853 0 80.5C0 78.0147 2.01472 76 4.5 76C5.58298 76 6.57661 76.3826 7.35312 77.0199L55.8971 34.0675L56.2293 33.7736L56.5607 34.0683L89.0364 62.942L151.754 6.99503C151.278 6.28097 151 5.42293 151 4.5C151 2.01472 153.015 0 155.5 0C157.985 0 160 2.01472 160 4.5ZM4.5 84C6.433 84 8 82.433 8 80.5C8 78.567 6.433 77 4.5 77C2.567 77 1 78.567 1 80.5C1 82.433 2.567 84 4.5 84Z" fill="#979797"/>
</svg>
