<svg width="560" height="385" viewBox="0 0 560 385" fill="none" xmlns="http://www.w3.org/2000/svg">
<g filter="url(#filter0_d)">
<path d="M548.994 176.466L548.44 176.039C548.086 175.766 547.731 175.494 547.375 175.222C547.893 175.615 548.407 176.008 548.919 176.403C548.945 176.423 548.972 176.444 548.999 176.465L548.994 176.466ZM22.3894 316.975C31.9396 335.451 47.2515 352.816 67.576 368.301C47.0146 352.725 31.5782 335.263 21.9927 316.719C11.0987 295.644 7.97815 273.591 12.7982 251.857C14.8931 242.411 18.4705 233.103 23.4719 224.036L23.6 224.269C18.7219 233.215 15.2175 242.401 13.1485 251.73C8.29612 273.61 11.4446 295.801 22.3894 316.975Z" stroke="white"/>
<path d="M548.994 79.1332L548.44 78.7056C548.086 78.4324 547.73 78.1599 547.373 77.888C547.892 78.2805 548.407 78.6744 548.919 79.0695C548.945 79.0901 548.972 79.1107 548.999 79.1313L548.994 79.1332ZM22.3894 219.642C31.9395 238.117 47.2514 255.482 67.5759 270.968C47.0145 255.391 31.5782 237.93 21.9927 219.386C11.0987 198.31 7.97815 176.258 12.7982 154.523C17.6196 132.784 30.2953 111.772 50.1122 92.742C55.4539 87.6123 61.2844 82.6555 67.5731 77.8913C61.4645 82.5457 55.7898 87.3843 50.5778 92.3894C30.741 111.439 17.9997 132.523 13.1485 154.397C8.29612 176.277 11.4446 198.468 22.3894 219.642Z" stroke="white"/>
<path fill-rule="evenodd" clip-rule="evenodd" d="M436.789 123.693L435.543 124.182C433.544 123.652 431.535 123.134 429.516 122.629L429.157 122.539L429.278 122.054L429.347 121.776L429.706 121.865C432.081 122.457 434.442 123.067 436.789 123.693ZM23.4229 223.095C23.6559 223.511 23.8918 223.926 24.1307 224.341C26.6622 219.716 29.5633 215.155 32.8257 210.671L32.4214 210.377L32.017 210.083C31.9176 210.219 31.8186 210.356 31.7198 210.493L31.5857 210.395C28.5514 214.566 25.8283 218.803 23.4229 223.095ZM415.778 119.137L415.719 119.407L415.396 119.337C410.915 118.367 406.391 117.457 401.829 116.609L401.544 116.556L401.635 116.064L401.684 115.803L401.969 115.855C406.539 116.702 411.071 117.61 415.56 118.579L415.884 118.649L415.778 119.137ZM387.901 113.967L387.861 114.223L387.616 114.184C383.052 113.475 378.456 112.825 373.83 112.237L373.626 112.211L373.689 111.715L373.721 111.465L373.925 111.491C378.558 112.078 383.162 112.726 387.733 113.435L387.978 113.473L387.901 113.967ZM359.772 110.398L359.748 110.644L359.586 110.628C357.294 110.402 354.995 110.19 352.691 109.993L352.551 109.981C350.145 109.776 347.735 109.588 345.323 109.416L345.205 109.407L345.24 108.908L345.258 108.666L345.375 108.674C347.791 108.846 350.204 109.034 352.614 109.239L352.755 109.251C355.062 109.447 357.364 109.659 359.66 109.885L359.821 109.901L359.772 110.398ZM330.574 108.331L330.564 108.571L330.492 108.568C325.595 108.357 320.692 108.213 315.788 108.137L315.762 108.136L315.769 107.637L315.773 107.397L315.799 107.398C320.71 107.474 325.62 107.617 330.524 107.828L330.596 107.831L330.574 108.331ZM43.673 196.596L43.3077 196.255C45.3687 194.05 47.5218 191.87 49.7659 189.715C51.6061 187.947 53.5041 186.201 55.4585 184.476L55.488 184.509C55.6348 184.379 55.7819 184.248 55.9293 184.118L56.2602 184.493L56.5911 184.868C54.6455 186.585 52.7561 188.324 50.9241 190.083C48.6901 192.229 46.5467 194.4 44.495 196.594L44.4234 196.527C44.2946 196.664 44.1662 196.801 44.0382 196.938L43.673 196.596ZM67.7452 175.094L67.4436 174.696C67.6024 174.576 67.7614 174.456 67.9207 174.336C71.8094 171.413 75.8702 168.563 80.0961 165.79C80.2614 165.682 80.4268 165.574 80.5926 165.466L80.8438 165.849L81.1181 166.267C81.0313 166.324 80.9445 166.381 80.8578 166.438C80.7793 166.489 80.7008 166.541 80.6224 166.593C76.4216 169.363 72.3859 172.211 68.5224 175.132C68.3635 175.252 68.2048 175.372 68.0464 175.493L67.7452 175.094ZM93.5323 158.133L93.2833 157.699C93.4508 157.603 93.6184 157.507 93.7863 157.411C98.0254 154.989 102.401 152.639 106.906 150.363C107.072 150.279 107.239 150.195 107.405 150.111L107.582 150.462L107.808 150.908C107.642 150.992 107.475 151.076 107.309 151.161C102.822 153.438 98.4659 155.789 94.246 158.212C94.0783 158.308 93.9109 158.405 93.7437 158.501L93.5323 158.133ZM121.089 144.186L120.885 143.729C121.047 143.657 121.209 143.585 121.371 143.513C123.552 142.546 125.758 141.595 127.99 140.66C128.089 140.619 128.188 140.578 128.288 140.536C128.347 140.511 128.407 140.486 128.467 140.461C130.425 139.645 132.401 138.843 134.393 138.054C134.548 137.993 134.704 137.931 134.86 137.87L134.987 138.19L135.171 138.655C135.015 138.717 134.859 138.779 134.704 138.84C132.718 139.629 130.749 140.433 128.797 141.25C128.638 141.316 128.479 141.383 128.321 141.449C126.096 142.385 123.897 143.336 121.724 144.305C121.562 144.377 121.4 144.449 121.238 144.521L121.089 144.186ZM147.508 133.681L147.341 133.209L147.786 133.052C151.948 131.587 156.173 130.181 160.457 128.834L160.874 128.703L160.968 128.999L161.118 129.476L160.7 129.608C156.427 130.956 152.212 132.365 148.061 133.832L147.617 133.989L147.508 133.681ZM173.848 125.388L173.714 124.907L174.101 124.799C178.381 123.611 182.712 122.481 187.09 121.409L187.445 121.323L187.513 121.599L187.632 122.085L187.277 122.172C182.907 123.245 178.585 124.377 174.315 125.567L173.928 125.675L173.848 125.388ZM200.673 118.815L200.569 118.326L200.888 118.258C205.262 117.33 209.678 116.458 214.133 115.644L214.415 115.592L214.462 115.853L214.552 116.345L214.271 116.397C209.824 117.212 205.416 118.086 201.049 119.016L200.73 119.084L200.673 118.815ZM227.844 113.844L227.768 113.35L228.011 113.313C230.203 112.977 232.402 112.654 234.609 112.346L234.832 112.315C237.198 111.985 239.57 111.672 241.947 111.375L242.148 111.35L242.179 111.6L242.241 112.096L242.04 112.121C239.667 112.419 237.299 112.732 234.936 113.062L234.713 113.094C232.51 113.403 230.314 113.725 228.127 114.062L227.884 114.099L227.844 113.844ZM256.709 110.249L256.661 109.752L256.818 109.737C261.668 109.273 266.535 108.876 271.415 108.547L271.527 108.539L271.543 108.781L271.577 109.28L271.465 109.288C266.592 109.618 261.732 110.015 256.889 110.48L256.732 110.495L256.709 110.249ZM286.217 108.254L286.197 107.755L286.263 107.752C291.168 107.558 296.08 107.432 300.996 107.372L301.016 107.372L301.019 107.611L301.025 108.111L301.005 108.111C296.096 108.171 291.19 108.298 286.293 108.492L286.227 108.495L286.217 108.254Z" fill="white"/>
<path d="M306.801 174.25V271.583" stroke="white"/>
<path d="M76.1309 277.293V374.626" stroke="white"/>
<path d="M549.384 79.2675V176.601" stroke="white"/>
<path d="M10.7739 175.469V271.601" stroke="white"/>
</g>
<defs>
<filter id="filter0_d" x="0.0991211" y="0" width="559.901" height="385" filterUnits="userSpaceOnUse" color-interpolation-filters="sRGB">
<feFlood flood-opacity="0" result="BackgroundImageFix"/>
<feColorMatrix in="SourceAlpha" type="matrix" values="0 0 0 0 0 0 0 0 0 0 0 0 0 0 0 0 0 0 127 0"/>
<feOffset/>
<feGaussianBlur stdDeviation="5"/>
<feColorMatrix type="matrix" values="0 0 0 0 1 0 0 0 0 1 0 0 0 0 1 0 0 0 1 0"/>
<feBlend mode="normal" in2="BackgroundImageFix" result="effect1_dropShadow"/>
<feBlend mode="normal" in="SourceGraphic" in2="effect1_dropShadow" result="shape"/>
</filter>
</defs>
</svg>
