<svg width="160" height="60" viewBox="0 0 160 60" fill="none" xmlns="http://www.w3.org/2000/svg">
<path fill-rule="evenodd" clip-rule="evenodd" d="M0 30C0 13.4315 13.4315 0 30 0H51V1H30C13.9837 1 1 13.9837 1 30C1 46.0163 13.9837 59 30 59H80C96.0163 59 109 46.0163 109 30C109 28.972 108.947 27.9566 108.842 26.9563C108.175 20.5604 105.43 14.7838 101.292 10.3114L102 9.60373C102.227 9.84845 102.45 10.097 102.669 10.3492C106.601 14.8813 109.197 20.6061 109.842 26.9075C109.947 27.9242 110 28.9559 110 30C110 46.5685 96.5685 60 80 60H30C13.4315 60 0 46.5685 0 30Z" fill="#979797"/>
<path fill-rule="evenodd" clip-rule="evenodd" d="M160 30C160 46.5685 146.569 60 130 60H114V59H130C146.016 59 159 46.0163 159 30C159 13.9837 146.016 1 130 1H80C63.9837 1 51 13.9837 51 30C51 31.028 51.0535 32.0434 51.1578 33.0437C51.8247 39.4396 54.5699 45.2162 58.7076 49.6886L58 50.3963C57.773 50.1515 57.5501 49.903 57.3312 49.6508C53.3992 45.1187 50.803 39.3939 50.1575 33.0925C50.0534 32.0758 50 31.0441 50 30C50 13.4315 63.4315 0 80 0H130C146.569 0 160 13.4315 160 30Z" fill="#979797"/>
</svg>
